G04 #@! TF.GenerationSoftware,KiCad,Pcbnew,8.0.1*
G04 #@! TF.CreationDate,2026-03-29T21:55:52+02:00*
G04 #@! TF.ProjectId,transmiter,7472616e-736d-4697-9465-722e6b696361,rev?*
G04 #@! TF.SameCoordinates,Original*
G04 #@! TF.FileFunction,Copper,L2,Bot*
G04 #@! TF.FilePolarity,Positive*
%FSLAX46Y46*%
G04 Gerber Fmt 4.6, Leading zero omitted, Abs format (unit mm)*
G04 Created by KiCad (PCBNEW 8.0.1) date 2026-03-29 21:55:52*
%MOMM*%
%LPD*%
G01*
G04 APERTURE LIST*
G04 #@! TA.AperFunction,ComponentPad*
%ADD10C,3.800000*%
G04 #@! TD*
G04 #@! TA.AperFunction,ComponentPad*
%ADD11R,1.700000X1.700000*%
G04 #@! TD*
G04 #@! TA.AperFunction,ComponentPad*
%ADD12O,1.700000X1.700000*%
G04 #@! TD*
G04 #@! TA.AperFunction,ComponentPad*
%ADD13C,2.000000*%
G04 #@! TD*
G04 #@! TA.AperFunction,ComponentPad*
%ADD14R,2.000000X2.000000*%
G04 #@! TD*
G04 #@! TA.AperFunction,ComponentPad*
%ADD15C,1.500000*%
G04 #@! TD*
G04 #@! TA.AperFunction,ViaPad*
%ADD16C,0.600000*%
G04 #@! TD*
G04 #@! TA.AperFunction,Conductor*
%ADD17C,0.450000*%
G04 #@! TD*
G04 #@! TA.AperFunction,Conductor*
%ADD18C,0.300000*%
G04 #@! TD*
G04 APERTURE END LIST*
D10*
X133500000Y-54500000D03*
D11*
X107670000Y-55830000D03*
D12*
X105130000Y-55830000D03*
X102590000Y-55830000D03*
X100050000Y-55830000D03*
D10*
X133500000Y-104500000D03*
D13*
X86200000Y-83500000D03*
D14*
X86200000Y-78500000D03*
D10*
X85500000Y-54500000D03*
D15*
X88500000Y-64920000D03*
X88500000Y-69800000D03*
D10*
X85500000Y-104500000D03*
D11*
X119630000Y-55760000D03*
D12*
X117090000Y-55760000D03*
X114550000Y-55760000D03*
X112010000Y-55760000D03*
D16*
X100800000Y-78700000D03*
X101080000Y-63290000D03*
X123900000Y-97000000D03*
X95000000Y-103000000D03*
X94900000Y-99500000D03*
X124000000Y-92600000D03*
X108900000Y-100300000D03*
X108400000Y-91100000D03*
X113775000Y-100300000D03*
X109560000Y-59940000D03*
X99400000Y-94800000D03*
X115770000Y-71405000D03*
X117300000Y-98400000D03*
X122910000Y-68820000D03*
X123000000Y-77100000D03*
X115400000Y-70750000D03*
X113700000Y-82700000D03*
X103400000Y-103600000D03*
X109710000Y-63480000D03*
X91202500Y-78190000D03*
X103210000Y-76060000D03*
X118820000Y-68230000D03*
X101500000Y-87400000D03*
X117200000Y-81000000D03*
X128800000Y-92700000D03*
X98530000Y-91115000D03*
X101567500Y-92675000D03*
X107390000Y-74650000D03*
X132130000Y-60320000D03*
X95702500Y-75130000D03*
X109800000Y-88600000D03*
X108500000Y-93700000D03*
X103190000Y-95705000D03*
X99300000Y-75100000D03*
X128450000Y-61030000D03*
X91312500Y-75670000D03*
X96040000Y-72850000D03*
X118600000Y-77000000D03*
X95400000Y-90200000D03*
X93600000Y-88300000D03*
X128900000Y-97000000D03*
X118825000Y-66205000D03*
X97900000Y-91495000D03*
X120200000Y-86100000D03*
X120900000Y-98400000D03*
X129380000Y-58250000D03*
X97700000Y-74300000D03*
X124767500Y-78700000D03*
X101010000Y-66510000D03*
X123057500Y-78700000D03*
X109900000Y-69380000D03*
X110380000Y-70180000D03*
X98446238Y-92701238D03*
X105272500Y-89582500D03*
X116200000Y-61360000D03*
X115380000Y-68760000D03*
X114405000Y-69105000D03*
X115500000Y-59840000D03*
D17*
X124767500Y-78700000D02*
X123057500Y-78700000D01*
X101600000Y-67100000D02*
X101010000Y-66510000D01*
X101600000Y-70400000D02*
X101600000Y-67100000D01*
X97720000Y-74280000D02*
X101600000Y-70400000D01*
D18*
X109900000Y-69380000D02*
X111000000Y-68280000D01*
X111000000Y-60760000D02*
X114550000Y-57210000D01*
X111000000Y-68280000D02*
X111000000Y-60760000D01*
X114550000Y-57210000D02*
X114550000Y-55760000D01*
X117090000Y-56800000D02*
X117090000Y-55760000D01*
X112130000Y-61760000D02*
X117090000Y-56800000D01*
X110380000Y-70180000D02*
X112130000Y-68430000D01*
X112130000Y-68430000D02*
X112130000Y-61760000D01*
D17*
X99560000Y-91595000D02*
X98453762Y-92701238D01*
X98453762Y-92701238D02*
X98446238Y-92701238D01*
X103260000Y-91595000D02*
X99560000Y-91595000D01*
X105272500Y-89582500D02*
X103260000Y-91595000D01*
D18*
X115920000Y-61360000D02*
X116200000Y-61360000D01*
X115380000Y-68760000D02*
X114990000Y-68370000D01*
X114990000Y-68370000D02*
X114990000Y-62290000D01*
X114990000Y-62290000D02*
X115920000Y-61360000D01*
X113920000Y-68620000D02*
X113920000Y-61420000D01*
X113920000Y-61420000D02*
X115500000Y-59840000D01*
X114405000Y-69105000D02*
X113920000Y-68620000D01*
G04 #@! TA.AperFunction,Conductor*
G36*
X134003736Y-51500726D02*
G01*
X134293796Y-51518271D01*
X134308659Y-51520076D01*
X134590798Y-51571780D01*
X134605335Y-51575363D01*
X134879172Y-51660695D01*
X134893163Y-51666000D01*
X135154743Y-51783727D01*
X135167989Y-51790680D01*
X135413465Y-51939075D01*
X135425776Y-51947573D01*
X135651573Y-52124473D01*
X135662781Y-52134403D01*
X135865596Y-52337218D01*
X135875526Y-52348426D01*
X135995481Y-52501538D01*
X136052422Y-52574217D01*
X136060928Y-52586540D01*
X136209316Y-52832004D01*
X136216275Y-52845263D01*
X136333997Y-53106831D01*
X136339306Y-53120832D01*
X136424635Y-53394663D01*
X136428219Y-53409201D01*
X136479923Y-53691340D01*
X136481728Y-53706205D01*
X136499274Y-53996263D01*
X136499500Y-54003750D01*
X136499500Y-104996249D01*
X136499274Y-105003736D01*
X136481728Y-105293794D01*
X136479923Y-105308659D01*
X136428219Y-105590798D01*
X136424635Y-105605336D01*
X136339306Y-105879167D01*
X136333997Y-105893168D01*
X136216275Y-106154736D01*
X136209316Y-106167995D01*
X136060928Y-106413459D01*
X136052422Y-106425782D01*
X135875526Y-106651573D01*
X135865596Y-106662781D01*
X135662781Y-106865596D01*
X135651573Y-106875526D01*
X135425782Y-107052422D01*
X135413459Y-107060928D01*
X135167995Y-107209316D01*
X135154736Y-107216275D01*
X134893168Y-107333997D01*
X134879167Y-107339306D01*
X134605336Y-107424635D01*
X134590798Y-107428219D01*
X134308659Y-107479923D01*
X134293794Y-107481728D01*
X134003736Y-107499274D01*
X133996249Y-107499500D01*
X85003751Y-107499500D01*
X84996264Y-107499274D01*
X84706205Y-107481728D01*
X84691340Y-107479923D01*
X84409201Y-107428219D01*
X84394663Y-107424635D01*
X84120832Y-107339306D01*
X84106831Y-107333997D01*
X83845263Y-107216275D01*
X83832004Y-107209316D01*
X83586540Y-107060928D01*
X83574217Y-107052422D01*
X83348426Y-106875526D01*
X83337218Y-106865596D01*
X83134403Y-106662781D01*
X83124473Y-106651573D01*
X83029532Y-106530390D01*
X82947573Y-106425776D01*
X82939075Y-106413465D01*
X82790680Y-106167989D01*
X82783727Y-106154743D01*
X82666000Y-105893163D01*
X82660693Y-105879167D01*
X82575364Y-105605336D01*
X82571780Y-105590798D01*
X82520076Y-105308659D01*
X82518271Y-105293794D01*
X82500726Y-105003736D01*
X82500500Y-104996249D01*
X82500500Y-104500005D01*
X83095255Y-104500005D01*
X83114215Y-104801383D01*
X83114216Y-104801390D01*
X83170805Y-105098040D01*
X83264125Y-105385247D01*
X83264127Y-105385252D01*
X83392704Y-105658491D01*
X83392707Y-105658497D01*
X83554516Y-105913469D01*
X83635311Y-106011133D01*
X84563708Y-105082736D01*
X84660967Y-105216602D01*
X84783398Y-105339033D01*
X84917262Y-105436290D01*
X83986564Y-106366987D01*
X83986565Y-106366989D01*
X84211461Y-106530385D01*
X84211479Y-106530397D01*
X84476109Y-106675878D01*
X84476117Y-106675882D01*
X84756889Y-106787047D01*
X84756892Y-106787048D01*
X85049399Y-106862150D01*
X85348995Y-106899999D01*
X85349007Y-106900000D01*
X85650993Y-106900000D01*
X85651004Y-106899999D01*
X85950600Y-106862150D01*
X86243107Y-106787048D01*
X86243110Y-106787047D01*
X86523882Y-106675882D01*
X86523890Y-106675878D01*
X86788520Y-106530397D01*
X86788530Y-106530390D01*
X87013433Y-106366987D01*
X87013434Y-106366987D01*
X86082737Y-105436290D01*
X86216602Y-105339033D01*
X86339033Y-105216602D01*
X86436290Y-105082737D01*
X87364687Y-106011134D01*
X87445486Y-105913464D01*
X87607292Y-105658497D01*
X87607295Y-105658491D01*
X87735872Y-105385252D01*
X87735874Y-105385247D01*
X87829194Y-105098040D01*
X87885783Y-104801390D01*
X87885784Y-104801383D01*
X87904745Y-104500005D01*
X131095255Y-104500005D01*
X131114215Y-104801383D01*
X131114216Y-104801390D01*
X131170805Y-105098040D01*
X131264125Y-105385247D01*
X131264127Y-105385252D01*
X131392704Y-105658491D01*
X131392707Y-105658497D01*
X131554516Y-105913469D01*
X131635311Y-106011133D01*
X132563708Y-105082736D01*
X132660967Y-105216602D01*
X132783398Y-105339033D01*
X132917262Y-105436290D01*
X131986564Y-106366987D01*
X131986565Y-106366989D01*
X132211461Y-106530385D01*
X132211479Y-106530397D01*
X132476109Y-106675878D01*
X132476117Y-106675882D01*
X132756889Y-106787047D01*
X132756892Y-106787048D01*
X133049399Y-106862150D01*
X133348995Y-106899999D01*
X133349007Y-106900000D01*
X133650993Y-106900000D01*
X133651004Y-106899999D01*
X133950600Y-106862150D01*
X134243107Y-106787048D01*
X134243110Y-106787047D01*
X134523882Y-106675882D01*
X134523890Y-106675878D01*
X134788520Y-106530397D01*
X134788530Y-106530390D01*
X135013433Y-106366987D01*
X135013434Y-106366987D01*
X134082737Y-105436290D01*
X134216602Y-105339033D01*
X134339033Y-105216602D01*
X134436290Y-105082737D01*
X135364687Y-106011134D01*
X135445486Y-105913464D01*
X135607292Y-105658497D01*
X135607295Y-105658491D01*
X135735872Y-105385252D01*
X135735874Y-105385247D01*
X135829194Y-105098040D01*
X135885783Y-104801390D01*
X135885784Y-104801383D01*
X135904745Y-104500005D01*
X135904745Y-104499994D01*
X135885784Y-104198616D01*
X135885783Y-104198609D01*
X135829194Y-103901959D01*
X135735874Y-103614752D01*
X135735872Y-103614747D01*
X135607295Y-103341508D01*
X135607292Y-103341502D01*
X135445483Y-103086530D01*
X135364686Y-102988864D01*
X134436289Y-103917261D01*
X134339033Y-103783398D01*
X134216602Y-103660967D01*
X134082736Y-103563709D01*
X135013434Y-102633011D01*
X135013433Y-102633009D01*
X134788538Y-102469614D01*
X134788520Y-102469602D01*
X134523890Y-102324121D01*
X134523882Y-102324117D01*
X134243110Y-102212952D01*
X134243107Y-102212951D01*
X133950600Y-102137849D01*
X133651004Y-102100000D01*
X133348995Y-102100000D01*
X133049399Y-102137849D01*
X132756892Y-102212951D01*
X132756889Y-102212952D01*
X132476117Y-102324117D01*
X132476109Y-102324121D01*
X132211476Y-102469604D01*
X132211471Y-102469607D01*
X131986565Y-102633010D01*
X131986564Y-102633011D01*
X132917262Y-103563709D01*
X132783398Y-103660967D01*
X132660967Y-103783398D01*
X132563709Y-103917262D01*
X131635311Y-102988864D01*
X131554520Y-103086525D01*
X131554518Y-103086528D01*
X131392707Y-103341502D01*
X131392704Y-103341508D01*
X131264127Y-103614747D01*
X131264125Y-103614752D01*
X131170805Y-103901959D01*
X131114216Y-104198609D01*
X131114215Y-104198616D01*
X131095255Y-104499994D01*
X131095255Y-104500005D01*
X87904745Y-104500005D01*
X87904745Y-104499994D01*
X87885784Y-104198616D01*
X87885783Y-104198609D01*
X87829194Y-103901959D01*
X87735874Y-103614752D01*
X87735872Y-103614747D01*
X87607295Y-103341508D01*
X87607292Y-103341502D01*
X87445483Y-103086530D01*
X87364686Y-102988864D01*
X86436289Y-103917261D01*
X86339033Y-103783398D01*
X86216602Y-103660967D01*
X86082736Y-103563709D01*
X87013434Y-102633011D01*
X87013433Y-102633009D01*
X86788538Y-102469614D01*
X86788520Y-102469602D01*
X86523890Y-102324121D01*
X86523882Y-102324117D01*
X86243110Y-102212952D01*
X86243107Y-102212951D01*
X85950600Y-102137849D01*
X85651004Y-102100000D01*
X85348995Y-102100000D01*
X85049399Y-102137849D01*
X84756892Y-102212951D01*
X84756889Y-102212952D01*
X84476117Y-102324117D01*
X84476109Y-102324121D01*
X84211476Y-102469604D01*
X84211471Y-102469607D01*
X83986565Y-102633010D01*
X83986564Y-102633011D01*
X84917262Y-103563709D01*
X84783398Y-103660967D01*
X84660967Y-103783398D01*
X84563709Y-103917262D01*
X83635311Y-102988864D01*
X83554520Y-103086525D01*
X83554518Y-103086528D01*
X83392707Y-103341502D01*
X83392704Y-103341508D01*
X83264127Y-103614747D01*
X83264125Y-103614752D01*
X83170805Y-103901959D01*
X83114216Y-104198609D01*
X83114215Y-104198616D01*
X83095255Y-104499994D01*
X83095255Y-104500005D01*
X82500500Y-104500005D01*
X82500500Y-92701241D01*
X97640673Y-92701241D01*
X97660868Y-92880487D01*
X97660869Y-92880492D01*
X97720449Y-93050761D01*
X97816422Y-93203500D01*
X97943976Y-93331054D01*
X98096716Y-93427027D01*
X98266983Y-93486606D01*
X98266988Y-93486607D01*
X98446234Y-93506803D01*
X98446238Y-93506803D01*
X98446242Y-93506803D01*
X98625487Y-93486607D01*
X98625490Y-93486606D01*
X98625493Y-93486606D01*
X98795760Y-93427027D01*
X98948500Y-93331054D01*
X99076054Y-93203500D01*
X99172027Y-93050760D01*
X99185166Y-93013209D01*
X99214523Y-92966487D01*
X99824193Y-92356819D01*
X99885516Y-92323334D01*
X99911874Y-92320500D01*
X103331457Y-92320500D01*
X103425751Y-92301742D01*
X103471620Y-92292619D01*
X103603653Y-92237929D01*
X103722480Y-92158532D01*
X105526175Y-90354835D01*
X105572897Y-90325477D01*
X105622022Y-90308289D01*
X105774762Y-90212316D01*
X105902316Y-90084762D01*
X105998289Y-89932022D01*
X106057868Y-89761755D01*
X106078065Y-89582500D01*
X106057868Y-89403245D01*
X105998289Y-89232978D01*
X105998286Y-89232974D01*
X105902315Y-89080237D01*
X105774762Y-88952684D01*
X105622023Y-88856711D01*
X105451754Y-88797131D01*
X105451749Y-88797130D01*
X105272504Y-88776935D01*
X105272496Y-88776935D01*
X105093250Y-88797130D01*
X105093245Y-88797131D01*
X104922976Y-88856711D01*
X104770237Y-88952684D01*
X104642684Y-89080237D01*
X104546712Y-89232974D01*
X104529522Y-89282100D01*
X104500162Y-89328824D01*
X102995807Y-90833181D01*
X102934484Y-90866666D01*
X102908126Y-90869500D01*
X99488543Y-90869500D01*
X99348385Y-90897379D01*
X99348379Y-90897381D01*
X99216347Y-90952070D01*
X99097517Y-91031469D01*
X98204136Y-91924850D01*
X98157412Y-91954210D01*
X98096712Y-91975450D01*
X97943975Y-92071422D01*
X97816422Y-92198975D01*
X97720449Y-92351714D01*
X97660869Y-92521983D01*
X97660868Y-92521988D01*
X97640673Y-92701234D01*
X97640673Y-92701241D01*
X82500500Y-92701241D01*
X82500500Y-83500005D01*
X84694859Y-83500005D01*
X84715385Y-83747729D01*
X84715387Y-83747738D01*
X84776412Y-83988717D01*
X84876266Y-84216364D01*
X84976564Y-84369882D01*
X85717037Y-83629409D01*
X85734075Y-83692993D01*
X85799901Y-83807007D01*
X85892993Y-83900099D01*
X86007007Y-83965925D01*
X86070590Y-83982962D01*
X85329942Y-84723609D01*
X85376768Y-84760055D01*
X85376770Y-84760056D01*
X85595385Y-84878364D01*
X85595396Y-84878369D01*
X85830506Y-84959083D01*
X86075707Y-85000000D01*
X86324293Y-85000000D01*
X86569493Y-84959083D01*
X86804603Y-84878369D01*
X86804614Y-84878364D01*
X87023228Y-84760057D01*
X87023231Y-84760055D01*
X87070056Y-84723609D01*
X86329409Y-83982962D01*
X86392993Y-83965925D01*
X86507007Y-83900099D01*
X86600099Y-83807007D01*
X86665925Y-83692993D01*
X86682962Y-83629410D01*
X87423434Y-84369882D01*
X87523731Y-84216369D01*
X87623587Y-83988717D01*
X87684612Y-83747738D01*
X87684614Y-83747729D01*
X87705141Y-83500005D01*
X87705141Y-83499994D01*
X87684614Y-83252270D01*
X87684612Y-83252261D01*
X87623587Y-83011282D01*
X87523731Y-82783630D01*
X87423434Y-82630116D01*
X86682962Y-83370589D01*
X86665925Y-83307007D01*
X86600099Y-83192993D01*
X86507007Y-83099901D01*
X86392993Y-83034075D01*
X86329410Y-83017037D01*
X87070057Y-82276390D01*
X87070056Y-82276389D01*
X87023229Y-82239943D01*
X86804614Y-82121635D01*
X86804603Y-82121630D01*
X86569493Y-82040916D01*
X86324293Y-82000000D01*
X86075707Y-82000000D01*
X85830506Y-82040916D01*
X85595396Y-82121630D01*
X85595390Y-82121632D01*
X85376761Y-82239949D01*
X85329942Y-82276388D01*
X85329942Y-82276390D01*
X86070590Y-83017037D01*
X86007007Y-83034075D01*
X85892993Y-83099901D01*
X85799901Y-83192993D01*
X85734075Y-83307007D01*
X85717037Y-83370589D01*
X84976564Y-82630116D01*
X84876267Y-82783632D01*
X84776412Y-83011282D01*
X84715387Y-83252261D01*
X84715385Y-83252270D01*
X84694859Y-83499994D01*
X84694859Y-83500005D01*
X82500500Y-83500005D01*
X82500500Y-79547870D01*
X84699500Y-79547870D01*
X84699501Y-79547876D01*
X84705908Y-79607483D01*
X84756202Y-79742328D01*
X84756206Y-79742335D01*
X84842452Y-79857544D01*
X84842455Y-79857547D01*
X84957664Y-79943793D01*
X84957671Y-79943797D01*
X85092517Y-79994091D01*
X85092516Y-79994091D01*
X85099444Y-79994835D01*
X85152127Y-80000500D01*
X87247872Y-80000499D01*
X87307483Y-79994091D01*
X87442331Y-79943796D01*
X87557546Y-79857546D01*
X87643796Y-79742331D01*
X87694091Y-79607483D01*
X87700500Y-79547873D01*
X87700500Y-78700003D01*
X122251935Y-78700003D01*
X122272130Y-78879249D01*
X122272131Y-78879254D01*
X122331711Y-79049523D01*
X122427684Y-79202262D01*
X122555238Y-79329816D01*
X122707978Y-79425789D01*
X122878239Y-79485366D01*
X122878245Y-79485368D01*
X122878250Y-79485369D01*
X123057496Y-79505565D01*
X123057500Y-79505565D01*
X123057504Y-79505565D01*
X123236749Y-79485369D01*
X123236751Y-79485368D01*
X123236755Y-79485368D01*
X123236758Y-79485366D01*
X123236762Y-79485366D01*
X123387961Y-79432459D01*
X123428916Y-79425500D01*
X124396084Y-79425500D01*
X124437039Y-79432459D01*
X124588237Y-79485366D01*
X124588243Y-79485367D01*
X124588245Y-79485368D01*
X124588246Y-79485368D01*
X124588250Y-79485369D01*
X124767496Y-79505565D01*
X124767500Y-79505565D01*
X124767504Y-79505565D01*
X124946749Y-79485369D01*
X124946752Y-79485368D01*
X124946755Y-79485368D01*
X125117022Y-79425789D01*
X125269762Y-79329816D01*
X125397316Y-79202262D01*
X125493289Y-79049522D01*
X125552868Y-78879255D01*
X125573065Y-78700000D01*
X125552868Y-78520745D01*
X125493289Y-78350478D01*
X125397316Y-78197738D01*
X125269762Y-78070184D01*
X125117023Y-77974211D01*
X124946754Y-77914631D01*
X124946749Y-77914630D01*
X124767504Y-77894435D01*
X124767496Y-77894435D01*
X124588250Y-77914630D01*
X124588237Y-77914633D01*
X124437039Y-77967541D01*
X124396084Y-77974500D01*
X123428916Y-77974500D01*
X123387961Y-77967541D01*
X123236762Y-77914633D01*
X123236749Y-77914630D01*
X123057504Y-77894435D01*
X123057496Y-77894435D01*
X122878250Y-77914630D01*
X122878245Y-77914631D01*
X122707976Y-77974211D01*
X122555237Y-78070184D01*
X122427684Y-78197737D01*
X122331711Y-78350476D01*
X122272131Y-78520745D01*
X122272130Y-78520750D01*
X122251935Y-78699996D01*
X122251935Y-78700003D01*
X87700500Y-78700003D01*
X87700499Y-77452128D01*
X87694091Y-77392517D01*
X87643796Y-77257669D01*
X87643795Y-77257668D01*
X87643793Y-77257664D01*
X87557547Y-77142455D01*
X87557544Y-77142452D01*
X87442335Y-77056206D01*
X87442328Y-77056202D01*
X87307482Y-77005908D01*
X87307483Y-77005908D01*
X87247883Y-76999501D01*
X87247881Y-76999500D01*
X87247873Y-76999500D01*
X87247864Y-76999500D01*
X85152129Y-76999500D01*
X85152123Y-76999501D01*
X85092516Y-77005908D01*
X84957671Y-77056202D01*
X84957664Y-77056206D01*
X84842455Y-77142452D01*
X84842452Y-77142455D01*
X84756206Y-77257664D01*
X84756202Y-77257671D01*
X84705908Y-77392517D01*
X84699501Y-77452116D01*
X84699501Y-77452123D01*
X84699500Y-77452135D01*
X84699500Y-79547870D01*
X82500500Y-79547870D01*
X82500500Y-74300003D01*
X96894435Y-74300003D01*
X96914630Y-74479249D01*
X96914631Y-74479254D01*
X96974211Y-74649523D01*
X97070184Y-74802262D01*
X97197738Y-74929816D01*
X97350478Y-75025789D01*
X97520745Y-75085368D01*
X97520750Y-75085369D01*
X97699996Y-75105565D01*
X97700000Y-75105565D01*
X97700004Y-75105565D01*
X97879249Y-75085369D01*
X97879252Y-75085368D01*
X97879255Y-75085368D01*
X98049522Y-75025789D01*
X98202262Y-74929816D01*
X98329816Y-74802262D01*
X98425789Y-74649522D01*
X98442977Y-74600397D01*
X98472335Y-74553675D01*
X101522092Y-71503920D01*
X131709499Y-71503920D01*
X131738340Y-71648907D01*
X131738343Y-71648917D01*
X131794912Y-71785488D01*
X131794919Y-71785501D01*
X131877048Y-71908415D01*
X131877051Y-71908419D01*
X131981580Y-72012948D01*
X131981584Y-72012951D01*
X132104498Y-72095080D01*
X132104511Y-72095087D01*
X132241082Y-72151656D01*
X132241087Y-72151658D01*
X132241091Y-72151658D01*
X132241092Y-72151659D01*
X132386079Y-72180500D01*
X132386082Y-72180500D01*
X132533920Y-72180500D01*
X132631462Y-72161096D01*
X132678913Y-72151658D01*
X132815495Y-72095084D01*
X132938416Y-72012951D01*
X133042951Y-71908416D01*
X133125084Y-71785495D01*
X133181658Y-71648913D01*
X133210500Y-71503918D01*
X133210500Y-71356082D01*
X133210500Y-71356079D01*
X133181659Y-71211092D01*
X133181658Y-71211091D01*
X133181658Y-71211087D01*
X133181656Y-71211082D01*
X133125087Y-71074511D01*
X133125080Y-71074498D01*
X133042951Y-70951584D01*
X133042948Y-70951580D01*
X132938419Y-70847051D01*
X132938415Y-70847048D01*
X132815501Y-70764919D01*
X132815488Y-70764912D01*
X132678917Y-70708343D01*
X132678907Y-70708340D01*
X132533920Y-70679500D01*
X132533918Y-70679500D01*
X132386082Y-70679500D01*
X132386080Y-70679500D01*
X132241092Y-70708340D01*
X132241082Y-70708343D01*
X132104511Y-70764912D01*
X132104498Y-70764919D01*
X131981584Y-70847048D01*
X131981580Y-70847051D01*
X131877051Y-70951580D01*
X131877048Y-70951584D01*
X131794919Y-71074498D01*
X131794912Y-71074511D01*
X131738343Y-71211082D01*
X131738340Y-71211092D01*
X131709500Y-71356079D01*
X131709500Y-71356082D01*
X131709500Y-71503918D01*
X131709500Y-71503920D01*
X131709499Y-71503920D01*
X101522092Y-71503920D01*
X102163533Y-70862479D01*
X102228722Y-70764916D01*
X102242928Y-70743655D01*
X102257556Y-70708340D01*
X102297619Y-70611620D01*
X102306742Y-70565751D01*
X102325500Y-70471457D01*
X102325500Y-69380003D01*
X109094435Y-69380003D01*
X109114630Y-69559249D01*
X109114631Y-69559254D01*
X109174211Y-69729523D01*
X109237841Y-69830789D01*
X109270184Y-69882262D01*
X109397738Y-70009816D01*
X109516699Y-70084564D01*
X109562990Y-70136899D01*
X109573947Y-70175675D01*
X109594630Y-70359249D01*
X109594631Y-70359254D01*
X109654211Y-70529523D01*
X109748449Y-70679500D01*
X109750184Y-70682262D01*
X109877738Y-70809816D01*
X110030478Y-70905789D01*
X110161341Y-70951580D01*
X110200745Y-70965368D01*
X110200750Y-70965369D01*
X110379996Y-70985565D01*
X110380000Y-70985565D01*
X110380004Y-70985565D01*
X110559249Y-70965369D01*
X110559252Y-70965368D01*
X110559255Y-70965368D01*
X110729522Y-70905789D01*
X110882262Y-70809816D01*
X111009816Y-70682262D01*
X111105789Y-70529522D01*
X111165368Y-70359255D01*
X111166182Y-70352025D01*
X111193245Y-70287611D01*
X111201712Y-70278232D01*
X112635277Y-68844669D01*
X112706465Y-68738127D01*
X112716915Y-68712900D01*
X112726263Y-68690331D01*
X112741225Y-68654210D01*
X112755501Y-68619744D01*
X112780500Y-68494069D01*
X112780500Y-62080808D01*
X112800185Y-62013769D01*
X112816819Y-61993127D01*
X113057819Y-61752127D01*
X113119142Y-61718642D01*
X113188834Y-61723626D01*
X113244767Y-61765498D01*
X113269184Y-61830962D01*
X113269500Y-61839808D01*
X113269500Y-68684070D01*
X113283705Y-68755478D01*
X113283705Y-68755480D01*
X113294497Y-68809736D01*
X113294499Y-68809744D01*
X113308967Y-68844674D01*
X113343535Y-68928127D01*
X113411923Y-69030478D01*
X113414726Y-69034673D01*
X113414727Y-69034674D01*
X113583277Y-69203223D01*
X113616762Y-69264546D01*
X113618815Y-69277012D01*
X113619630Y-69284246D01*
X113619632Y-69284255D01*
X113679210Y-69454521D01*
X113745019Y-69559255D01*
X113775184Y-69607262D01*
X113902738Y-69734816D01*
X114055478Y-69830789D01*
X114202579Y-69882262D01*
X114225745Y-69890368D01*
X114225750Y-69890369D01*
X114404996Y-69910565D01*
X114405000Y-69910565D01*
X114405004Y-69910565D01*
X114584249Y-69890369D01*
X114584252Y-69890368D01*
X114584255Y-69890368D01*
X114754522Y-69830789D01*
X114907262Y-69734816D01*
X115034816Y-69607262D01*
X115043991Y-69592658D01*
X115096322Y-69546367D01*
X115165375Y-69535716D01*
X115189939Y-69541586D01*
X115200745Y-69545368D01*
X115200752Y-69545368D01*
X115200753Y-69545369D01*
X115379996Y-69565565D01*
X115380000Y-69565565D01*
X115380004Y-69565565D01*
X115559249Y-69545369D01*
X115559252Y-69545368D01*
X115559255Y-69545368D01*
X115729522Y-69485789D01*
X115882262Y-69389816D01*
X116009816Y-69262262D01*
X116105789Y-69109522D01*
X116165368Y-68939255D01*
X116166622Y-68928125D01*
X116185565Y-68760003D01*
X116185565Y-68759996D01*
X116165369Y-68580750D01*
X116165368Y-68580745D01*
X116105788Y-68410476D01*
X116009815Y-68257737D01*
X115882262Y-68130184D01*
X115729524Y-68034212D01*
X115729522Y-68034211D01*
X115723541Y-68032118D01*
X115666766Y-67991394D01*
X115641022Y-67926440D01*
X115640500Y-67915078D01*
X115640500Y-67103920D01*
X131709499Y-67103920D01*
X131738340Y-67248907D01*
X131738343Y-67248917D01*
X131794912Y-67385488D01*
X131794919Y-67385501D01*
X131877048Y-67508415D01*
X131877051Y-67508419D01*
X131981580Y-67612948D01*
X131981584Y-67612951D01*
X132104498Y-67695080D01*
X132104511Y-67695087D01*
X132241082Y-67751656D01*
X132241087Y-67751658D01*
X132241091Y-67751658D01*
X132241092Y-67751659D01*
X132386079Y-67780500D01*
X132386082Y-67780500D01*
X132533920Y-67780500D01*
X132631462Y-67761096D01*
X132678913Y-67751658D01*
X132815495Y-67695084D01*
X132938416Y-67612951D01*
X133042951Y-67508416D01*
X133125084Y-67385495D01*
X133181658Y-67248913D01*
X133191096Y-67201462D01*
X133210500Y-67103920D01*
X133210500Y-66956079D01*
X133181659Y-66811092D01*
X133181658Y-66811091D01*
X133181658Y-66811087D01*
X133131194Y-66689255D01*
X133125087Y-66674511D01*
X133125080Y-66674498D01*
X133042951Y-66551584D01*
X133042948Y-66551580D01*
X132938419Y-66447051D01*
X132938415Y-66447048D01*
X132815501Y-66364919D01*
X132815488Y-66364912D01*
X132678917Y-66308343D01*
X132678907Y-66308340D01*
X132533920Y-66279500D01*
X132533918Y-66279500D01*
X132386082Y-66279500D01*
X132386080Y-66279500D01*
X132241092Y-66308340D01*
X132241082Y-66308343D01*
X132104511Y-66364912D01*
X132104498Y-66364919D01*
X131981584Y-66447048D01*
X131981580Y-66447051D01*
X131877051Y-66551580D01*
X131877048Y-66551584D01*
X131794919Y-66674498D01*
X131794912Y-66674511D01*
X131738343Y-66811082D01*
X131738340Y-66811092D01*
X131709500Y-66956079D01*
X131709500Y-66956082D01*
X131709500Y-67103918D01*
X131709500Y-67103920D01*
X131709499Y-67103920D01*
X115640500Y-67103920D01*
X115640500Y-62610807D01*
X115660185Y-62543768D01*
X115676815Y-62523130D01*
X116008928Y-62191016D01*
X116070249Y-62157533D01*
X116110485Y-62155479D01*
X116191122Y-62164564D01*
X116199999Y-62165565D01*
X116200000Y-62165565D01*
X116200004Y-62165565D01*
X116379249Y-62145369D01*
X116379252Y-62145368D01*
X116379255Y-62145368D01*
X116549522Y-62085789D01*
X116702262Y-61989816D01*
X116829816Y-61862262D01*
X116925789Y-61709522D01*
X116985368Y-61539255D01*
X117005565Y-61360000D01*
X116985368Y-61180745D01*
X116925789Y-61010478D01*
X116829816Y-60857738D01*
X116702262Y-60730184D01*
X116647744Y-60695928D01*
X116549523Y-60634211D01*
X116379254Y-60574631D01*
X116379250Y-60574630D01*
X116202104Y-60554671D01*
X116137690Y-60527604D01*
X116098135Y-60470009D01*
X116095998Y-60400172D01*
X116125873Y-60348022D01*
X116125475Y-60347705D01*
X116127536Y-60345119D01*
X116128312Y-60343765D01*
X116129816Y-60342262D01*
X116225789Y-60189522D01*
X116285368Y-60019255D01*
X116305565Y-59840000D01*
X116285368Y-59660745D01*
X116225789Y-59490478D01*
X116129816Y-59337738D01*
X116002262Y-59210184D01*
X116002260Y-59210182D01*
X115886734Y-59137592D01*
X115840444Y-59085258D01*
X115829796Y-59016204D01*
X115858171Y-58952356D01*
X115865013Y-58944931D01*
X117595276Y-57214670D01*
X117666465Y-57108127D01*
X117668216Y-57103901D01*
X117695701Y-57037546D01*
X117713273Y-56995121D01*
X117757113Y-56940718D01*
X117765834Y-56935187D01*
X117767815Y-56934041D01*
X117767830Y-56934035D01*
X117961401Y-56798495D01*
X118083329Y-56676566D01*
X118144648Y-56643084D01*
X118214340Y-56648068D01*
X118270274Y-56689939D01*
X118287189Y-56720917D01*
X118336202Y-56852328D01*
X118336206Y-56852335D01*
X118422452Y-56967544D01*
X118422455Y-56967547D01*
X118537664Y-57053793D01*
X118537671Y-57053797D01*
X118672517Y-57104091D01*
X118672516Y-57104091D01*
X118679444Y-57104835D01*
X118732127Y-57110500D01*
X120527872Y-57110499D01*
X120587483Y-57104091D01*
X120722331Y-57053796D01*
X120837546Y-56967546D01*
X120923796Y-56852331D01*
X120974091Y-56717483D01*
X120980500Y-56657873D01*
X120980499Y-54862128D01*
X120974091Y-54802517D01*
X120972810Y-54799083D01*
X120923797Y-54667671D01*
X120923793Y-54667664D01*
X120837547Y-54552455D01*
X120837544Y-54552452D01*
X120767484Y-54500005D01*
X131095255Y-54500005D01*
X131114215Y-54801383D01*
X131114216Y-54801390D01*
X131170805Y-55098040D01*
X131264125Y-55385247D01*
X131264127Y-55385252D01*
X131392704Y-55658491D01*
X131392707Y-55658497D01*
X131554516Y-55913469D01*
X131635311Y-56011133D01*
X132563708Y-55082736D01*
X132660967Y-55216602D01*
X132783398Y-55339033D01*
X132917262Y-55436290D01*
X131986564Y-56366987D01*
X131986565Y-56366989D01*
X132211461Y-56530385D01*
X132211479Y-56530397D01*
X132476109Y-56675878D01*
X132476117Y-56675882D01*
X132756889Y-56787047D01*
X132756892Y-56787048D01*
X133049399Y-56862150D01*
X133348995Y-56899999D01*
X133349007Y-56900000D01*
X133650993Y-56900000D01*
X133651004Y-56899999D01*
X133950600Y-56862150D01*
X134243107Y-56787048D01*
X134243110Y-56787047D01*
X134523882Y-56675882D01*
X134523890Y-56675878D01*
X134788520Y-56530397D01*
X134788530Y-56530390D01*
X135013433Y-56366987D01*
X135013434Y-56366987D01*
X134082737Y-55436290D01*
X134216602Y-55339033D01*
X134339033Y-55216602D01*
X134436290Y-55082737D01*
X135364687Y-56011134D01*
X135445486Y-55913464D01*
X135607292Y-55658497D01*
X135607295Y-55658491D01*
X135735872Y-55385252D01*
X135735874Y-55385247D01*
X135829194Y-55098040D01*
X135885783Y-54801390D01*
X135885784Y-54801383D01*
X135904745Y-54500005D01*
X135904745Y-54499994D01*
X135885784Y-54198616D01*
X135885783Y-54198609D01*
X135829194Y-53901959D01*
X135735874Y-53614752D01*
X135735872Y-53614747D01*
X135607295Y-53341508D01*
X135607292Y-53341502D01*
X135445483Y-53086530D01*
X135364686Y-52988864D01*
X134436289Y-53917261D01*
X134339033Y-53783398D01*
X134216602Y-53660967D01*
X134082736Y-53563709D01*
X135013434Y-52633011D01*
X135013433Y-52633009D01*
X134788538Y-52469614D01*
X134788520Y-52469602D01*
X134523890Y-52324121D01*
X134523882Y-52324117D01*
X134243110Y-52212952D01*
X134243107Y-52212951D01*
X133950600Y-52137849D01*
X133651004Y-52100000D01*
X133348995Y-52100000D01*
X133049399Y-52137849D01*
X132756892Y-52212951D01*
X132756889Y-52212952D01*
X132476117Y-52324117D01*
X132476109Y-52324121D01*
X132211476Y-52469604D01*
X132211471Y-52469607D01*
X131986565Y-52633010D01*
X131986564Y-52633011D01*
X132917262Y-53563709D01*
X132783398Y-53660967D01*
X132660967Y-53783398D01*
X132563709Y-53917262D01*
X131635311Y-52988864D01*
X131554520Y-53086525D01*
X131554518Y-53086528D01*
X131392707Y-53341502D01*
X131392704Y-53341508D01*
X131264127Y-53614747D01*
X131264125Y-53614752D01*
X131170805Y-53901959D01*
X131114216Y-54198609D01*
X131114215Y-54198616D01*
X131095255Y-54499994D01*
X131095255Y-54500005D01*
X120767484Y-54500005D01*
X120722335Y-54466206D01*
X120722328Y-54466202D01*
X120587482Y-54415908D01*
X120587483Y-54415908D01*
X120527883Y-54409501D01*
X120527881Y-54409500D01*
X120527873Y-54409500D01*
X120527864Y-54409500D01*
X118732129Y-54409500D01*
X118732123Y-54409501D01*
X118672516Y-54415908D01*
X118537671Y-54466202D01*
X118537664Y-54466206D01*
X118422455Y-54552452D01*
X118422452Y-54552455D01*
X118336206Y-54667664D01*
X118336203Y-54667669D01*
X118287189Y-54799083D01*
X118245317Y-54855016D01*
X118179853Y-54879433D01*
X118111580Y-54864581D01*
X118083326Y-54843430D01*
X117961402Y-54721506D01*
X117961395Y-54721501D01*
X117767834Y-54585967D01*
X117767830Y-54585965D01*
X117703778Y-54556097D01*
X117553663Y-54486097D01*
X117553659Y-54486096D01*
X117553655Y-54486094D01*
X117325413Y-54424938D01*
X117325403Y-54424936D01*
X117090001Y-54404341D01*
X117089999Y-54404341D01*
X116854596Y-54424936D01*
X116854586Y-54424938D01*
X116626344Y-54486094D01*
X116626335Y-54486098D01*
X116412171Y-54585964D01*
X116412169Y-54585965D01*
X116218597Y-54721505D01*
X116051505Y-54888597D01*
X115921575Y-55074158D01*
X115866998Y-55117783D01*
X115797500Y-55124977D01*
X115735145Y-55093454D01*
X115718425Y-55074158D01*
X115588494Y-54888597D01*
X115421402Y-54721506D01*
X115421395Y-54721501D01*
X115227834Y-54585967D01*
X115227830Y-54585965D01*
X115163778Y-54556097D01*
X115013663Y-54486097D01*
X115013659Y-54486096D01*
X115013655Y-54486094D01*
X114785413Y-54424938D01*
X114785403Y-54424936D01*
X114550001Y-54404341D01*
X114549999Y-54404341D01*
X114314596Y-54424936D01*
X114314586Y-54424938D01*
X114086344Y-54486094D01*
X114086335Y-54486098D01*
X113872171Y-54585964D01*
X113872169Y-54585965D01*
X113678597Y-54721505D01*
X113511508Y-54888594D01*
X113381269Y-55074595D01*
X113326692Y-55118219D01*
X113257193Y-55125412D01*
X113194839Y-55093890D01*
X113178119Y-55074594D01*
X113048113Y-54888926D01*
X113048108Y-54888920D01*
X112881082Y-54721894D01*
X112687578Y-54586399D01*
X112473492Y-54486570D01*
X112473486Y-54486567D01*
X112260000Y-54429364D01*
X112260000Y-55326988D01*
X112202993Y-55294075D01*
X112075826Y-55260000D01*
X111944174Y-55260000D01*
X111817007Y-55294075D01*
X111760000Y-55326988D01*
X111760000Y-54429364D01*
X111759999Y-54429364D01*
X111546513Y-54486567D01*
X111546507Y-54486570D01*
X111332422Y-54586399D01*
X111332420Y-54586400D01*
X111138926Y-54721886D01*
X111138920Y-54721891D01*
X110971891Y-54888920D01*
X110971886Y-54888926D01*
X110836400Y-55082420D01*
X110836399Y-55082422D01*
X110736570Y-55296507D01*
X110736567Y-55296513D01*
X110679364Y-55509999D01*
X110679364Y-55510000D01*
X111576988Y-55510000D01*
X111544075Y-55567007D01*
X111510000Y-55694174D01*
X111510000Y-55825826D01*
X111544075Y-55952993D01*
X111576988Y-56010000D01*
X110679364Y-56010000D01*
X110736567Y-56223486D01*
X110736570Y-56223492D01*
X110836399Y-56437578D01*
X110971894Y-56631082D01*
X111138917Y-56798105D01*
X111332421Y-56933600D01*
X111546507Y-57033429D01*
X111546516Y-57033433D01*
X111760000Y-57090634D01*
X111760000Y-56193012D01*
X111817007Y-56225925D01*
X111944174Y-56260000D01*
X112075826Y-56260000D01*
X112202993Y-56225925D01*
X112260000Y-56193012D01*
X112260000Y-57090633D01*
X112473483Y-57033433D01*
X112473492Y-57033429D01*
X112687578Y-56933600D01*
X112881082Y-56798105D01*
X113048105Y-56631082D01*
X113178119Y-56445405D01*
X113232696Y-56401781D01*
X113302195Y-56394588D01*
X113364549Y-56426110D01*
X113381269Y-56445405D01*
X113511505Y-56631401D01*
X113678599Y-56798495D01*
X113770230Y-56862656D01*
X113771026Y-56863213D01*
X113814651Y-56917790D01*
X113821845Y-56987288D01*
X113790322Y-57049643D01*
X113787584Y-57052469D01*
X110494727Y-60345325D01*
X110494726Y-60345326D01*
X110423534Y-60451874D01*
X110374499Y-60570255D01*
X110374497Y-60570261D01*
X110349500Y-60695928D01*
X110349500Y-67959191D01*
X110329815Y-68026230D01*
X110313181Y-68046872D01*
X109801775Y-68558277D01*
X109740452Y-68591762D01*
X109727988Y-68593815D01*
X109720752Y-68594630D01*
X109720744Y-68594632D01*
X109550478Y-68654210D01*
X109397737Y-68750184D01*
X109270184Y-68877737D01*
X109174211Y-69030476D01*
X109114631Y-69200745D01*
X109114630Y-69200750D01*
X109094435Y-69379996D01*
X109094435Y-69380003D01*
X102325500Y-69380003D01*
X102325500Y-67028542D01*
X102297620Y-66888385D01*
X102297619Y-66888384D01*
X102297619Y-66888380D01*
X102242929Y-66756347D01*
X102183108Y-66666818D01*
X102163532Y-66637520D01*
X102163530Y-66637518D01*
X102163527Y-66637514D01*
X101782337Y-66256325D01*
X101752976Y-66209597D01*
X101735789Y-66160478D01*
X101735789Y-66160477D01*
X101639815Y-66007737D01*
X101512262Y-65880184D01*
X101359523Y-65784211D01*
X101189254Y-65724631D01*
X101189249Y-65724630D01*
X101010004Y-65704435D01*
X101009996Y-65704435D01*
X100830750Y-65724630D01*
X100830745Y-65724631D01*
X100660476Y-65784211D01*
X100507737Y-65880184D01*
X100380184Y-66007737D01*
X100284211Y-66160476D01*
X100224631Y-66330745D01*
X100224630Y-66330750D01*
X100204435Y-66509996D01*
X100204435Y-66510003D01*
X100224630Y-66689249D01*
X100224631Y-66689254D01*
X100284211Y-66859523D01*
X100380184Y-67012262D01*
X100507738Y-67139816D01*
X100564504Y-67175484D01*
X100660477Y-67235789D01*
X100692866Y-67247121D01*
X100709597Y-67252976D01*
X100756325Y-67282337D01*
X100838181Y-67364193D01*
X100871666Y-67425516D01*
X100874500Y-67451874D01*
X100874500Y-70048125D01*
X100854815Y-70115164D01*
X100838181Y-70135806D01*
X97446324Y-73527662D01*
X97399600Y-73557022D01*
X97350474Y-73574212D01*
X97197737Y-73670184D01*
X97070184Y-73797737D01*
X96974211Y-73950476D01*
X96914631Y-74120745D01*
X96914630Y-74120750D01*
X96894435Y-74299996D01*
X96894435Y-74300003D01*
X82500500Y-74300003D01*
X82500500Y-69800002D01*
X87244723Y-69800002D01*
X87263793Y-70017975D01*
X87263793Y-70017979D01*
X87320422Y-70229322D01*
X87320424Y-70229326D01*
X87320425Y-70229330D01*
X87343224Y-70278222D01*
X87412897Y-70427638D01*
X87412898Y-70427639D01*
X87538402Y-70606877D01*
X87693123Y-70761598D01*
X87872361Y-70887102D01*
X88070670Y-70979575D01*
X88282023Y-71036207D01*
X88464926Y-71052208D01*
X88499998Y-71055277D01*
X88500000Y-71055277D01*
X88500002Y-71055277D01*
X88528254Y-71052805D01*
X88717977Y-71036207D01*
X88929330Y-70979575D01*
X89127639Y-70887102D01*
X89306877Y-70761598D01*
X89461598Y-70606877D01*
X89587102Y-70427639D01*
X89679575Y-70229330D01*
X89736207Y-70017977D01*
X89755277Y-69800000D01*
X89736207Y-69582023D01*
X89679575Y-69370670D01*
X89587102Y-69172362D01*
X89587100Y-69172359D01*
X89587099Y-69172357D01*
X89461599Y-68993124D01*
X89396600Y-68928125D01*
X89306877Y-68838402D01*
X89127639Y-68712898D01*
X89127640Y-68712898D01*
X89127638Y-68712897D01*
X89001782Y-68654210D01*
X88929330Y-68620425D01*
X88929326Y-68620424D01*
X88929322Y-68620422D01*
X88717977Y-68563793D01*
X88500002Y-68544723D01*
X88499998Y-68544723D01*
X88354682Y-68557436D01*
X88282023Y-68563793D01*
X88282020Y-68563793D01*
X88070677Y-68620422D01*
X88070668Y-68620426D01*
X87872361Y-68712898D01*
X87872357Y-68712900D01*
X87693121Y-68838402D01*
X87538402Y-68993121D01*
X87412900Y-69172357D01*
X87412898Y-69172361D01*
X87320426Y-69370668D01*
X87320422Y-69370677D01*
X87263793Y-69582020D01*
X87263793Y-69582024D01*
X87244723Y-69799997D01*
X87244723Y-69800002D01*
X82500500Y-69800002D01*
X82500500Y-64920002D01*
X87244723Y-64920002D01*
X87263793Y-65137975D01*
X87263793Y-65137979D01*
X87320422Y-65349322D01*
X87320424Y-65349326D01*
X87320425Y-65349330D01*
X87366661Y-65448484D01*
X87412897Y-65547638D01*
X87412898Y-65547639D01*
X87538402Y-65726877D01*
X87693123Y-65881598D01*
X87872361Y-66007102D01*
X88070670Y-66099575D01*
X88282023Y-66156207D01*
X88464926Y-66172208D01*
X88499998Y-66175277D01*
X88500000Y-66175277D01*
X88500002Y-66175277D01*
X88528254Y-66172805D01*
X88717977Y-66156207D01*
X88929330Y-66099575D01*
X89127639Y-66007102D01*
X89306877Y-65881598D01*
X89461598Y-65726877D01*
X89587102Y-65547639D01*
X89679575Y-65349330D01*
X89736207Y-65137977D01*
X89755277Y-64920000D01*
X89736207Y-64702023D01*
X89679575Y-64490670D01*
X89587102Y-64292362D01*
X89587100Y-64292359D01*
X89587099Y-64292357D01*
X89461599Y-64113124D01*
X89461596Y-64113121D01*
X89306877Y-63958402D01*
X89127639Y-63832898D01*
X89127640Y-63832898D01*
X89127638Y-63832897D01*
X89028484Y-63786661D01*
X88929330Y-63740425D01*
X88929326Y-63740424D01*
X88929322Y-63740422D01*
X88717977Y-63683793D01*
X88500002Y-63664723D01*
X88499998Y-63664723D01*
X88354682Y-63677436D01*
X88282023Y-63683793D01*
X88282020Y-63683793D01*
X88070677Y-63740422D01*
X88070668Y-63740426D01*
X87872361Y-63832898D01*
X87872357Y-63832900D01*
X87693121Y-63958402D01*
X87538402Y-64113121D01*
X87412900Y-64292357D01*
X87412898Y-64292361D01*
X87320426Y-64490668D01*
X87320422Y-64490677D01*
X87263793Y-64702020D01*
X87263793Y-64702024D01*
X87244723Y-64919997D01*
X87244723Y-64920002D01*
X82500500Y-64920002D01*
X82500500Y-54500005D01*
X83095255Y-54500005D01*
X83114215Y-54801383D01*
X83114216Y-54801390D01*
X83170805Y-55098040D01*
X83264125Y-55385247D01*
X83264127Y-55385252D01*
X83392704Y-55658491D01*
X83392707Y-55658497D01*
X83554516Y-55913469D01*
X83635311Y-56011133D01*
X84563708Y-55082736D01*
X84660967Y-55216602D01*
X84783398Y-55339033D01*
X84917262Y-55436290D01*
X83986564Y-56366987D01*
X83986565Y-56366989D01*
X84211461Y-56530385D01*
X84211479Y-56530397D01*
X84476109Y-56675878D01*
X84476117Y-56675882D01*
X84756889Y-56787047D01*
X84756892Y-56787048D01*
X85049399Y-56862150D01*
X85348995Y-56899999D01*
X85349007Y-56900000D01*
X85650993Y-56900000D01*
X85651004Y-56899999D01*
X85950600Y-56862150D01*
X86243107Y-56787048D01*
X86243110Y-56787047D01*
X86523882Y-56675882D01*
X86523890Y-56675878D01*
X86788520Y-56530397D01*
X86788530Y-56530390D01*
X87013433Y-56366987D01*
X87013434Y-56366987D01*
X86726447Y-56080000D01*
X98719364Y-56080000D01*
X98776567Y-56293486D01*
X98776570Y-56293492D01*
X98876399Y-56507578D01*
X99011894Y-56701082D01*
X99178917Y-56868105D01*
X99372421Y-57003600D01*
X99586507Y-57103429D01*
X99586516Y-57103433D01*
X99800000Y-57160634D01*
X99800000Y-56263012D01*
X99857007Y-56295925D01*
X99984174Y-56330000D01*
X100115826Y-56330000D01*
X100242993Y-56295925D01*
X100300000Y-56263012D01*
X100300000Y-57160633D01*
X100513483Y-57103433D01*
X100513492Y-57103429D01*
X100727578Y-57003600D01*
X100921082Y-56868105D01*
X101088105Y-56701082D01*
X101218119Y-56515405D01*
X101272696Y-56471781D01*
X101342195Y-56464588D01*
X101404549Y-56496110D01*
X101421269Y-56515405D01*
X101551505Y-56701401D01*
X101718599Y-56868495D01*
X101812198Y-56934034D01*
X101912165Y-57004032D01*
X101912167Y-57004033D01*
X101912170Y-57004035D01*
X102126337Y-57103903D01*
X102126343Y-57103904D01*
X102126344Y-57103905D01*
X102181285Y-57118626D01*
X102354592Y-57165063D01*
X102531034Y-57180500D01*
X102589999Y-57185659D01*
X102590000Y-57185659D01*
X102590001Y-57185659D01*
X102648966Y-57180500D01*
X102825408Y-57165063D01*
X103053663Y-57103903D01*
X103267830Y-57004035D01*
X103461401Y-56868495D01*
X103628495Y-56701401D01*
X103758425Y-56515842D01*
X103813002Y-56472217D01*
X103882500Y-56465023D01*
X103944855Y-56496546D01*
X103961575Y-56515842D01*
X104091281Y-56701082D01*
X104091505Y-56701401D01*
X104258599Y-56868495D01*
X104352198Y-56934034D01*
X104452165Y-57004032D01*
X104452167Y-57004033D01*
X104452170Y-57004035D01*
X104666337Y-57103903D01*
X104666343Y-57103904D01*
X104666344Y-57103905D01*
X104721285Y-57118626D01*
X104894592Y-57165063D01*
X105071034Y-57180500D01*
X105129999Y-57185659D01*
X105130000Y-57185659D01*
X105130001Y-57185659D01*
X105188966Y-57180500D01*
X105365408Y-57165063D01*
X105593663Y-57103903D01*
X105807830Y-57004035D01*
X106001401Y-56868495D01*
X106123329Y-56746566D01*
X106184648Y-56713084D01*
X106254340Y-56718068D01*
X106310274Y-56759939D01*
X106327189Y-56790917D01*
X106376202Y-56922328D01*
X106376206Y-56922335D01*
X106462452Y-57037544D01*
X106462455Y-57037547D01*
X106577664Y-57123793D01*
X106577671Y-57123797D01*
X106712517Y-57174091D01*
X106712516Y-57174091D01*
X106719444Y-57174835D01*
X106772127Y-57180500D01*
X108567872Y-57180499D01*
X108627483Y-57174091D01*
X108762331Y-57123796D01*
X108877546Y-57037546D01*
X108963796Y-56922331D01*
X109014091Y-56787483D01*
X109020500Y-56727873D01*
X109020499Y-54932128D01*
X109014091Y-54872517D01*
X109012810Y-54869083D01*
X108963797Y-54737671D01*
X108963793Y-54737664D01*
X108877547Y-54622455D01*
X108877544Y-54622452D01*
X108762335Y-54536206D01*
X108762328Y-54536202D01*
X108627482Y-54485908D01*
X108627483Y-54485908D01*
X108567883Y-54479501D01*
X108567881Y-54479500D01*
X108567873Y-54479500D01*
X108567864Y-54479500D01*
X106772129Y-54479500D01*
X106772123Y-54479501D01*
X106712516Y-54485908D01*
X106577671Y-54536202D01*
X106577664Y-54536206D01*
X106462455Y-54622452D01*
X106462452Y-54622455D01*
X106376206Y-54737664D01*
X106376203Y-54737669D01*
X106327189Y-54869083D01*
X106285317Y-54925016D01*
X106219853Y-54949433D01*
X106151580Y-54934581D01*
X106123326Y-54913430D01*
X106001402Y-54791506D01*
X106001395Y-54791501D01*
X105807834Y-54655967D01*
X105807830Y-54655965D01*
X105807828Y-54655964D01*
X105593663Y-54556097D01*
X105593659Y-54556096D01*
X105593655Y-54556094D01*
X105365413Y-54494938D01*
X105365403Y-54494936D01*
X105130001Y-54474341D01*
X105129999Y-54474341D01*
X104894596Y-54494936D01*
X104894586Y-54494938D01*
X104666344Y-54556094D01*
X104666335Y-54556098D01*
X104452171Y-54655964D01*
X104452169Y-54655965D01*
X104258597Y-54791505D01*
X104091505Y-54958597D01*
X103961575Y-55144158D01*
X103906998Y-55187783D01*
X103837500Y-55194977D01*
X103775145Y-55163454D01*
X103758425Y-55144158D01*
X103628494Y-54958597D01*
X103461402Y-54791506D01*
X103461395Y-54791501D01*
X103267834Y-54655967D01*
X103267830Y-54655965D01*
X103267828Y-54655964D01*
X103053663Y-54556097D01*
X103053659Y-54556096D01*
X103053655Y-54556094D01*
X102825413Y-54494938D01*
X102825403Y-54494936D01*
X102590001Y-54474341D01*
X102589999Y-54474341D01*
X102354596Y-54494936D01*
X102354586Y-54494938D01*
X102126344Y-54556094D01*
X102126335Y-54556098D01*
X101912171Y-54655964D01*
X101912169Y-54655965D01*
X101718597Y-54791505D01*
X101551508Y-54958594D01*
X101421269Y-55144595D01*
X101366692Y-55188219D01*
X101297193Y-55195412D01*
X101234839Y-55163890D01*
X101218119Y-55144594D01*
X101088113Y-54958926D01*
X101088108Y-54958920D01*
X100921082Y-54791894D01*
X100727578Y-54656399D01*
X100513492Y-54556570D01*
X100513486Y-54556567D01*
X100300000Y-54499364D01*
X100300000Y-55396988D01*
X100242993Y-55364075D01*
X100115826Y-55330000D01*
X99984174Y-55330000D01*
X99857007Y-55364075D01*
X99800000Y-55396988D01*
X99800000Y-54499364D01*
X99799999Y-54499364D01*
X99586513Y-54556567D01*
X99586507Y-54556570D01*
X99372422Y-54656399D01*
X99372420Y-54656400D01*
X99178926Y-54791886D01*
X99178920Y-54791891D01*
X99011891Y-54958920D01*
X99011886Y-54958926D01*
X98876400Y-55152420D01*
X98876399Y-55152422D01*
X98776570Y-55366507D01*
X98776567Y-55366513D01*
X98719364Y-55579999D01*
X98719364Y-55580000D01*
X99616988Y-55580000D01*
X99584075Y-55637007D01*
X99550000Y-55764174D01*
X99550000Y-55895826D01*
X99584075Y-56022993D01*
X99616988Y-56080000D01*
X98719364Y-56080000D01*
X86726447Y-56080000D01*
X86082737Y-55436290D01*
X86216602Y-55339033D01*
X86339033Y-55216602D01*
X86436290Y-55082737D01*
X87364687Y-56011134D01*
X87445486Y-55913464D01*
X87607292Y-55658497D01*
X87607295Y-55658491D01*
X87735872Y-55385252D01*
X87735874Y-55385247D01*
X87829194Y-55098040D01*
X87885783Y-54801390D01*
X87885784Y-54801383D01*
X87904745Y-54500005D01*
X87904745Y-54499994D01*
X87885784Y-54198616D01*
X87885783Y-54198609D01*
X87829194Y-53901959D01*
X87735874Y-53614752D01*
X87735872Y-53614747D01*
X87607295Y-53341508D01*
X87607292Y-53341502D01*
X87445483Y-53086530D01*
X87364686Y-52988864D01*
X86436289Y-53917261D01*
X86339033Y-53783398D01*
X86216602Y-53660967D01*
X86082736Y-53563709D01*
X87013434Y-52633011D01*
X87013433Y-52633009D01*
X86788538Y-52469614D01*
X86788520Y-52469602D01*
X86523890Y-52324121D01*
X86523882Y-52324117D01*
X86243110Y-52212952D01*
X86243107Y-52212951D01*
X85950600Y-52137849D01*
X85651004Y-52100000D01*
X85348995Y-52100000D01*
X85049399Y-52137849D01*
X84756892Y-52212951D01*
X84756889Y-52212952D01*
X84476117Y-52324117D01*
X84476109Y-52324121D01*
X84211476Y-52469604D01*
X84211471Y-52469607D01*
X83986565Y-52633010D01*
X83986564Y-52633011D01*
X84917262Y-53563709D01*
X84783398Y-53660967D01*
X84660967Y-53783398D01*
X84563709Y-53917262D01*
X83635311Y-52988864D01*
X83554520Y-53086525D01*
X83554518Y-53086528D01*
X83392707Y-53341502D01*
X83392704Y-53341508D01*
X83264127Y-53614747D01*
X83264125Y-53614752D01*
X83170805Y-53901959D01*
X83114216Y-54198609D01*
X83114215Y-54198616D01*
X83095255Y-54499994D01*
X83095255Y-54500005D01*
X82500500Y-54500005D01*
X82500500Y-54003750D01*
X82500726Y-53996263D01*
X82518271Y-53706205D01*
X82520076Y-53691340D01*
X82534112Y-53614752D01*
X82571780Y-53409197D01*
X82575364Y-53394663D01*
X82652096Y-53148422D01*
X82660696Y-53120822D01*
X82665998Y-53106841D01*
X82783731Y-52845249D01*
X82790676Y-52832016D01*
X82939080Y-52586526D01*
X82947567Y-52574230D01*
X83124480Y-52348417D01*
X83134395Y-52337226D01*
X83337226Y-52134395D01*
X83348417Y-52124480D01*
X83574230Y-51947567D01*
X83586526Y-51939080D01*
X83832016Y-51790676D01*
X83845249Y-51783731D01*
X84106841Y-51665998D01*
X84120822Y-51660696D01*
X84394668Y-51575362D01*
X84409197Y-51571780D01*
X84691344Y-51520075D01*
X84706201Y-51518271D01*
X84996264Y-51500726D01*
X85003751Y-51500500D01*
X85065892Y-51500500D01*
X133934108Y-51500500D01*
X133996249Y-51500500D01*
X134003736Y-51500726D01*
G37*
G04 #@! TD.AperFunction*
M02*
