%TF.GenerationSoftware,KiCad,Pcbnew,8.0.1*%
%TF.CreationDate,2026-03-29T21:54:50+02:00*%
%TF.ProjectId,transmiter,7472616e-736d-4697-9465-722e6b696361,rev?*%
%TF.SameCoordinates,Original*%
%TF.FileFunction,Drillmap*%
%TF.FilePolarity,Positive*%
%FSLAX45Y45*%
G04 Gerber Fmt 4.5, Leading zero omitted, Abs format (unit mm)*
G04 Created by KiCad (PCBNEW 8.0.1) date 2026-03-29 21:54:50*
%MOMM*%
%LPD*%
G01*
G04 APERTURE LIST*
%ADD10C,0.050000*%
%ADD11C,0.200000*%
%ADD12C,0.100000*%
G04 APERTURE END LIST*
D10*
X8200000Y-10500000D02*
X8200000Y-5400000D01*
X13700000Y-10500000D02*
G75*
G02*
X13400000Y-10800000I-300000J0D01*
G01*
X13700000Y-5400000D02*
X13700000Y-10500000D01*
X8500000Y-5100000D02*
X13400000Y-5100000D01*
X13400000Y-5100000D02*
G75*
G02*
X13700000Y-5400000I0J-300000D01*
G01*
X8500000Y-10800000D02*
G75*
G02*
X8200000Y-10500000I0J300000D01*
G01*
X8200000Y-5400000D02*
G75*
G02*
X8500000Y-5100000I300000J0D01*
G01*
X13400000Y-10800000D02*
X8500000Y-10800000D01*
D11*
D12*
X13196000Y-6653000D02*
X13296000Y-6753000D01*
X13296000Y-6653000D02*
X13196000Y-6753000D01*
X13196000Y-7093000D02*
X13296000Y-7193000D01*
X13296000Y-7093000D02*
X13196000Y-7193000D01*
D11*
X8458277Y-11113984D02*
X8458277Y-10913984D01*
X8458277Y-10913984D02*
X8505896Y-10913984D01*
X8505896Y-10913984D02*
X8534467Y-10923508D01*
X8534467Y-10923508D02*
X8553515Y-10942555D01*
X8553515Y-10942555D02*
X8563039Y-10961603D01*
X8563039Y-10961603D02*
X8572563Y-10999698D01*
X8572563Y-10999698D02*
X8572563Y-11028270D01*
X8572563Y-11028270D02*
X8563039Y-11066365D01*
X8563039Y-11066365D02*
X8553515Y-11085412D01*
X8553515Y-11085412D02*
X8534467Y-11104460D01*
X8534467Y-11104460D02*
X8505896Y-11113984D01*
X8505896Y-11113984D02*
X8458277Y-11113984D01*
X8658277Y-11113984D02*
X8658277Y-10980650D01*
X8658277Y-11018746D02*
X8667801Y-10999698D01*
X8667801Y-10999698D02*
X8677324Y-10990174D01*
X8677324Y-10990174D02*
X8696372Y-10980650D01*
X8696372Y-10980650D02*
X8715420Y-10980650D01*
X8782086Y-11113984D02*
X8782086Y-10980650D01*
X8782086Y-10913984D02*
X8772563Y-10923508D01*
X8772563Y-10923508D02*
X8782086Y-10933031D01*
X8782086Y-10933031D02*
X8791610Y-10923508D01*
X8791610Y-10923508D02*
X8782086Y-10913984D01*
X8782086Y-10913984D02*
X8782086Y-10933031D01*
X8905896Y-11113984D02*
X8886848Y-11104460D01*
X8886848Y-11104460D02*
X8877324Y-11085412D01*
X8877324Y-11085412D02*
X8877324Y-10913984D01*
X9010658Y-11113984D02*
X8991610Y-11104460D01*
X8991610Y-11104460D02*
X8982086Y-11085412D01*
X8982086Y-11085412D02*
X8982086Y-10913984D01*
X9239229Y-11113984D02*
X9239229Y-10913984D01*
X9239229Y-10913984D02*
X9305896Y-11056841D01*
X9305896Y-11056841D02*
X9372563Y-10913984D01*
X9372563Y-10913984D02*
X9372563Y-11113984D01*
X9553515Y-11113984D02*
X9553515Y-11009222D01*
X9553515Y-11009222D02*
X9543991Y-10990174D01*
X9543991Y-10990174D02*
X9524944Y-10980650D01*
X9524944Y-10980650D02*
X9486848Y-10980650D01*
X9486848Y-10980650D02*
X9467801Y-10990174D01*
X9553515Y-11104460D02*
X9534467Y-11113984D01*
X9534467Y-11113984D02*
X9486848Y-11113984D01*
X9486848Y-11113984D02*
X9467801Y-11104460D01*
X9467801Y-11104460D02*
X9458277Y-11085412D01*
X9458277Y-11085412D02*
X9458277Y-11066365D01*
X9458277Y-11066365D02*
X9467801Y-11047317D01*
X9467801Y-11047317D02*
X9486848Y-11037793D01*
X9486848Y-11037793D02*
X9534467Y-11037793D01*
X9534467Y-11037793D02*
X9553515Y-11028270D01*
X9648753Y-10980650D02*
X9648753Y-11180650D01*
X9648753Y-10990174D02*
X9667801Y-10980650D01*
X9667801Y-10980650D02*
X9705896Y-10980650D01*
X9705896Y-10980650D02*
X9724944Y-10990174D01*
X9724944Y-10990174D02*
X9734467Y-10999698D01*
X9734467Y-10999698D02*
X9743991Y-11018746D01*
X9743991Y-11018746D02*
X9743991Y-11075889D01*
X9743991Y-11075889D02*
X9734467Y-11094936D01*
X9734467Y-11094936D02*
X9724944Y-11104460D01*
X9724944Y-11104460D02*
X9705896Y-11113984D01*
X9705896Y-11113984D02*
X9667801Y-11113984D01*
X9667801Y-11113984D02*
X9648753Y-11104460D01*
X9829705Y-11094936D02*
X9839229Y-11104460D01*
X9839229Y-11104460D02*
X9829705Y-11113984D01*
X9829705Y-11113984D02*
X9820182Y-11104460D01*
X9820182Y-11104460D02*
X9829705Y-11094936D01*
X9829705Y-11094936D02*
X9829705Y-11113984D01*
X9829705Y-10990174D02*
X9839229Y-10999698D01*
X9839229Y-10999698D02*
X9829705Y-11009222D01*
X9829705Y-11009222D02*
X9820182Y-10999698D01*
X9820182Y-10999698D02*
X9829705Y-10990174D01*
X9829705Y-10990174D02*
X9829705Y-11009222D01*
D12*
X8097500Y-11392500D02*
X8197500Y-11492500D01*
X8197500Y-11392500D02*
X8097500Y-11492500D01*
D11*
X8563039Y-11533984D02*
X8448753Y-11533984D01*
X8505896Y-11533984D02*
X8505896Y-11333984D01*
X8505896Y-11333984D02*
X8486848Y-11362555D01*
X8486848Y-11362555D02*
X8467801Y-11381603D01*
X8467801Y-11381603D02*
X8448753Y-11391127D01*
X8648753Y-11514936D02*
X8658277Y-11524460D01*
X8658277Y-11524460D02*
X8648753Y-11533984D01*
X8648753Y-11533984D02*
X8639229Y-11524460D01*
X8639229Y-11524460D02*
X8648753Y-11514936D01*
X8648753Y-11514936D02*
X8648753Y-11533984D01*
X8782086Y-11333984D02*
X8801134Y-11333984D01*
X8801134Y-11333984D02*
X8820182Y-11343508D01*
X8820182Y-11343508D02*
X8829705Y-11353031D01*
X8829705Y-11353031D02*
X8839229Y-11372079D01*
X8839229Y-11372079D02*
X8848753Y-11410174D01*
X8848753Y-11410174D02*
X8848753Y-11457793D01*
X8848753Y-11457793D02*
X8839229Y-11495888D01*
X8839229Y-11495888D02*
X8829705Y-11514936D01*
X8829705Y-11514936D02*
X8820182Y-11524460D01*
X8820182Y-11524460D02*
X8801134Y-11533984D01*
X8801134Y-11533984D02*
X8782086Y-11533984D01*
X8782086Y-11533984D02*
X8763039Y-11524460D01*
X8763039Y-11524460D02*
X8753515Y-11514936D01*
X8753515Y-11514936D02*
X8743991Y-11495888D01*
X8743991Y-11495888D02*
X8734467Y-11457793D01*
X8734467Y-11457793D02*
X8734467Y-11410174D01*
X8734467Y-11410174D02*
X8743991Y-11372079D01*
X8743991Y-11372079D02*
X8753515Y-11353031D01*
X8753515Y-11353031D02*
X8763039Y-11343508D01*
X8763039Y-11343508D02*
X8782086Y-11333984D01*
X8972563Y-11333984D02*
X8991610Y-11333984D01*
X8991610Y-11333984D02*
X9010658Y-11343508D01*
X9010658Y-11343508D02*
X9020182Y-11353031D01*
X9020182Y-11353031D02*
X9029705Y-11372079D01*
X9029705Y-11372079D02*
X9039229Y-11410174D01*
X9039229Y-11410174D02*
X9039229Y-11457793D01*
X9039229Y-11457793D02*
X9029705Y-11495888D01*
X9029705Y-11495888D02*
X9020182Y-11514936D01*
X9020182Y-11514936D02*
X9010658Y-11524460D01*
X9010658Y-11524460D02*
X8991610Y-11533984D01*
X8991610Y-11533984D02*
X8972563Y-11533984D01*
X8972563Y-11533984D02*
X8953515Y-11524460D01*
X8953515Y-11524460D02*
X8943991Y-11514936D01*
X8943991Y-11514936D02*
X8934467Y-11495888D01*
X8934467Y-11495888D02*
X8924944Y-11457793D01*
X8924944Y-11457793D02*
X8924944Y-11410174D01*
X8924944Y-11410174D02*
X8934467Y-11372079D01*
X8934467Y-11372079D02*
X8943991Y-11353031D01*
X8943991Y-11353031D02*
X8953515Y-11343508D01*
X8953515Y-11343508D02*
X8972563Y-11333984D01*
X9163039Y-11333984D02*
X9182086Y-11333984D01*
X9182086Y-11333984D02*
X9201134Y-11343508D01*
X9201134Y-11343508D02*
X9210658Y-11353031D01*
X9210658Y-11353031D02*
X9220182Y-11372079D01*
X9220182Y-11372079D02*
X9229705Y-11410174D01*
X9229705Y-11410174D02*
X9229705Y-11457793D01*
X9229705Y-11457793D02*
X9220182Y-11495888D01*
X9220182Y-11495888D02*
X9210658Y-11514936D01*
X9210658Y-11514936D02*
X9201134Y-11524460D01*
X9201134Y-11524460D02*
X9182086Y-11533984D01*
X9182086Y-11533984D02*
X9163039Y-11533984D01*
X9163039Y-11533984D02*
X9143991Y-11524460D01*
X9143991Y-11524460D02*
X9134467Y-11514936D01*
X9134467Y-11514936D02*
X9124944Y-11495888D01*
X9124944Y-11495888D02*
X9115420Y-11457793D01*
X9115420Y-11457793D02*
X9115420Y-11410174D01*
X9115420Y-11410174D02*
X9124944Y-11372079D01*
X9124944Y-11372079D02*
X9134467Y-11353031D01*
X9134467Y-11353031D02*
X9143991Y-11343508D01*
X9143991Y-11343508D02*
X9163039Y-11333984D01*
X9315420Y-11533984D02*
X9315420Y-11400650D01*
X9315420Y-11419698D02*
X9324944Y-11410174D01*
X9324944Y-11410174D02*
X9343991Y-11400650D01*
X9343991Y-11400650D02*
X9372563Y-11400650D01*
X9372563Y-11400650D02*
X9391610Y-11410174D01*
X9391610Y-11410174D02*
X9401134Y-11429222D01*
X9401134Y-11429222D02*
X9401134Y-11533984D01*
X9401134Y-11429222D02*
X9410658Y-11410174D01*
X9410658Y-11410174D02*
X9429705Y-11400650D01*
X9429705Y-11400650D02*
X9458277Y-11400650D01*
X9458277Y-11400650D02*
X9477325Y-11410174D01*
X9477325Y-11410174D02*
X9486848Y-11429222D01*
X9486848Y-11429222D02*
X9486848Y-11533984D01*
X9582086Y-11533984D02*
X9582086Y-11400650D01*
X9582086Y-11419698D02*
X9591610Y-11410174D01*
X9591610Y-11410174D02*
X9610658Y-11400650D01*
X9610658Y-11400650D02*
X9639229Y-11400650D01*
X9639229Y-11400650D02*
X9658277Y-11410174D01*
X9658277Y-11410174D02*
X9667801Y-11429222D01*
X9667801Y-11429222D02*
X9667801Y-11533984D01*
X9667801Y-11429222D02*
X9677325Y-11410174D01*
X9677325Y-11410174D02*
X9696372Y-11400650D01*
X9696372Y-11400650D02*
X9724944Y-11400650D01*
X9724944Y-11400650D02*
X9743991Y-11410174D01*
X9743991Y-11410174D02*
X9753515Y-11429222D01*
X9753515Y-11429222D02*
X9753515Y-11533984D01*
X10143991Y-11324460D02*
X9972563Y-11581603D01*
X10401134Y-11333984D02*
X10420182Y-11333984D01*
X10420182Y-11333984D02*
X10439229Y-11343508D01*
X10439229Y-11343508D02*
X10448753Y-11353031D01*
X10448753Y-11353031D02*
X10458277Y-11372079D01*
X10458277Y-11372079D02*
X10467801Y-11410174D01*
X10467801Y-11410174D02*
X10467801Y-11457793D01*
X10467801Y-11457793D02*
X10458277Y-11495888D01*
X10458277Y-11495888D02*
X10448753Y-11514936D01*
X10448753Y-11514936D02*
X10439229Y-11524460D01*
X10439229Y-11524460D02*
X10420182Y-11533984D01*
X10420182Y-11533984D02*
X10401134Y-11533984D01*
X10401134Y-11533984D02*
X10382087Y-11524460D01*
X10382087Y-11524460D02*
X10372563Y-11514936D01*
X10372563Y-11514936D02*
X10363039Y-11495888D01*
X10363039Y-11495888D02*
X10353515Y-11457793D01*
X10353515Y-11457793D02*
X10353515Y-11410174D01*
X10353515Y-11410174D02*
X10363039Y-11372079D01*
X10363039Y-11372079D02*
X10372563Y-11353031D01*
X10372563Y-11353031D02*
X10382087Y-11343508D01*
X10382087Y-11343508D02*
X10401134Y-11333984D01*
X10553515Y-11514936D02*
X10563039Y-11524460D01*
X10563039Y-11524460D02*
X10553515Y-11533984D01*
X10553515Y-11533984D02*
X10543991Y-11524460D01*
X10543991Y-11524460D02*
X10553515Y-11514936D01*
X10553515Y-11514936D02*
X10553515Y-11533984D01*
X10686848Y-11333984D02*
X10705896Y-11333984D01*
X10705896Y-11333984D02*
X10724944Y-11343508D01*
X10724944Y-11343508D02*
X10734468Y-11353031D01*
X10734468Y-11353031D02*
X10743991Y-11372079D01*
X10743991Y-11372079D02*
X10753515Y-11410174D01*
X10753515Y-11410174D02*
X10753515Y-11457793D01*
X10753515Y-11457793D02*
X10743991Y-11495888D01*
X10743991Y-11495888D02*
X10734468Y-11514936D01*
X10734468Y-11514936D02*
X10724944Y-11524460D01*
X10724944Y-11524460D02*
X10705896Y-11533984D01*
X10705896Y-11533984D02*
X10686848Y-11533984D01*
X10686848Y-11533984D02*
X10667801Y-11524460D01*
X10667801Y-11524460D02*
X10658277Y-11514936D01*
X10658277Y-11514936D02*
X10648753Y-11495888D01*
X10648753Y-11495888D02*
X10639229Y-11457793D01*
X10639229Y-11457793D02*
X10639229Y-11410174D01*
X10639229Y-11410174D02*
X10648753Y-11372079D01*
X10648753Y-11372079D02*
X10658277Y-11353031D01*
X10658277Y-11353031D02*
X10667801Y-11343508D01*
X10667801Y-11343508D02*
X10686848Y-11333984D01*
X10820182Y-11333984D02*
X10943991Y-11333984D01*
X10943991Y-11333984D02*
X10877325Y-11410174D01*
X10877325Y-11410174D02*
X10905896Y-11410174D01*
X10905896Y-11410174D02*
X10924944Y-11419698D01*
X10924944Y-11419698D02*
X10934468Y-11429222D01*
X10934468Y-11429222D02*
X10943991Y-11448269D01*
X10943991Y-11448269D02*
X10943991Y-11495888D01*
X10943991Y-11495888D02*
X10934468Y-11514936D01*
X10934468Y-11514936D02*
X10924944Y-11524460D01*
X10924944Y-11524460D02*
X10905896Y-11533984D01*
X10905896Y-11533984D02*
X10848753Y-11533984D01*
X10848753Y-11533984D02*
X10829706Y-11524460D01*
X10829706Y-11524460D02*
X10820182Y-11514936D01*
X11039229Y-11533984D02*
X11077325Y-11533984D01*
X11077325Y-11533984D02*
X11096372Y-11524460D01*
X11096372Y-11524460D02*
X11105896Y-11514936D01*
X11105896Y-11514936D02*
X11124944Y-11486365D01*
X11124944Y-11486365D02*
X11134468Y-11448269D01*
X11134468Y-11448269D02*
X11134468Y-11372079D01*
X11134468Y-11372079D02*
X11124944Y-11353031D01*
X11124944Y-11353031D02*
X11115420Y-11343508D01*
X11115420Y-11343508D02*
X11096372Y-11333984D01*
X11096372Y-11333984D02*
X11058277Y-11333984D01*
X11058277Y-11333984D02*
X11039229Y-11343508D01*
X11039229Y-11343508D02*
X11029706Y-11353031D01*
X11029706Y-11353031D02*
X11020182Y-11372079D01*
X11020182Y-11372079D02*
X11020182Y-11419698D01*
X11020182Y-11419698D02*
X11029706Y-11438746D01*
X11029706Y-11438746D02*
X11039229Y-11448269D01*
X11039229Y-11448269D02*
X11058277Y-11457793D01*
X11058277Y-11457793D02*
X11096372Y-11457793D01*
X11096372Y-11457793D02*
X11115420Y-11448269D01*
X11115420Y-11448269D02*
X11124944Y-11438746D01*
X11124944Y-11438746D02*
X11134468Y-11419698D01*
X11305896Y-11400650D02*
X11305896Y-11533984D01*
X11258277Y-11324460D02*
X11210658Y-11467317D01*
X11210658Y-11467317D02*
X11334467Y-11467317D01*
X11401134Y-11333984D02*
X11401134Y-11372079D01*
X11477325Y-11333984D02*
X11477325Y-11372079D01*
X11772563Y-11610174D02*
X11763039Y-11600650D01*
X11763039Y-11600650D02*
X11743991Y-11572079D01*
X11743991Y-11572079D02*
X11734468Y-11553031D01*
X11734468Y-11553031D02*
X11724944Y-11524460D01*
X11724944Y-11524460D02*
X11715420Y-11476841D01*
X11715420Y-11476841D02*
X11715420Y-11438746D01*
X11715420Y-11438746D02*
X11724944Y-11391127D01*
X11724944Y-11391127D02*
X11734468Y-11362555D01*
X11734468Y-11362555D02*
X11743991Y-11343508D01*
X11743991Y-11343508D02*
X11763039Y-11314936D01*
X11763039Y-11314936D02*
X11772563Y-11305412D01*
X11839229Y-11353031D02*
X11848753Y-11343508D01*
X11848753Y-11343508D02*
X11867801Y-11333984D01*
X11867801Y-11333984D02*
X11915420Y-11333984D01*
X11915420Y-11333984D02*
X11934468Y-11343508D01*
X11934468Y-11343508D02*
X11943991Y-11353031D01*
X11943991Y-11353031D02*
X11953515Y-11372079D01*
X11953515Y-11372079D02*
X11953515Y-11391127D01*
X11953515Y-11391127D02*
X11943991Y-11419698D01*
X11943991Y-11419698D02*
X11829706Y-11533984D01*
X11829706Y-11533984D02*
X11953515Y-11533984D01*
X12191610Y-11533984D02*
X12191610Y-11333984D01*
X12277325Y-11533984D02*
X12277325Y-11429222D01*
X12277325Y-11429222D02*
X12267801Y-11410174D01*
X12267801Y-11410174D02*
X12248753Y-11400650D01*
X12248753Y-11400650D02*
X12220182Y-11400650D01*
X12220182Y-11400650D02*
X12201134Y-11410174D01*
X12201134Y-11410174D02*
X12191610Y-11419698D01*
X12401134Y-11533984D02*
X12382087Y-11524460D01*
X12382087Y-11524460D02*
X12372563Y-11514936D01*
X12372563Y-11514936D02*
X12363039Y-11495888D01*
X12363039Y-11495888D02*
X12363039Y-11438746D01*
X12363039Y-11438746D02*
X12372563Y-11419698D01*
X12372563Y-11419698D02*
X12382087Y-11410174D01*
X12382087Y-11410174D02*
X12401134Y-11400650D01*
X12401134Y-11400650D02*
X12429706Y-11400650D01*
X12429706Y-11400650D02*
X12448753Y-11410174D01*
X12448753Y-11410174D02*
X12458277Y-11419698D01*
X12458277Y-11419698D02*
X12467801Y-11438746D01*
X12467801Y-11438746D02*
X12467801Y-11495888D01*
X12467801Y-11495888D02*
X12458277Y-11514936D01*
X12458277Y-11514936D02*
X12448753Y-11524460D01*
X12448753Y-11524460D02*
X12429706Y-11533984D01*
X12429706Y-11533984D02*
X12401134Y-11533984D01*
X12582087Y-11533984D02*
X12563039Y-11524460D01*
X12563039Y-11524460D02*
X12553515Y-11505412D01*
X12553515Y-11505412D02*
X12553515Y-11333984D01*
X12734468Y-11524460D02*
X12715420Y-11533984D01*
X12715420Y-11533984D02*
X12677325Y-11533984D01*
X12677325Y-11533984D02*
X12658277Y-11524460D01*
X12658277Y-11524460D02*
X12648753Y-11505412D01*
X12648753Y-11505412D02*
X12648753Y-11429222D01*
X12648753Y-11429222D02*
X12658277Y-11410174D01*
X12658277Y-11410174D02*
X12677325Y-11400650D01*
X12677325Y-11400650D02*
X12715420Y-11400650D01*
X12715420Y-11400650D02*
X12734468Y-11410174D01*
X12734468Y-11410174D02*
X12743991Y-11429222D01*
X12743991Y-11429222D02*
X12743991Y-11448269D01*
X12743991Y-11448269D02*
X12648753Y-11467317D01*
X12820182Y-11524460D02*
X12839230Y-11533984D01*
X12839230Y-11533984D02*
X12877325Y-11533984D01*
X12877325Y-11533984D02*
X12896372Y-11524460D01*
X12896372Y-11524460D02*
X12905896Y-11505412D01*
X12905896Y-11505412D02*
X12905896Y-11495888D01*
X12905896Y-11495888D02*
X12896372Y-11476841D01*
X12896372Y-11476841D02*
X12877325Y-11467317D01*
X12877325Y-11467317D02*
X12848753Y-11467317D01*
X12848753Y-11467317D02*
X12829706Y-11457793D01*
X12829706Y-11457793D02*
X12820182Y-11438746D01*
X12820182Y-11438746D02*
X12820182Y-11429222D01*
X12820182Y-11429222D02*
X12829706Y-11410174D01*
X12829706Y-11410174D02*
X12848753Y-11400650D01*
X12848753Y-11400650D02*
X12877325Y-11400650D01*
X12877325Y-11400650D02*
X12896372Y-11410174D01*
X12972563Y-11610174D02*
X12982087Y-11600650D01*
X12982087Y-11600650D02*
X13001134Y-11572079D01*
X13001134Y-11572079D02*
X13010658Y-11553031D01*
X13010658Y-11553031D02*
X13020182Y-11524460D01*
X13020182Y-11524460D02*
X13029706Y-11476841D01*
X13029706Y-11476841D02*
X13029706Y-11438746D01*
X13029706Y-11438746D02*
X13020182Y-11391127D01*
X13020182Y-11391127D02*
X13010658Y-11362555D01*
X13010658Y-11362555D02*
X13001134Y-11343508D01*
X13001134Y-11343508D02*
X12982087Y-11314936D01*
X12982087Y-11314936D02*
X12972563Y-11305412D01*
X13334468Y-11610174D02*
X13324944Y-11600650D01*
X13324944Y-11600650D02*
X13305896Y-11572079D01*
X13305896Y-11572079D02*
X13296372Y-11553031D01*
X13296372Y-11553031D02*
X13286849Y-11524460D01*
X13286849Y-11524460D02*
X13277325Y-11476841D01*
X13277325Y-11476841D02*
X13277325Y-11438746D01*
X13277325Y-11438746D02*
X13286849Y-11391127D01*
X13286849Y-11391127D02*
X13296372Y-11362555D01*
X13296372Y-11362555D02*
X13305896Y-11343508D01*
X13305896Y-11343508D02*
X13324944Y-11314936D01*
X13324944Y-11314936D02*
X13334468Y-11305412D01*
X13410658Y-11400650D02*
X13410658Y-11533984D01*
X13410658Y-11419698D02*
X13420182Y-11410174D01*
X13420182Y-11410174D02*
X13439230Y-11400650D01*
X13439230Y-11400650D02*
X13467801Y-11400650D01*
X13467801Y-11400650D02*
X13486849Y-11410174D01*
X13486849Y-11410174D02*
X13496372Y-11429222D01*
X13496372Y-11429222D02*
X13496372Y-11533984D01*
X13620182Y-11533984D02*
X13601134Y-11524460D01*
X13601134Y-11524460D02*
X13591611Y-11514936D01*
X13591611Y-11514936D02*
X13582087Y-11495888D01*
X13582087Y-11495888D02*
X13582087Y-11438746D01*
X13582087Y-11438746D02*
X13591611Y-11419698D01*
X13591611Y-11419698D02*
X13601134Y-11410174D01*
X13601134Y-11410174D02*
X13620182Y-11400650D01*
X13620182Y-11400650D02*
X13648753Y-11400650D01*
X13648753Y-11400650D02*
X13667801Y-11410174D01*
X13667801Y-11410174D02*
X13677325Y-11419698D01*
X13677325Y-11419698D02*
X13686849Y-11438746D01*
X13686849Y-11438746D02*
X13686849Y-11495888D01*
X13686849Y-11495888D02*
X13677325Y-11514936D01*
X13677325Y-11514936D02*
X13667801Y-11524460D01*
X13667801Y-11524460D02*
X13648753Y-11533984D01*
X13648753Y-11533984D02*
X13620182Y-11533984D01*
X13743992Y-11400650D02*
X13820182Y-11400650D01*
X13772563Y-11333984D02*
X13772563Y-11505412D01*
X13772563Y-11505412D02*
X13782087Y-11524460D01*
X13782087Y-11524460D02*
X13801134Y-11533984D01*
X13801134Y-11533984D02*
X13820182Y-11533984D01*
X14039230Y-11400650D02*
X14039230Y-11600650D01*
X14039230Y-11410174D02*
X14058277Y-11400650D01*
X14058277Y-11400650D02*
X14096373Y-11400650D01*
X14096373Y-11400650D02*
X14115420Y-11410174D01*
X14115420Y-11410174D02*
X14124944Y-11419698D01*
X14124944Y-11419698D02*
X14134468Y-11438746D01*
X14134468Y-11438746D02*
X14134468Y-11495888D01*
X14134468Y-11495888D02*
X14124944Y-11514936D01*
X14124944Y-11514936D02*
X14115420Y-11524460D01*
X14115420Y-11524460D02*
X14096373Y-11533984D01*
X14096373Y-11533984D02*
X14058277Y-11533984D01*
X14058277Y-11533984D02*
X14039230Y-11524460D01*
X14248753Y-11533984D02*
X14229706Y-11524460D01*
X14229706Y-11524460D02*
X14220182Y-11505412D01*
X14220182Y-11505412D02*
X14220182Y-11333984D01*
X14410658Y-11533984D02*
X14410658Y-11429222D01*
X14410658Y-11429222D02*
X14401134Y-11410174D01*
X14401134Y-11410174D02*
X14382087Y-11400650D01*
X14382087Y-11400650D02*
X14343992Y-11400650D01*
X14343992Y-11400650D02*
X14324944Y-11410174D01*
X14410658Y-11524460D02*
X14391611Y-11533984D01*
X14391611Y-11533984D02*
X14343992Y-11533984D01*
X14343992Y-11533984D02*
X14324944Y-11524460D01*
X14324944Y-11524460D02*
X14315420Y-11505412D01*
X14315420Y-11505412D02*
X14315420Y-11486365D01*
X14315420Y-11486365D02*
X14324944Y-11467317D01*
X14324944Y-11467317D02*
X14343992Y-11457793D01*
X14343992Y-11457793D02*
X14391611Y-11457793D01*
X14391611Y-11457793D02*
X14410658Y-11448269D01*
X14477325Y-11400650D02*
X14553515Y-11400650D01*
X14505896Y-11333984D02*
X14505896Y-11505412D01*
X14505896Y-11505412D02*
X14515420Y-11524460D01*
X14515420Y-11524460D02*
X14534468Y-11533984D01*
X14534468Y-11533984D02*
X14553515Y-11533984D01*
X14696373Y-11524460D02*
X14677325Y-11533984D01*
X14677325Y-11533984D02*
X14639230Y-11533984D01*
X14639230Y-11533984D02*
X14620182Y-11524460D01*
X14620182Y-11524460D02*
X14610658Y-11505412D01*
X14610658Y-11505412D02*
X14610658Y-11429222D01*
X14610658Y-11429222D02*
X14620182Y-11410174D01*
X14620182Y-11410174D02*
X14639230Y-11400650D01*
X14639230Y-11400650D02*
X14677325Y-11400650D01*
X14677325Y-11400650D02*
X14696373Y-11410174D01*
X14696373Y-11410174D02*
X14705896Y-11429222D01*
X14705896Y-11429222D02*
X14705896Y-11448269D01*
X14705896Y-11448269D02*
X14610658Y-11467317D01*
X14877325Y-11533984D02*
X14877325Y-11333984D01*
X14877325Y-11524460D02*
X14858277Y-11533984D01*
X14858277Y-11533984D02*
X14820182Y-11533984D01*
X14820182Y-11533984D02*
X14801134Y-11524460D01*
X14801134Y-11524460D02*
X14791611Y-11514936D01*
X14791611Y-11514936D02*
X14782087Y-11495888D01*
X14782087Y-11495888D02*
X14782087Y-11438746D01*
X14782087Y-11438746D02*
X14791611Y-11419698D01*
X14791611Y-11419698D02*
X14801134Y-11410174D01*
X14801134Y-11410174D02*
X14820182Y-11400650D01*
X14820182Y-11400650D02*
X14858277Y-11400650D01*
X14858277Y-11400650D02*
X14877325Y-11410174D01*
X14953515Y-11610174D02*
X14963039Y-11600650D01*
X14963039Y-11600650D02*
X14982087Y-11572079D01*
X14982087Y-11572079D02*
X14991611Y-11553031D01*
X14991611Y-11553031D02*
X15001134Y-11524460D01*
X15001134Y-11524460D02*
X15010658Y-11476841D01*
X15010658Y-11476841D02*
X15010658Y-11438746D01*
X15010658Y-11438746D02*
X15001134Y-11391127D01*
X15001134Y-11391127D02*
X14991611Y-11362555D01*
X14991611Y-11362555D02*
X14982087Y-11343508D01*
X14982087Y-11343508D02*
X14963039Y-11314936D01*
X14963039Y-11314936D02*
X14953515Y-11305412D01*
M02*
