G04 #@! TF.GenerationSoftware,KiCad,Pcbnew,8.0.1*
G04 #@! TF.CreationDate,2026-03-29T21:55:53+02:00*
G04 #@! TF.ProjectId,transmiter,7472616e-736d-4697-9465-722e6b696361,rev?*
G04 #@! TF.SameCoordinates,Original*
G04 #@! TF.FileFunction,Legend,Top*
G04 #@! TF.FilePolarity,Positive*
%FSLAX46Y46*%
G04 Gerber Fmt 4.6, Leading zero omitted, Abs format (unit mm)*
G04 Created by KiCad (PCBNEW 8.0.1) date 2026-03-29 21:55:53*
%MOMM*%
%LPD*%
G01*
G04 APERTURE LIST*
G04 Aperture macros list*
%AMRoundRect*
0 Rectangle with rounded corners*
0 $1 Rounding radius*
0 $2 $3 $4 $5 $6 $7 $8 $9 X,Y pos of 4 corners*
0 Add a 4 corners polygon primitive as box body*
4,1,4,$2,$3,$4,$5,$6,$7,$8,$9,$2,$3,0*
0 Add four circle primitives for the rounded corners*
1,1,$1+$1,$2,$3*
1,1,$1+$1,$4,$5*
1,1,$1+$1,$6,$7*
1,1,$1+$1,$8,$9*
0 Add four rect primitives between the rounded corners*
20,1,$1+$1,$2,$3,$4,$5,0*
20,1,$1+$1,$4,$5,$6,$7,0*
20,1,$1+$1,$6,$7,$8,$9,0*
20,1,$1+$1,$8,$9,$2,$3,0*%
G04 Aperture macros list end*
%ADD10C,0.150000*%
%ADD11C,0.100000*%
%ADD12C,0.120000*%
%ADD13RoundRect,0.237500X-0.237500X0.250000X-0.237500X-0.250000X0.237500X-0.250000X0.237500X0.250000X0*%
%ADD14RoundRect,0.237500X0.300000X0.237500X-0.300000X0.237500X-0.300000X-0.237500X0.300000X-0.237500X0*%
%ADD15RoundRect,0.155000X0.212500X0.155000X-0.212500X0.155000X-0.212500X-0.155000X0.212500X-0.155000X0*%
%ADD16C,3.800000*%
%ADD17R,1.700000X1.700000*%
%ADD18O,1.700000X1.700000*%
%ADD19RoundRect,0.237500X-0.237500X0.300000X-0.237500X-0.300000X0.237500X-0.300000X0.237500X0.300000X0*%
%ADD20RoundRect,0.237500X-0.300000X-0.237500X0.300000X-0.237500X0.300000X0.237500X-0.300000X0.237500X0*%
%ADD21RoundRect,0.125000X-0.625000X-0.125000X0.625000X-0.125000X0.625000X0.125000X-0.625000X0.125000X0*%
%ADD22RoundRect,0.125000X-0.125000X-0.625000X0.125000X-0.625000X0.125000X0.625000X-0.125000X0.625000X0*%
%ADD23RoundRect,0.237500X-0.250000X-0.237500X0.250000X-0.237500X0.250000X0.237500X-0.250000X0.237500X0*%
%ADD24RoundRect,0.155000X-0.155000X0.212500X-0.155000X-0.212500X0.155000X-0.212500X0.155000X0.212500X0*%
%ADD25R,1.000000X1.000000*%
%ADD26R,2.200000X1.050000*%
%ADD27RoundRect,0.062500X-0.375000X-0.062500X0.375000X-0.062500X0.375000X0.062500X-0.375000X0.062500X0*%
%ADD28RoundRect,0.062500X-0.062500X-0.375000X0.062500X-0.375000X0.062500X0.375000X-0.062500X0.375000X0*%
%ADD29R,2.300000X2.300000*%
%ADD30RoundRect,0.250001X-0.849999X0.462499X-0.849999X-0.462499X0.849999X-0.462499X0.849999X0.462499X0*%
%ADD31RoundRect,0.162500X-0.617500X-0.162500X0.617500X-0.162500X0.617500X0.162500X-0.617500X0.162500X0*%
%ADD32RoundRect,0.237500X0.237500X-0.300000X0.237500X0.300000X-0.237500X0.300000X-0.237500X-0.300000X0*%
%ADD33RoundRect,0.237500X0.250000X0.237500X-0.250000X0.237500X-0.250000X-0.237500X0.250000X-0.237500X0*%
%ADD34RoundRect,0.250001X-1.074999X0.462499X-1.074999X-0.462499X1.074999X-0.462499X1.074999X0.462499X0*%
%ADD35RoundRect,0.155000X-0.212500X-0.155000X0.212500X-0.155000X0.212500X0.155000X-0.212500X0.155000X0*%
%ADD36C,2.000000*%
%ADD37R,2.000000X2.000000*%
%ADD38RoundRect,0.250000X-0.325000X-0.450000X0.325000X-0.450000X0.325000X0.450000X-0.325000X0.450000X0*%
%ADD39RoundRect,0.237500X-0.287500X-0.237500X0.287500X-0.237500X0.287500X0.237500X-0.287500X0.237500X0*%
%ADD40C,1.500000*%
%ADD41RoundRect,0.150000X0.150000X-0.512500X0.150000X0.512500X-0.150000X0.512500X-0.150000X-0.512500X0*%
%ADD42RoundRect,0.375000X-0.375000X0.625000X-0.375000X-0.625000X0.375000X-0.625000X0.375000X0.625000X0*%
%ADD43RoundRect,0.500000X-1.400000X0.500000X-1.400000X-0.500000X1.400000X-0.500000X1.400000X0.500000X0*%
%ADD44C,1.000000*%
%ADD45R,2.000000X0.500000*%
%ADD46R,1.700000X2.000000*%
%ADD47RoundRect,0.237500X0.237500X-0.250000X0.237500X0.250000X-0.237500X0.250000X-0.237500X-0.250000X0*%
%ADD48R,1.750000X0.450000*%
%ADD49RoundRect,0.250000X0.325000X0.450000X-0.325000X0.450000X-0.325000X-0.450000X0.325000X-0.450000X0*%
%ADD50RoundRect,0.250000X0.250000X0.550000X-0.250000X0.550000X-0.250000X-0.550000X0.250000X-0.550000X0*%
%ADD51RoundRect,0.087500X0.087500X-0.200000X0.087500X0.200000X-0.087500X0.200000X-0.087500X-0.200000X0*%
%ADD52R,1.740000X1.450000*%
%ADD53RoundRect,0.162500X-0.162500X0.617500X-0.162500X-0.617500X0.162500X-0.617500X0.162500X0.617500X0*%
G04 APERTURE END LIST*
D10*
X102579160Y-59102200D02*
X102722017Y-59149819D01*
X102722017Y-59149819D02*
X102960112Y-59149819D01*
X102960112Y-59149819D02*
X103055350Y-59102200D01*
X103055350Y-59102200D02*
X103102969Y-59054580D01*
X103102969Y-59054580D02*
X103150588Y-58959342D01*
X103150588Y-58959342D02*
X103150588Y-58864104D01*
X103150588Y-58864104D02*
X103102969Y-58768866D01*
X103102969Y-58768866D02*
X103055350Y-58721247D01*
X103055350Y-58721247D02*
X102960112Y-58673628D01*
X102960112Y-58673628D02*
X102769636Y-58626009D01*
X102769636Y-58626009D02*
X102674398Y-58578390D01*
X102674398Y-58578390D02*
X102626779Y-58530771D01*
X102626779Y-58530771D02*
X102579160Y-58435533D01*
X102579160Y-58435533D02*
X102579160Y-58340295D01*
X102579160Y-58340295D02*
X102626779Y-58245057D01*
X102626779Y-58245057D02*
X102674398Y-58197438D01*
X102674398Y-58197438D02*
X102769636Y-58149819D01*
X102769636Y-58149819D02*
X103007731Y-58149819D01*
X103007731Y-58149819D02*
X103150588Y-58197438D01*
X103483922Y-58149819D02*
X103722017Y-59149819D01*
X103722017Y-59149819D02*
X103912493Y-58435533D01*
X103912493Y-58435533D02*
X104102969Y-59149819D01*
X104102969Y-59149819D02*
X104341065Y-58149819D01*
X104722017Y-59149819D02*
X104722017Y-58149819D01*
X104722017Y-58149819D02*
X104960112Y-58149819D01*
X104960112Y-58149819D02*
X105102969Y-58197438D01*
X105102969Y-58197438D02*
X105198207Y-58292676D01*
X105198207Y-58292676D02*
X105245826Y-58387914D01*
X105245826Y-58387914D02*
X105293445Y-58578390D01*
X105293445Y-58578390D02*
X105293445Y-58721247D01*
X105293445Y-58721247D02*
X105245826Y-58911723D01*
X105245826Y-58911723D02*
X105198207Y-59006961D01*
X105198207Y-59006961D02*
X105102969Y-59102200D01*
X105102969Y-59102200D02*
X104960112Y-59149819D01*
X104960112Y-59149819D02*
X104722017Y-59149819D01*
X112986779Y-57939819D02*
X112986779Y-58749342D01*
X112986779Y-58749342D02*
X113034398Y-58844580D01*
X113034398Y-58844580D02*
X113082017Y-58892200D01*
X113082017Y-58892200D02*
X113177255Y-58939819D01*
X113177255Y-58939819D02*
X113367731Y-58939819D01*
X113367731Y-58939819D02*
X113462969Y-58892200D01*
X113462969Y-58892200D02*
X113510588Y-58844580D01*
X113510588Y-58844580D02*
X113558207Y-58749342D01*
X113558207Y-58749342D02*
X113558207Y-57939819D01*
X113986779Y-58654104D02*
X114462969Y-58654104D01*
X113891541Y-58939819D02*
X114224874Y-57939819D01*
X114224874Y-57939819D02*
X114558207Y-58939819D01*
X115462969Y-58939819D02*
X115129636Y-58463628D01*
X114891541Y-58939819D02*
X114891541Y-57939819D01*
X114891541Y-57939819D02*
X115272493Y-57939819D01*
X115272493Y-57939819D02*
X115367731Y-57987438D01*
X115367731Y-57987438D02*
X115415350Y-58035057D01*
X115415350Y-58035057D02*
X115462969Y-58130295D01*
X115462969Y-58130295D02*
X115462969Y-58273152D01*
X115462969Y-58273152D02*
X115415350Y-58368390D01*
X115415350Y-58368390D02*
X115367731Y-58416009D01*
X115367731Y-58416009D02*
X115272493Y-58463628D01*
X115272493Y-58463628D02*
X114891541Y-58463628D01*
X115748684Y-57939819D02*
X116320112Y-57939819D01*
X116034398Y-58939819D02*
X116034398Y-57939819D01*
X132654819Y-79666666D02*
X132178628Y-79999999D01*
X132654819Y-80238094D02*
X131654819Y-80238094D01*
X131654819Y-80238094D02*
X131654819Y-79857142D01*
X131654819Y-79857142D02*
X131702438Y-79761904D01*
X131702438Y-79761904D02*
X131750057Y-79714285D01*
X131750057Y-79714285D02*
X131845295Y-79666666D01*
X131845295Y-79666666D02*
X131988152Y-79666666D01*
X131988152Y-79666666D02*
X132083390Y-79714285D01*
X132083390Y-79714285D02*
X132131009Y-79761904D01*
X132131009Y-79761904D02*
X132178628Y-79857142D01*
X132178628Y-79857142D02*
X132178628Y-80238094D01*
X132083390Y-79095237D02*
X132035771Y-79190475D01*
X132035771Y-79190475D02*
X131988152Y-79238094D01*
X131988152Y-79238094D02*
X131892914Y-79285713D01*
X131892914Y-79285713D02*
X131845295Y-79285713D01*
X131845295Y-79285713D02*
X131750057Y-79238094D01*
X131750057Y-79238094D02*
X131702438Y-79190475D01*
X131702438Y-79190475D02*
X131654819Y-79095237D01*
X131654819Y-79095237D02*
X131654819Y-78904761D01*
X131654819Y-78904761D02*
X131702438Y-78809523D01*
X131702438Y-78809523D02*
X131750057Y-78761904D01*
X131750057Y-78761904D02*
X131845295Y-78714285D01*
X131845295Y-78714285D02*
X131892914Y-78714285D01*
X131892914Y-78714285D02*
X131988152Y-78761904D01*
X131988152Y-78761904D02*
X132035771Y-78809523D01*
X132035771Y-78809523D02*
X132083390Y-78904761D01*
X132083390Y-78904761D02*
X132083390Y-79095237D01*
X132083390Y-79095237D02*
X132131009Y-79190475D01*
X132131009Y-79190475D02*
X132178628Y-79238094D01*
X132178628Y-79238094D02*
X132273866Y-79285713D01*
X132273866Y-79285713D02*
X132464342Y-79285713D01*
X132464342Y-79285713D02*
X132559580Y-79238094D01*
X132559580Y-79238094D02*
X132607200Y-79190475D01*
X132607200Y-79190475D02*
X132654819Y-79095237D01*
X132654819Y-79095237D02*
X132654819Y-78904761D01*
X132654819Y-78904761D02*
X132607200Y-78809523D01*
X132607200Y-78809523D02*
X132559580Y-78761904D01*
X132559580Y-78761904D02*
X132464342Y-78714285D01*
X132464342Y-78714285D02*
X132273866Y-78714285D01*
X132273866Y-78714285D02*
X132178628Y-78761904D01*
X132178628Y-78761904D02*
X132131009Y-78809523D01*
X132131009Y-78809523D02*
X132083390Y-78904761D01*
X111953333Y-75379580D02*
X111905714Y-75427200D01*
X111905714Y-75427200D02*
X111762857Y-75474819D01*
X111762857Y-75474819D02*
X111667619Y-75474819D01*
X111667619Y-75474819D02*
X111524762Y-75427200D01*
X111524762Y-75427200D02*
X111429524Y-75331961D01*
X111429524Y-75331961D02*
X111381905Y-75236723D01*
X111381905Y-75236723D02*
X111334286Y-75046247D01*
X111334286Y-75046247D02*
X111334286Y-74903390D01*
X111334286Y-74903390D02*
X111381905Y-74712914D01*
X111381905Y-74712914D02*
X111429524Y-74617676D01*
X111429524Y-74617676D02*
X111524762Y-74522438D01*
X111524762Y-74522438D02*
X111667619Y-74474819D01*
X111667619Y-74474819D02*
X111762857Y-74474819D01*
X111762857Y-74474819D02*
X111905714Y-74522438D01*
X111905714Y-74522438D02*
X111953333Y-74570057D01*
X112286667Y-74474819D02*
X112953333Y-74474819D01*
X112953333Y-74474819D02*
X112524762Y-75474819D01*
X107877142Y-91459580D02*
X107829523Y-91507200D01*
X107829523Y-91507200D02*
X107686666Y-91554819D01*
X107686666Y-91554819D02*
X107591428Y-91554819D01*
X107591428Y-91554819D02*
X107448571Y-91507200D01*
X107448571Y-91507200D02*
X107353333Y-91411961D01*
X107353333Y-91411961D02*
X107305714Y-91316723D01*
X107305714Y-91316723D02*
X107258095Y-91126247D01*
X107258095Y-91126247D02*
X107258095Y-90983390D01*
X107258095Y-90983390D02*
X107305714Y-90792914D01*
X107305714Y-90792914D02*
X107353333Y-90697676D01*
X107353333Y-90697676D02*
X107448571Y-90602438D01*
X107448571Y-90602438D02*
X107591428Y-90554819D01*
X107591428Y-90554819D02*
X107686666Y-90554819D01*
X107686666Y-90554819D02*
X107829523Y-90602438D01*
X107829523Y-90602438D02*
X107877142Y-90650057D01*
X108258095Y-90650057D02*
X108305714Y-90602438D01*
X108305714Y-90602438D02*
X108400952Y-90554819D01*
X108400952Y-90554819D02*
X108639047Y-90554819D01*
X108639047Y-90554819D02*
X108734285Y-90602438D01*
X108734285Y-90602438D02*
X108781904Y-90650057D01*
X108781904Y-90650057D02*
X108829523Y-90745295D01*
X108829523Y-90745295D02*
X108829523Y-90840533D01*
X108829523Y-90840533D02*
X108781904Y-90983390D01*
X108781904Y-90983390D02*
X108210476Y-91554819D01*
X108210476Y-91554819D02*
X108829523Y-91554819D01*
X109781904Y-91554819D02*
X109210476Y-91554819D01*
X109496190Y-91554819D02*
X109496190Y-90554819D01*
X109496190Y-90554819D02*
X109400952Y-90697676D01*
X109400952Y-90697676D02*
X109305714Y-90792914D01*
X109305714Y-90792914D02*
X109210476Y-90840533D01*
X132748095Y-57974819D02*
X132748095Y-56974819D01*
X132748095Y-57451009D02*
X133319523Y-57451009D01*
X133319523Y-57974819D02*
X133319523Y-56974819D01*
X133748095Y-57070057D02*
X133795714Y-57022438D01*
X133795714Y-57022438D02*
X133890952Y-56974819D01*
X133890952Y-56974819D02*
X134129047Y-56974819D01*
X134129047Y-56974819D02*
X134224285Y-57022438D01*
X134224285Y-57022438D02*
X134271904Y-57070057D01*
X134271904Y-57070057D02*
X134319523Y-57165295D01*
X134319523Y-57165295D02*
X134319523Y-57260533D01*
X134319523Y-57260533D02*
X134271904Y-57403390D01*
X134271904Y-57403390D02*
X133700476Y-57974819D01*
X133700476Y-57974819D02*
X134319523Y-57974819D01*
X108126666Y-52534819D02*
X108126666Y-53249104D01*
X108126666Y-53249104D02*
X108079047Y-53391961D01*
X108079047Y-53391961D02*
X107983809Y-53487200D01*
X107983809Y-53487200D02*
X107840952Y-53534819D01*
X107840952Y-53534819D02*
X107745714Y-53534819D01*
X108507619Y-52534819D02*
X109126666Y-52534819D01*
X109126666Y-52534819D02*
X108793333Y-52915771D01*
X108793333Y-52915771D02*
X108936190Y-52915771D01*
X108936190Y-52915771D02*
X109031428Y-52963390D01*
X109031428Y-52963390D02*
X109079047Y-53011009D01*
X109079047Y-53011009D02*
X109126666Y-53106247D01*
X109126666Y-53106247D02*
X109126666Y-53344342D01*
X109126666Y-53344342D02*
X109079047Y-53439580D01*
X109079047Y-53439580D02*
X109031428Y-53487200D01*
X109031428Y-53487200D02*
X108936190Y-53534819D01*
X108936190Y-53534819D02*
X108650476Y-53534819D01*
X108650476Y-53534819D02*
X108555238Y-53487200D01*
X108555238Y-53487200D02*
X108507619Y-53439580D01*
X116257142Y-97159580D02*
X116209523Y-97207200D01*
X116209523Y-97207200D02*
X116066666Y-97254819D01*
X116066666Y-97254819D02*
X115971428Y-97254819D01*
X115971428Y-97254819D02*
X115828571Y-97207200D01*
X115828571Y-97207200D02*
X115733333Y-97111961D01*
X115733333Y-97111961D02*
X115685714Y-97016723D01*
X115685714Y-97016723D02*
X115638095Y-96826247D01*
X115638095Y-96826247D02*
X115638095Y-96683390D01*
X115638095Y-96683390D02*
X115685714Y-96492914D01*
X115685714Y-96492914D02*
X115733333Y-96397676D01*
X115733333Y-96397676D02*
X115828571Y-96302438D01*
X115828571Y-96302438D02*
X115971428Y-96254819D01*
X115971428Y-96254819D02*
X116066666Y-96254819D01*
X116066666Y-96254819D02*
X116209523Y-96302438D01*
X116209523Y-96302438D02*
X116257142Y-96350057D01*
X116638095Y-96350057D02*
X116685714Y-96302438D01*
X116685714Y-96302438D02*
X116780952Y-96254819D01*
X116780952Y-96254819D02*
X117019047Y-96254819D01*
X117019047Y-96254819D02*
X117114285Y-96302438D01*
X117114285Y-96302438D02*
X117161904Y-96350057D01*
X117161904Y-96350057D02*
X117209523Y-96445295D01*
X117209523Y-96445295D02*
X117209523Y-96540533D01*
X117209523Y-96540533D02*
X117161904Y-96683390D01*
X117161904Y-96683390D02*
X116590476Y-97254819D01*
X116590476Y-97254819D02*
X117209523Y-97254819D01*
X117590476Y-96350057D02*
X117638095Y-96302438D01*
X117638095Y-96302438D02*
X117733333Y-96254819D01*
X117733333Y-96254819D02*
X117971428Y-96254819D01*
X117971428Y-96254819D02*
X118066666Y-96302438D01*
X118066666Y-96302438D02*
X118114285Y-96350057D01*
X118114285Y-96350057D02*
X118161904Y-96445295D01*
X118161904Y-96445295D02*
X118161904Y-96540533D01*
X118161904Y-96540533D02*
X118114285Y-96683390D01*
X118114285Y-96683390D02*
X117542857Y-97254819D01*
X117542857Y-97254819D02*
X118161904Y-97254819D01*
X110007142Y-66399580D02*
X109959523Y-66447200D01*
X109959523Y-66447200D02*
X109816666Y-66494819D01*
X109816666Y-66494819D02*
X109721428Y-66494819D01*
X109721428Y-66494819D02*
X109578571Y-66447200D01*
X109578571Y-66447200D02*
X109483333Y-66351961D01*
X109483333Y-66351961D02*
X109435714Y-66256723D01*
X109435714Y-66256723D02*
X109388095Y-66066247D01*
X109388095Y-66066247D02*
X109388095Y-65923390D01*
X109388095Y-65923390D02*
X109435714Y-65732914D01*
X109435714Y-65732914D02*
X109483333Y-65637676D01*
X109483333Y-65637676D02*
X109578571Y-65542438D01*
X109578571Y-65542438D02*
X109721428Y-65494819D01*
X109721428Y-65494819D02*
X109816666Y-65494819D01*
X109816666Y-65494819D02*
X109959523Y-65542438D01*
X109959523Y-65542438D02*
X110007142Y-65590057D01*
X110388095Y-65590057D02*
X110435714Y-65542438D01*
X110435714Y-65542438D02*
X110530952Y-65494819D01*
X110530952Y-65494819D02*
X110769047Y-65494819D01*
X110769047Y-65494819D02*
X110864285Y-65542438D01*
X110864285Y-65542438D02*
X110911904Y-65590057D01*
X110911904Y-65590057D02*
X110959523Y-65685295D01*
X110959523Y-65685295D02*
X110959523Y-65780533D01*
X110959523Y-65780533D02*
X110911904Y-65923390D01*
X110911904Y-65923390D02*
X110340476Y-66494819D01*
X110340476Y-66494819D02*
X110959523Y-66494819D01*
X111435714Y-66494819D02*
X111626190Y-66494819D01*
X111626190Y-66494819D02*
X111721428Y-66447200D01*
X111721428Y-66447200D02*
X111769047Y-66399580D01*
X111769047Y-66399580D02*
X111864285Y-66256723D01*
X111864285Y-66256723D02*
X111911904Y-66066247D01*
X111911904Y-66066247D02*
X111911904Y-65685295D01*
X111911904Y-65685295D02*
X111864285Y-65590057D01*
X111864285Y-65590057D02*
X111816666Y-65542438D01*
X111816666Y-65542438D02*
X111721428Y-65494819D01*
X111721428Y-65494819D02*
X111530952Y-65494819D01*
X111530952Y-65494819D02*
X111435714Y-65542438D01*
X111435714Y-65542438D02*
X111388095Y-65590057D01*
X111388095Y-65590057D02*
X111340476Y-65685295D01*
X111340476Y-65685295D02*
X111340476Y-65923390D01*
X111340476Y-65923390D02*
X111388095Y-66018628D01*
X111388095Y-66018628D02*
X111435714Y-66066247D01*
X111435714Y-66066247D02*
X111530952Y-66113866D01*
X111530952Y-66113866D02*
X111721428Y-66113866D01*
X111721428Y-66113866D02*
X111816666Y-66066247D01*
X111816666Y-66066247D02*
X111864285Y-66018628D01*
X111864285Y-66018628D02*
X111911904Y-65923390D01*
X117394642Y-88369580D02*
X117347023Y-88417200D01*
X117347023Y-88417200D02*
X117204166Y-88464819D01*
X117204166Y-88464819D02*
X117108928Y-88464819D01*
X117108928Y-88464819D02*
X116966071Y-88417200D01*
X116966071Y-88417200D02*
X116870833Y-88321961D01*
X116870833Y-88321961D02*
X116823214Y-88226723D01*
X116823214Y-88226723D02*
X116775595Y-88036247D01*
X116775595Y-88036247D02*
X116775595Y-87893390D01*
X116775595Y-87893390D02*
X116823214Y-87702914D01*
X116823214Y-87702914D02*
X116870833Y-87607676D01*
X116870833Y-87607676D02*
X116966071Y-87512438D01*
X116966071Y-87512438D02*
X117108928Y-87464819D01*
X117108928Y-87464819D02*
X117204166Y-87464819D01*
X117204166Y-87464819D02*
X117347023Y-87512438D01*
X117347023Y-87512438D02*
X117394642Y-87560057D01*
X117775595Y-87560057D02*
X117823214Y-87512438D01*
X117823214Y-87512438D02*
X117918452Y-87464819D01*
X117918452Y-87464819D02*
X118156547Y-87464819D01*
X118156547Y-87464819D02*
X118251785Y-87512438D01*
X118251785Y-87512438D02*
X118299404Y-87560057D01*
X118299404Y-87560057D02*
X118347023Y-87655295D01*
X118347023Y-87655295D02*
X118347023Y-87750533D01*
X118347023Y-87750533D02*
X118299404Y-87893390D01*
X118299404Y-87893390D02*
X117727976Y-88464819D01*
X117727976Y-88464819D02*
X118347023Y-88464819D01*
X119251785Y-87464819D02*
X118775595Y-87464819D01*
X118775595Y-87464819D02*
X118727976Y-87941009D01*
X118727976Y-87941009D02*
X118775595Y-87893390D01*
X118775595Y-87893390D02*
X118870833Y-87845771D01*
X118870833Y-87845771D02*
X119108928Y-87845771D01*
X119108928Y-87845771D02*
X119204166Y-87893390D01*
X119204166Y-87893390D02*
X119251785Y-87941009D01*
X119251785Y-87941009D02*
X119299404Y-88036247D01*
X119299404Y-88036247D02*
X119299404Y-88274342D01*
X119299404Y-88274342D02*
X119251785Y-88369580D01*
X119251785Y-88369580D02*
X119204166Y-88417200D01*
X119204166Y-88417200D02*
X119108928Y-88464819D01*
X119108928Y-88464819D02*
X118870833Y-88464819D01*
X118870833Y-88464819D02*
X118775595Y-88417200D01*
X118775595Y-88417200D02*
X118727976Y-88369580D01*
X98505833Y-79969580D02*
X98458214Y-80017200D01*
X98458214Y-80017200D02*
X98315357Y-80064819D01*
X98315357Y-80064819D02*
X98220119Y-80064819D01*
X98220119Y-80064819D02*
X98077262Y-80017200D01*
X98077262Y-80017200D02*
X97982024Y-79921961D01*
X97982024Y-79921961D02*
X97934405Y-79826723D01*
X97934405Y-79826723D02*
X97886786Y-79636247D01*
X97886786Y-79636247D02*
X97886786Y-79493390D01*
X97886786Y-79493390D02*
X97934405Y-79302914D01*
X97934405Y-79302914D02*
X97982024Y-79207676D01*
X97982024Y-79207676D02*
X98077262Y-79112438D01*
X98077262Y-79112438D02*
X98220119Y-79064819D01*
X98220119Y-79064819D02*
X98315357Y-79064819D01*
X98315357Y-79064819D02*
X98458214Y-79112438D01*
X98458214Y-79112438D02*
X98505833Y-79160057D01*
X99362976Y-79398152D02*
X99362976Y-80064819D01*
X99124881Y-79017200D02*
X98886786Y-79731485D01*
X98886786Y-79731485D02*
X99505833Y-79731485D01*
X103138095Y-62454819D02*
X103138095Y-63264342D01*
X103138095Y-63264342D02*
X103185714Y-63359580D01*
X103185714Y-63359580D02*
X103233333Y-63407200D01*
X103233333Y-63407200D02*
X103328571Y-63454819D01*
X103328571Y-63454819D02*
X103519047Y-63454819D01*
X103519047Y-63454819D02*
X103614285Y-63407200D01*
X103614285Y-63407200D02*
X103661904Y-63359580D01*
X103661904Y-63359580D02*
X103709523Y-63264342D01*
X103709523Y-63264342D02*
X103709523Y-62454819D01*
X104328571Y-62883390D02*
X104233333Y-62835771D01*
X104233333Y-62835771D02*
X104185714Y-62788152D01*
X104185714Y-62788152D02*
X104138095Y-62692914D01*
X104138095Y-62692914D02*
X104138095Y-62645295D01*
X104138095Y-62645295D02*
X104185714Y-62550057D01*
X104185714Y-62550057D02*
X104233333Y-62502438D01*
X104233333Y-62502438D02*
X104328571Y-62454819D01*
X104328571Y-62454819D02*
X104519047Y-62454819D01*
X104519047Y-62454819D02*
X104614285Y-62502438D01*
X104614285Y-62502438D02*
X104661904Y-62550057D01*
X104661904Y-62550057D02*
X104709523Y-62645295D01*
X104709523Y-62645295D02*
X104709523Y-62692914D01*
X104709523Y-62692914D02*
X104661904Y-62788152D01*
X104661904Y-62788152D02*
X104614285Y-62835771D01*
X104614285Y-62835771D02*
X104519047Y-62883390D01*
X104519047Y-62883390D02*
X104328571Y-62883390D01*
X104328571Y-62883390D02*
X104233333Y-62931009D01*
X104233333Y-62931009D02*
X104185714Y-62978628D01*
X104185714Y-62978628D02*
X104138095Y-63073866D01*
X104138095Y-63073866D02*
X104138095Y-63264342D01*
X104138095Y-63264342D02*
X104185714Y-63359580D01*
X104185714Y-63359580D02*
X104233333Y-63407200D01*
X104233333Y-63407200D02*
X104328571Y-63454819D01*
X104328571Y-63454819D02*
X104519047Y-63454819D01*
X104519047Y-63454819D02*
X104614285Y-63407200D01*
X104614285Y-63407200D02*
X104661904Y-63359580D01*
X104661904Y-63359580D02*
X104709523Y-63264342D01*
X104709523Y-63264342D02*
X104709523Y-63073866D01*
X104709523Y-63073866D02*
X104661904Y-62978628D01*
X104661904Y-62978628D02*
X104614285Y-62931009D01*
X104614285Y-62931009D02*
X104519047Y-62883390D01*
X95379642Y-99509819D02*
X95046309Y-99033628D01*
X94808214Y-99509819D02*
X94808214Y-98509819D01*
X94808214Y-98509819D02*
X95189166Y-98509819D01*
X95189166Y-98509819D02*
X95284404Y-98557438D01*
X95284404Y-98557438D02*
X95332023Y-98605057D01*
X95332023Y-98605057D02*
X95379642Y-98700295D01*
X95379642Y-98700295D02*
X95379642Y-98843152D01*
X95379642Y-98843152D02*
X95332023Y-98938390D01*
X95332023Y-98938390D02*
X95284404Y-98986009D01*
X95284404Y-98986009D02*
X95189166Y-99033628D01*
X95189166Y-99033628D02*
X94808214Y-99033628D01*
X96332023Y-99509819D02*
X95760595Y-99509819D01*
X96046309Y-99509819D02*
X96046309Y-98509819D01*
X96046309Y-98509819D02*
X95951071Y-98652676D01*
X95951071Y-98652676D02*
X95855833Y-98747914D01*
X95855833Y-98747914D02*
X95760595Y-98795533D01*
X96712976Y-98605057D02*
X96760595Y-98557438D01*
X96760595Y-98557438D02*
X96855833Y-98509819D01*
X96855833Y-98509819D02*
X97093928Y-98509819D01*
X97093928Y-98509819D02*
X97189166Y-98557438D01*
X97189166Y-98557438D02*
X97236785Y-98605057D01*
X97236785Y-98605057D02*
X97284404Y-98700295D01*
X97284404Y-98700295D02*
X97284404Y-98795533D01*
X97284404Y-98795533D02*
X97236785Y-98938390D01*
X97236785Y-98938390D02*
X96665357Y-99509819D01*
X96665357Y-99509819D02*
X97284404Y-99509819D01*
X107857142Y-95759580D02*
X107809523Y-95807200D01*
X107809523Y-95807200D02*
X107666666Y-95854819D01*
X107666666Y-95854819D02*
X107571428Y-95854819D01*
X107571428Y-95854819D02*
X107428571Y-95807200D01*
X107428571Y-95807200D02*
X107333333Y-95711961D01*
X107333333Y-95711961D02*
X107285714Y-95616723D01*
X107285714Y-95616723D02*
X107238095Y-95426247D01*
X107238095Y-95426247D02*
X107238095Y-95283390D01*
X107238095Y-95283390D02*
X107285714Y-95092914D01*
X107285714Y-95092914D02*
X107333333Y-94997676D01*
X107333333Y-94997676D02*
X107428571Y-94902438D01*
X107428571Y-94902438D02*
X107571428Y-94854819D01*
X107571428Y-94854819D02*
X107666666Y-94854819D01*
X107666666Y-94854819D02*
X107809523Y-94902438D01*
X107809523Y-94902438D02*
X107857142Y-94950057D01*
X108809523Y-95854819D02*
X108238095Y-95854819D01*
X108523809Y-95854819D02*
X108523809Y-94854819D01*
X108523809Y-94854819D02*
X108428571Y-94997676D01*
X108428571Y-94997676D02*
X108333333Y-95092914D01*
X108333333Y-95092914D02*
X108238095Y-95140533D01*
X109142857Y-94854819D02*
X109809523Y-94854819D01*
X109809523Y-94854819D02*
X109380952Y-95854819D01*
X121991604Y-92929166D02*
X121991604Y-92452976D01*
X122277319Y-93024404D02*
X121277319Y-92691071D01*
X121277319Y-92691071D02*
X122277319Y-92357738D01*
X121753509Y-92024404D02*
X121753509Y-91691071D01*
X122277319Y-91548214D02*
X122277319Y-92024404D01*
X122277319Y-92024404D02*
X121277319Y-92024404D01*
X121277319Y-92024404D02*
X121277319Y-91548214D01*
X121372557Y-91167261D02*
X121324938Y-91119642D01*
X121324938Y-91119642D02*
X121277319Y-91024404D01*
X121277319Y-91024404D02*
X121277319Y-90786309D01*
X121277319Y-90786309D02*
X121324938Y-90691071D01*
X121324938Y-90691071D02*
X121372557Y-90643452D01*
X121372557Y-90643452D02*
X121467795Y-90595833D01*
X121467795Y-90595833D02*
X121563033Y-90595833D01*
X121563033Y-90595833D02*
X121705890Y-90643452D01*
X121705890Y-90643452D02*
X122277319Y-91214880D01*
X122277319Y-91214880D02*
X122277319Y-90595833D01*
X98278095Y-88799819D02*
X98278095Y-89609342D01*
X98278095Y-89609342D02*
X98325714Y-89704580D01*
X98325714Y-89704580D02*
X98373333Y-89752200D01*
X98373333Y-89752200D02*
X98468571Y-89799819D01*
X98468571Y-89799819D02*
X98659047Y-89799819D01*
X98659047Y-89799819D02*
X98754285Y-89752200D01*
X98754285Y-89752200D02*
X98801904Y-89704580D01*
X98801904Y-89704580D02*
X98849523Y-89609342D01*
X98849523Y-89609342D02*
X98849523Y-88799819D01*
X99849523Y-89799819D02*
X99278095Y-89799819D01*
X99563809Y-89799819D02*
X99563809Y-88799819D01*
X99563809Y-88799819D02*
X99468571Y-88942676D01*
X99468571Y-88942676D02*
X99373333Y-89037914D01*
X99373333Y-89037914D02*
X99278095Y-89085533D01*
X112592319Y-88566666D02*
X112592319Y-89042856D01*
X112592319Y-89042856D02*
X111592319Y-89042856D01*
X111592319Y-87757142D02*
X111592319Y-88233332D01*
X111592319Y-88233332D02*
X112068509Y-88280951D01*
X112068509Y-88280951D02*
X112020890Y-88233332D01*
X112020890Y-88233332D02*
X111973271Y-88138094D01*
X111973271Y-88138094D02*
X111973271Y-87899999D01*
X111973271Y-87899999D02*
X112020890Y-87804761D01*
X112020890Y-87804761D02*
X112068509Y-87757142D01*
X112068509Y-87757142D02*
X112163747Y-87709523D01*
X112163747Y-87709523D02*
X112401842Y-87709523D01*
X112401842Y-87709523D02*
X112497080Y-87757142D01*
X112497080Y-87757142D02*
X112544700Y-87804761D01*
X112544700Y-87804761D02*
X112592319Y-87899999D01*
X112592319Y-87899999D02*
X112592319Y-88138094D01*
X112592319Y-88138094D02*
X112544700Y-88233332D01*
X112544700Y-88233332D02*
X112497080Y-88280951D01*
X98433333Y-60954819D02*
X98100000Y-60478628D01*
X97861905Y-60954819D02*
X97861905Y-59954819D01*
X97861905Y-59954819D02*
X98242857Y-59954819D01*
X98242857Y-59954819D02*
X98338095Y-60002438D01*
X98338095Y-60002438D02*
X98385714Y-60050057D01*
X98385714Y-60050057D02*
X98433333Y-60145295D01*
X98433333Y-60145295D02*
X98433333Y-60288152D01*
X98433333Y-60288152D02*
X98385714Y-60383390D01*
X98385714Y-60383390D02*
X98338095Y-60431009D01*
X98338095Y-60431009D02*
X98242857Y-60478628D01*
X98242857Y-60478628D02*
X97861905Y-60478628D01*
X99385714Y-60954819D02*
X98814286Y-60954819D01*
X99100000Y-60954819D02*
X99100000Y-59954819D01*
X99100000Y-59954819D02*
X99004762Y-60097676D01*
X99004762Y-60097676D02*
X98909524Y-60192914D01*
X98909524Y-60192914D02*
X98814286Y-60240533D01*
X107787142Y-94109580D02*
X107739523Y-94157200D01*
X107739523Y-94157200D02*
X107596666Y-94204819D01*
X107596666Y-94204819D02*
X107501428Y-94204819D01*
X107501428Y-94204819D02*
X107358571Y-94157200D01*
X107358571Y-94157200D02*
X107263333Y-94061961D01*
X107263333Y-94061961D02*
X107215714Y-93966723D01*
X107215714Y-93966723D02*
X107168095Y-93776247D01*
X107168095Y-93776247D02*
X107168095Y-93633390D01*
X107168095Y-93633390D02*
X107215714Y-93442914D01*
X107215714Y-93442914D02*
X107263333Y-93347676D01*
X107263333Y-93347676D02*
X107358571Y-93252438D01*
X107358571Y-93252438D02*
X107501428Y-93204819D01*
X107501428Y-93204819D02*
X107596666Y-93204819D01*
X107596666Y-93204819D02*
X107739523Y-93252438D01*
X107739523Y-93252438D02*
X107787142Y-93300057D01*
X108739523Y-94204819D02*
X108168095Y-94204819D01*
X108453809Y-94204819D02*
X108453809Y-93204819D01*
X108453809Y-93204819D02*
X108358571Y-93347676D01*
X108358571Y-93347676D02*
X108263333Y-93442914D01*
X108263333Y-93442914D02*
X108168095Y-93490533D01*
X109310952Y-93633390D02*
X109215714Y-93585771D01*
X109215714Y-93585771D02*
X109168095Y-93538152D01*
X109168095Y-93538152D02*
X109120476Y-93442914D01*
X109120476Y-93442914D02*
X109120476Y-93395295D01*
X109120476Y-93395295D02*
X109168095Y-93300057D01*
X109168095Y-93300057D02*
X109215714Y-93252438D01*
X109215714Y-93252438D02*
X109310952Y-93204819D01*
X109310952Y-93204819D02*
X109501428Y-93204819D01*
X109501428Y-93204819D02*
X109596666Y-93252438D01*
X109596666Y-93252438D02*
X109644285Y-93300057D01*
X109644285Y-93300057D02*
X109691904Y-93395295D01*
X109691904Y-93395295D02*
X109691904Y-93442914D01*
X109691904Y-93442914D02*
X109644285Y-93538152D01*
X109644285Y-93538152D02*
X109596666Y-93585771D01*
X109596666Y-93585771D02*
X109501428Y-93633390D01*
X109501428Y-93633390D02*
X109310952Y-93633390D01*
X109310952Y-93633390D02*
X109215714Y-93681009D01*
X109215714Y-93681009D02*
X109168095Y-93728628D01*
X109168095Y-93728628D02*
X109120476Y-93823866D01*
X109120476Y-93823866D02*
X109120476Y-94014342D01*
X109120476Y-94014342D02*
X109168095Y-94109580D01*
X109168095Y-94109580D02*
X109215714Y-94157200D01*
X109215714Y-94157200D02*
X109310952Y-94204819D01*
X109310952Y-94204819D02*
X109501428Y-94204819D01*
X109501428Y-94204819D02*
X109596666Y-94157200D01*
X109596666Y-94157200D02*
X109644285Y-94109580D01*
X109644285Y-94109580D02*
X109691904Y-94014342D01*
X109691904Y-94014342D02*
X109691904Y-93823866D01*
X109691904Y-93823866D02*
X109644285Y-93728628D01*
X109644285Y-93728628D02*
X109596666Y-93681009D01*
X109596666Y-93681009D02*
X109501428Y-93633390D01*
X107787142Y-92809580D02*
X107739523Y-92857200D01*
X107739523Y-92857200D02*
X107596666Y-92904819D01*
X107596666Y-92904819D02*
X107501428Y-92904819D01*
X107501428Y-92904819D02*
X107358571Y-92857200D01*
X107358571Y-92857200D02*
X107263333Y-92761961D01*
X107263333Y-92761961D02*
X107215714Y-92666723D01*
X107215714Y-92666723D02*
X107168095Y-92476247D01*
X107168095Y-92476247D02*
X107168095Y-92333390D01*
X107168095Y-92333390D02*
X107215714Y-92142914D01*
X107215714Y-92142914D02*
X107263333Y-92047676D01*
X107263333Y-92047676D02*
X107358571Y-91952438D01*
X107358571Y-91952438D02*
X107501428Y-91904819D01*
X107501428Y-91904819D02*
X107596666Y-91904819D01*
X107596666Y-91904819D02*
X107739523Y-91952438D01*
X107739523Y-91952438D02*
X107787142Y-92000057D01*
X108168095Y-92000057D02*
X108215714Y-91952438D01*
X108215714Y-91952438D02*
X108310952Y-91904819D01*
X108310952Y-91904819D02*
X108549047Y-91904819D01*
X108549047Y-91904819D02*
X108644285Y-91952438D01*
X108644285Y-91952438D02*
X108691904Y-92000057D01*
X108691904Y-92000057D02*
X108739523Y-92095295D01*
X108739523Y-92095295D02*
X108739523Y-92190533D01*
X108739523Y-92190533D02*
X108691904Y-92333390D01*
X108691904Y-92333390D02*
X108120476Y-92904819D01*
X108120476Y-92904819D02*
X108739523Y-92904819D01*
X109358571Y-91904819D02*
X109453809Y-91904819D01*
X109453809Y-91904819D02*
X109549047Y-91952438D01*
X109549047Y-91952438D02*
X109596666Y-92000057D01*
X109596666Y-92000057D02*
X109644285Y-92095295D01*
X109644285Y-92095295D02*
X109691904Y-92285771D01*
X109691904Y-92285771D02*
X109691904Y-92523866D01*
X109691904Y-92523866D02*
X109644285Y-92714342D01*
X109644285Y-92714342D02*
X109596666Y-92809580D01*
X109596666Y-92809580D02*
X109549047Y-92857200D01*
X109549047Y-92857200D02*
X109453809Y-92904819D01*
X109453809Y-92904819D02*
X109358571Y-92904819D01*
X109358571Y-92904819D02*
X109263333Y-92857200D01*
X109263333Y-92857200D02*
X109215714Y-92809580D01*
X109215714Y-92809580D02*
X109168095Y-92714342D01*
X109168095Y-92714342D02*
X109120476Y-92523866D01*
X109120476Y-92523866D02*
X109120476Y-92285771D01*
X109120476Y-92285771D02*
X109168095Y-92095295D01*
X109168095Y-92095295D02*
X109215714Y-92000057D01*
X109215714Y-92000057D02*
X109263333Y-91952438D01*
X109263333Y-91952438D02*
X109358571Y-91904819D01*
X106757142Y-104459580D02*
X106709523Y-104507200D01*
X106709523Y-104507200D02*
X106566666Y-104554819D01*
X106566666Y-104554819D02*
X106471428Y-104554819D01*
X106471428Y-104554819D02*
X106328571Y-104507200D01*
X106328571Y-104507200D02*
X106233333Y-104411961D01*
X106233333Y-104411961D02*
X106185714Y-104316723D01*
X106185714Y-104316723D02*
X106138095Y-104126247D01*
X106138095Y-104126247D02*
X106138095Y-103983390D01*
X106138095Y-103983390D02*
X106185714Y-103792914D01*
X106185714Y-103792914D02*
X106233333Y-103697676D01*
X106233333Y-103697676D02*
X106328571Y-103602438D01*
X106328571Y-103602438D02*
X106471428Y-103554819D01*
X106471428Y-103554819D02*
X106566666Y-103554819D01*
X106566666Y-103554819D02*
X106709523Y-103602438D01*
X106709523Y-103602438D02*
X106757142Y-103650057D01*
X107138095Y-103650057D02*
X107185714Y-103602438D01*
X107185714Y-103602438D02*
X107280952Y-103554819D01*
X107280952Y-103554819D02*
X107519047Y-103554819D01*
X107519047Y-103554819D02*
X107614285Y-103602438D01*
X107614285Y-103602438D02*
X107661904Y-103650057D01*
X107661904Y-103650057D02*
X107709523Y-103745295D01*
X107709523Y-103745295D02*
X107709523Y-103840533D01*
X107709523Y-103840533D02*
X107661904Y-103983390D01*
X107661904Y-103983390D02*
X107090476Y-104554819D01*
X107090476Y-104554819D02*
X107709523Y-104554819D01*
X108042857Y-103554819D02*
X108709523Y-103554819D01*
X108709523Y-103554819D02*
X108280952Y-104554819D01*
X130757142Y-82359580D02*
X130709523Y-82407200D01*
X130709523Y-82407200D02*
X130566666Y-82454819D01*
X130566666Y-82454819D02*
X130471428Y-82454819D01*
X130471428Y-82454819D02*
X130328571Y-82407200D01*
X130328571Y-82407200D02*
X130233333Y-82311961D01*
X130233333Y-82311961D02*
X130185714Y-82216723D01*
X130185714Y-82216723D02*
X130138095Y-82026247D01*
X130138095Y-82026247D02*
X130138095Y-81883390D01*
X130138095Y-81883390D02*
X130185714Y-81692914D01*
X130185714Y-81692914D02*
X130233333Y-81597676D01*
X130233333Y-81597676D02*
X130328571Y-81502438D01*
X130328571Y-81502438D02*
X130471428Y-81454819D01*
X130471428Y-81454819D02*
X130566666Y-81454819D01*
X130566666Y-81454819D02*
X130709523Y-81502438D01*
X130709523Y-81502438D02*
X130757142Y-81550057D01*
X131709523Y-82454819D02*
X131138095Y-82454819D01*
X131423809Y-82454819D02*
X131423809Y-81454819D01*
X131423809Y-81454819D02*
X131328571Y-81597676D01*
X131328571Y-81597676D02*
X131233333Y-81692914D01*
X131233333Y-81692914D02*
X131138095Y-81740533D01*
X132090476Y-81550057D02*
X132138095Y-81502438D01*
X132138095Y-81502438D02*
X132233333Y-81454819D01*
X132233333Y-81454819D02*
X132471428Y-81454819D01*
X132471428Y-81454819D02*
X132566666Y-81502438D01*
X132566666Y-81502438D02*
X132614285Y-81550057D01*
X132614285Y-81550057D02*
X132661904Y-81645295D01*
X132661904Y-81645295D02*
X132661904Y-81740533D01*
X132661904Y-81740533D02*
X132614285Y-81883390D01*
X132614285Y-81883390D02*
X132042857Y-82454819D01*
X132042857Y-82454819D02*
X132661904Y-82454819D01*
X111260833Y-78479819D02*
X110927500Y-78003628D01*
X110689405Y-78479819D02*
X110689405Y-77479819D01*
X110689405Y-77479819D02*
X111070357Y-77479819D01*
X111070357Y-77479819D02*
X111165595Y-77527438D01*
X111165595Y-77527438D02*
X111213214Y-77575057D01*
X111213214Y-77575057D02*
X111260833Y-77670295D01*
X111260833Y-77670295D02*
X111260833Y-77813152D01*
X111260833Y-77813152D02*
X111213214Y-77908390D01*
X111213214Y-77908390D02*
X111165595Y-77956009D01*
X111165595Y-77956009D02*
X111070357Y-78003628D01*
X111070357Y-78003628D02*
X110689405Y-78003628D01*
X111594167Y-77479819D02*
X112260833Y-77479819D01*
X112260833Y-77479819D02*
X111832262Y-78479819D01*
X112533333Y-84054819D02*
X112057143Y-84054819D01*
X112057143Y-84054819D02*
X112057143Y-83054819D01*
X113295238Y-83388152D02*
X113295238Y-84054819D01*
X113057143Y-83007200D02*
X112819048Y-83721485D01*
X112819048Y-83721485D02*
X113438095Y-83721485D01*
X113657142Y-92299580D02*
X113609523Y-92347200D01*
X113609523Y-92347200D02*
X113466666Y-92394819D01*
X113466666Y-92394819D02*
X113371428Y-92394819D01*
X113371428Y-92394819D02*
X113228571Y-92347200D01*
X113228571Y-92347200D02*
X113133333Y-92251961D01*
X113133333Y-92251961D02*
X113085714Y-92156723D01*
X113085714Y-92156723D02*
X113038095Y-91966247D01*
X113038095Y-91966247D02*
X113038095Y-91823390D01*
X113038095Y-91823390D02*
X113085714Y-91632914D01*
X113085714Y-91632914D02*
X113133333Y-91537676D01*
X113133333Y-91537676D02*
X113228571Y-91442438D01*
X113228571Y-91442438D02*
X113371428Y-91394819D01*
X113371428Y-91394819D02*
X113466666Y-91394819D01*
X113466666Y-91394819D02*
X113609523Y-91442438D01*
X113609523Y-91442438D02*
X113657142Y-91490057D01*
X114038095Y-91490057D02*
X114085714Y-91442438D01*
X114085714Y-91442438D02*
X114180952Y-91394819D01*
X114180952Y-91394819D02*
X114419047Y-91394819D01*
X114419047Y-91394819D02*
X114514285Y-91442438D01*
X114514285Y-91442438D02*
X114561904Y-91490057D01*
X114561904Y-91490057D02*
X114609523Y-91585295D01*
X114609523Y-91585295D02*
X114609523Y-91680533D01*
X114609523Y-91680533D02*
X114561904Y-91823390D01*
X114561904Y-91823390D02*
X113990476Y-92394819D01*
X113990476Y-92394819D02*
X114609523Y-92394819D01*
X115466666Y-91394819D02*
X115276190Y-91394819D01*
X115276190Y-91394819D02*
X115180952Y-91442438D01*
X115180952Y-91442438D02*
X115133333Y-91490057D01*
X115133333Y-91490057D02*
X115038095Y-91632914D01*
X115038095Y-91632914D02*
X114990476Y-91823390D01*
X114990476Y-91823390D02*
X114990476Y-92204342D01*
X114990476Y-92204342D02*
X115038095Y-92299580D01*
X115038095Y-92299580D02*
X115085714Y-92347200D01*
X115085714Y-92347200D02*
X115180952Y-92394819D01*
X115180952Y-92394819D02*
X115371428Y-92394819D01*
X115371428Y-92394819D02*
X115466666Y-92347200D01*
X115466666Y-92347200D02*
X115514285Y-92299580D01*
X115514285Y-92299580D02*
X115561904Y-92204342D01*
X115561904Y-92204342D02*
X115561904Y-91966247D01*
X115561904Y-91966247D02*
X115514285Y-91871009D01*
X115514285Y-91871009D02*
X115466666Y-91823390D01*
X115466666Y-91823390D02*
X115371428Y-91775771D01*
X115371428Y-91775771D02*
X115180952Y-91775771D01*
X115180952Y-91775771D02*
X115085714Y-91823390D01*
X115085714Y-91823390D02*
X115038095Y-91871009D01*
X115038095Y-91871009D02*
X114990476Y-91966247D01*
X132738095Y-102054819D02*
X132738095Y-101054819D01*
X132738095Y-101531009D02*
X133309523Y-101531009D01*
X133309523Y-102054819D02*
X133309523Y-101054819D01*
X133690476Y-101054819D02*
X134309523Y-101054819D01*
X134309523Y-101054819D02*
X133976190Y-101435771D01*
X133976190Y-101435771D02*
X134119047Y-101435771D01*
X134119047Y-101435771D02*
X134214285Y-101483390D01*
X134214285Y-101483390D02*
X134261904Y-101531009D01*
X134261904Y-101531009D02*
X134309523Y-101626247D01*
X134309523Y-101626247D02*
X134309523Y-101864342D01*
X134309523Y-101864342D02*
X134261904Y-101959580D01*
X134261904Y-101959580D02*
X134214285Y-102007200D01*
X134214285Y-102007200D02*
X134119047Y-102054819D01*
X134119047Y-102054819D02*
X133833333Y-102054819D01*
X133833333Y-102054819D02*
X133738095Y-102007200D01*
X133738095Y-102007200D02*
X133690476Y-101959580D01*
X112657142Y-81359580D02*
X112609523Y-81407200D01*
X112609523Y-81407200D02*
X112466666Y-81454819D01*
X112466666Y-81454819D02*
X112371428Y-81454819D01*
X112371428Y-81454819D02*
X112228571Y-81407200D01*
X112228571Y-81407200D02*
X112133333Y-81311961D01*
X112133333Y-81311961D02*
X112085714Y-81216723D01*
X112085714Y-81216723D02*
X112038095Y-81026247D01*
X112038095Y-81026247D02*
X112038095Y-80883390D01*
X112038095Y-80883390D02*
X112085714Y-80692914D01*
X112085714Y-80692914D02*
X112133333Y-80597676D01*
X112133333Y-80597676D02*
X112228571Y-80502438D01*
X112228571Y-80502438D02*
X112371428Y-80454819D01*
X112371428Y-80454819D02*
X112466666Y-80454819D01*
X112466666Y-80454819D02*
X112609523Y-80502438D01*
X112609523Y-80502438D02*
X112657142Y-80550057D01*
X113609523Y-81454819D02*
X113038095Y-81454819D01*
X113323809Y-81454819D02*
X113323809Y-80454819D01*
X113323809Y-80454819D02*
X113228571Y-80597676D01*
X113228571Y-80597676D02*
X113133333Y-80692914D01*
X113133333Y-80692914D02*
X113038095Y-80740533D01*
X113942857Y-80454819D02*
X114561904Y-80454819D01*
X114561904Y-80454819D02*
X114228571Y-80835771D01*
X114228571Y-80835771D02*
X114371428Y-80835771D01*
X114371428Y-80835771D02*
X114466666Y-80883390D01*
X114466666Y-80883390D02*
X114514285Y-80931009D01*
X114514285Y-80931009D02*
X114561904Y-81026247D01*
X114561904Y-81026247D02*
X114561904Y-81264342D01*
X114561904Y-81264342D02*
X114514285Y-81359580D01*
X114514285Y-81359580D02*
X114466666Y-81407200D01*
X114466666Y-81407200D02*
X114371428Y-81454819D01*
X114371428Y-81454819D02*
X114085714Y-81454819D01*
X114085714Y-81454819D02*
X113990476Y-81407200D01*
X113990476Y-81407200D02*
X113942857Y-81359580D01*
D11*
X86109800Y-82333332D02*
X86157419Y-82190475D01*
X86157419Y-82190475D02*
X86157419Y-81952380D01*
X86157419Y-81952380D02*
X86109800Y-81857142D01*
X86109800Y-81857142D02*
X86062180Y-81809523D01*
X86062180Y-81809523D02*
X85966942Y-81761904D01*
X85966942Y-81761904D02*
X85871704Y-81761904D01*
X85871704Y-81761904D02*
X85776466Y-81809523D01*
X85776466Y-81809523D02*
X85728847Y-81857142D01*
X85728847Y-81857142D02*
X85681228Y-81952380D01*
X85681228Y-81952380D02*
X85633609Y-82142856D01*
X85633609Y-82142856D02*
X85585990Y-82238094D01*
X85585990Y-82238094D02*
X85538371Y-82285713D01*
X85538371Y-82285713D02*
X85443133Y-82333332D01*
X85443133Y-82333332D02*
X85347895Y-82333332D01*
X85347895Y-82333332D02*
X85252657Y-82285713D01*
X85252657Y-82285713D02*
X85205038Y-82238094D01*
X85205038Y-82238094D02*
X85157419Y-82142856D01*
X85157419Y-82142856D02*
X85157419Y-81904761D01*
X85157419Y-81904761D02*
X85205038Y-81761904D01*
X85157419Y-81428570D02*
X86157419Y-81190475D01*
X86157419Y-81190475D02*
X85443133Y-80999999D01*
X85443133Y-80999999D02*
X86157419Y-80809523D01*
X86157419Y-80809523D02*
X85157419Y-80571428D01*
X86157419Y-79666666D02*
X86157419Y-80238094D01*
X86157419Y-79952380D02*
X85157419Y-79952380D01*
X85157419Y-79952380D02*
X85300276Y-80047618D01*
X85300276Y-80047618D02*
X85395514Y-80142856D01*
X85395514Y-80142856D02*
X85443133Y-80238094D01*
D10*
X120671905Y-59384819D02*
X120671905Y-58384819D01*
X120671905Y-58384819D02*
X120910000Y-58384819D01*
X120910000Y-58384819D02*
X121052857Y-58432438D01*
X121052857Y-58432438D02*
X121148095Y-58527676D01*
X121148095Y-58527676D02*
X121195714Y-58622914D01*
X121195714Y-58622914D02*
X121243333Y-58813390D01*
X121243333Y-58813390D02*
X121243333Y-58956247D01*
X121243333Y-58956247D02*
X121195714Y-59146723D01*
X121195714Y-59146723D02*
X121148095Y-59241961D01*
X121148095Y-59241961D02*
X121052857Y-59337200D01*
X121052857Y-59337200D02*
X120910000Y-59384819D01*
X120910000Y-59384819D02*
X120671905Y-59384819D01*
X121576667Y-58384819D02*
X122195714Y-58384819D01*
X122195714Y-58384819D02*
X121862381Y-58765771D01*
X121862381Y-58765771D02*
X122005238Y-58765771D01*
X122005238Y-58765771D02*
X122100476Y-58813390D01*
X122100476Y-58813390D02*
X122148095Y-58861009D01*
X122148095Y-58861009D02*
X122195714Y-58956247D01*
X122195714Y-58956247D02*
X122195714Y-59194342D01*
X122195714Y-59194342D02*
X122148095Y-59289580D01*
X122148095Y-59289580D02*
X122100476Y-59337200D01*
X122100476Y-59337200D02*
X122005238Y-59384819D01*
X122005238Y-59384819D02*
X121719524Y-59384819D01*
X121719524Y-59384819D02*
X121624286Y-59337200D01*
X121624286Y-59337200D02*
X121576667Y-59289580D01*
X95833333Y-105654819D02*
X95357143Y-105654819D01*
X95357143Y-105654819D02*
X95357143Y-104654819D01*
X96595238Y-104654819D02*
X96404762Y-104654819D01*
X96404762Y-104654819D02*
X96309524Y-104702438D01*
X96309524Y-104702438D02*
X96261905Y-104750057D01*
X96261905Y-104750057D02*
X96166667Y-104892914D01*
X96166667Y-104892914D02*
X96119048Y-105083390D01*
X96119048Y-105083390D02*
X96119048Y-105464342D01*
X96119048Y-105464342D02*
X96166667Y-105559580D01*
X96166667Y-105559580D02*
X96214286Y-105607200D01*
X96214286Y-105607200D02*
X96309524Y-105654819D01*
X96309524Y-105654819D02*
X96500000Y-105654819D01*
X96500000Y-105654819D02*
X96595238Y-105607200D01*
X96595238Y-105607200D02*
X96642857Y-105559580D01*
X96642857Y-105559580D02*
X96690476Y-105464342D01*
X96690476Y-105464342D02*
X96690476Y-105226247D01*
X96690476Y-105226247D02*
X96642857Y-105131009D01*
X96642857Y-105131009D02*
X96595238Y-105083390D01*
X96595238Y-105083390D02*
X96500000Y-105035771D01*
X96500000Y-105035771D02*
X96309524Y-105035771D01*
X96309524Y-105035771D02*
X96214286Y-105083390D01*
X96214286Y-105083390D02*
X96166667Y-105131009D01*
X96166667Y-105131009D02*
X96119048Y-105226247D01*
X84738095Y-58004819D02*
X84738095Y-57004819D01*
X84738095Y-57481009D02*
X85309523Y-57481009D01*
X85309523Y-58004819D02*
X85309523Y-57004819D01*
X86309523Y-58004819D02*
X85738095Y-58004819D01*
X86023809Y-58004819D02*
X86023809Y-57004819D01*
X86023809Y-57004819D02*
X85928571Y-57147676D01*
X85928571Y-57147676D02*
X85833333Y-57242914D01*
X85833333Y-57242914D02*
X85738095Y-57290533D01*
X120741905Y-61664819D02*
X120741905Y-60664819D01*
X120741905Y-60664819D02*
X120980000Y-60664819D01*
X120980000Y-60664819D02*
X121122857Y-60712438D01*
X121122857Y-60712438D02*
X121218095Y-60807676D01*
X121218095Y-60807676D02*
X121265714Y-60902914D01*
X121265714Y-60902914D02*
X121313333Y-61093390D01*
X121313333Y-61093390D02*
X121313333Y-61236247D01*
X121313333Y-61236247D02*
X121265714Y-61426723D01*
X121265714Y-61426723D02*
X121218095Y-61521961D01*
X121218095Y-61521961D02*
X121122857Y-61617200D01*
X121122857Y-61617200D02*
X120980000Y-61664819D01*
X120980000Y-61664819D02*
X120741905Y-61664819D01*
X121694286Y-60760057D02*
X121741905Y-60712438D01*
X121741905Y-60712438D02*
X121837143Y-60664819D01*
X121837143Y-60664819D02*
X122075238Y-60664819D01*
X122075238Y-60664819D02*
X122170476Y-60712438D01*
X122170476Y-60712438D02*
X122218095Y-60760057D01*
X122218095Y-60760057D02*
X122265714Y-60855295D01*
X122265714Y-60855295D02*
X122265714Y-60950533D01*
X122265714Y-60950533D02*
X122218095Y-61093390D01*
X122218095Y-61093390D02*
X121646667Y-61664819D01*
X121646667Y-61664819D02*
X122265714Y-61664819D01*
X83973333Y-76799580D02*
X83925714Y-76847200D01*
X83925714Y-76847200D02*
X83782857Y-76894819D01*
X83782857Y-76894819D02*
X83687619Y-76894819D01*
X83687619Y-76894819D02*
X83544762Y-76847200D01*
X83544762Y-76847200D02*
X83449524Y-76751961D01*
X83449524Y-76751961D02*
X83401905Y-76656723D01*
X83401905Y-76656723D02*
X83354286Y-76466247D01*
X83354286Y-76466247D02*
X83354286Y-76323390D01*
X83354286Y-76323390D02*
X83401905Y-76132914D01*
X83401905Y-76132914D02*
X83449524Y-76037676D01*
X83449524Y-76037676D02*
X83544762Y-75942438D01*
X83544762Y-75942438D02*
X83687619Y-75894819D01*
X83687619Y-75894819D02*
X83782857Y-75894819D01*
X83782857Y-75894819D02*
X83925714Y-75942438D01*
X83925714Y-75942438D02*
X83973333Y-75990057D01*
X84354286Y-75990057D02*
X84401905Y-75942438D01*
X84401905Y-75942438D02*
X84497143Y-75894819D01*
X84497143Y-75894819D02*
X84735238Y-75894819D01*
X84735238Y-75894819D02*
X84830476Y-75942438D01*
X84830476Y-75942438D02*
X84878095Y-75990057D01*
X84878095Y-75990057D02*
X84925714Y-76085295D01*
X84925714Y-76085295D02*
X84925714Y-76180533D01*
X84925714Y-76180533D02*
X84878095Y-76323390D01*
X84878095Y-76323390D02*
X84306667Y-76894819D01*
X84306667Y-76894819D02*
X84925714Y-76894819D01*
X92585833Y-75894819D02*
X92252500Y-75418628D01*
X92014405Y-75894819D02*
X92014405Y-74894819D01*
X92014405Y-74894819D02*
X92395357Y-74894819D01*
X92395357Y-74894819D02*
X92490595Y-74942438D01*
X92490595Y-74942438D02*
X92538214Y-74990057D01*
X92538214Y-74990057D02*
X92585833Y-75085295D01*
X92585833Y-75085295D02*
X92585833Y-75228152D01*
X92585833Y-75228152D02*
X92538214Y-75323390D01*
X92538214Y-75323390D02*
X92490595Y-75371009D01*
X92490595Y-75371009D02*
X92395357Y-75418628D01*
X92395357Y-75418628D02*
X92014405Y-75418628D01*
X92966786Y-74990057D02*
X93014405Y-74942438D01*
X93014405Y-74942438D02*
X93109643Y-74894819D01*
X93109643Y-74894819D02*
X93347738Y-74894819D01*
X93347738Y-74894819D02*
X93442976Y-74942438D01*
X93442976Y-74942438D02*
X93490595Y-74990057D01*
X93490595Y-74990057D02*
X93538214Y-75085295D01*
X93538214Y-75085295D02*
X93538214Y-75180533D01*
X93538214Y-75180533D02*
X93490595Y-75323390D01*
X93490595Y-75323390D02*
X92919167Y-75894819D01*
X92919167Y-75894819D02*
X93538214Y-75894819D01*
X87058628Y-60596190D02*
X87534819Y-60596190D01*
X86534819Y-60929523D02*
X87058628Y-60596190D01*
X87058628Y-60596190D02*
X86534819Y-60262857D01*
X87534819Y-59405714D02*
X87534819Y-59977142D01*
X87534819Y-59691428D02*
X86534819Y-59691428D01*
X86534819Y-59691428D02*
X86677676Y-59786666D01*
X86677676Y-59786666D02*
X86772914Y-59881904D01*
X86772914Y-59881904D02*
X86820533Y-59977142D01*
X92659580Y-73566666D02*
X92707200Y-73614285D01*
X92707200Y-73614285D02*
X92754819Y-73757142D01*
X92754819Y-73757142D02*
X92754819Y-73852380D01*
X92754819Y-73852380D02*
X92707200Y-73995237D01*
X92707200Y-73995237D02*
X92611961Y-74090475D01*
X92611961Y-74090475D02*
X92516723Y-74138094D01*
X92516723Y-74138094D02*
X92326247Y-74185713D01*
X92326247Y-74185713D02*
X92183390Y-74185713D01*
X92183390Y-74185713D02*
X91992914Y-74138094D01*
X91992914Y-74138094D02*
X91897676Y-74090475D01*
X91897676Y-74090475D02*
X91802438Y-73995237D01*
X91802438Y-73995237D02*
X91754819Y-73852380D01*
X91754819Y-73852380D02*
X91754819Y-73757142D01*
X91754819Y-73757142D02*
X91802438Y-73614285D01*
X91802438Y-73614285D02*
X91850057Y-73566666D01*
X91754819Y-73233332D02*
X91754819Y-72614285D01*
X91754819Y-72614285D02*
X92135771Y-72947618D01*
X92135771Y-72947618D02*
X92135771Y-72804761D01*
X92135771Y-72804761D02*
X92183390Y-72709523D01*
X92183390Y-72709523D02*
X92231009Y-72661904D01*
X92231009Y-72661904D02*
X92326247Y-72614285D01*
X92326247Y-72614285D02*
X92564342Y-72614285D01*
X92564342Y-72614285D02*
X92659580Y-72661904D01*
X92659580Y-72661904D02*
X92707200Y-72709523D01*
X92707200Y-72709523D02*
X92754819Y-72804761D01*
X92754819Y-72804761D02*
X92754819Y-73090475D01*
X92754819Y-73090475D02*
X92707200Y-73185713D01*
X92707200Y-73185713D02*
X92659580Y-73233332D01*
X97478095Y-100329819D02*
X97478095Y-101139342D01*
X97478095Y-101139342D02*
X97525714Y-101234580D01*
X97525714Y-101234580D02*
X97573333Y-101282200D01*
X97573333Y-101282200D02*
X97668571Y-101329819D01*
X97668571Y-101329819D02*
X97859047Y-101329819D01*
X97859047Y-101329819D02*
X97954285Y-101282200D01*
X97954285Y-101282200D02*
X98001904Y-101234580D01*
X98001904Y-101234580D02*
X98049523Y-101139342D01*
X98049523Y-101139342D02*
X98049523Y-100329819D01*
X98478095Y-100425057D02*
X98525714Y-100377438D01*
X98525714Y-100377438D02*
X98620952Y-100329819D01*
X98620952Y-100329819D02*
X98859047Y-100329819D01*
X98859047Y-100329819D02*
X98954285Y-100377438D01*
X98954285Y-100377438D02*
X99001904Y-100425057D01*
X99001904Y-100425057D02*
X99049523Y-100520295D01*
X99049523Y-100520295D02*
X99049523Y-100615533D01*
X99049523Y-100615533D02*
X99001904Y-100758390D01*
X99001904Y-100758390D02*
X98430476Y-101329819D01*
X98430476Y-101329819D02*
X99049523Y-101329819D01*
X92579580Y-66899166D02*
X92627200Y-66946785D01*
X92627200Y-66946785D02*
X92674819Y-67089642D01*
X92674819Y-67089642D02*
X92674819Y-67184880D01*
X92674819Y-67184880D02*
X92627200Y-67327737D01*
X92627200Y-67327737D02*
X92531961Y-67422975D01*
X92531961Y-67422975D02*
X92436723Y-67470594D01*
X92436723Y-67470594D02*
X92246247Y-67518213D01*
X92246247Y-67518213D02*
X92103390Y-67518213D01*
X92103390Y-67518213D02*
X91912914Y-67470594D01*
X91912914Y-67470594D02*
X91817676Y-67422975D01*
X91817676Y-67422975D02*
X91722438Y-67327737D01*
X91722438Y-67327737D02*
X91674819Y-67184880D01*
X91674819Y-67184880D02*
X91674819Y-67089642D01*
X91674819Y-67089642D02*
X91722438Y-66946785D01*
X91722438Y-66946785D02*
X91770057Y-66899166D01*
X92674819Y-65946785D02*
X92674819Y-66518213D01*
X92674819Y-66232499D02*
X91674819Y-66232499D01*
X91674819Y-66232499D02*
X91817676Y-66327737D01*
X91817676Y-66327737D02*
X91912914Y-66422975D01*
X91912914Y-66422975D02*
X91960533Y-66518213D01*
X111903333Y-73899580D02*
X111855714Y-73947200D01*
X111855714Y-73947200D02*
X111712857Y-73994819D01*
X111712857Y-73994819D02*
X111617619Y-73994819D01*
X111617619Y-73994819D02*
X111474762Y-73947200D01*
X111474762Y-73947200D02*
X111379524Y-73851961D01*
X111379524Y-73851961D02*
X111331905Y-73756723D01*
X111331905Y-73756723D02*
X111284286Y-73566247D01*
X111284286Y-73566247D02*
X111284286Y-73423390D01*
X111284286Y-73423390D02*
X111331905Y-73232914D01*
X111331905Y-73232914D02*
X111379524Y-73137676D01*
X111379524Y-73137676D02*
X111474762Y-73042438D01*
X111474762Y-73042438D02*
X111617619Y-72994819D01*
X111617619Y-72994819D02*
X111712857Y-72994819D01*
X111712857Y-72994819D02*
X111855714Y-73042438D01*
X111855714Y-73042438D02*
X111903333Y-73090057D01*
X112474762Y-73423390D02*
X112379524Y-73375771D01*
X112379524Y-73375771D02*
X112331905Y-73328152D01*
X112331905Y-73328152D02*
X112284286Y-73232914D01*
X112284286Y-73232914D02*
X112284286Y-73185295D01*
X112284286Y-73185295D02*
X112331905Y-73090057D01*
X112331905Y-73090057D02*
X112379524Y-73042438D01*
X112379524Y-73042438D02*
X112474762Y-72994819D01*
X112474762Y-72994819D02*
X112665238Y-72994819D01*
X112665238Y-72994819D02*
X112760476Y-73042438D01*
X112760476Y-73042438D02*
X112808095Y-73090057D01*
X112808095Y-73090057D02*
X112855714Y-73185295D01*
X112855714Y-73185295D02*
X112855714Y-73232914D01*
X112855714Y-73232914D02*
X112808095Y-73328152D01*
X112808095Y-73328152D02*
X112760476Y-73375771D01*
X112760476Y-73375771D02*
X112665238Y-73423390D01*
X112665238Y-73423390D02*
X112474762Y-73423390D01*
X112474762Y-73423390D02*
X112379524Y-73471009D01*
X112379524Y-73471009D02*
X112331905Y-73518628D01*
X112331905Y-73518628D02*
X112284286Y-73613866D01*
X112284286Y-73613866D02*
X112284286Y-73804342D01*
X112284286Y-73804342D02*
X112331905Y-73899580D01*
X112331905Y-73899580D02*
X112379524Y-73947200D01*
X112379524Y-73947200D02*
X112474762Y-73994819D01*
X112474762Y-73994819D02*
X112665238Y-73994819D01*
X112665238Y-73994819D02*
X112760476Y-73947200D01*
X112760476Y-73947200D02*
X112808095Y-73899580D01*
X112808095Y-73899580D02*
X112855714Y-73804342D01*
X112855714Y-73804342D02*
X112855714Y-73613866D01*
X112855714Y-73613866D02*
X112808095Y-73518628D01*
X112808095Y-73518628D02*
X112760476Y-73471009D01*
X112760476Y-73471009D02*
X112665238Y-73423390D01*
X89345833Y-85454819D02*
X88869643Y-85454819D01*
X88869643Y-85454819D02*
X88869643Y-84454819D01*
X89631548Y-84550057D02*
X89679167Y-84502438D01*
X89679167Y-84502438D02*
X89774405Y-84454819D01*
X89774405Y-84454819D02*
X90012500Y-84454819D01*
X90012500Y-84454819D02*
X90107738Y-84502438D01*
X90107738Y-84502438D02*
X90155357Y-84550057D01*
X90155357Y-84550057D02*
X90202976Y-84645295D01*
X90202976Y-84645295D02*
X90202976Y-84740533D01*
X90202976Y-84740533D02*
X90155357Y-84883390D01*
X90155357Y-84883390D02*
X89583929Y-85454819D01*
X89583929Y-85454819D02*
X90202976Y-85454819D01*
X101757142Y-106989580D02*
X101709523Y-107037200D01*
X101709523Y-107037200D02*
X101566666Y-107084819D01*
X101566666Y-107084819D02*
X101471428Y-107084819D01*
X101471428Y-107084819D02*
X101328571Y-107037200D01*
X101328571Y-107037200D02*
X101233333Y-106941961D01*
X101233333Y-106941961D02*
X101185714Y-106846723D01*
X101185714Y-106846723D02*
X101138095Y-106656247D01*
X101138095Y-106656247D02*
X101138095Y-106513390D01*
X101138095Y-106513390D02*
X101185714Y-106322914D01*
X101185714Y-106322914D02*
X101233333Y-106227676D01*
X101233333Y-106227676D02*
X101328571Y-106132438D01*
X101328571Y-106132438D02*
X101471428Y-106084819D01*
X101471428Y-106084819D02*
X101566666Y-106084819D01*
X101566666Y-106084819D02*
X101709523Y-106132438D01*
X101709523Y-106132438D02*
X101757142Y-106180057D01*
X102090476Y-106084819D02*
X102709523Y-106084819D01*
X102709523Y-106084819D02*
X102376190Y-106465771D01*
X102376190Y-106465771D02*
X102519047Y-106465771D01*
X102519047Y-106465771D02*
X102614285Y-106513390D01*
X102614285Y-106513390D02*
X102661904Y-106561009D01*
X102661904Y-106561009D02*
X102709523Y-106656247D01*
X102709523Y-106656247D02*
X102709523Y-106894342D01*
X102709523Y-106894342D02*
X102661904Y-106989580D01*
X102661904Y-106989580D02*
X102614285Y-107037200D01*
X102614285Y-107037200D02*
X102519047Y-107084819D01*
X102519047Y-107084819D02*
X102233333Y-107084819D01*
X102233333Y-107084819D02*
X102138095Y-107037200D01*
X102138095Y-107037200D02*
X102090476Y-106989580D01*
X103090476Y-106180057D02*
X103138095Y-106132438D01*
X103138095Y-106132438D02*
X103233333Y-106084819D01*
X103233333Y-106084819D02*
X103471428Y-106084819D01*
X103471428Y-106084819D02*
X103566666Y-106132438D01*
X103566666Y-106132438D02*
X103614285Y-106180057D01*
X103614285Y-106180057D02*
X103661904Y-106275295D01*
X103661904Y-106275295D02*
X103661904Y-106370533D01*
X103661904Y-106370533D02*
X103614285Y-106513390D01*
X103614285Y-106513390D02*
X103042857Y-107084819D01*
X103042857Y-107084819D02*
X103661904Y-107084819D01*
X130295595Y-88384819D02*
X130295595Y-89194342D01*
X130295595Y-89194342D02*
X130343214Y-89289580D01*
X130343214Y-89289580D02*
X130390833Y-89337200D01*
X130390833Y-89337200D02*
X130486071Y-89384819D01*
X130486071Y-89384819D02*
X130676547Y-89384819D01*
X130676547Y-89384819D02*
X130771785Y-89337200D01*
X130771785Y-89337200D02*
X130819404Y-89289580D01*
X130819404Y-89289580D02*
X130867023Y-89194342D01*
X130867023Y-89194342D02*
X130867023Y-88384819D01*
X131247976Y-88384819D02*
X131867023Y-88384819D01*
X131867023Y-88384819D02*
X131533690Y-88765771D01*
X131533690Y-88765771D02*
X131676547Y-88765771D01*
X131676547Y-88765771D02*
X131771785Y-88813390D01*
X131771785Y-88813390D02*
X131819404Y-88861009D01*
X131819404Y-88861009D02*
X131867023Y-88956247D01*
X131867023Y-88956247D02*
X131867023Y-89194342D01*
X131867023Y-89194342D02*
X131819404Y-89289580D01*
X131819404Y-89289580D02*
X131771785Y-89337200D01*
X131771785Y-89337200D02*
X131676547Y-89384819D01*
X131676547Y-89384819D02*
X131390833Y-89384819D01*
X131390833Y-89384819D02*
X131295595Y-89337200D01*
X131295595Y-89337200D02*
X131247976Y-89289580D01*
X110037142Y-67989580D02*
X109989523Y-68037200D01*
X109989523Y-68037200D02*
X109846666Y-68084819D01*
X109846666Y-68084819D02*
X109751428Y-68084819D01*
X109751428Y-68084819D02*
X109608571Y-68037200D01*
X109608571Y-68037200D02*
X109513333Y-67941961D01*
X109513333Y-67941961D02*
X109465714Y-67846723D01*
X109465714Y-67846723D02*
X109418095Y-67656247D01*
X109418095Y-67656247D02*
X109418095Y-67513390D01*
X109418095Y-67513390D02*
X109465714Y-67322914D01*
X109465714Y-67322914D02*
X109513333Y-67227676D01*
X109513333Y-67227676D02*
X109608571Y-67132438D01*
X109608571Y-67132438D02*
X109751428Y-67084819D01*
X109751428Y-67084819D02*
X109846666Y-67084819D01*
X109846666Y-67084819D02*
X109989523Y-67132438D01*
X109989523Y-67132438D02*
X110037142Y-67180057D01*
X110370476Y-67084819D02*
X110989523Y-67084819D01*
X110989523Y-67084819D02*
X110656190Y-67465771D01*
X110656190Y-67465771D02*
X110799047Y-67465771D01*
X110799047Y-67465771D02*
X110894285Y-67513390D01*
X110894285Y-67513390D02*
X110941904Y-67561009D01*
X110941904Y-67561009D02*
X110989523Y-67656247D01*
X110989523Y-67656247D02*
X110989523Y-67894342D01*
X110989523Y-67894342D02*
X110941904Y-67989580D01*
X110941904Y-67989580D02*
X110894285Y-68037200D01*
X110894285Y-68037200D02*
X110799047Y-68084819D01*
X110799047Y-68084819D02*
X110513333Y-68084819D01*
X110513333Y-68084819D02*
X110418095Y-68037200D01*
X110418095Y-68037200D02*
X110370476Y-67989580D01*
X111608571Y-67084819D02*
X111703809Y-67084819D01*
X111703809Y-67084819D02*
X111799047Y-67132438D01*
X111799047Y-67132438D02*
X111846666Y-67180057D01*
X111846666Y-67180057D02*
X111894285Y-67275295D01*
X111894285Y-67275295D02*
X111941904Y-67465771D01*
X111941904Y-67465771D02*
X111941904Y-67703866D01*
X111941904Y-67703866D02*
X111894285Y-67894342D01*
X111894285Y-67894342D02*
X111846666Y-67989580D01*
X111846666Y-67989580D02*
X111799047Y-68037200D01*
X111799047Y-68037200D02*
X111703809Y-68084819D01*
X111703809Y-68084819D02*
X111608571Y-68084819D01*
X111608571Y-68084819D02*
X111513333Y-68037200D01*
X111513333Y-68037200D02*
X111465714Y-67989580D01*
X111465714Y-67989580D02*
X111418095Y-67894342D01*
X111418095Y-67894342D02*
X111370476Y-67703866D01*
X111370476Y-67703866D02*
X111370476Y-67465771D01*
X111370476Y-67465771D02*
X111418095Y-67275295D01*
X111418095Y-67275295D02*
X111465714Y-67180057D01*
X111465714Y-67180057D02*
X111513333Y-67132438D01*
X111513333Y-67132438D02*
X111608571Y-67084819D01*
X127259819Y-75123333D02*
X127974104Y-75123333D01*
X127974104Y-75123333D02*
X128116961Y-75170952D01*
X128116961Y-75170952D02*
X128212200Y-75266190D01*
X128212200Y-75266190D02*
X128259819Y-75409047D01*
X128259819Y-75409047D02*
X128259819Y-75504285D01*
X128259819Y-74123333D02*
X128259819Y-74694761D01*
X128259819Y-74409047D02*
X127259819Y-74409047D01*
X127259819Y-74409047D02*
X127402676Y-74504285D01*
X127402676Y-74504285D02*
X127497914Y-74599523D01*
X127497914Y-74599523D02*
X127545533Y-74694761D01*
X111947142Y-63189580D02*
X111899523Y-63237200D01*
X111899523Y-63237200D02*
X111756666Y-63284819D01*
X111756666Y-63284819D02*
X111661428Y-63284819D01*
X111661428Y-63284819D02*
X111518571Y-63237200D01*
X111518571Y-63237200D02*
X111423333Y-63141961D01*
X111423333Y-63141961D02*
X111375714Y-63046723D01*
X111375714Y-63046723D02*
X111328095Y-62856247D01*
X111328095Y-62856247D02*
X111328095Y-62713390D01*
X111328095Y-62713390D02*
X111375714Y-62522914D01*
X111375714Y-62522914D02*
X111423333Y-62427676D01*
X111423333Y-62427676D02*
X111518571Y-62332438D01*
X111518571Y-62332438D02*
X111661428Y-62284819D01*
X111661428Y-62284819D02*
X111756666Y-62284819D01*
X111756666Y-62284819D02*
X111899523Y-62332438D01*
X111899523Y-62332438D02*
X111947142Y-62380057D01*
X112280476Y-62284819D02*
X112899523Y-62284819D01*
X112899523Y-62284819D02*
X112566190Y-62665771D01*
X112566190Y-62665771D02*
X112709047Y-62665771D01*
X112709047Y-62665771D02*
X112804285Y-62713390D01*
X112804285Y-62713390D02*
X112851904Y-62761009D01*
X112851904Y-62761009D02*
X112899523Y-62856247D01*
X112899523Y-62856247D02*
X112899523Y-63094342D01*
X112899523Y-63094342D02*
X112851904Y-63189580D01*
X112851904Y-63189580D02*
X112804285Y-63237200D01*
X112804285Y-63237200D02*
X112709047Y-63284819D01*
X112709047Y-63284819D02*
X112423333Y-63284819D01*
X112423333Y-63284819D02*
X112328095Y-63237200D01*
X112328095Y-63237200D02*
X112280476Y-63189580D01*
X113851904Y-63284819D02*
X113280476Y-63284819D01*
X113566190Y-63284819D02*
X113566190Y-62284819D01*
X113566190Y-62284819D02*
X113470952Y-62427676D01*
X113470952Y-62427676D02*
X113375714Y-62522914D01*
X113375714Y-62522914D02*
X113280476Y-62570533D01*
X84738095Y-102054819D02*
X84738095Y-101054819D01*
X84738095Y-101531009D02*
X85309523Y-101531009D01*
X85309523Y-102054819D02*
X85309523Y-101054819D01*
X86214285Y-101388152D02*
X86214285Y-102054819D01*
X85976190Y-101007200D02*
X85738095Y-101721485D01*
X85738095Y-101721485D02*
X86357142Y-101721485D01*
X97357142Y-97159580D02*
X97309523Y-97207200D01*
X97309523Y-97207200D02*
X97166666Y-97254819D01*
X97166666Y-97254819D02*
X97071428Y-97254819D01*
X97071428Y-97254819D02*
X96928571Y-97207200D01*
X96928571Y-97207200D02*
X96833333Y-97111961D01*
X96833333Y-97111961D02*
X96785714Y-97016723D01*
X96785714Y-97016723D02*
X96738095Y-96826247D01*
X96738095Y-96826247D02*
X96738095Y-96683390D01*
X96738095Y-96683390D02*
X96785714Y-96492914D01*
X96785714Y-96492914D02*
X96833333Y-96397676D01*
X96833333Y-96397676D02*
X96928571Y-96302438D01*
X96928571Y-96302438D02*
X97071428Y-96254819D01*
X97071428Y-96254819D02*
X97166666Y-96254819D01*
X97166666Y-96254819D02*
X97309523Y-96302438D01*
X97309523Y-96302438D02*
X97357142Y-96350057D01*
X98309523Y-97254819D02*
X97738095Y-97254819D01*
X98023809Y-97254819D02*
X98023809Y-96254819D01*
X98023809Y-96254819D02*
X97928571Y-96397676D01*
X97928571Y-96397676D02*
X97833333Y-96492914D01*
X97833333Y-96492914D02*
X97738095Y-96540533D01*
X99214285Y-96254819D02*
X98738095Y-96254819D01*
X98738095Y-96254819D02*
X98690476Y-96731009D01*
X98690476Y-96731009D02*
X98738095Y-96683390D01*
X98738095Y-96683390D02*
X98833333Y-96635771D01*
X98833333Y-96635771D02*
X99071428Y-96635771D01*
X99071428Y-96635771D02*
X99166666Y-96683390D01*
X99166666Y-96683390D02*
X99214285Y-96731009D01*
X99214285Y-96731009D02*
X99261904Y-96826247D01*
X99261904Y-96826247D02*
X99261904Y-97064342D01*
X99261904Y-97064342D02*
X99214285Y-97159580D01*
X99214285Y-97159580D02*
X99166666Y-97207200D01*
X99166666Y-97207200D02*
X99071428Y-97254819D01*
X99071428Y-97254819D02*
X98833333Y-97254819D01*
X98833333Y-97254819D02*
X98738095Y-97207200D01*
X98738095Y-97207200D02*
X98690476Y-97159580D01*
X99088333Y-86724819D02*
X98612143Y-86724819D01*
X98612143Y-86724819D02*
X98612143Y-85724819D01*
X99945476Y-86724819D02*
X99374048Y-86724819D01*
X99659762Y-86724819D02*
X99659762Y-85724819D01*
X99659762Y-85724819D02*
X99564524Y-85867676D01*
X99564524Y-85867676D02*
X99469286Y-85962914D01*
X99469286Y-85962914D02*
X99374048Y-86010533D01*
X126183333Y-57954819D02*
X125850000Y-57478628D01*
X125611905Y-57954819D02*
X125611905Y-56954819D01*
X125611905Y-56954819D02*
X125992857Y-56954819D01*
X125992857Y-56954819D02*
X126088095Y-57002438D01*
X126088095Y-57002438D02*
X126135714Y-57050057D01*
X126135714Y-57050057D02*
X126183333Y-57145295D01*
X126183333Y-57145295D02*
X126183333Y-57288152D01*
X126183333Y-57288152D02*
X126135714Y-57383390D01*
X126135714Y-57383390D02*
X126088095Y-57431009D01*
X126088095Y-57431009D02*
X125992857Y-57478628D01*
X125992857Y-57478628D02*
X125611905Y-57478628D01*
X127040476Y-57288152D02*
X127040476Y-57954819D01*
X126802381Y-56907200D02*
X126564286Y-57621485D01*
X126564286Y-57621485D02*
X127183333Y-57621485D01*
X96197142Y-92674580D02*
X96149523Y-92722200D01*
X96149523Y-92722200D02*
X96006666Y-92769819D01*
X96006666Y-92769819D02*
X95911428Y-92769819D01*
X95911428Y-92769819D02*
X95768571Y-92722200D01*
X95768571Y-92722200D02*
X95673333Y-92626961D01*
X95673333Y-92626961D02*
X95625714Y-92531723D01*
X95625714Y-92531723D02*
X95578095Y-92341247D01*
X95578095Y-92341247D02*
X95578095Y-92198390D01*
X95578095Y-92198390D02*
X95625714Y-92007914D01*
X95625714Y-92007914D02*
X95673333Y-91912676D01*
X95673333Y-91912676D02*
X95768571Y-91817438D01*
X95768571Y-91817438D02*
X95911428Y-91769819D01*
X95911428Y-91769819D02*
X96006666Y-91769819D01*
X96006666Y-91769819D02*
X96149523Y-91817438D01*
X96149523Y-91817438D02*
X96197142Y-91865057D01*
X97149523Y-92769819D02*
X96578095Y-92769819D01*
X96863809Y-92769819D02*
X96863809Y-91769819D01*
X96863809Y-91769819D02*
X96768571Y-91912676D01*
X96768571Y-91912676D02*
X96673333Y-92007914D01*
X96673333Y-92007914D02*
X96578095Y-92055533D01*
X97625714Y-92769819D02*
X97816190Y-92769819D01*
X97816190Y-92769819D02*
X97911428Y-92722200D01*
X97911428Y-92722200D02*
X97959047Y-92674580D01*
X97959047Y-92674580D02*
X98054285Y-92531723D01*
X98054285Y-92531723D02*
X98101904Y-92341247D01*
X98101904Y-92341247D02*
X98101904Y-91960295D01*
X98101904Y-91960295D02*
X98054285Y-91865057D01*
X98054285Y-91865057D02*
X98006666Y-91817438D01*
X98006666Y-91817438D02*
X97911428Y-91769819D01*
X97911428Y-91769819D02*
X97720952Y-91769819D01*
X97720952Y-91769819D02*
X97625714Y-91817438D01*
X97625714Y-91817438D02*
X97578095Y-91865057D01*
X97578095Y-91865057D02*
X97530476Y-91960295D01*
X97530476Y-91960295D02*
X97530476Y-92198390D01*
X97530476Y-92198390D02*
X97578095Y-92293628D01*
X97578095Y-92293628D02*
X97625714Y-92341247D01*
X97625714Y-92341247D02*
X97720952Y-92388866D01*
X97720952Y-92388866D02*
X97911428Y-92388866D01*
X97911428Y-92388866D02*
X98006666Y-92341247D01*
X98006666Y-92341247D02*
X98054285Y-92293628D01*
X98054285Y-92293628D02*
X98101904Y-92198390D01*
X101333333Y-78054819D02*
X101000000Y-77578628D01*
X100761905Y-78054819D02*
X100761905Y-77054819D01*
X100761905Y-77054819D02*
X101142857Y-77054819D01*
X101142857Y-77054819D02*
X101238095Y-77102438D01*
X101238095Y-77102438D02*
X101285714Y-77150057D01*
X101285714Y-77150057D02*
X101333333Y-77245295D01*
X101333333Y-77245295D02*
X101333333Y-77388152D01*
X101333333Y-77388152D02*
X101285714Y-77483390D01*
X101285714Y-77483390D02*
X101238095Y-77531009D01*
X101238095Y-77531009D02*
X101142857Y-77578628D01*
X101142857Y-77578628D02*
X100761905Y-77578628D01*
X102190476Y-77054819D02*
X102000000Y-77054819D01*
X102000000Y-77054819D02*
X101904762Y-77102438D01*
X101904762Y-77102438D02*
X101857143Y-77150057D01*
X101857143Y-77150057D02*
X101761905Y-77292914D01*
X101761905Y-77292914D02*
X101714286Y-77483390D01*
X101714286Y-77483390D02*
X101714286Y-77864342D01*
X101714286Y-77864342D02*
X101761905Y-77959580D01*
X101761905Y-77959580D02*
X101809524Y-78007200D01*
X101809524Y-78007200D02*
X101904762Y-78054819D01*
X101904762Y-78054819D02*
X102095238Y-78054819D01*
X102095238Y-78054819D02*
X102190476Y-78007200D01*
X102190476Y-78007200D02*
X102238095Y-77959580D01*
X102238095Y-77959580D02*
X102285714Y-77864342D01*
X102285714Y-77864342D02*
X102285714Y-77626247D01*
X102285714Y-77626247D02*
X102238095Y-77531009D01*
X102238095Y-77531009D02*
X102190476Y-77483390D01*
X102190476Y-77483390D02*
X102095238Y-77435771D01*
X102095238Y-77435771D02*
X101904762Y-77435771D01*
X101904762Y-77435771D02*
X101809524Y-77483390D01*
X101809524Y-77483390D02*
X101761905Y-77531009D01*
X101761905Y-77531009D02*
X101714286Y-77626247D01*
X96247142Y-68749580D02*
X96199523Y-68797200D01*
X96199523Y-68797200D02*
X96056666Y-68844819D01*
X96056666Y-68844819D02*
X95961428Y-68844819D01*
X95961428Y-68844819D02*
X95818571Y-68797200D01*
X95818571Y-68797200D02*
X95723333Y-68701961D01*
X95723333Y-68701961D02*
X95675714Y-68606723D01*
X95675714Y-68606723D02*
X95628095Y-68416247D01*
X95628095Y-68416247D02*
X95628095Y-68273390D01*
X95628095Y-68273390D02*
X95675714Y-68082914D01*
X95675714Y-68082914D02*
X95723333Y-67987676D01*
X95723333Y-67987676D02*
X95818571Y-67892438D01*
X95818571Y-67892438D02*
X95961428Y-67844819D01*
X95961428Y-67844819D02*
X96056666Y-67844819D01*
X96056666Y-67844819D02*
X96199523Y-67892438D01*
X96199523Y-67892438D02*
X96247142Y-67940057D01*
X97199523Y-68844819D02*
X96628095Y-68844819D01*
X96913809Y-68844819D02*
X96913809Y-67844819D01*
X96913809Y-67844819D02*
X96818571Y-67987676D01*
X96818571Y-67987676D02*
X96723333Y-68082914D01*
X96723333Y-68082914D02*
X96628095Y-68130533D01*
X98151904Y-68844819D02*
X97580476Y-68844819D01*
X97866190Y-68844819D02*
X97866190Y-67844819D01*
X97866190Y-67844819D02*
X97770952Y-67987676D01*
X97770952Y-67987676D02*
X97675714Y-68082914D01*
X97675714Y-68082914D02*
X97580476Y-68130533D01*
X126761905Y-77354819D02*
X126761905Y-76354819D01*
X126761905Y-76354819D02*
X127000000Y-76354819D01*
X127000000Y-76354819D02*
X127142857Y-76402438D01*
X127142857Y-76402438D02*
X127238095Y-76497676D01*
X127238095Y-76497676D02*
X127285714Y-76592914D01*
X127285714Y-76592914D02*
X127333333Y-76783390D01*
X127333333Y-76783390D02*
X127333333Y-76926247D01*
X127333333Y-76926247D02*
X127285714Y-77116723D01*
X127285714Y-77116723D02*
X127238095Y-77211961D01*
X127238095Y-77211961D02*
X127142857Y-77307200D01*
X127142857Y-77307200D02*
X127000000Y-77354819D01*
X127000000Y-77354819D02*
X126761905Y-77354819D01*
X128285714Y-77354819D02*
X127714286Y-77354819D01*
X128000000Y-77354819D02*
X128000000Y-76354819D01*
X128000000Y-76354819D02*
X127904762Y-76497676D01*
X127904762Y-76497676D02*
X127809524Y-76592914D01*
X127809524Y-76592914D02*
X127714286Y-76640533D01*
X103457142Y-97159580D02*
X103409523Y-97207200D01*
X103409523Y-97207200D02*
X103266666Y-97254819D01*
X103266666Y-97254819D02*
X103171428Y-97254819D01*
X103171428Y-97254819D02*
X103028571Y-97207200D01*
X103028571Y-97207200D02*
X102933333Y-97111961D01*
X102933333Y-97111961D02*
X102885714Y-97016723D01*
X102885714Y-97016723D02*
X102838095Y-96826247D01*
X102838095Y-96826247D02*
X102838095Y-96683390D01*
X102838095Y-96683390D02*
X102885714Y-96492914D01*
X102885714Y-96492914D02*
X102933333Y-96397676D01*
X102933333Y-96397676D02*
X103028571Y-96302438D01*
X103028571Y-96302438D02*
X103171428Y-96254819D01*
X103171428Y-96254819D02*
X103266666Y-96254819D01*
X103266666Y-96254819D02*
X103409523Y-96302438D01*
X103409523Y-96302438D02*
X103457142Y-96350057D01*
X104409523Y-97254819D02*
X103838095Y-97254819D01*
X104123809Y-97254819D02*
X104123809Y-96254819D01*
X104123809Y-96254819D02*
X104028571Y-96397676D01*
X104028571Y-96397676D02*
X103933333Y-96492914D01*
X103933333Y-96492914D02*
X103838095Y-96540533D01*
X105266666Y-96254819D02*
X105076190Y-96254819D01*
X105076190Y-96254819D02*
X104980952Y-96302438D01*
X104980952Y-96302438D02*
X104933333Y-96350057D01*
X104933333Y-96350057D02*
X104838095Y-96492914D01*
X104838095Y-96492914D02*
X104790476Y-96683390D01*
X104790476Y-96683390D02*
X104790476Y-97064342D01*
X104790476Y-97064342D02*
X104838095Y-97159580D01*
X104838095Y-97159580D02*
X104885714Y-97207200D01*
X104885714Y-97207200D02*
X104980952Y-97254819D01*
X104980952Y-97254819D02*
X105171428Y-97254819D01*
X105171428Y-97254819D02*
X105266666Y-97207200D01*
X105266666Y-97207200D02*
X105314285Y-97159580D01*
X105314285Y-97159580D02*
X105361904Y-97064342D01*
X105361904Y-97064342D02*
X105361904Y-96826247D01*
X105361904Y-96826247D02*
X105314285Y-96731009D01*
X105314285Y-96731009D02*
X105266666Y-96683390D01*
X105266666Y-96683390D02*
X105171428Y-96635771D01*
X105171428Y-96635771D02*
X104980952Y-96635771D01*
X104980952Y-96635771D02*
X104885714Y-96683390D01*
X104885714Y-96683390D02*
X104838095Y-96731009D01*
X104838095Y-96731009D02*
X104790476Y-96826247D01*
X122337142Y-54524819D02*
X122003809Y-54048628D01*
X121765714Y-54524819D02*
X121765714Y-53524819D01*
X121765714Y-53524819D02*
X122146666Y-53524819D01*
X122146666Y-53524819D02*
X122241904Y-53572438D01*
X122241904Y-53572438D02*
X122289523Y-53620057D01*
X122289523Y-53620057D02*
X122337142Y-53715295D01*
X122337142Y-53715295D02*
X122337142Y-53858152D01*
X122337142Y-53858152D02*
X122289523Y-53953390D01*
X122289523Y-53953390D02*
X122241904Y-54001009D01*
X122241904Y-54001009D02*
X122146666Y-54048628D01*
X122146666Y-54048628D02*
X121765714Y-54048628D01*
X123289523Y-54524819D02*
X122718095Y-54524819D01*
X123003809Y-54524819D02*
X123003809Y-53524819D01*
X123003809Y-53524819D02*
X122908571Y-53667676D01*
X122908571Y-53667676D02*
X122813333Y-53762914D01*
X122813333Y-53762914D02*
X122718095Y-53810533D01*
X123908571Y-53524819D02*
X124003809Y-53524819D01*
X124003809Y-53524819D02*
X124099047Y-53572438D01*
X124099047Y-53572438D02*
X124146666Y-53620057D01*
X124146666Y-53620057D02*
X124194285Y-53715295D01*
X124194285Y-53715295D02*
X124241904Y-53905771D01*
X124241904Y-53905771D02*
X124241904Y-54143866D01*
X124241904Y-54143866D02*
X124194285Y-54334342D01*
X124194285Y-54334342D02*
X124146666Y-54429580D01*
X124146666Y-54429580D02*
X124099047Y-54477200D01*
X124099047Y-54477200D02*
X124003809Y-54524819D01*
X124003809Y-54524819D02*
X123908571Y-54524819D01*
X123908571Y-54524819D02*
X123813333Y-54477200D01*
X123813333Y-54477200D02*
X123765714Y-54429580D01*
X123765714Y-54429580D02*
X123718095Y-54334342D01*
X123718095Y-54334342D02*
X123670476Y-54143866D01*
X123670476Y-54143866D02*
X123670476Y-53905771D01*
X123670476Y-53905771D02*
X123718095Y-53715295D01*
X123718095Y-53715295D02*
X123765714Y-53620057D01*
X123765714Y-53620057D02*
X123813333Y-53572438D01*
X123813333Y-53572438D02*
X123908571Y-53524819D01*
X109157142Y-86759580D02*
X109109523Y-86807200D01*
X109109523Y-86807200D02*
X108966666Y-86854819D01*
X108966666Y-86854819D02*
X108871428Y-86854819D01*
X108871428Y-86854819D02*
X108728571Y-86807200D01*
X108728571Y-86807200D02*
X108633333Y-86711961D01*
X108633333Y-86711961D02*
X108585714Y-86616723D01*
X108585714Y-86616723D02*
X108538095Y-86426247D01*
X108538095Y-86426247D02*
X108538095Y-86283390D01*
X108538095Y-86283390D02*
X108585714Y-86092914D01*
X108585714Y-86092914D02*
X108633333Y-85997676D01*
X108633333Y-85997676D02*
X108728571Y-85902438D01*
X108728571Y-85902438D02*
X108871428Y-85854819D01*
X108871428Y-85854819D02*
X108966666Y-85854819D01*
X108966666Y-85854819D02*
X109109523Y-85902438D01*
X109109523Y-85902438D02*
X109157142Y-85950057D01*
X110109523Y-86854819D02*
X109538095Y-86854819D01*
X109823809Y-86854819D02*
X109823809Y-85854819D01*
X109823809Y-85854819D02*
X109728571Y-85997676D01*
X109728571Y-85997676D02*
X109633333Y-86092914D01*
X109633333Y-86092914D02*
X109538095Y-86140533D01*
X110966666Y-86188152D02*
X110966666Y-86854819D01*
X110728571Y-85807200D02*
X110490476Y-86521485D01*
X110490476Y-86521485D02*
X111109523Y-86521485D01*
X117444642Y-89929580D02*
X117397023Y-89977200D01*
X117397023Y-89977200D02*
X117254166Y-90024819D01*
X117254166Y-90024819D02*
X117158928Y-90024819D01*
X117158928Y-90024819D02*
X117016071Y-89977200D01*
X117016071Y-89977200D02*
X116920833Y-89881961D01*
X116920833Y-89881961D02*
X116873214Y-89786723D01*
X116873214Y-89786723D02*
X116825595Y-89596247D01*
X116825595Y-89596247D02*
X116825595Y-89453390D01*
X116825595Y-89453390D02*
X116873214Y-89262914D01*
X116873214Y-89262914D02*
X116920833Y-89167676D01*
X116920833Y-89167676D02*
X117016071Y-89072438D01*
X117016071Y-89072438D02*
X117158928Y-89024819D01*
X117158928Y-89024819D02*
X117254166Y-89024819D01*
X117254166Y-89024819D02*
X117397023Y-89072438D01*
X117397023Y-89072438D02*
X117444642Y-89120057D01*
X117825595Y-89120057D02*
X117873214Y-89072438D01*
X117873214Y-89072438D02*
X117968452Y-89024819D01*
X117968452Y-89024819D02*
X118206547Y-89024819D01*
X118206547Y-89024819D02*
X118301785Y-89072438D01*
X118301785Y-89072438D02*
X118349404Y-89120057D01*
X118349404Y-89120057D02*
X118397023Y-89215295D01*
X118397023Y-89215295D02*
X118397023Y-89310533D01*
X118397023Y-89310533D02*
X118349404Y-89453390D01*
X118349404Y-89453390D02*
X117777976Y-90024819D01*
X117777976Y-90024819D02*
X118397023Y-90024819D01*
X118968452Y-89453390D02*
X118873214Y-89405771D01*
X118873214Y-89405771D02*
X118825595Y-89358152D01*
X118825595Y-89358152D02*
X118777976Y-89262914D01*
X118777976Y-89262914D02*
X118777976Y-89215295D01*
X118777976Y-89215295D02*
X118825595Y-89120057D01*
X118825595Y-89120057D02*
X118873214Y-89072438D01*
X118873214Y-89072438D02*
X118968452Y-89024819D01*
X118968452Y-89024819D02*
X119158928Y-89024819D01*
X119158928Y-89024819D02*
X119254166Y-89072438D01*
X119254166Y-89072438D02*
X119301785Y-89120057D01*
X119301785Y-89120057D02*
X119349404Y-89215295D01*
X119349404Y-89215295D02*
X119349404Y-89262914D01*
X119349404Y-89262914D02*
X119301785Y-89358152D01*
X119301785Y-89358152D02*
X119254166Y-89405771D01*
X119254166Y-89405771D02*
X119158928Y-89453390D01*
X119158928Y-89453390D02*
X118968452Y-89453390D01*
X118968452Y-89453390D02*
X118873214Y-89501009D01*
X118873214Y-89501009D02*
X118825595Y-89548628D01*
X118825595Y-89548628D02*
X118777976Y-89643866D01*
X118777976Y-89643866D02*
X118777976Y-89834342D01*
X118777976Y-89834342D02*
X118825595Y-89929580D01*
X118825595Y-89929580D02*
X118873214Y-89977200D01*
X118873214Y-89977200D02*
X118968452Y-90024819D01*
X118968452Y-90024819D02*
X119158928Y-90024819D01*
X119158928Y-90024819D02*
X119254166Y-89977200D01*
X119254166Y-89977200D02*
X119301785Y-89929580D01*
X119301785Y-89929580D02*
X119349404Y-89834342D01*
X119349404Y-89834342D02*
X119349404Y-89643866D01*
X119349404Y-89643866D02*
X119301785Y-89548628D01*
X119301785Y-89548628D02*
X119254166Y-89501009D01*
X119254166Y-89501009D02*
X119158928Y-89453390D01*
X106633333Y-87174819D02*
X106300000Y-86698628D01*
X106061905Y-87174819D02*
X106061905Y-86174819D01*
X106061905Y-86174819D02*
X106442857Y-86174819D01*
X106442857Y-86174819D02*
X106538095Y-86222438D01*
X106538095Y-86222438D02*
X106585714Y-86270057D01*
X106585714Y-86270057D02*
X106633333Y-86365295D01*
X106633333Y-86365295D02*
X106633333Y-86508152D01*
X106633333Y-86508152D02*
X106585714Y-86603390D01*
X106585714Y-86603390D02*
X106538095Y-86651009D01*
X106538095Y-86651009D02*
X106442857Y-86698628D01*
X106442857Y-86698628D02*
X106061905Y-86698628D01*
X107109524Y-87174819D02*
X107300000Y-87174819D01*
X107300000Y-87174819D02*
X107395238Y-87127200D01*
X107395238Y-87127200D02*
X107442857Y-87079580D01*
X107442857Y-87079580D02*
X107538095Y-86936723D01*
X107538095Y-86936723D02*
X107585714Y-86746247D01*
X107585714Y-86746247D02*
X107585714Y-86365295D01*
X107585714Y-86365295D02*
X107538095Y-86270057D01*
X107538095Y-86270057D02*
X107490476Y-86222438D01*
X107490476Y-86222438D02*
X107395238Y-86174819D01*
X107395238Y-86174819D02*
X107204762Y-86174819D01*
X107204762Y-86174819D02*
X107109524Y-86222438D01*
X107109524Y-86222438D02*
X107061905Y-86270057D01*
X107061905Y-86270057D02*
X107014286Y-86365295D01*
X107014286Y-86365295D02*
X107014286Y-86603390D01*
X107014286Y-86603390D02*
X107061905Y-86698628D01*
X107061905Y-86698628D02*
X107109524Y-86746247D01*
X107109524Y-86746247D02*
X107204762Y-86793866D01*
X107204762Y-86793866D02*
X107395238Y-86793866D01*
X107395238Y-86793866D02*
X107490476Y-86746247D01*
X107490476Y-86746247D02*
X107538095Y-86698628D01*
X107538095Y-86698628D02*
X107585714Y-86603390D01*
X119926666Y-52374819D02*
X119926666Y-53089104D01*
X119926666Y-53089104D02*
X119879047Y-53231961D01*
X119879047Y-53231961D02*
X119783809Y-53327200D01*
X119783809Y-53327200D02*
X119640952Y-53374819D01*
X119640952Y-53374819D02*
X119545714Y-53374819D01*
X120355238Y-52470057D02*
X120402857Y-52422438D01*
X120402857Y-52422438D02*
X120498095Y-52374819D01*
X120498095Y-52374819D02*
X120736190Y-52374819D01*
X120736190Y-52374819D02*
X120831428Y-52422438D01*
X120831428Y-52422438D02*
X120879047Y-52470057D01*
X120879047Y-52470057D02*
X120926666Y-52565295D01*
X120926666Y-52565295D02*
X120926666Y-52660533D01*
X120926666Y-52660533D02*
X120879047Y-52803390D01*
X120879047Y-52803390D02*
X120307619Y-53374819D01*
X120307619Y-53374819D02*
X120926666Y-53374819D01*
X87816667Y-58607200D02*
X87959524Y-58654819D01*
X87959524Y-58654819D02*
X88197619Y-58654819D01*
X88197619Y-58654819D02*
X88292857Y-58607200D01*
X88292857Y-58607200D02*
X88340476Y-58559580D01*
X88340476Y-58559580D02*
X88388095Y-58464342D01*
X88388095Y-58464342D02*
X88388095Y-58369104D01*
X88388095Y-58369104D02*
X88340476Y-58273866D01*
X88340476Y-58273866D02*
X88292857Y-58226247D01*
X88292857Y-58226247D02*
X88197619Y-58178628D01*
X88197619Y-58178628D02*
X88007143Y-58131009D01*
X88007143Y-58131009D02*
X87911905Y-58083390D01*
X87911905Y-58083390D02*
X87864286Y-58035771D01*
X87864286Y-58035771D02*
X87816667Y-57940533D01*
X87816667Y-57940533D02*
X87816667Y-57845295D01*
X87816667Y-57845295D02*
X87864286Y-57750057D01*
X87864286Y-57750057D02*
X87911905Y-57702438D01*
X87911905Y-57702438D02*
X88007143Y-57654819D01*
X88007143Y-57654819D02*
X88245238Y-57654819D01*
X88245238Y-57654819D02*
X88388095Y-57702438D01*
X88721429Y-57654819D02*
X88959524Y-58654819D01*
X88959524Y-58654819D02*
X89150000Y-57940533D01*
X89150000Y-57940533D02*
X89340476Y-58654819D01*
X89340476Y-58654819D02*
X89578572Y-57654819D01*
X89911905Y-57750057D02*
X89959524Y-57702438D01*
X89959524Y-57702438D02*
X90054762Y-57654819D01*
X90054762Y-57654819D02*
X90292857Y-57654819D01*
X90292857Y-57654819D02*
X90388095Y-57702438D01*
X90388095Y-57702438D02*
X90435714Y-57750057D01*
X90435714Y-57750057D02*
X90483333Y-57845295D01*
X90483333Y-57845295D02*
X90483333Y-57940533D01*
X90483333Y-57940533D02*
X90435714Y-58083390D01*
X90435714Y-58083390D02*
X89864286Y-58654819D01*
X89864286Y-58654819D02*
X90483333Y-58654819D01*
X111113095Y-98254819D02*
X111113095Y-99064342D01*
X111113095Y-99064342D02*
X111160714Y-99159580D01*
X111160714Y-99159580D02*
X111208333Y-99207200D01*
X111208333Y-99207200D02*
X111303571Y-99254819D01*
X111303571Y-99254819D02*
X111494047Y-99254819D01*
X111494047Y-99254819D02*
X111589285Y-99207200D01*
X111589285Y-99207200D02*
X111636904Y-99159580D01*
X111636904Y-99159580D02*
X111684523Y-99064342D01*
X111684523Y-99064342D02*
X111684523Y-98254819D01*
X112589285Y-98588152D02*
X112589285Y-99254819D01*
X112351190Y-98207200D02*
X112113095Y-98921485D01*
X112113095Y-98921485D02*
X112732142Y-98921485D01*
X95575833Y-87054819D02*
X95242500Y-86578628D01*
X95004405Y-87054819D02*
X95004405Y-86054819D01*
X95004405Y-86054819D02*
X95385357Y-86054819D01*
X95385357Y-86054819D02*
X95480595Y-86102438D01*
X95480595Y-86102438D02*
X95528214Y-86150057D01*
X95528214Y-86150057D02*
X95575833Y-86245295D01*
X95575833Y-86245295D02*
X95575833Y-86388152D01*
X95575833Y-86388152D02*
X95528214Y-86483390D01*
X95528214Y-86483390D02*
X95480595Y-86531009D01*
X95480595Y-86531009D02*
X95385357Y-86578628D01*
X95385357Y-86578628D02*
X95004405Y-86578628D01*
X96480595Y-86054819D02*
X96004405Y-86054819D01*
X96004405Y-86054819D02*
X95956786Y-86531009D01*
X95956786Y-86531009D02*
X96004405Y-86483390D01*
X96004405Y-86483390D02*
X96099643Y-86435771D01*
X96099643Y-86435771D02*
X96337738Y-86435771D01*
X96337738Y-86435771D02*
X96432976Y-86483390D01*
X96432976Y-86483390D02*
X96480595Y-86531009D01*
X96480595Y-86531009D02*
X96528214Y-86626247D01*
X96528214Y-86626247D02*
X96528214Y-86864342D01*
X96528214Y-86864342D02*
X96480595Y-86959580D01*
X96480595Y-86959580D02*
X96432976Y-87007200D01*
X96432976Y-87007200D02*
X96337738Y-87054819D01*
X96337738Y-87054819D02*
X96099643Y-87054819D01*
X96099643Y-87054819D02*
X96004405Y-87007200D01*
X96004405Y-87007200D02*
X95956786Y-86959580D01*
X106697142Y-99747080D02*
X106649523Y-99794700D01*
X106649523Y-99794700D02*
X106506666Y-99842319D01*
X106506666Y-99842319D02*
X106411428Y-99842319D01*
X106411428Y-99842319D02*
X106268571Y-99794700D01*
X106268571Y-99794700D02*
X106173333Y-99699461D01*
X106173333Y-99699461D02*
X106125714Y-99604223D01*
X106125714Y-99604223D02*
X106078095Y-99413747D01*
X106078095Y-99413747D02*
X106078095Y-99270890D01*
X106078095Y-99270890D02*
X106125714Y-99080414D01*
X106125714Y-99080414D02*
X106173333Y-98985176D01*
X106173333Y-98985176D02*
X106268571Y-98889938D01*
X106268571Y-98889938D02*
X106411428Y-98842319D01*
X106411428Y-98842319D02*
X106506666Y-98842319D01*
X106506666Y-98842319D02*
X106649523Y-98889938D01*
X106649523Y-98889938D02*
X106697142Y-98937557D01*
X107078095Y-98937557D02*
X107125714Y-98889938D01*
X107125714Y-98889938D02*
X107220952Y-98842319D01*
X107220952Y-98842319D02*
X107459047Y-98842319D01*
X107459047Y-98842319D02*
X107554285Y-98889938D01*
X107554285Y-98889938D02*
X107601904Y-98937557D01*
X107601904Y-98937557D02*
X107649523Y-99032795D01*
X107649523Y-99032795D02*
X107649523Y-99128033D01*
X107649523Y-99128033D02*
X107601904Y-99270890D01*
X107601904Y-99270890D02*
X107030476Y-99842319D01*
X107030476Y-99842319D02*
X107649523Y-99842319D01*
X108506666Y-99175652D02*
X108506666Y-99842319D01*
X108268571Y-98794700D02*
X108030476Y-99508985D01*
X108030476Y-99508985D02*
X108649523Y-99508985D01*
X120080833Y-80889580D02*
X120033214Y-80937200D01*
X120033214Y-80937200D02*
X119890357Y-80984819D01*
X119890357Y-80984819D02*
X119795119Y-80984819D01*
X119795119Y-80984819D02*
X119652262Y-80937200D01*
X119652262Y-80937200D02*
X119557024Y-80841961D01*
X119557024Y-80841961D02*
X119509405Y-80746723D01*
X119509405Y-80746723D02*
X119461786Y-80556247D01*
X119461786Y-80556247D02*
X119461786Y-80413390D01*
X119461786Y-80413390D02*
X119509405Y-80222914D01*
X119509405Y-80222914D02*
X119557024Y-80127676D01*
X119557024Y-80127676D02*
X119652262Y-80032438D01*
X119652262Y-80032438D02*
X119795119Y-79984819D01*
X119795119Y-79984819D02*
X119890357Y-79984819D01*
X119890357Y-79984819D02*
X120033214Y-80032438D01*
X120033214Y-80032438D02*
X120080833Y-80080057D01*
X120557024Y-80984819D02*
X120747500Y-80984819D01*
X120747500Y-80984819D02*
X120842738Y-80937200D01*
X120842738Y-80937200D02*
X120890357Y-80889580D01*
X120890357Y-80889580D02*
X120985595Y-80746723D01*
X120985595Y-80746723D02*
X121033214Y-80556247D01*
X121033214Y-80556247D02*
X121033214Y-80175295D01*
X121033214Y-80175295D02*
X120985595Y-80080057D01*
X120985595Y-80080057D02*
X120937976Y-80032438D01*
X120937976Y-80032438D02*
X120842738Y-79984819D01*
X120842738Y-79984819D02*
X120652262Y-79984819D01*
X120652262Y-79984819D02*
X120557024Y-80032438D01*
X120557024Y-80032438D02*
X120509405Y-80080057D01*
X120509405Y-80080057D02*
X120461786Y-80175295D01*
X120461786Y-80175295D02*
X120461786Y-80413390D01*
X120461786Y-80413390D02*
X120509405Y-80508628D01*
X120509405Y-80508628D02*
X120557024Y-80556247D01*
X120557024Y-80556247D02*
X120652262Y-80603866D01*
X120652262Y-80603866D02*
X120842738Y-80603866D01*
X120842738Y-80603866D02*
X120937976Y-80556247D01*
X120937976Y-80556247D02*
X120985595Y-80508628D01*
X120985595Y-80508628D02*
X121033214Y-80413390D01*
X92888333Y-86529580D02*
X92840714Y-86577200D01*
X92840714Y-86577200D02*
X92697857Y-86624819D01*
X92697857Y-86624819D02*
X92602619Y-86624819D01*
X92602619Y-86624819D02*
X92459762Y-86577200D01*
X92459762Y-86577200D02*
X92364524Y-86481961D01*
X92364524Y-86481961D02*
X92316905Y-86386723D01*
X92316905Y-86386723D02*
X92269286Y-86196247D01*
X92269286Y-86196247D02*
X92269286Y-86053390D01*
X92269286Y-86053390D02*
X92316905Y-85862914D01*
X92316905Y-85862914D02*
X92364524Y-85767676D01*
X92364524Y-85767676D02*
X92459762Y-85672438D01*
X92459762Y-85672438D02*
X92602619Y-85624819D01*
X92602619Y-85624819D02*
X92697857Y-85624819D01*
X92697857Y-85624819D02*
X92840714Y-85672438D01*
X92840714Y-85672438D02*
X92888333Y-85720057D01*
X93745476Y-85624819D02*
X93555000Y-85624819D01*
X93555000Y-85624819D02*
X93459762Y-85672438D01*
X93459762Y-85672438D02*
X93412143Y-85720057D01*
X93412143Y-85720057D02*
X93316905Y-85862914D01*
X93316905Y-85862914D02*
X93269286Y-86053390D01*
X93269286Y-86053390D02*
X93269286Y-86434342D01*
X93269286Y-86434342D02*
X93316905Y-86529580D01*
X93316905Y-86529580D02*
X93364524Y-86577200D01*
X93364524Y-86577200D02*
X93459762Y-86624819D01*
X93459762Y-86624819D02*
X93650238Y-86624819D01*
X93650238Y-86624819D02*
X93745476Y-86577200D01*
X93745476Y-86577200D02*
X93793095Y-86529580D01*
X93793095Y-86529580D02*
X93840714Y-86434342D01*
X93840714Y-86434342D02*
X93840714Y-86196247D01*
X93840714Y-86196247D02*
X93793095Y-86101009D01*
X93793095Y-86101009D02*
X93745476Y-86053390D01*
X93745476Y-86053390D02*
X93650238Y-86005771D01*
X93650238Y-86005771D02*
X93459762Y-86005771D01*
X93459762Y-86005771D02*
X93364524Y-86053390D01*
X93364524Y-86053390D02*
X93316905Y-86101009D01*
X93316905Y-86101009D02*
X93269286Y-86196247D01*
X97257142Y-73659580D02*
X97209523Y-73707200D01*
X97209523Y-73707200D02*
X97066666Y-73754819D01*
X97066666Y-73754819D02*
X96971428Y-73754819D01*
X96971428Y-73754819D02*
X96828571Y-73707200D01*
X96828571Y-73707200D02*
X96733333Y-73611961D01*
X96733333Y-73611961D02*
X96685714Y-73516723D01*
X96685714Y-73516723D02*
X96638095Y-73326247D01*
X96638095Y-73326247D02*
X96638095Y-73183390D01*
X96638095Y-73183390D02*
X96685714Y-72992914D01*
X96685714Y-72992914D02*
X96733333Y-72897676D01*
X96733333Y-72897676D02*
X96828571Y-72802438D01*
X96828571Y-72802438D02*
X96971428Y-72754819D01*
X96971428Y-72754819D02*
X97066666Y-72754819D01*
X97066666Y-72754819D02*
X97209523Y-72802438D01*
X97209523Y-72802438D02*
X97257142Y-72850057D01*
X98209523Y-73754819D02*
X97638095Y-73754819D01*
X97923809Y-73754819D02*
X97923809Y-72754819D01*
X97923809Y-72754819D02*
X97828571Y-72897676D01*
X97828571Y-72897676D02*
X97733333Y-72992914D01*
X97733333Y-72992914D02*
X97638095Y-73040533D01*
X98828571Y-72754819D02*
X98923809Y-72754819D01*
X98923809Y-72754819D02*
X99019047Y-72802438D01*
X99019047Y-72802438D02*
X99066666Y-72850057D01*
X99066666Y-72850057D02*
X99114285Y-72945295D01*
X99114285Y-72945295D02*
X99161904Y-73135771D01*
X99161904Y-73135771D02*
X99161904Y-73373866D01*
X99161904Y-73373866D02*
X99114285Y-73564342D01*
X99114285Y-73564342D02*
X99066666Y-73659580D01*
X99066666Y-73659580D02*
X99019047Y-73707200D01*
X99019047Y-73707200D02*
X98923809Y-73754819D01*
X98923809Y-73754819D02*
X98828571Y-73754819D01*
X98828571Y-73754819D02*
X98733333Y-73707200D01*
X98733333Y-73707200D02*
X98685714Y-73659580D01*
X98685714Y-73659580D02*
X98638095Y-73564342D01*
X98638095Y-73564342D02*
X98590476Y-73373866D01*
X98590476Y-73373866D02*
X98590476Y-73135771D01*
X98590476Y-73135771D02*
X98638095Y-72945295D01*
X98638095Y-72945295D02*
X98685714Y-72850057D01*
X98685714Y-72850057D02*
X98733333Y-72802438D01*
X98733333Y-72802438D02*
X98828571Y-72754819D01*
X107807142Y-90099580D02*
X107759523Y-90147200D01*
X107759523Y-90147200D02*
X107616666Y-90194819D01*
X107616666Y-90194819D02*
X107521428Y-90194819D01*
X107521428Y-90194819D02*
X107378571Y-90147200D01*
X107378571Y-90147200D02*
X107283333Y-90051961D01*
X107283333Y-90051961D02*
X107235714Y-89956723D01*
X107235714Y-89956723D02*
X107188095Y-89766247D01*
X107188095Y-89766247D02*
X107188095Y-89623390D01*
X107188095Y-89623390D02*
X107235714Y-89432914D01*
X107235714Y-89432914D02*
X107283333Y-89337676D01*
X107283333Y-89337676D02*
X107378571Y-89242438D01*
X107378571Y-89242438D02*
X107521428Y-89194819D01*
X107521428Y-89194819D02*
X107616666Y-89194819D01*
X107616666Y-89194819D02*
X107759523Y-89242438D01*
X107759523Y-89242438D02*
X107807142Y-89290057D01*
X108188095Y-89290057D02*
X108235714Y-89242438D01*
X108235714Y-89242438D02*
X108330952Y-89194819D01*
X108330952Y-89194819D02*
X108569047Y-89194819D01*
X108569047Y-89194819D02*
X108664285Y-89242438D01*
X108664285Y-89242438D02*
X108711904Y-89290057D01*
X108711904Y-89290057D02*
X108759523Y-89385295D01*
X108759523Y-89385295D02*
X108759523Y-89480533D01*
X108759523Y-89480533D02*
X108711904Y-89623390D01*
X108711904Y-89623390D02*
X108140476Y-90194819D01*
X108140476Y-90194819D02*
X108759523Y-90194819D01*
X109092857Y-89194819D02*
X109711904Y-89194819D01*
X109711904Y-89194819D02*
X109378571Y-89575771D01*
X109378571Y-89575771D02*
X109521428Y-89575771D01*
X109521428Y-89575771D02*
X109616666Y-89623390D01*
X109616666Y-89623390D02*
X109664285Y-89671009D01*
X109664285Y-89671009D02*
X109711904Y-89766247D01*
X109711904Y-89766247D02*
X109711904Y-90004342D01*
X109711904Y-90004342D02*
X109664285Y-90099580D01*
X109664285Y-90099580D02*
X109616666Y-90147200D01*
X109616666Y-90147200D02*
X109521428Y-90194819D01*
X109521428Y-90194819D02*
X109235714Y-90194819D01*
X109235714Y-90194819D02*
X109140476Y-90147200D01*
X109140476Y-90147200D02*
X109092857Y-90099580D01*
X89633333Y-78554819D02*
X89300000Y-78078628D01*
X89061905Y-78554819D02*
X89061905Y-77554819D01*
X89061905Y-77554819D02*
X89442857Y-77554819D01*
X89442857Y-77554819D02*
X89538095Y-77602438D01*
X89538095Y-77602438D02*
X89585714Y-77650057D01*
X89585714Y-77650057D02*
X89633333Y-77745295D01*
X89633333Y-77745295D02*
X89633333Y-77888152D01*
X89633333Y-77888152D02*
X89585714Y-77983390D01*
X89585714Y-77983390D02*
X89538095Y-78031009D01*
X89538095Y-78031009D02*
X89442857Y-78078628D01*
X89442857Y-78078628D02*
X89061905Y-78078628D01*
X89966667Y-77554819D02*
X90585714Y-77554819D01*
X90585714Y-77554819D02*
X90252381Y-77935771D01*
X90252381Y-77935771D02*
X90395238Y-77935771D01*
X90395238Y-77935771D02*
X90490476Y-77983390D01*
X90490476Y-77983390D02*
X90538095Y-78031009D01*
X90538095Y-78031009D02*
X90585714Y-78126247D01*
X90585714Y-78126247D02*
X90585714Y-78364342D01*
X90585714Y-78364342D02*
X90538095Y-78459580D01*
X90538095Y-78459580D02*
X90490476Y-78507200D01*
X90490476Y-78507200D02*
X90395238Y-78554819D01*
X90395238Y-78554819D02*
X90109524Y-78554819D01*
X90109524Y-78554819D02*
X90014286Y-78507200D01*
X90014286Y-78507200D02*
X89966667Y-78459580D01*
X97993095Y-75724819D02*
X97993095Y-76534342D01*
X97993095Y-76534342D02*
X98040714Y-76629580D01*
X98040714Y-76629580D02*
X98088333Y-76677200D01*
X98088333Y-76677200D02*
X98183571Y-76724819D01*
X98183571Y-76724819D02*
X98374047Y-76724819D01*
X98374047Y-76724819D02*
X98469285Y-76677200D01*
X98469285Y-76677200D02*
X98516904Y-76629580D01*
X98516904Y-76629580D02*
X98564523Y-76534342D01*
X98564523Y-76534342D02*
X98564523Y-75724819D01*
X99469285Y-75724819D02*
X99278809Y-75724819D01*
X99278809Y-75724819D02*
X99183571Y-75772438D01*
X99183571Y-75772438D02*
X99135952Y-75820057D01*
X99135952Y-75820057D02*
X99040714Y-75962914D01*
X99040714Y-75962914D02*
X98993095Y-76153390D01*
X98993095Y-76153390D02*
X98993095Y-76534342D01*
X98993095Y-76534342D02*
X99040714Y-76629580D01*
X99040714Y-76629580D02*
X99088333Y-76677200D01*
X99088333Y-76677200D02*
X99183571Y-76724819D01*
X99183571Y-76724819D02*
X99374047Y-76724819D01*
X99374047Y-76724819D02*
X99469285Y-76677200D01*
X99469285Y-76677200D02*
X99516904Y-76629580D01*
X99516904Y-76629580D02*
X99564523Y-76534342D01*
X99564523Y-76534342D02*
X99564523Y-76296247D01*
X99564523Y-76296247D02*
X99516904Y-76201009D01*
X99516904Y-76201009D02*
X99469285Y-76153390D01*
X99469285Y-76153390D02*
X99374047Y-76105771D01*
X99374047Y-76105771D02*
X99183571Y-76105771D01*
X99183571Y-76105771D02*
X99088333Y-76153390D01*
X99088333Y-76153390D02*
X99040714Y-76201009D01*
X99040714Y-76201009D02*
X98993095Y-76296247D01*
X102833333Y-86754819D02*
X102357143Y-86754819D01*
X102357143Y-86754819D02*
X102357143Y-85754819D01*
X103071429Y-85754819D02*
X103690476Y-85754819D01*
X103690476Y-85754819D02*
X103357143Y-86135771D01*
X103357143Y-86135771D02*
X103500000Y-86135771D01*
X103500000Y-86135771D02*
X103595238Y-86183390D01*
X103595238Y-86183390D02*
X103642857Y-86231009D01*
X103642857Y-86231009D02*
X103690476Y-86326247D01*
X103690476Y-86326247D02*
X103690476Y-86564342D01*
X103690476Y-86564342D02*
X103642857Y-86659580D01*
X103642857Y-86659580D02*
X103595238Y-86707200D01*
X103595238Y-86707200D02*
X103500000Y-86754819D01*
X103500000Y-86754819D02*
X103214286Y-86754819D01*
X103214286Y-86754819D02*
X103119048Y-86707200D01*
X103119048Y-86707200D02*
X103071429Y-86659580D01*
X103957142Y-101154819D02*
X103623809Y-100678628D01*
X103385714Y-101154819D02*
X103385714Y-100154819D01*
X103385714Y-100154819D02*
X103766666Y-100154819D01*
X103766666Y-100154819D02*
X103861904Y-100202438D01*
X103861904Y-100202438D02*
X103909523Y-100250057D01*
X103909523Y-100250057D02*
X103957142Y-100345295D01*
X103957142Y-100345295D02*
X103957142Y-100488152D01*
X103957142Y-100488152D02*
X103909523Y-100583390D01*
X103909523Y-100583390D02*
X103861904Y-100631009D01*
X103861904Y-100631009D02*
X103766666Y-100678628D01*
X103766666Y-100678628D02*
X103385714Y-100678628D01*
X104909523Y-101154819D02*
X104338095Y-101154819D01*
X104623809Y-101154819D02*
X104623809Y-100154819D01*
X104623809Y-100154819D02*
X104528571Y-100297676D01*
X104528571Y-100297676D02*
X104433333Y-100392914D01*
X104433333Y-100392914D02*
X104338095Y-100440533D01*
X105242857Y-100154819D02*
X105861904Y-100154819D01*
X105861904Y-100154819D02*
X105528571Y-100535771D01*
X105528571Y-100535771D02*
X105671428Y-100535771D01*
X105671428Y-100535771D02*
X105766666Y-100583390D01*
X105766666Y-100583390D02*
X105814285Y-100631009D01*
X105814285Y-100631009D02*
X105861904Y-100726247D01*
X105861904Y-100726247D02*
X105861904Y-100964342D01*
X105861904Y-100964342D02*
X105814285Y-101059580D01*
X105814285Y-101059580D02*
X105766666Y-101107200D01*
X105766666Y-101107200D02*
X105671428Y-101154819D01*
X105671428Y-101154819D02*
X105385714Y-101154819D01*
X105385714Y-101154819D02*
X105290476Y-101107200D01*
X105290476Y-101107200D02*
X105242857Y-101059580D01*
X95303333Y-64839580D02*
X95255714Y-64887200D01*
X95255714Y-64887200D02*
X95112857Y-64934819D01*
X95112857Y-64934819D02*
X95017619Y-64934819D01*
X95017619Y-64934819D02*
X94874762Y-64887200D01*
X94874762Y-64887200D02*
X94779524Y-64791961D01*
X94779524Y-64791961D02*
X94731905Y-64696723D01*
X94731905Y-64696723D02*
X94684286Y-64506247D01*
X94684286Y-64506247D02*
X94684286Y-64363390D01*
X94684286Y-64363390D02*
X94731905Y-64172914D01*
X94731905Y-64172914D02*
X94779524Y-64077676D01*
X94779524Y-64077676D02*
X94874762Y-63982438D01*
X94874762Y-63982438D02*
X95017619Y-63934819D01*
X95017619Y-63934819D02*
X95112857Y-63934819D01*
X95112857Y-63934819D02*
X95255714Y-63982438D01*
X95255714Y-63982438D02*
X95303333Y-64030057D01*
X96208095Y-63934819D02*
X95731905Y-63934819D01*
X95731905Y-63934819D02*
X95684286Y-64411009D01*
X95684286Y-64411009D02*
X95731905Y-64363390D01*
X95731905Y-64363390D02*
X95827143Y-64315771D01*
X95827143Y-64315771D02*
X96065238Y-64315771D01*
X96065238Y-64315771D02*
X96160476Y-64363390D01*
X96160476Y-64363390D02*
X96208095Y-64411009D01*
X96208095Y-64411009D02*
X96255714Y-64506247D01*
X96255714Y-64506247D02*
X96255714Y-64744342D01*
X96255714Y-64744342D02*
X96208095Y-64839580D01*
X96208095Y-64839580D02*
X96160476Y-64887200D01*
X96160476Y-64887200D02*
X96065238Y-64934819D01*
X96065238Y-64934819D02*
X95827143Y-64934819D01*
X95827143Y-64934819D02*
X95731905Y-64887200D01*
X95731905Y-64887200D02*
X95684286Y-64839580D01*
X127037142Y-61184819D02*
X126703809Y-60708628D01*
X126465714Y-61184819D02*
X126465714Y-60184819D01*
X126465714Y-60184819D02*
X126846666Y-60184819D01*
X126846666Y-60184819D02*
X126941904Y-60232438D01*
X126941904Y-60232438D02*
X126989523Y-60280057D01*
X126989523Y-60280057D02*
X127037142Y-60375295D01*
X127037142Y-60375295D02*
X127037142Y-60518152D01*
X127037142Y-60518152D02*
X126989523Y-60613390D01*
X126989523Y-60613390D02*
X126941904Y-60661009D01*
X126941904Y-60661009D02*
X126846666Y-60708628D01*
X126846666Y-60708628D02*
X126465714Y-60708628D01*
X127989523Y-61184819D02*
X127418095Y-61184819D01*
X127703809Y-61184819D02*
X127703809Y-60184819D01*
X127703809Y-60184819D02*
X127608571Y-60327676D01*
X127608571Y-60327676D02*
X127513333Y-60422914D01*
X127513333Y-60422914D02*
X127418095Y-60470533D01*
X128941904Y-61184819D02*
X128370476Y-61184819D01*
X128656190Y-61184819D02*
X128656190Y-60184819D01*
X128656190Y-60184819D02*
X128560952Y-60327676D01*
X128560952Y-60327676D02*
X128465714Y-60422914D01*
X128465714Y-60422914D02*
X128370476Y-60470533D01*
D12*
X129977500Y-79145276D02*
X129977500Y-79654724D01*
X131022500Y-79145276D02*
X131022500Y-79654724D01*
X109546267Y-74610000D02*
X109253733Y-74610000D01*
X109546267Y-75630000D02*
X109253733Y-75630000D01*
X105955835Y-91255000D02*
X105724165Y-91255000D01*
X105955835Y-91975000D02*
X105724165Y-91975000D01*
X98720000Y-54500000D02*
X98720000Y-57160000D01*
X106400000Y-54500000D02*
X98720000Y-54500000D01*
X106400000Y-54500000D02*
X106400000Y-57160000D01*
X106400000Y-57160000D02*
X98720000Y-57160000D01*
X107670000Y-54500000D02*
X109000000Y-54500000D01*
X109000000Y-54500000D02*
X109000000Y-55830000D01*
X114027500Y-95453733D02*
X114027500Y-95746267D01*
X115047500Y-95453733D02*
X115047500Y-95746267D01*
X113733733Y-65440000D02*
X114026267Y-65440000D01*
X113733733Y-66460000D02*
X114026267Y-66460000D01*
X114653733Y-87490000D02*
X114946267Y-87490000D01*
X114653733Y-88510000D02*
X114946267Y-88510000D01*
X95858767Y-80740000D02*
X95566233Y-80740000D01*
X95858767Y-81760000D02*
X95566233Y-81760000D01*
X100265000Y-65370000D02*
X100265000Y-65670000D01*
X100265000Y-72590000D02*
X100265000Y-72290000D01*
X100565000Y-65370000D02*
X100265000Y-65370000D01*
X100565000Y-72590000D02*
X100265000Y-72590000D01*
X107185000Y-65370000D02*
X107485000Y-65370000D01*
X107185000Y-72590000D02*
X107485000Y-72590000D01*
X107485000Y-65370000D02*
X107485000Y-65670000D01*
X107485000Y-72590000D02*
X107485000Y-72290000D01*
X99662500Y-65670000D02*
X99322500Y-65200000D01*
X100002500Y-65200000D01*
X99662500Y-65670000D01*
G36*
X99662500Y-65670000D02*
G01*
X99322500Y-65200000D01*
X100002500Y-65200000D01*
X99662500Y-65670000D01*
G37*
X98927776Y-98582500D02*
X99437224Y-98582500D01*
X98927776Y-99627500D02*
X99437224Y-99627500D01*
X108910000Y-97266665D02*
X108910000Y-97498335D01*
X109630000Y-97266665D02*
X109630000Y-97498335D01*
X116800000Y-91800000D02*
X117000000Y-91600000D01*
X116800000Y-92400000D02*
X116300000Y-92400000D01*
X116800000Y-92400000D02*
X116800000Y-91800000D01*
X116800000Y-93800000D02*
X116300000Y-93800000D01*
X116800000Y-94600000D02*
X116800000Y-93800000D01*
X117000000Y-94600000D02*
X116800000Y-94600000D01*
X119600000Y-91600000D02*
X119800000Y-91600000D01*
X119800000Y-91600000D02*
X119800000Y-92400000D01*
X119800000Y-93800000D02*
X119800000Y-94600000D01*
X119800000Y-94600000D02*
X119600000Y-94600000D01*
X99457500Y-91040000D02*
X99457500Y-90805000D01*
X99457500Y-94785000D02*
X99457500Y-94310000D01*
X99932500Y-90565000D02*
X99757500Y-90565000D01*
X99932500Y-94785000D02*
X99457500Y-94785000D01*
X103202500Y-90565000D02*
X103677500Y-90565000D01*
X103202500Y-94785000D02*
X103677500Y-94785000D01*
X103677500Y-90565000D02*
X103677500Y-91040000D01*
X103677500Y-94785000D02*
X103677500Y-94310000D01*
X99457500Y-90565000D02*
X99217500Y-90235000D01*
X99697500Y-90235000D01*
X99457500Y-90565000D01*
G36*
X99457500Y-90565000D02*
G01*
X99217500Y-90235000D01*
X99697500Y-90235000D01*
X99457500Y-90565000D01*
G37*
X110427500Y-91238748D02*
X110427500Y-91761252D01*
X112647500Y-91238748D02*
X112647500Y-91761252D01*
X95395276Y-60037500D02*
X95904724Y-60037500D01*
X95395276Y-61082500D02*
X95904724Y-61082500D01*
X105690000Y-80055000D02*
X107490000Y-80055000D01*
X106690000Y-76835000D02*
X105890000Y-76835000D01*
X106690000Y-76835000D02*
X107490000Y-76835000D01*
X105390000Y-76885000D02*
X105150000Y-76555000D01*
X105630000Y-76555000D01*
X105390000Y-76885000D01*
G36*
X105390000Y-76885000D02*
G01*
X105150000Y-76555000D01*
X105630000Y-76555000D01*
X105390000Y-76885000D01*
G37*
X105955835Y-93655000D02*
X105724165Y-93655000D01*
X105955835Y-94375000D02*
X105724165Y-94375000D01*
X105955835Y-92455000D02*
X105724165Y-92455000D01*
X105955835Y-93175000D02*
X105724165Y-93175000D01*
X104590000Y-103246267D02*
X104590000Y-102953733D01*
X105610000Y-103246267D02*
X105610000Y-102953733D01*
X127053733Y-80190000D02*
X127346267Y-80190000D01*
X127053733Y-81210000D02*
X127346267Y-81210000D01*
X111332224Y-78922500D02*
X110822776Y-78922500D01*
X111332224Y-79967500D02*
X110822776Y-79967500D01*
X108740000Y-82497936D02*
X108740000Y-83702064D01*
X111460000Y-82497936D02*
X111460000Y-83702064D01*
X114184165Y-92740000D02*
X114415835Y-92740000D01*
X114184165Y-93460000D02*
X114415835Y-93460000D01*
X106396233Y-80835000D02*
X106688767Y-80835000D01*
X106396233Y-81855000D02*
X106688767Y-81855000D01*
D11*
X83700000Y-83500000D02*
X88700000Y-83500000D01*
X88700000Y-78500000D01*
X83700000Y-78500000D01*
X83700000Y-83500000D01*
D12*
X116700000Y-57970000D02*
X116700000Y-59890000D01*
X116700000Y-59890000D02*
X119560000Y-59890000D01*
X119560000Y-57970000D02*
X116700000Y-57970000D01*
X98428733Y-104690000D02*
X98771267Y-104690000D01*
X98428733Y-105710000D02*
X98771267Y-105710000D01*
X116672500Y-60260000D02*
X116672500Y-62180000D01*
X116672500Y-62180000D02*
X119532500Y-62180000D01*
X119532500Y-60260000D02*
X116672500Y-60260000D01*
X86953733Y-75990000D02*
X87246267Y-75990000D01*
X86953733Y-77010000D02*
X87246267Y-77010000D01*
X92467224Y-76327500D02*
X91957776Y-76327500D01*
X92467224Y-77372500D02*
X91957776Y-77372500D01*
X85975000Y-64160000D02*
X85975000Y-70560000D01*
X91025000Y-64160000D02*
X91025000Y-70560000D01*
X85975000Y-64160000D02*
G75*
G02*
X91025000Y-64160000I2525000J0D01*
G01*
X91025000Y-70560000D02*
G75*
G02*
X85975000Y-70560000I-2525000J0D01*
G01*
X91790000Y-70553733D02*
X91790000Y-70846267D01*
X92810000Y-70553733D02*
X92810000Y-70846267D01*
X99492500Y-102215000D02*
X99492500Y-101415000D01*
X99492500Y-102215000D02*
X99492500Y-103015000D01*
X102612500Y-102215000D02*
X102612500Y-101415000D01*
X102612500Y-102215000D02*
X102612500Y-103015000D01*
X99542500Y-103515000D02*
X99212500Y-103755000D01*
X99212500Y-103275000D01*
X99542500Y-103515000D01*
G36*
X99542500Y-103515000D02*
G01*
X99212500Y-103755000D01*
X99212500Y-103275000D01*
X99542500Y-103515000D01*
G37*
X91790000Y-64246267D02*
X91790000Y-63953733D01*
X92810000Y-64246267D02*
X92810000Y-63953733D01*
X109526267Y-72960000D02*
X109233733Y-72960000D01*
X109526267Y-73980000D02*
X109233733Y-73980000D01*
X90752500Y-82367936D02*
X90752500Y-83572064D01*
X93472500Y-82367936D02*
X93472500Y-83572064D01*
X102546267Y-104690000D02*
X102253733Y-104690000D01*
X102546267Y-105710000D02*
X102253733Y-105710000D01*
X122890000Y-84150000D02*
X122890000Y-87910000D01*
X122890000Y-87910000D02*
X124150000Y-87910000D01*
X129710000Y-84150000D02*
X129710000Y-87910000D01*
X129710000Y-87910000D02*
X128450000Y-87910000D01*
X129940000Y-83110000D02*
X129610000Y-82870000D01*
X129940000Y-82630000D01*
X129940000Y-83110000D01*
G36*
X129940000Y-83110000D02*
G01*
X129610000Y-82870000D01*
X129940000Y-82630000D01*
X129940000Y-83110000D01*
G37*
X113741233Y-67040000D02*
X114033767Y-67040000D01*
X113741233Y-68060000D02*
X114033767Y-68060000D01*
X129050000Y-67120000D02*
X129050000Y-66040000D01*
X129050000Y-71340000D02*
X128620000Y-71340000D01*
X129050000Y-72420000D02*
X129050000Y-71340000D01*
X134200000Y-65320000D02*
X130970000Y-65320000D01*
X134200000Y-73140000D02*
X130970000Y-73140000D01*
X138370000Y-65320000D02*
X136420000Y-65320000D01*
X138370000Y-65320000D02*
X138370000Y-73140000D01*
X138370000Y-73140000D02*
X136420000Y-73140000D01*
X114310000Y-62813733D02*
X114310000Y-63106267D01*
X115330000Y-62813733D02*
X115330000Y-63106267D01*
X99740000Y-96639165D02*
X99740000Y-96870835D01*
X100460000Y-96639165D02*
X100460000Y-96870835D01*
X97955000Y-82367936D02*
X97955000Y-83572064D01*
X100675000Y-82367936D02*
X100675000Y-83572064D01*
X123867500Y-56405276D02*
X123867500Y-56914724D01*
X124912500Y-56405276D02*
X124912500Y-56914724D01*
X97658335Y-93090000D02*
X97426665Y-93090000D01*
X97658335Y-93810000D02*
X97426665Y-93810000D01*
X102655000Y-78699724D02*
X102655000Y-78190276D01*
X103700000Y-78699724D02*
X103700000Y-78190276D01*
D10*
X117955000Y-63730000D02*
X117955000Y-63155000D01*
X117955000Y-73805000D02*
X117955000Y-73230000D01*
X123705000Y-63155000D02*
X117955000Y-63155000D01*
X123705000Y-63730000D02*
X123705000Y-63155000D01*
X123705000Y-73805000D02*
X117955000Y-73805000D01*
X123705000Y-73805000D02*
X123705000Y-73230000D01*
D12*
X124445000Y-73560000D02*
X123965000Y-73560000D01*
X124205000Y-73230000D01*
X124445000Y-73560000D01*
G36*
X124445000Y-73560000D02*
G01*
X123965000Y-73560000D01*
X124205000Y-73230000D01*
X124445000Y-73560000D01*
G37*
X97083767Y-69405000D02*
X96791233Y-69405000D01*
X97083767Y-70425000D02*
X96791233Y-70425000D01*
X126400000Y-79660000D02*
X129260000Y-79660000D01*
X129260000Y-77740000D02*
X126400000Y-77740000D01*
X129260000Y-79660000D02*
X129260000Y-77740000D01*
X101640000Y-96659165D02*
X101640000Y-96890835D01*
X102360000Y-96659165D02*
X102360000Y-96890835D01*
X121887500Y-56415276D02*
X121887500Y-56924724D01*
X122932500Y-56415276D02*
X122932500Y-56924724D01*
X106396233Y-82790000D02*
X106688767Y-82790000D01*
X106396233Y-83810000D02*
X106688767Y-83810000D01*
X114653733Y-89090000D02*
X114946267Y-89090000D01*
X114653733Y-90110000D02*
X114946267Y-90110000D01*
X106302776Y-84697500D02*
X106812224Y-84697500D01*
X106302776Y-85742500D02*
X106812224Y-85742500D01*
X110680000Y-54430000D02*
X110680000Y-57090000D01*
X118360000Y-54430000D02*
X110680000Y-54430000D01*
X118360000Y-54430000D02*
X118360000Y-57090000D01*
X118360000Y-57090000D02*
X110680000Y-57090000D01*
X119630000Y-54430000D02*
X120960000Y-54430000D01*
X120960000Y-54430000D02*
X120960000Y-55760000D01*
X91090000Y-55840000D02*
X91350000Y-55840000D01*
X91090000Y-58550000D02*
X91090000Y-55850000D01*
X93100000Y-58560000D02*
X91090000Y-58560000D01*
X94880000Y-55840000D02*
X92920000Y-55840000D01*
X96450000Y-55840000D02*
X96450000Y-55300000D01*
X96450000Y-55840000D02*
X96700000Y-55840000D01*
X96710000Y-55840000D02*
X96710000Y-58560000D01*
X96710000Y-58560000D02*
X94700000Y-58560000D01*
X110192500Y-97265000D02*
X110192500Y-94265000D01*
X113412500Y-97265000D02*
X113412500Y-94265000D01*
X110712500Y-97785000D02*
X110432500Y-97505000D01*
X110712500Y-97505000D01*
X110712500Y-97785000D01*
G36*
X110712500Y-97785000D02*
G01*
X110432500Y-97505000D01*
X110712500Y-97505000D01*
X110712500Y-97785000D01*
G37*
X95954724Y-84577500D02*
X95445276Y-84577500D01*
X95954724Y-85622500D02*
X95445276Y-85622500D01*
X107580000Y-97286665D02*
X107580000Y-97518335D01*
X108300000Y-97286665D02*
X108300000Y-97518335D01*
X122863733Y-79940000D02*
X123156267Y-79940000D01*
X122863733Y-80960000D02*
X123156267Y-80960000D01*
X95858767Y-82640000D02*
X95566233Y-82640000D01*
X95858767Y-83660000D02*
X95566233Y-83660000D01*
X97053767Y-71205000D02*
X96761233Y-71205000D01*
X97053767Y-72225000D02*
X96761233Y-72225000D01*
X105955835Y-90055000D02*
X105724165Y-90055000D01*
X105955835Y-90775000D02*
X105724165Y-90775000D01*
X91857776Y-78827500D02*
X92367224Y-78827500D01*
X91857776Y-79872500D02*
X92367224Y-79872500D01*
X94152500Y-77000000D02*
X94152500Y-78800000D01*
X97372500Y-78000000D02*
X97372500Y-77200000D01*
X97372500Y-78000000D02*
X97372500Y-78800000D01*
X97652500Y-76940000D02*
X97322500Y-76700000D01*
X97652500Y-76460000D01*
X97652500Y-76940000D01*
G36*
X97652500Y-76940000D02*
G01*
X97322500Y-76700000D01*
X97652500Y-76460000D01*
X97652500Y-76940000D01*
G37*
X101640000Y-82397936D02*
X101640000Y-83602064D01*
X104360000Y-82397936D02*
X104360000Y-83602064D01*
X103167224Y-98592500D02*
X102657776Y-98592500D01*
X103167224Y-99637500D02*
X102657776Y-99637500D01*
X98476267Y-63910000D02*
X98183733Y-63910000D01*
X98476267Y-64930000D02*
X98183733Y-64930000D01*
X124817500Y-60455276D02*
X124817500Y-60964724D01*
X125862500Y-60455276D02*
X125862500Y-60964724D01*
%LPC*%
D13*
X130500000Y-78487500D03*
X130500000Y-80312500D03*
D14*
X110262500Y-75120000D03*
X108537500Y-75120000D03*
D15*
X106407500Y-91615000D03*
X105272500Y-91615000D03*
D16*
X133500000Y-54500000D03*
D17*
X107670000Y-55830000D03*
D18*
X105130000Y-55830000D03*
X102590000Y-55830000D03*
X100050000Y-55830000D03*
D19*
X114537500Y-94737500D03*
X114537500Y-96462500D03*
D20*
X113017500Y-65950000D03*
X114742500Y-65950000D03*
X113937500Y-88000000D03*
X115662500Y-88000000D03*
D14*
X96575000Y-81250000D03*
X94850000Y-81250000D03*
D21*
X99700000Y-66180000D03*
X99700000Y-66980000D03*
X99700000Y-67780000D03*
X99700000Y-68580000D03*
X99700000Y-69380000D03*
X99700000Y-70180000D03*
X99700000Y-70980000D03*
X99700000Y-71780000D03*
D22*
X101075000Y-73155000D03*
X101875000Y-73155000D03*
X102675000Y-73155000D03*
X103475000Y-73155000D03*
X104275000Y-73155000D03*
X105075000Y-73155000D03*
X105875000Y-73155000D03*
X106675000Y-73155000D03*
D21*
X108050000Y-71780000D03*
X108050000Y-70980000D03*
X108050000Y-70180000D03*
X108050000Y-69380000D03*
X108050000Y-68580000D03*
X108050000Y-67780000D03*
X108050000Y-66980000D03*
X108050000Y-66180000D03*
D22*
X106675000Y-64805000D03*
X105875000Y-64805000D03*
X105075000Y-64805000D03*
X104275000Y-64805000D03*
X103475000Y-64805000D03*
X102675000Y-64805000D03*
X101875000Y-64805000D03*
X101075000Y-64805000D03*
D23*
X98270000Y-99105000D03*
X100095000Y-99105000D03*
D24*
X109270000Y-96815000D03*
X109270000Y-97950000D03*
D25*
X116800000Y-93100000D03*
D26*
X118300000Y-91625000D03*
D25*
X119800000Y-93100000D03*
D26*
X118300000Y-94575000D03*
D27*
X99630000Y-91425000D03*
X99630000Y-91925000D03*
X99630000Y-92425000D03*
X99630000Y-92925000D03*
X99630000Y-93425000D03*
X99630000Y-93925000D03*
D28*
X100317500Y-94612500D03*
X100817500Y-94612500D03*
X101317500Y-94612500D03*
X101817500Y-94612500D03*
X102317500Y-94612500D03*
X102817500Y-94612500D03*
D27*
X103505000Y-93925000D03*
X103505000Y-93425000D03*
X103505000Y-92925000D03*
X103505000Y-92425000D03*
X103505000Y-91925000D03*
X103505000Y-91425000D03*
D28*
X102817500Y-90737500D03*
X102317500Y-90737500D03*
X101817500Y-90737500D03*
X101317500Y-90737500D03*
X100817500Y-90737500D03*
X100317500Y-90737500D03*
D29*
X101567500Y-92675000D03*
D30*
X111537500Y-90337500D03*
X111537500Y-92662500D03*
D23*
X94737500Y-60560000D03*
X96562500Y-60560000D03*
D31*
X105240000Y-77495000D03*
X105240000Y-78445000D03*
X105240000Y-79395000D03*
X107940000Y-79395000D03*
X107940000Y-77495000D03*
D15*
X106407500Y-94015000D03*
X105272500Y-94015000D03*
X106407500Y-92815000D03*
X105272500Y-92815000D03*
D32*
X105100000Y-103962500D03*
X105100000Y-102237500D03*
D20*
X126337500Y-80700000D03*
X128062500Y-80700000D03*
D33*
X111990000Y-79445000D03*
X110165000Y-79445000D03*
D34*
X110100000Y-81612500D03*
X110100000Y-84587500D03*
D35*
X113732500Y-93100000D03*
X114867500Y-93100000D03*
D16*
X133500000Y-104500000D03*
D20*
X105680000Y-81345000D03*
X107405000Y-81345000D03*
D36*
X86200000Y-83500000D03*
D37*
X86200000Y-78500000D03*
D38*
X117535000Y-58930000D03*
X119585000Y-58930000D03*
D39*
X97725000Y-105200000D03*
X99475000Y-105200000D03*
D16*
X85500000Y-54500000D03*
D38*
X117507500Y-61220000D03*
X119557500Y-61220000D03*
D20*
X86237500Y-76500000D03*
X87962500Y-76500000D03*
D33*
X93125000Y-76850000D03*
X91300000Y-76850000D03*
D40*
X88500000Y-64920000D03*
X88500000Y-69800000D03*
D19*
X92300000Y-69837500D03*
X92300000Y-71562500D03*
D41*
X100102500Y-103352500D03*
X101052500Y-103352500D03*
X102002500Y-103352500D03*
X102002500Y-101077500D03*
X101052500Y-101077500D03*
X100102500Y-101077500D03*
D32*
X92300000Y-64962500D03*
X92300000Y-63237500D03*
D14*
X110242500Y-73470000D03*
X108517500Y-73470000D03*
D34*
X92112500Y-81482500D03*
X92112500Y-84457500D03*
D14*
X103262500Y-105200000D03*
X101537500Y-105200000D03*
D42*
X128600000Y-82850000D03*
X126300000Y-82850000D03*
D43*
X126300000Y-89150000D03*
D42*
X124000000Y-82850000D03*
D20*
X113025000Y-67550000D03*
X114750000Y-67550000D03*
D44*
X132460000Y-71430000D03*
X132460000Y-67030000D03*
D45*
X129760000Y-70830000D03*
X129760000Y-70030000D03*
X129760000Y-69230000D03*
X129760000Y-68430000D03*
X129760000Y-67630000D03*
D46*
X129860000Y-73680000D03*
X135310000Y-73680000D03*
X129860000Y-64780000D03*
X135310000Y-64780000D03*
D19*
X114820000Y-62097500D03*
X114820000Y-63822500D03*
D16*
X85500000Y-104500000D03*
D24*
X100100000Y-96187500D03*
X100100000Y-97322500D03*
D34*
X99315000Y-81482500D03*
X99315000Y-84457500D03*
D13*
X124390000Y-55747500D03*
X124390000Y-57572500D03*
D15*
X98110000Y-93450000D03*
X96975000Y-93450000D03*
D47*
X103177500Y-79357500D03*
X103177500Y-77532500D03*
D48*
X124430000Y-72705000D03*
X124430000Y-72055000D03*
X124430000Y-71405000D03*
X124430000Y-70755000D03*
X124430000Y-70105000D03*
X124430000Y-69455000D03*
X124430000Y-68805000D03*
X124430000Y-68155000D03*
X124430000Y-67505000D03*
X124430000Y-66855000D03*
X124430000Y-66205000D03*
X124430000Y-65555000D03*
X124430000Y-64905000D03*
X124430000Y-64255000D03*
X117230000Y-64255000D03*
X117230000Y-64905000D03*
X117230000Y-65555000D03*
X117230000Y-66205000D03*
X117230000Y-66855000D03*
X117230000Y-67505000D03*
X117230000Y-68155000D03*
X117230000Y-68805000D03*
X117230000Y-69455000D03*
X117230000Y-70105000D03*
X117230000Y-70755000D03*
X117230000Y-71405000D03*
X117230000Y-72055000D03*
X117230000Y-72705000D03*
D14*
X97800000Y-69915000D03*
X96075000Y-69915000D03*
D49*
X128425000Y-78700000D03*
X126375000Y-78700000D03*
D24*
X102000000Y-96207500D03*
X102000000Y-97342500D03*
D13*
X122410000Y-55757500D03*
X122410000Y-57582500D03*
D20*
X105680000Y-83300000D03*
X107405000Y-83300000D03*
X113937500Y-89600000D03*
X115662500Y-89600000D03*
D23*
X105645000Y-85220000D03*
X107470000Y-85220000D03*
D17*
X119630000Y-55760000D03*
D18*
X117090000Y-55760000D03*
X114550000Y-55760000D03*
X112010000Y-55760000D03*
D50*
X95650000Y-56050000D03*
X93900000Y-58350000D03*
X92150000Y-56050000D03*
D51*
X111052500Y-97052500D03*
X111552500Y-97052500D03*
X112052500Y-97052500D03*
X112552500Y-97052500D03*
X112552500Y-94477500D03*
X112052500Y-94477500D03*
X111552500Y-94477500D03*
X111052500Y-94477500D03*
D52*
X111802500Y-95765000D03*
D33*
X96612500Y-85100000D03*
X94787500Y-85100000D03*
D24*
X107940000Y-96835000D03*
X107940000Y-97970000D03*
D20*
X122147500Y-80450000D03*
X123872500Y-80450000D03*
D14*
X96575000Y-83150000D03*
X94850000Y-83150000D03*
X97770000Y-71715000D03*
X96045000Y-71715000D03*
D15*
X106407500Y-90415000D03*
X105272500Y-90415000D03*
D23*
X91200000Y-79350000D03*
X93025000Y-79350000D03*
D53*
X96712500Y-76550000D03*
X95762500Y-76550000D03*
X94812500Y-76550000D03*
X94812500Y-79250000D03*
X96712500Y-79250000D03*
D34*
X103000000Y-81512500D03*
X103000000Y-84487500D03*
D33*
X103825000Y-99115000D03*
X102000000Y-99115000D03*
D14*
X99192500Y-64420000D03*
X97467500Y-64420000D03*
D13*
X125340000Y-59797500D03*
X125340000Y-61622500D03*
%LPD*%
M02*
