%TF.GenerationSoftware,KiCad,Pcbnew,8.0.1*%
%TF.CreationDate,2026-03-24T13:35:58+01:00*%
%TF.ProjectId,transmiter,7472616e-736d-4697-9465-722e6b696361,rev?*%
%TF.SameCoordinates,Original*%
%TF.FileFunction,Drillmap*%
%TF.FilePolarity,Positive*%
%FSLAX45Y45*%
G04 Gerber Fmt 4.5, Leading zero omitted, Abs format (unit mm)*
G04 Created by KiCad (PCBNEW 8.0.1) date 2026-03-24 13:35:58*
%MOMM*%
%LPD*%
G01*
G04 APERTURE LIST*
%ADD10C,0.050000*%
%ADD11C,0.200000*%
%ADD12C,0.100000*%
%ADD13C,0.220000*%
G04 APERTURE END LIST*
D10*
X8200000Y-9800000D02*
X8200000Y-5400000D01*
X13700000Y-9800000D02*
G75*
G02*
X13400000Y-10100000I-300000J0D01*
G01*
X13700000Y-5400000D02*
X13700000Y-9800000D01*
X8500000Y-5100000D02*
X13400000Y-5100000D01*
X13400000Y-5100000D02*
G75*
G02*
X13700000Y-5400000I0J-300000D01*
G01*
X8500000Y-10100000D02*
G75*
G02*
X8200000Y-9800000I0J300000D01*
G01*
X8200000Y-5400000D02*
G75*
G02*
X8500000Y-5100000I300000J0D01*
G01*
X13400000Y-10100000D02*
X8500000Y-10100000D01*
D11*
D12*
X9394000Y-7819000D02*
X9424000Y-7849000D01*
X9424000Y-7819000D02*
X9394000Y-7849000D01*
X9405000Y-7567000D02*
X9435000Y-7597000D01*
X9435000Y-7567000D02*
X9405000Y-7597000D01*
X9585000Y-9425000D02*
X9615000Y-9455000D01*
X9615000Y-9425000D02*
X9585000Y-9455000D01*
X9589000Y-7270000D02*
X9619000Y-7300000D01*
X9619000Y-7270000D02*
X9589000Y-7300000D01*
X9616000Y-8771000D02*
X9646000Y-8801000D01*
X9646000Y-8771000D02*
X9616000Y-8801000D01*
X9802000Y-9006000D02*
X9832000Y-9036000D01*
X9832000Y-9006000D02*
X9802000Y-9036000D01*
X9844000Y-7513000D02*
X9874000Y-7543000D01*
X9874000Y-7513000D02*
X9844000Y-7543000D01*
X9871000Y-9193000D02*
X9901000Y-9223000D01*
X9901000Y-9193000D02*
X9871000Y-9223000D01*
X9914000Y-8715000D02*
X9944000Y-8745000D01*
X9944000Y-8715000D02*
X9914000Y-8745000D01*
X9924000Y-9794000D02*
X9954000Y-9824000D01*
X9954000Y-9794000D02*
X9924000Y-9824000D01*
X9925624Y-9313624D02*
X9955624Y-9343624D01*
X9955624Y-9313624D02*
X9925624Y-9343624D01*
X9934000Y-9155000D02*
X9964000Y-9185000D01*
X9964000Y-9155000D02*
X9934000Y-9185000D01*
X10022000Y-9520000D02*
X10052000Y-9550000D01*
X10052000Y-9520000D02*
X10022000Y-9550000D01*
X10033000Y-8842000D02*
X10063000Y-8872000D01*
X10063000Y-8842000D02*
X10033000Y-8872000D01*
X10093000Y-6314000D02*
X10123000Y-6344000D01*
X10123000Y-6314000D02*
X10093000Y-6344000D01*
X10237750Y-9311000D02*
X10267750Y-9341000D01*
X10267750Y-9311000D02*
X10237750Y-9341000D01*
X10238000Y-8621000D02*
X10268000Y-8651000D01*
X10268000Y-8621000D02*
X10238000Y-8651000D01*
X10240000Y-8933000D02*
X10270000Y-8963000D01*
X10270000Y-8933000D02*
X10240000Y-8963000D01*
X10306000Y-7591000D02*
X10336000Y-7621000D01*
X10336000Y-7591000D02*
X10306000Y-7621000D01*
X10311000Y-9631000D02*
X10341000Y-9661000D01*
X10341000Y-9631000D02*
X10311000Y-9661000D01*
X10400000Y-9614000D02*
X10430000Y-9644000D01*
X10430000Y-9614000D02*
X10400000Y-9644000D01*
X10405000Y-8860000D02*
X10435000Y-8890000D01*
X10435000Y-8860000D02*
X10405000Y-8890000D01*
X10563000Y-8703000D02*
X10593000Y-8733000D01*
X10593000Y-8703000D02*
X10563000Y-8733000D01*
X10685000Y-8858000D02*
X10715000Y-8888000D01*
X10715000Y-8858000D02*
X10685000Y-8888000D01*
X10724000Y-7450000D02*
X10754000Y-7480000D01*
X10754000Y-7450000D02*
X10724000Y-7480000D01*
X10873000Y-9871000D02*
X10903000Y-9901000D01*
X10903000Y-9871000D02*
X10873000Y-9901000D01*
X10926000Y-9541000D02*
X10956000Y-9571000D01*
X10956000Y-9541000D02*
X10926000Y-9571000D01*
X10941000Y-5979000D02*
X10971000Y-6009000D01*
X10971000Y-5979000D02*
X10941000Y-6009000D01*
X10956000Y-6333000D02*
X10986000Y-6363000D01*
X10986000Y-6333000D02*
X10956000Y-6363000D01*
X10975000Y-6923000D02*
X11005000Y-6953000D01*
X11005000Y-6923000D02*
X10975000Y-6953000D01*
X11023000Y-7003000D02*
X11053000Y-7033000D01*
X11053000Y-7003000D02*
X11023000Y-7033000D01*
X11090000Y-9874000D02*
X11120000Y-9904000D01*
X11120000Y-9874000D02*
X11090000Y-9904000D01*
X11112000Y-9517000D02*
X11142000Y-9547000D01*
X11142000Y-9517000D02*
X11112000Y-9547000D01*
X11127000Y-8755000D02*
X11157000Y-8785000D01*
X11157000Y-8755000D02*
X11127000Y-8785000D01*
X11326000Y-8185000D02*
X11356000Y-8215000D01*
X11356000Y-8185000D02*
X11326000Y-8215000D01*
X11355000Y-8560000D02*
X11385000Y-8590000D01*
X11385000Y-8560000D02*
X11355000Y-8590000D01*
X11368000Y-7612000D02*
X11398000Y-7642000D01*
X11398000Y-7612000D02*
X11368000Y-7642000D01*
X11395500Y-9710500D02*
X11425500Y-9740500D01*
X11425500Y-9710500D02*
X11395500Y-9740500D01*
X11425500Y-6895500D02*
X11455500Y-6925500D01*
X11455500Y-6895500D02*
X11425500Y-6925500D01*
X11523000Y-6861000D02*
X11553000Y-6891000D01*
X11553000Y-6861000D02*
X11523000Y-6891000D01*
X11525000Y-7060000D02*
X11555000Y-7090000D01*
X11555000Y-7060000D02*
X11525000Y-7090000D01*
X11535000Y-5969000D02*
X11565000Y-5999000D01*
X11565000Y-5969000D02*
X11535000Y-5999000D01*
X11562000Y-7125500D02*
X11592000Y-7155500D01*
X11592000Y-7125500D02*
X11562000Y-7155500D01*
X11605000Y-6121000D02*
X11635000Y-6151000D01*
X11635000Y-6121000D02*
X11605000Y-6151000D01*
X11644000Y-8560000D02*
X11674000Y-8590000D01*
X11674000Y-8560000D02*
X11644000Y-8590000D01*
X11755000Y-8135000D02*
X11785000Y-8165000D01*
X11785000Y-8135000D02*
X11755000Y-8165000D01*
X11845000Y-7685000D02*
X11875000Y-7715000D01*
X11875000Y-7685000D02*
X11845000Y-7715000D01*
X11867000Y-6808000D02*
X11897000Y-6838000D01*
X11897000Y-6808000D02*
X11867000Y-6838000D01*
X11867500Y-6605500D02*
X11897500Y-6635500D01*
X11897500Y-6605500D02*
X11867500Y-6635500D01*
X12159000Y-9898000D02*
X12189000Y-9928000D01*
X12189000Y-9898000D02*
X12159000Y-9928000D01*
X12165000Y-9330000D02*
X12195000Y-9360000D01*
X12195000Y-9330000D02*
X12165000Y-9360000D01*
X12276000Y-6867000D02*
X12306000Y-6897000D01*
X12306000Y-6867000D02*
X12276000Y-6897000D01*
X12285000Y-7695000D02*
X12315000Y-7725000D01*
X12315000Y-7695000D02*
X12285000Y-7725000D01*
X12290750Y-7855000D02*
X12320750Y-7885000D01*
X12320750Y-7855000D02*
X12290750Y-7885000D01*
X12367000Y-9451000D02*
X12397000Y-9481000D01*
X12397000Y-9451000D02*
X12367000Y-9481000D01*
X12436000Y-9865000D02*
X12466000Y-9895000D01*
X12466000Y-9865000D02*
X12436000Y-9895000D01*
X12461750Y-7855000D02*
X12491750Y-7885000D01*
X12491750Y-7855000D02*
X12461750Y-7885000D01*
X12615000Y-9245000D02*
X12645000Y-9275000D01*
X12645000Y-9245000D02*
X12615000Y-9275000D01*
X12830000Y-6088000D02*
X12860000Y-6118000D01*
X12860000Y-6088000D02*
X12830000Y-6118000D01*
X12892000Y-9252000D02*
X12922000Y-9282000D01*
X12922000Y-9252000D02*
X12892000Y-9282000D01*
X12923000Y-5810000D02*
X12953000Y-5840000D01*
X12953000Y-5810000D02*
X12923000Y-5840000D01*
X13198000Y-6017000D02*
X13228000Y-6047000D01*
X13228000Y-6017000D02*
X13198000Y-6047000D01*
X8890000Y-6492000D02*
G75*
G02*
X8810000Y-6492000I-40000J0D01*
G01*
X8810000Y-6492000D02*
G75*
G02*
X8890000Y-6492000I40000J0D01*
G01*
X8890000Y-6980000D02*
G75*
G02*
X8810000Y-6980000I-40000J0D01*
G01*
X8810000Y-6980000D02*
G75*
G02*
X8890000Y-6980000I40000J0D01*
G01*
X8850000Y-7720000D02*
X8850000Y-7820000D01*
X8800000Y-7770000D02*
X8900000Y-7770000D01*
X8850000Y-8220000D02*
X8850000Y-8320000D01*
X8800000Y-8270000D02*
X8900000Y-8270000D01*
X10005000Y-5533000D02*
X10005000Y-5633000D01*
X9955000Y-5583000D02*
X10055000Y-5583000D01*
X10259000Y-5533000D02*
X10259000Y-5633000D01*
X10209000Y-5583000D02*
X10309000Y-5583000D01*
X10513000Y-5533000D02*
X10513000Y-5633000D01*
X10463000Y-5583000D02*
X10563000Y-5583000D01*
X10767000Y-5533000D02*
X10767000Y-5633000D01*
X10717000Y-5583000D02*
X10817000Y-5583000D01*
X11201000Y-5526000D02*
X11201000Y-5626000D01*
X11151000Y-5576000D02*
X11251000Y-5576000D01*
X11455000Y-5526000D02*
X11455000Y-5626000D01*
X11405000Y-5576000D02*
X11505000Y-5576000D01*
X11709000Y-5526000D02*
X11709000Y-5626000D01*
X11659000Y-5576000D02*
X11759000Y-5576000D01*
X11963000Y-5526000D02*
X11963000Y-5626000D01*
X11913000Y-5576000D02*
X12013000Y-5576000D01*
D13*
X8627783Y-5527783D02*
X8627783Y-5372218D01*
X8472218Y-5372218D01*
X8472218Y-5527783D01*
X8627783Y-5527783D01*
X8627783Y-9827783D02*
X8627783Y-9672218D01*
X8472218Y-9672218D01*
X8472218Y-9827783D01*
X8627783Y-9827783D01*
X13427782Y-5527783D02*
X13427782Y-5372218D01*
X13272217Y-5372218D01*
X13272217Y-5527783D01*
X13427782Y-5527783D01*
X13427782Y-9827783D02*
X13427782Y-9672218D01*
X13272217Y-9672218D01*
X13272217Y-9827783D01*
X13427782Y-9827783D01*
D11*
X8458277Y-10413984D02*
X8458277Y-10213984D01*
X8458277Y-10213984D02*
X8505896Y-10213984D01*
X8505896Y-10213984D02*
X8534467Y-10223508D01*
X8534467Y-10223508D02*
X8553515Y-10242555D01*
X8553515Y-10242555D02*
X8563039Y-10261603D01*
X8563039Y-10261603D02*
X8572563Y-10299698D01*
X8572563Y-10299698D02*
X8572563Y-10328270D01*
X8572563Y-10328270D02*
X8563039Y-10366365D01*
X8563039Y-10366365D02*
X8553515Y-10385412D01*
X8553515Y-10385412D02*
X8534467Y-10404460D01*
X8534467Y-10404460D02*
X8505896Y-10413984D01*
X8505896Y-10413984D02*
X8458277Y-10413984D01*
X8658277Y-10413984D02*
X8658277Y-10280650D01*
X8658277Y-10318746D02*
X8667801Y-10299698D01*
X8667801Y-10299698D02*
X8677324Y-10290174D01*
X8677324Y-10290174D02*
X8696372Y-10280650D01*
X8696372Y-10280650D02*
X8715420Y-10280650D01*
X8782086Y-10413984D02*
X8782086Y-10280650D01*
X8782086Y-10213984D02*
X8772563Y-10223508D01*
X8772563Y-10223508D02*
X8782086Y-10233031D01*
X8782086Y-10233031D02*
X8791610Y-10223508D01*
X8791610Y-10223508D02*
X8782086Y-10213984D01*
X8782086Y-10213984D02*
X8782086Y-10233031D01*
X8905896Y-10413984D02*
X8886848Y-10404460D01*
X8886848Y-10404460D02*
X8877324Y-10385412D01*
X8877324Y-10385412D02*
X8877324Y-10213984D01*
X9010658Y-10413984D02*
X8991610Y-10404460D01*
X8991610Y-10404460D02*
X8982086Y-10385412D01*
X8982086Y-10385412D02*
X8982086Y-10213984D01*
X9239229Y-10413984D02*
X9239229Y-10213984D01*
X9239229Y-10213984D02*
X9305896Y-10356841D01*
X9305896Y-10356841D02*
X9372563Y-10213984D01*
X9372563Y-10213984D02*
X9372563Y-10413984D01*
X9553515Y-10413984D02*
X9553515Y-10309222D01*
X9553515Y-10309222D02*
X9543991Y-10290174D01*
X9543991Y-10290174D02*
X9524944Y-10280650D01*
X9524944Y-10280650D02*
X9486848Y-10280650D01*
X9486848Y-10280650D02*
X9467801Y-10290174D01*
X9553515Y-10404460D02*
X9534467Y-10413984D01*
X9534467Y-10413984D02*
X9486848Y-10413984D01*
X9486848Y-10413984D02*
X9467801Y-10404460D01*
X9467801Y-10404460D02*
X9458277Y-10385412D01*
X9458277Y-10385412D02*
X9458277Y-10366365D01*
X9458277Y-10366365D02*
X9467801Y-10347317D01*
X9467801Y-10347317D02*
X9486848Y-10337793D01*
X9486848Y-10337793D02*
X9534467Y-10337793D01*
X9534467Y-10337793D02*
X9553515Y-10328270D01*
X9648753Y-10280650D02*
X9648753Y-10480650D01*
X9648753Y-10290174D02*
X9667801Y-10280650D01*
X9667801Y-10280650D02*
X9705896Y-10280650D01*
X9705896Y-10280650D02*
X9724944Y-10290174D01*
X9724944Y-10290174D02*
X9734467Y-10299698D01*
X9734467Y-10299698D02*
X9743991Y-10318746D01*
X9743991Y-10318746D02*
X9743991Y-10375889D01*
X9743991Y-10375889D02*
X9734467Y-10394936D01*
X9734467Y-10394936D02*
X9724944Y-10404460D01*
X9724944Y-10404460D02*
X9705896Y-10413984D01*
X9705896Y-10413984D02*
X9667801Y-10413984D01*
X9667801Y-10413984D02*
X9648753Y-10404460D01*
X9829705Y-10394936D02*
X9839229Y-10404460D01*
X9839229Y-10404460D02*
X9829705Y-10413984D01*
X9829705Y-10413984D02*
X9820182Y-10404460D01*
X9820182Y-10404460D02*
X9829705Y-10394936D01*
X9829705Y-10394936D02*
X9829705Y-10413984D01*
X9829705Y-10290174D02*
X9839229Y-10299698D01*
X9839229Y-10299698D02*
X9829705Y-10309222D01*
X9829705Y-10309222D02*
X9820182Y-10299698D01*
X9820182Y-10299698D02*
X9829705Y-10290174D01*
X9829705Y-10290174D02*
X9829705Y-10309222D01*
D12*
X8167500Y-10727500D02*
X8197500Y-10757500D01*
X8197500Y-10727500D02*
X8167500Y-10757500D01*
D11*
X8496372Y-10633984D02*
X8515420Y-10633984D01*
X8515420Y-10633984D02*
X8534467Y-10643508D01*
X8534467Y-10643508D02*
X8543991Y-10653031D01*
X8543991Y-10653031D02*
X8553515Y-10672079D01*
X8553515Y-10672079D02*
X8563039Y-10710174D01*
X8563039Y-10710174D02*
X8563039Y-10757793D01*
X8563039Y-10757793D02*
X8553515Y-10795889D01*
X8553515Y-10795889D02*
X8543991Y-10814936D01*
X8543991Y-10814936D02*
X8534467Y-10824460D01*
X8534467Y-10824460D02*
X8515420Y-10833984D01*
X8515420Y-10833984D02*
X8496372Y-10833984D01*
X8496372Y-10833984D02*
X8477324Y-10824460D01*
X8477324Y-10824460D02*
X8467801Y-10814936D01*
X8467801Y-10814936D02*
X8458277Y-10795889D01*
X8458277Y-10795889D02*
X8448753Y-10757793D01*
X8448753Y-10757793D02*
X8448753Y-10710174D01*
X8448753Y-10710174D02*
X8458277Y-10672079D01*
X8458277Y-10672079D02*
X8467801Y-10653031D01*
X8467801Y-10653031D02*
X8477324Y-10643508D01*
X8477324Y-10643508D02*
X8496372Y-10633984D01*
X8648753Y-10814936D02*
X8658277Y-10824460D01*
X8658277Y-10824460D02*
X8648753Y-10833984D01*
X8648753Y-10833984D02*
X8639229Y-10824460D01*
X8639229Y-10824460D02*
X8648753Y-10814936D01*
X8648753Y-10814936D02*
X8648753Y-10833984D01*
X8724944Y-10633984D02*
X8848753Y-10633984D01*
X8848753Y-10633984D02*
X8782086Y-10710174D01*
X8782086Y-10710174D02*
X8810658Y-10710174D01*
X8810658Y-10710174D02*
X8829705Y-10719698D01*
X8829705Y-10719698D02*
X8839229Y-10729222D01*
X8839229Y-10729222D02*
X8848753Y-10748270D01*
X8848753Y-10748270D02*
X8848753Y-10795889D01*
X8848753Y-10795889D02*
X8839229Y-10814936D01*
X8839229Y-10814936D02*
X8829705Y-10824460D01*
X8829705Y-10824460D02*
X8810658Y-10833984D01*
X8810658Y-10833984D02*
X8753515Y-10833984D01*
X8753515Y-10833984D02*
X8734467Y-10824460D01*
X8734467Y-10824460D02*
X8724944Y-10814936D01*
X8972563Y-10633984D02*
X8991610Y-10633984D01*
X8991610Y-10633984D02*
X9010658Y-10643508D01*
X9010658Y-10643508D02*
X9020182Y-10653031D01*
X9020182Y-10653031D02*
X9029705Y-10672079D01*
X9029705Y-10672079D02*
X9039229Y-10710174D01*
X9039229Y-10710174D02*
X9039229Y-10757793D01*
X9039229Y-10757793D02*
X9029705Y-10795889D01*
X9029705Y-10795889D02*
X9020182Y-10814936D01*
X9020182Y-10814936D02*
X9010658Y-10824460D01*
X9010658Y-10824460D02*
X8991610Y-10833984D01*
X8991610Y-10833984D02*
X8972563Y-10833984D01*
X8972563Y-10833984D02*
X8953515Y-10824460D01*
X8953515Y-10824460D02*
X8943991Y-10814936D01*
X8943991Y-10814936D02*
X8934467Y-10795889D01*
X8934467Y-10795889D02*
X8924944Y-10757793D01*
X8924944Y-10757793D02*
X8924944Y-10710174D01*
X8924944Y-10710174D02*
X8934467Y-10672079D01*
X8934467Y-10672079D02*
X8943991Y-10653031D01*
X8943991Y-10653031D02*
X8953515Y-10643508D01*
X8953515Y-10643508D02*
X8972563Y-10633984D01*
X9163039Y-10633984D02*
X9182086Y-10633984D01*
X9182086Y-10633984D02*
X9201134Y-10643508D01*
X9201134Y-10643508D02*
X9210658Y-10653031D01*
X9210658Y-10653031D02*
X9220182Y-10672079D01*
X9220182Y-10672079D02*
X9229705Y-10710174D01*
X9229705Y-10710174D02*
X9229705Y-10757793D01*
X9229705Y-10757793D02*
X9220182Y-10795889D01*
X9220182Y-10795889D02*
X9210658Y-10814936D01*
X9210658Y-10814936D02*
X9201134Y-10824460D01*
X9201134Y-10824460D02*
X9182086Y-10833984D01*
X9182086Y-10833984D02*
X9163039Y-10833984D01*
X9163039Y-10833984D02*
X9143991Y-10824460D01*
X9143991Y-10824460D02*
X9134467Y-10814936D01*
X9134467Y-10814936D02*
X9124944Y-10795889D01*
X9124944Y-10795889D02*
X9115420Y-10757793D01*
X9115420Y-10757793D02*
X9115420Y-10710174D01*
X9115420Y-10710174D02*
X9124944Y-10672079D01*
X9124944Y-10672079D02*
X9134467Y-10653031D01*
X9134467Y-10653031D02*
X9143991Y-10643508D01*
X9143991Y-10643508D02*
X9163039Y-10633984D01*
X9315420Y-10833984D02*
X9315420Y-10700650D01*
X9315420Y-10719698D02*
X9324944Y-10710174D01*
X9324944Y-10710174D02*
X9343991Y-10700650D01*
X9343991Y-10700650D02*
X9372563Y-10700650D01*
X9372563Y-10700650D02*
X9391610Y-10710174D01*
X9391610Y-10710174D02*
X9401134Y-10729222D01*
X9401134Y-10729222D02*
X9401134Y-10833984D01*
X9401134Y-10729222D02*
X9410658Y-10710174D01*
X9410658Y-10710174D02*
X9429705Y-10700650D01*
X9429705Y-10700650D02*
X9458277Y-10700650D01*
X9458277Y-10700650D02*
X9477325Y-10710174D01*
X9477325Y-10710174D02*
X9486848Y-10729222D01*
X9486848Y-10729222D02*
X9486848Y-10833984D01*
X9582086Y-10833984D02*
X9582086Y-10700650D01*
X9582086Y-10719698D02*
X9591610Y-10710174D01*
X9591610Y-10710174D02*
X9610658Y-10700650D01*
X9610658Y-10700650D02*
X9639229Y-10700650D01*
X9639229Y-10700650D02*
X9658277Y-10710174D01*
X9658277Y-10710174D02*
X9667801Y-10729222D01*
X9667801Y-10729222D02*
X9667801Y-10833984D01*
X9667801Y-10729222D02*
X9677325Y-10710174D01*
X9677325Y-10710174D02*
X9696372Y-10700650D01*
X9696372Y-10700650D02*
X9724944Y-10700650D01*
X9724944Y-10700650D02*
X9743991Y-10710174D01*
X9743991Y-10710174D02*
X9753515Y-10729222D01*
X9753515Y-10729222D02*
X9753515Y-10833984D01*
X10143991Y-10624460D02*
X9972563Y-10881603D01*
X10401134Y-10633984D02*
X10420182Y-10633984D01*
X10420182Y-10633984D02*
X10439229Y-10643508D01*
X10439229Y-10643508D02*
X10448753Y-10653031D01*
X10448753Y-10653031D02*
X10458277Y-10672079D01*
X10458277Y-10672079D02*
X10467801Y-10710174D01*
X10467801Y-10710174D02*
X10467801Y-10757793D01*
X10467801Y-10757793D02*
X10458277Y-10795889D01*
X10458277Y-10795889D02*
X10448753Y-10814936D01*
X10448753Y-10814936D02*
X10439229Y-10824460D01*
X10439229Y-10824460D02*
X10420182Y-10833984D01*
X10420182Y-10833984D02*
X10401134Y-10833984D01*
X10401134Y-10833984D02*
X10382087Y-10824460D01*
X10382087Y-10824460D02*
X10372563Y-10814936D01*
X10372563Y-10814936D02*
X10363039Y-10795889D01*
X10363039Y-10795889D02*
X10353515Y-10757793D01*
X10353515Y-10757793D02*
X10353515Y-10710174D01*
X10353515Y-10710174D02*
X10363039Y-10672079D01*
X10363039Y-10672079D02*
X10372563Y-10653031D01*
X10372563Y-10653031D02*
X10382087Y-10643508D01*
X10382087Y-10643508D02*
X10401134Y-10633984D01*
X10553515Y-10814936D02*
X10563039Y-10824460D01*
X10563039Y-10824460D02*
X10553515Y-10833984D01*
X10553515Y-10833984D02*
X10543991Y-10824460D01*
X10543991Y-10824460D02*
X10553515Y-10814936D01*
X10553515Y-10814936D02*
X10553515Y-10833984D01*
X10686848Y-10633984D02*
X10705896Y-10633984D01*
X10705896Y-10633984D02*
X10724944Y-10643508D01*
X10724944Y-10643508D02*
X10734468Y-10653031D01*
X10734468Y-10653031D02*
X10743991Y-10672079D01*
X10743991Y-10672079D02*
X10753515Y-10710174D01*
X10753515Y-10710174D02*
X10753515Y-10757793D01*
X10753515Y-10757793D02*
X10743991Y-10795889D01*
X10743991Y-10795889D02*
X10734468Y-10814936D01*
X10734468Y-10814936D02*
X10724944Y-10824460D01*
X10724944Y-10824460D02*
X10705896Y-10833984D01*
X10705896Y-10833984D02*
X10686848Y-10833984D01*
X10686848Y-10833984D02*
X10667801Y-10824460D01*
X10667801Y-10824460D02*
X10658277Y-10814936D01*
X10658277Y-10814936D02*
X10648753Y-10795889D01*
X10648753Y-10795889D02*
X10639229Y-10757793D01*
X10639229Y-10757793D02*
X10639229Y-10710174D01*
X10639229Y-10710174D02*
X10648753Y-10672079D01*
X10648753Y-10672079D02*
X10658277Y-10653031D01*
X10658277Y-10653031D02*
X10667801Y-10643508D01*
X10667801Y-10643508D02*
X10686848Y-10633984D01*
X10943991Y-10833984D02*
X10829706Y-10833984D01*
X10886848Y-10833984D02*
X10886848Y-10633984D01*
X10886848Y-10633984D02*
X10867801Y-10662555D01*
X10867801Y-10662555D02*
X10848753Y-10681603D01*
X10848753Y-10681603D02*
X10829706Y-10691127D01*
X11134468Y-10833984D02*
X11020182Y-10833984D01*
X11077325Y-10833984D02*
X11077325Y-10633984D01*
X11077325Y-10633984D02*
X11058277Y-10662555D01*
X11058277Y-10662555D02*
X11039229Y-10681603D01*
X11039229Y-10681603D02*
X11020182Y-10691127D01*
X11248753Y-10719698D02*
X11229706Y-10710174D01*
X11229706Y-10710174D02*
X11220182Y-10700650D01*
X11220182Y-10700650D02*
X11210658Y-10681603D01*
X11210658Y-10681603D02*
X11210658Y-10672079D01*
X11210658Y-10672079D02*
X11220182Y-10653031D01*
X11220182Y-10653031D02*
X11229706Y-10643508D01*
X11229706Y-10643508D02*
X11248753Y-10633984D01*
X11248753Y-10633984D02*
X11286848Y-10633984D01*
X11286848Y-10633984D02*
X11305896Y-10643508D01*
X11305896Y-10643508D02*
X11315420Y-10653031D01*
X11315420Y-10653031D02*
X11324944Y-10672079D01*
X11324944Y-10672079D02*
X11324944Y-10681603D01*
X11324944Y-10681603D02*
X11315420Y-10700650D01*
X11315420Y-10700650D02*
X11305896Y-10710174D01*
X11305896Y-10710174D02*
X11286848Y-10719698D01*
X11286848Y-10719698D02*
X11248753Y-10719698D01*
X11248753Y-10719698D02*
X11229706Y-10729222D01*
X11229706Y-10729222D02*
X11220182Y-10738746D01*
X11220182Y-10738746D02*
X11210658Y-10757793D01*
X11210658Y-10757793D02*
X11210658Y-10795889D01*
X11210658Y-10795889D02*
X11220182Y-10814936D01*
X11220182Y-10814936D02*
X11229706Y-10824460D01*
X11229706Y-10824460D02*
X11248753Y-10833984D01*
X11248753Y-10833984D02*
X11286848Y-10833984D01*
X11286848Y-10833984D02*
X11305896Y-10824460D01*
X11305896Y-10824460D02*
X11315420Y-10814936D01*
X11315420Y-10814936D02*
X11324944Y-10795889D01*
X11324944Y-10795889D02*
X11324944Y-10757793D01*
X11324944Y-10757793D02*
X11315420Y-10738746D01*
X11315420Y-10738746D02*
X11305896Y-10729222D01*
X11305896Y-10729222D02*
X11286848Y-10719698D01*
X11401134Y-10633984D02*
X11401134Y-10672079D01*
X11477325Y-10633984D02*
X11477325Y-10672079D01*
X11772563Y-10910174D02*
X11763039Y-10900650D01*
X11763039Y-10900650D02*
X11743991Y-10872079D01*
X11743991Y-10872079D02*
X11734468Y-10853031D01*
X11734468Y-10853031D02*
X11724944Y-10824460D01*
X11724944Y-10824460D02*
X11715420Y-10776841D01*
X11715420Y-10776841D02*
X11715420Y-10738746D01*
X11715420Y-10738746D02*
X11724944Y-10691127D01*
X11724944Y-10691127D02*
X11734468Y-10662555D01*
X11734468Y-10662555D02*
X11743991Y-10643508D01*
X11743991Y-10643508D02*
X11763039Y-10614936D01*
X11763039Y-10614936D02*
X11772563Y-10605412D01*
X11934468Y-10633984D02*
X11896372Y-10633984D01*
X11896372Y-10633984D02*
X11877325Y-10643508D01*
X11877325Y-10643508D02*
X11867801Y-10653031D01*
X11867801Y-10653031D02*
X11848753Y-10681603D01*
X11848753Y-10681603D02*
X11839229Y-10719698D01*
X11839229Y-10719698D02*
X11839229Y-10795889D01*
X11839229Y-10795889D02*
X11848753Y-10814936D01*
X11848753Y-10814936D02*
X11858277Y-10824460D01*
X11858277Y-10824460D02*
X11877325Y-10833984D01*
X11877325Y-10833984D02*
X11915420Y-10833984D01*
X11915420Y-10833984D02*
X11934468Y-10824460D01*
X11934468Y-10824460D02*
X11943991Y-10814936D01*
X11943991Y-10814936D02*
X11953515Y-10795889D01*
X11953515Y-10795889D02*
X11953515Y-10748270D01*
X11953515Y-10748270D02*
X11943991Y-10729222D01*
X11943991Y-10729222D02*
X11934468Y-10719698D01*
X11934468Y-10719698D02*
X11915420Y-10710174D01*
X11915420Y-10710174D02*
X11877325Y-10710174D01*
X11877325Y-10710174D02*
X11858277Y-10719698D01*
X11858277Y-10719698D02*
X11848753Y-10729222D01*
X11848753Y-10729222D02*
X11839229Y-10748270D01*
X12029706Y-10653031D02*
X12039229Y-10643508D01*
X12039229Y-10643508D02*
X12058277Y-10633984D01*
X12058277Y-10633984D02*
X12105896Y-10633984D01*
X12105896Y-10633984D02*
X12124944Y-10643508D01*
X12124944Y-10643508D02*
X12134468Y-10653031D01*
X12134468Y-10653031D02*
X12143991Y-10672079D01*
X12143991Y-10672079D02*
X12143991Y-10691127D01*
X12143991Y-10691127D02*
X12134468Y-10719698D01*
X12134468Y-10719698D02*
X12020182Y-10833984D01*
X12020182Y-10833984D02*
X12143991Y-10833984D01*
X12382087Y-10833984D02*
X12382087Y-10633984D01*
X12467801Y-10833984D02*
X12467801Y-10729222D01*
X12467801Y-10729222D02*
X12458277Y-10710174D01*
X12458277Y-10710174D02*
X12439230Y-10700650D01*
X12439230Y-10700650D02*
X12410658Y-10700650D01*
X12410658Y-10700650D02*
X12391610Y-10710174D01*
X12391610Y-10710174D02*
X12382087Y-10719698D01*
X12591610Y-10833984D02*
X12572563Y-10824460D01*
X12572563Y-10824460D02*
X12563039Y-10814936D01*
X12563039Y-10814936D02*
X12553515Y-10795889D01*
X12553515Y-10795889D02*
X12553515Y-10738746D01*
X12553515Y-10738746D02*
X12563039Y-10719698D01*
X12563039Y-10719698D02*
X12572563Y-10710174D01*
X12572563Y-10710174D02*
X12591610Y-10700650D01*
X12591610Y-10700650D02*
X12620182Y-10700650D01*
X12620182Y-10700650D02*
X12639230Y-10710174D01*
X12639230Y-10710174D02*
X12648753Y-10719698D01*
X12648753Y-10719698D02*
X12658277Y-10738746D01*
X12658277Y-10738746D02*
X12658277Y-10795889D01*
X12658277Y-10795889D02*
X12648753Y-10814936D01*
X12648753Y-10814936D02*
X12639230Y-10824460D01*
X12639230Y-10824460D02*
X12620182Y-10833984D01*
X12620182Y-10833984D02*
X12591610Y-10833984D01*
X12772563Y-10833984D02*
X12753515Y-10824460D01*
X12753515Y-10824460D02*
X12743991Y-10805412D01*
X12743991Y-10805412D02*
X12743991Y-10633984D01*
X12924944Y-10824460D02*
X12905896Y-10833984D01*
X12905896Y-10833984D02*
X12867801Y-10833984D01*
X12867801Y-10833984D02*
X12848753Y-10824460D01*
X12848753Y-10824460D02*
X12839230Y-10805412D01*
X12839230Y-10805412D02*
X12839230Y-10729222D01*
X12839230Y-10729222D02*
X12848753Y-10710174D01*
X12848753Y-10710174D02*
X12867801Y-10700650D01*
X12867801Y-10700650D02*
X12905896Y-10700650D01*
X12905896Y-10700650D02*
X12924944Y-10710174D01*
X12924944Y-10710174D02*
X12934468Y-10729222D01*
X12934468Y-10729222D02*
X12934468Y-10748270D01*
X12934468Y-10748270D02*
X12839230Y-10767317D01*
X13010658Y-10824460D02*
X13029706Y-10833984D01*
X13029706Y-10833984D02*
X13067801Y-10833984D01*
X13067801Y-10833984D02*
X13086849Y-10824460D01*
X13086849Y-10824460D02*
X13096372Y-10805412D01*
X13096372Y-10805412D02*
X13096372Y-10795889D01*
X13096372Y-10795889D02*
X13086849Y-10776841D01*
X13086849Y-10776841D02*
X13067801Y-10767317D01*
X13067801Y-10767317D02*
X13039230Y-10767317D01*
X13039230Y-10767317D02*
X13020182Y-10757793D01*
X13020182Y-10757793D02*
X13010658Y-10738746D01*
X13010658Y-10738746D02*
X13010658Y-10729222D01*
X13010658Y-10729222D02*
X13020182Y-10710174D01*
X13020182Y-10710174D02*
X13039230Y-10700650D01*
X13039230Y-10700650D02*
X13067801Y-10700650D01*
X13067801Y-10700650D02*
X13086849Y-10710174D01*
X13163039Y-10910174D02*
X13172563Y-10900650D01*
X13172563Y-10900650D02*
X13191611Y-10872079D01*
X13191611Y-10872079D02*
X13201134Y-10853031D01*
X13201134Y-10853031D02*
X13210658Y-10824460D01*
X13210658Y-10824460D02*
X13220182Y-10776841D01*
X13220182Y-10776841D02*
X13220182Y-10738746D01*
X13220182Y-10738746D02*
X13210658Y-10691127D01*
X13210658Y-10691127D02*
X13201134Y-10662555D01*
X13201134Y-10662555D02*
X13191611Y-10643508D01*
X13191611Y-10643508D02*
X13172563Y-10614936D01*
X13172563Y-10614936D02*
X13163039Y-10605412D01*
D12*
X8197500Y-11006500D02*
G75*
G02*
X8117500Y-11006500I-40000J0D01*
G01*
X8117500Y-11006500D02*
G75*
G02*
X8197500Y-11006500I40000J0D01*
G01*
D11*
X8496372Y-10897984D02*
X8515420Y-10897984D01*
X8515420Y-10897984D02*
X8534467Y-10907508D01*
X8534467Y-10907508D02*
X8543991Y-10917031D01*
X8543991Y-10917031D02*
X8553515Y-10936079D01*
X8553515Y-10936079D02*
X8563039Y-10974174D01*
X8563039Y-10974174D02*
X8563039Y-11021793D01*
X8563039Y-11021793D02*
X8553515Y-11059889D01*
X8553515Y-11059889D02*
X8543991Y-11078936D01*
X8543991Y-11078936D02*
X8534467Y-11088460D01*
X8534467Y-11088460D02*
X8515420Y-11097984D01*
X8515420Y-11097984D02*
X8496372Y-11097984D01*
X8496372Y-11097984D02*
X8477324Y-11088460D01*
X8477324Y-11088460D02*
X8467801Y-11078936D01*
X8467801Y-11078936D02*
X8458277Y-11059889D01*
X8458277Y-11059889D02*
X8448753Y-11021793D01*
X8448753Y-11021793D02*
X8448753Y-10974174D01*
X8448753Y-10974174D02*
X8458277Y-10936079D01*
X8458277Y-10936079D02*
X8467801Y-10917031D01*
X8467801Y-10917031D02*
X8477324Y-10907508D01*
X8477324Y-10907508D02*
X8496372Y-10897984D01*
X8648753Y-11078936D02*
X8658277Y-11088460D01*
X8658277Y-11088460D02*
X8648753Y-11097984D01*
X8648753Y-11097984D02*
X8639229Y-11088460D01*
X8639229Y-11088460D02*
X8648753Y-11078936D01*
X8648753Y-11078936D02*
X8648753Y-11097984D01*
X8772563Y-10983698D02*
X8753515Y-10974174D01*
X8753515Y-10974174D02*
X8743991Y-10964650D01*
X8743991Y-10964650D02*
X8734467Y-10945603D01*
X8734467Y-10945603D02*
X8734467Y-10936079D01*
X8734467Y-10936079D02*
X8743991Y-10917031D01*
X8743991Y-10917031D02*
X8753515Y-10907508D01*
X8753515Y-10907508D02*
X8772563Y-10897984D01*
X8772563Y-10897984D02*
X8810658Y-10897984D01*
X8810658Y-10897984D02*
X8829705Y-10907508D01*
X8829705Y-10907508D02*
X8839229Y-10917031D01*
X8839229Y-10917031D02*
X8848753Y-10936079D01*
X8848753Y-10936079D02*
X8848753Y-10945603D01*
X8848753Y-10945603D02*
X8839229Y-10964650D01*
X8839229Y-10964650D02*
X8829705Y-10974174D01*
X8829705Y-10974174D02*
X8810658Y-10983698D01*
X8810658Y-10983698D02*
X8772563Y-10983698D01*
X8772563Y-10983698D02*
X8753515Y-10993222D01*
X8753515Y-10993222D02*
X8743991Y-11002746D01*
X8743991Y-11002746D02*
X8734467Y-11021793D01*
X8734467Y-11021793D02*
X8734467Y-11059889D01*
X8734467Y-11059889D02*
X8743991Y-11078936D01*
X8743991Y-11078936D02*
X8753515Y-11088460D01*
X8753515Y-11088460D02*
X8772563Y-11097984D01*
X8772563Y-11097984D02*
X8810658Y-11097984D01*
X8810658Y-11097984D02*
X8829705Y-11088460D01*
X8829705Y-11088460D02*
X8839229Y-11078936D01*
X8839229Y-11078936D02*
X8848753Y-11059889D01*
X8848753Y-11059889D02*
X8848753Y-11021793D01*
X8848753Y-11021793D02*
X8839229Y-11002746D01*
X8839229Y-11002746D02*
X8829705Y-10993222D01*
X8829705Y-10993222D02*
X8810658Y-10983698D01*
X8972563Y-10897984D02*
X8991610Y-10897984D01*
X8991610Y-10897984D02*
X9010658Y-10907508D01*
X9010658Y-10907508D02*
X9020182Y-10917031D01*
X9020182Y-10917031D02*
X9029705Y-10936079D01*
X9029705Y-10936079D02*
X9039229Y-10974174D01*
X9039229Y-10974174D02*
X9039229Y-11021793D01*
X9039229Y-11021793D02*
X9029705Y-11059889D01*
X9029705Y-11059889D02*
X9020182Y-11078936D01*
X9020182Y-11078936D02*
X9010658Y-11088460D01*
X9010658Y-11088460D02*
X8991610Y-11097984D01*
X8991610Y-11097984D02*
X8972563Y-11097984D01*
X8972563Y-11097984D02*
X8953515Y-11088460D01*
X8953515Y-11088460D02*
X8943991Y-11078936D01*
X8943991Y-11078936D02*
X8934467Y-11059889D01*
X8934467Y-11059889D02*
X8924944Y-11021793D01*
X8924944Y-11021793D02*
X8924944Y-10974174D01*
X8924944Y-10974174D02*
X8934467Y-10936079D01*
X8934467Y-10936079D02*
X8943991Y-10917031D01*
X8943991Y-10917031D02*
X8953515Y-10907508D01*
X8953515Y-10907508D02*
X8972563Y-10897984D01*
X9163039Y-10897984D02*
X9182086Y-10897984D01*
X9182086Y-10897984D02*
X9201134Y-10907508D01*
X9201134Y-10907508D02*
X9210658Y-10917031D01*
X9210658Y-10917031D02*
X9220182Y-10936079D01*
X9220182Y-10936079D02*
X9229705Y-10974174D01*
X9229705Y-10974174D02*
X9229705Y-11021793D01*
X9229705Y-11021793D02*
X9220182Y-11059889D01*
X9220182Y-11059889D02*
X9210658Y-11078936D01*
X9210658Y-11078936D02*
X9201134Y-11088460D01*
X9201134Y-11088460D02*
X9182086Y-11097984D01*
X9182086Y-11097984D02*
X9163039Y-11097984D01*
X9163039Y-11097984D02*
X9143991Y-11088460D01*
X9143991Y-11088460D02*
X9134467Y-11078936D01*
X9134467Y-11078936D02*
X9124944Y-11059889D01*
X9124944Y-11059889D02*
X9115420Y-11021793D01*
X9115420Y-11021793D02*
X9115420Y-10974174D01*
X9115420Y-10974174D02*
X9124944Y-10936079D01*
X9124944Y-10936079D02*
X9134467Y-10917031D01*
X9134467Y-10917031D02*
X9143991Y-10907508D01*
X9143991Y-10907508D02*
X9163039Y-10897984D01*
X9315420Y-11097984D02*
X9315420Y-10964650D01*
X9315420Y-10983698D02*
X9324944Y-10974174D01*
X9324944Y-10974174D02*
X9343991Y-10964650D01*
X9343991Y-10964650D02*
X9372563Y-10964650D01*
X9372563Y-10964650D02*
X9391610Y-10974174D01*
X9391610Y-10974174D02*
X9401134Y-10993222D01*
X9401134Y-10993222D02*
X9401134Y-11097984D01*
X9401134Y-10993222D02*
X9410658Y-10974174D01*
X9410658Y-10974174D02*
X9429705Y-10964650D01*
X9429705Y-10964650D02*
X9458277Y-10964650D01*
X9458277Y-10964650D02*
X9477325Y-10974174D01*
X9477325Y-10974174D02*
X9486848Y-10993222D01*
X9486848Y-10993222D02*
X9486848Y-11097984D01*
X9582086Y-11097984D02*
X9582086Y-10964650D01*
X9582086Y-10983698D02*
X9591610Y-10974174D01*
X9591610Y-10974174D02*
X9610658Y-10964650D01*
X9610658Y-10964650D02*
X9639229Y-10964650D01*
X9639229Y-10964650D02*
X9658277Y-10974174D01*
X9658277Y-10974174D02*
X9667801Y-10993222D01*
X9667801Y-10993222D02*
X9667801Y-11097984D01*
X9667801Y-10993222D02*
X9677325Y-10974174D01*
X9677325Y-10974174D02*
X9696372Y-10964650D01*
X9696372Y-10964650D02*
X9724944Y-10964650D01*
X9724944Y-10964650D02*
X9743991Y-10974174D01*
X9743991Y-10974174D02*
X9753515Y-10993222D01*
X9753515Y-10993222D02*
X9753515Y-11097984D01*
X10143991Y-10888460D02*
X9972563Y-11145603D01*
X10401134Y-10897984D02*
X10420182Y-10897984D01*
X10420182Y-10897984D02*
X10439229Y-10907508D01*
X10439229Y-10907508D02*
X10448753Y-10917031D01*
X10448753Y-10917031D02*
X10458277Y-10936079D01*
X10458277Y-10936079D02*
X10467801Y-10974174D01*
X10467801Y-10974174D02*
X10467801Y-11021793D01*
X10467801Y-11021793D02*
X10458277Y-11059889D01*
X10458277Y-11059889D02*
X10448753Y-11078936D01*
X10448753Y-11078936D02*
X10439229Y-11088460D01*
X10439229Y-11088460D02*
X10420182Y-11097984D01*
X10420182Y-11097984D02*
X10401134Y-11097984D01*
X10401134Y-11097984D02*
X10382087Y-11088460D01*
X10382087Y-11088460D02*
X10372563Y-11078936D01*
X10372563Y-11078936D02*
X10363039Y-11059889D01*
X10363039Y-11059889D02*
X10353515Y-11021793D01*
X10353515Y-11021793D02*
X10353515Y-10974174D01*
X10353515Y-10974174D02*
X10363039Y-10936079D01*
X10363039Y-10936079D02*
X10372563Y-10917031D01*
X10372563Y-10917031D02*
X10382087Y-10907508D01*
X10382087Y-10907508D02*
X10401134Y-10897984D01*
X10553515Y-11078936D02*
X10563039Y-11088460D01*
X10563039Y-11088460D02*
X10553515Y-11097984D01*
X10553515Y-11097984D02*
X10543991Y-11088460D01*
X10543991Y-11088460D02*
X10553515Y-11078936D01*
X10553515Y-11078936D02*
X10553515Y-11097984D01*
X10686848Y-10897984D02*
X10705896Y-10897984D01*
X10705896Y-10897984D02*
X10724944Y-10907508D01*
X10724944Y-10907508D02*
X10734468Y-10917031D01*
X10734468Y-10917031D02*
X10743991Y-10936079D01*
X10743991Y-10936079D02*
X10753515Y-10974174D01*
X10753515Y-10974174D02*
X10753515Y-11021793D01*
X10753515Y-11021793D02*
X10743991Y-11059889D01*
X10743991Y-11059889D02*
X10734468Y-11078936D01*
X10734468Y-11078936D02*
X10724944Y-11088460D01*
X10724944Y-11088460D02*
X10705896Y-11097984D01*
X10705896Y-11097984D02*
X10686848Y-11097984D01*
X10686848Y-11097984D02*
X10667801Y-11088460D01*
X10667801Y-11088460D02*
X10658277Y-11078936D01*
X10658277Y-11078936D02*
X10648753Y-11059889D01*
X10648753Y-11059889D02*
X10639229Y-11021793D01*
X10639229Y-11021793D02*
X10639229Y-10974174D01*
X10639229Y-10974174D02*
X10648753Y-10936079D01*
X10648753Y-10936079D02*
X10658277Y-10917031D01*
X10658277Y-10917031D02*
X10667801Y-10907508D01*
X10667801Y-10907508D02*
X10686848Y-10897984D01*
X10820182Y-10897984D02*
X10943991Y-10897984D01*
X10943991Y-10897984D02*
X10877325Y-10974174D01*
X10877325Y-10974174D02*
X10905896Y-10974174D01*
X10905896Y-10974174D02*
X10924944Y-10983698D01*
X10924944Y-10983698D02*
X10934468Y-10993222D01*
X10934468Y-10993222D02*
X10943991Y-11012270D01*
X10943991Y-11012270D02*
X10943991Y-11059889D01*
X10943991Y-11059889D02*
X10934468Y-11078936D01*
X10934468Y-11078936D02*
X10924944Y-11088460D01*
X10924944Y-11088460D02*
X10905896Y-11097984D01*
X10905896Y-11097984D02*
X10848753Y-11097984D01*
X10848753Y-11097984D02*
X10829706Y-11088460D01*
X10829706Y-11088460D02*
X10820182Y-11078936D01*
X11134468Y-11097984D02*
X11020182Y-11097984D01*
X11077325Y-11097984D02*
X11077325Y-10897984D01*
X11077325Y-10897984D02*
X11058277Y-10926555D01*
X11058277Y-10926555D02*
X11039229Y-10945603D01*
X11039229Y-10945603D02*
X11020182Y-10955127D01*
X11315420Y-10897984D02*
X11220182Y-10897984D01*
X11220182Y-10897984D02*
X11210658Y-10993222D01*
X11210658Y-10993222D02*
X11220182Y-10983698D01*
X11220182Y-10983698D02*
X11239229Y-10974174D01*
X11239229Y-10974174D02*
X11286848Y-10974174D01*
X11286848Y-10974174D02*
X11305896Y-10983698D01*
X11305896Y-10983698D02*
X11315420Y-10993222D01*
X11315420Y-10993222D02*
X11324944Y-11012270D01*
X11324944Y-11012270D02*
X11324944Y-11059889D01*
X11324944Y-11059889D02*
X11315420Y-11078936D01*
X11315420Y-11078936D02*
X11305896Y-11088460D01*
X11305896Y-11088460D02*
X11286848Y-11097984D01*
X11286848Y-11097984D02*
X11239229Y-11097984D01*
X11239229Y-11097984D02*
X11220182Y-11088460D01*
X11220182Y-11088460D02*
X11210658Y-11078936D01*
X11401134Y-10897984D02*
X11401134Y-10936079D01*
X11477325Y-10897984D02*
X11477325Y-10936079D01*
X11772563Y-11174174D02*
X11763039Y-11164650D01*
X11763039Y-11164650D02*
X11743991Y-11136079D01*
X11743991Y-11136079D02*
X11734468Y-11117031D01*
X11734468Y-11117031D02*
X11724944Y-11088460D01*
X11724944Y-11088460D02*
X11715420Y-11040841D01*
X11715420Y-11040841D02*
X11715420Y-11002746D01*
X11715420Y-11002746D02*
X11724944Y-10955127D01*
X11724944Y-10955127D02*
X11734468Y-10926555D01*
X11734468Y-10926555D02*
X11743991Y-10907508D01*
X11743991Y-10907508D02*
X11763039Y-10878936D01*
X11763039Y-10878936D02*
X11772563Y-10869412D01*
X11839229Y-10917031D02*
X11848753Y-10907508D01*
X11848753Y-10907508D02*
X11867801Y-10897984D01*
X11867801Y-10897984D02*
X11915420Y-10897984D01*
X11915420Y-10897984D02*
X11934468Y-10907508D01*
X11934468Y-10907508D02*
X11943991Y-10917031D01*
X11943991Y-10917031D02*
X11953515Y-10936079D01*
X11953515Y-10936079D02*
X11953515Y-10955127D01*
X11953515Y-10955127D02*
X11943991Y-10983698D01*
X11943991Y-10983698D02*
X11829706Y-11097984D01*
X11829706Y-11097984D02*
X11953515Y-11097984D01*
X12191610Y-11097984D02*
X12191610Y-10897984D01*
X12277325Y-11097984D02*
X12277325Y-10993222D01*
X12277325Y-10993222D02*
X12267801Y-10974174D01*
X12267801Y-10974174D02*
X12248753Y-10964650D01*
X12248753Y-10964650D02*
X12220182Y-10964650D01*
X12220182Y-10964650D02*
X12201134Y-10974174D01*
X12201134Y-10974174D02*
X12191610Y-10983698D01*
X12401134Y-11097984D02*
X12382087Y-11088460D01*
X12382087Y-11088460D02*
X12372563Y-11078936D01*
X12372563Y-11078936D02*
X12363039Y-11059889D01*
X12363039Y-11059889D02*
X12363039Y-11002746D01*
X12363039Y-11002746D02*
X12372563Y-10983698D01*
X12372563Y-10983698D02*
X12382087Y-10974174D01*
X12382087Y-10974174D02*
X12401134Y-10964650D01*
X12401134Y-10964650D02*
X12429706Y-10964650D01*
X12429706Y-10964650D02*
X12448753Y-10974174D01*
X12448753Y-10974174D02*
X12458277Y-10983698D01*
X12458277Y-10983698D02*
X12467801Y-11002746D01*
X12467801Y-11002746D02*
X12467801Y-11059889D01*
X12467801Y-11059889D02*
X12458277Y-11078936D01*
X12458277Y-11078936D02*
X12448753Y-11088460D01*
X12448753Y-11088460D02*
X12429706Y-11097984D01*
X12429706Y-11097984D02*
X12401134Y-11097984D01*
X12582087Y-11097984D02*
X12563039Y-11088460D01*
X12563039Y-11088460D02*
X12553515Y-11069412D01*
X12553515Y-11069412D02*
X12553515Y-10897984D01*
X12734468Y-11088460D02*
X12715420Y-11097984D01*
X12715420Y-11097984D02*
X12677325Y-11097984D01*
X12677325Y-11097984D02*
X12658277Y-11088460D01*
X12658277Y-11088460D02*
X12648753Y-11069412D01*
X12648753Y-11069412D02*
X12648753Y-10993222D01*
X12648753Y-10993222D02*
X12658277Y-10974174D01*
X12658277Y-10974174D02*
X12677325Y-10964650D01*
X12677325Y-10964650D02*
X12715420Y-10964650D01*
X12715420Y-10964650D02*
X12734468Y-10974174D01*
X12734468Y-10974174D02*
X12743991Y-10993222D01*
X12743991Y-10993222D02*
X12743991Y-11012270D01*
X12743991Y-11012270D02*
X12648753Y-11031317D01*
X12820182Y-11088460D02*
X12839230Y-11097984D01*
X12839230Y-11097984D02*
X12877325Y-11097984D01*
X12877325Y-11097984D02*
X12896372Y-11088460D01*
X12896372Y-11088460D02*
X12905896Y-11069412D01*
X12905896Y-11069412D02*
X12905896Y-11059889D01*
X12905896Y-11059889D02*
X12896372Y-11040841D01*
X12896372Y-11040841D02*
X12877325Y-11031317D01*
X12877325Y-11031317D02*
X12848753Y-11031317D01*
X12848753Y-11031317D02*
X12829706Y-11021793D01*
X12829706Y-11021793D02*
X12820182Y-11002746D01*
X12820182Y-11002746D02*
X12820182Y-10993222D01*
X12820182Y-10993222D02*
X12829706Y-10974174D01*
X12829706Y-10974174D02*
X12848753Y-10964650D01*
X12848753Y-10964650D02*
X12877325Y-10964650D01*
X12877325Y-10964650D02*
X12896372Y-10974174D01*
X12972563Y-11174174D02*
X12982087Y-11164650D01*
X12982087Y-11164650D02*
X13001134Y-11136079D01*
X13001134Y-11136079D02*
X13010658Y-11117031D01*
X13010658Y-11117031D02*
X13020182Y-11088460D01*
X13020182Y-11088460D02*
X13029706Y-11040841D01*
X13029706Y-11040841D02*
X13029706Y-11002746D01*
X13029706Y-11002746D02*
X13020182Y-10955127D01*
X13020182Y-10955127D02*
X13010658Y-10926555D01*
X13010658Y-10926555D02*
X13001134Y-10907508D01*
X13001134Y-10907508D02*
X12982087Y-10878936D01*
X12982087Y-10878936D02*
X12972563Y-10869412D01*
D12*
X8147500Y-11220500D02*
X8147500Y-11320500D01*
X8097500Y-11270500D02*
X8197500Y-11270500D01*
D11*
X8563039Y-11361984D02*
X8448753Y-11361984D01*
X8505896Y-11361984D02*
X8505896Y-11161984D01*
X8505896Y-11161984D02*
X8486848Y-11190555D01*
X8486848Y-11190555D02*
X8467801Y-11209603D01*
X8467801Y-11209603D02*
X8448753Y-11219127D01*
X8648753Y-11342936D02*
X8658277Y-11352460D01*
X8658277Y-11352460D02*
X8648753Y-11361984D01*
X8648753Y-11361984D02*
X8639229Y-11352460D01*
X8639229Y-11352460D02*
X8648753Y-11342936D01*
X8648753Y-11342936D02*
X8648753Y-11361984D01*
X8782086Y-11161984D02*
X8801134Y-11161984D01*
X8801134Y-11161984D02*
X8820182Y-11171508D01*
X8820182Y-11171508D02*
X8829705Y-11181031D01*
X8829705Y-11181031D02*
X8839229Y-11200079D01*
X8839229Y-11200079D02*
X8848753Y-11238174D01*
X8848753Y-11238174D02*
X8848753Y-11285793D01*
X8848753Y-11285793D02*
X8839229Y-11323888D01*
X8839229Y-11323888D02*
X8829705Y-11342936D01*
X8829705Y-11342936D02*
X8820182Y-11352460D01*
X8820182Y-11352460D02*
X8801134Y-11361984D01*
X8801134Y-11361984D02*
X8782086Y-11361984D01*
X8782086Y-11361984D02*
X8763039Y-11352460D01*
X8763039Y-11352460D02*
X8753515Y-11342936D01*
X8753515Y-11342936D02*
X8743991Y-11323888D01*
X8743991Y-11323888D02*
X8734467Y-11285793D01*
X8734467Y-11285793D02*
X8734467Y-11238174D01*
X8734467Y-11238174D02*
X8743991Y-11200079D01*
X8743991Y-11200079D02*
X8753515Y-11181031D01*
X8753515Y-11181031D02*
X8763039Y-11171508D01*
X8763039Y-11171508D02*
X8782086Y-11161984D01*
X8972563Y-11161984D02*
X8991610Y-11161984D01*
X8991610Y-11161984D02*
X9010658Y-11171508D01*
X9010658Y-11171508D02*
X9020182Y-11181031D01*
X9020182Y-11181031D02*
X9029705Y-11200079D01*
X9029705Y-11200079D02*
X9039229Y-11238174D01*
X9039229Y-11238174D02*
X9039229Y-11285793D01*
X9039229Y-11285793D02*
X9029705Y-11323888D01*
X9029705Y-11323888D02*
X9020182Y-11342936D01*
X9020182Y-11342936D02*
X9010658Y-11352460D01*
X9010658Y-11352460D02*
X8991610Y-11361984D01*
X8991610Y-11361984D02*
X8972563Y-11361984D01*
X8972563Y-11361984D02*
X8953515Y-11352460D01*
X8953515Y-11352460D02*
X8943991Y-11342936D01*
X8943991Y-11342936D02*
X8934467Y-11323888D01*
X8934467Y-11323888D02*
X8924944Y-11285793D01*
X8924944Y-11285793D02*
X8924944Y-11238174D01*
X8924944Y-11238174D02*
X8934467Y-11200079D01*
X8934467Y-11200079D02*
X8943991Y-11181031D01*
X8943991Y-11181031D02*
X8953515Y-11171508D01*
X8953515Y-11171508D02*
X8972563Y-11161984D01*
X9163039Y-11161984D02*
X9182086Y-11161984D01*
X9182086Y-11161984D02*
X9201134Y-11171508D01*
X9201134Y-11171508D02*
X9210658Y-11181031D01*
X9210658Y-11181031D02*
X9220182Y-11200079D01*
X9220182Y-11200079D02*
X9229705Y-11238174D01*
X9229705Y-11238174D02*
X9229705Y-11285793D01*
X9229705Y-11285793D02*
X9220182Y-11323888D01*
X9220182Y-11323888D02*
X9210658Y-11342936D01*
X9210658Y-11342936D02*
X9201134Y-11352460D01*
X9201134Y-11352460D02*
X9182086Y-11361984D01*
X9182086Y-11361984D02*
X9163039Y-11361984D01*
X9163039Y-11361984D02*
X9143991Y-11352460D01*
X9143991Y-11352460D02*
X9134467Y-11342936D01*
X9134467Y-11342936D02*
X9124944Y-11323888D01*
X9124944Y-11323888D02*
X9115420Y-11285793D01*
X9115420Y-11285793D02*
X9115420Y-11238174D01*
X9115420Y-11238174D02*
X9124944Y-11200079D01*
X9124944Y-11200079D02*
X9134467Y-11181031D01*
X9134467Y-11181031D02*
X9143991Y-11171508D01*
X9143991Y-11171508D02*
X9163039Y-11161984D01*
X9315420Y-11361984D02*
X9315420Y-11228650D01*
X9315420Y-11247698D02*
X9324944Y-11238174D01*
X9324944Y-11238174D02*
X9343991Y-11228650D01*
X9343991Y-11228650D02*
X9372563Y-11228650D01*
X9372563Y-11228650D02*
X9391610Y-11238174D01*
X9391610Y-11238174D02*
X9401134Y-11257222D01*
X9401134Y-11257222D02*
X9401134Y-11361984D01*
X9401134Y-11257222D02*
X9410658Y-11238174D01*
X9410658Y-11238174D02*
X9429705Y-11228650D01*
X9429705Y-11228650D02*
X9458277Y-11228650D01*
X9458277Y-11228650D02*
X9477325Y-11238174D01*
X9477325Y-11238174D02*
X9486848Y-11257222D01*
X9486848Y-11257222D02*
X9486848Y-11361984D01*
X9582086Y-11361984D02*
X9582086Y-11228650D01*
X9582086Y-11247698D02*
X9591610Y-11238174D01*
X9591610Y-11238174D02*
X9610658Y-11228650D01*
X9610658Y-11228650D02*
X9639229Y-11228650D01*
X9639229Y-11228650D02*
X9658277Y-11238174D01*
X9658277Y-11238174D02*
X9667801Y-11257222D01*
X9667801Y-11257222D02*
X9667801Y-11361984D01*
X9667801Y-11257222D02*
X9677325Y-11238174D01*
X9677325Y-11238174D02*
X9696372Y-11228650D01*
X9696372Y-11228650D02*
X9724944Y-11228650D01*
X9724944Y-11228650D02*
X9743991Y-11238174D01*
X9743991Y-11238174D02*
X9753515Y-11257222D01*
X9753515Y-11257222D02*
X9753515Y-11361984D01*
X10143991Y-11152460D02*
X9972563Y-11409603D01*
X10401134Y-11161984D02*
X10420182Y-11161984D01*
X10420182Y-11161984D02*
X10439229Y-11171508D01*
X10439229Y-11171508D02*
X10448753Y-11181031D01*
X10448753Y-11181031D02*
X10458277Y-11200079D01*
X10458277Y-11200079D02*
X10467801Y-11238174D01*
X10467801Y-11238174D02*
X10467801Y-11285793D01*
X10467801Y-11285793D02*
X10458277Y-11323888D01*
X10458277Y-11323888D02*
X10448753Y-11342936D01*
X10448753Y-11342936D02*
X10439229Y-11352460D01*
X10439229Y-11352460D02*
X10420182Y-11361984D01*
X10420182Y-11361984D02*
X10401134Y-11361984D01*
X10401134Y-11361984D02*
X10382087Y-11352460D01*
X10382087Y-11352460D02*
X10372563Y-11342936D01*
X10372563Y-11342936D02*
X10363039Y-11323888D01*
X10363039Y-11323888D02*
X10353515Y-11285793D01*
X10353515Y-11285793D02*
X10353515Y-11238174D01*
X10353515Y-11238174D02*
X10363039Y-11200079D01*
X10363039Y-11200079D02*
X10372563Y-11181031D01*
X10372563Y-11181031D02*
X10382087Y-11171508D01*
X10382087Y-11171508D02*
X10401134Y-11161984D01*
X10553515Y-11342936D02*
X10563039Y-11352460D01*
X10563039Y-11352460D02*
X10553515Y-11361984D01*
X10553515Y-11361984D02*
X10543991Y-11352460D01*
X10543991Y-11352460D02*
X10553515Y-11342936D01*
X10553515Y-11342936D02*
X10553515Y-11361984D01*
X10686848Y-11161984D02*
X10705896Y-11161984D01*
X10705896Y-11161984D02*
X10724944Y-11171508D01*
X10724944Y-11171508D02*
X10734468Y-11181031D01*
X10734468Y-11181031D02*
X10743991Y-11200079D01*
X10743991Y-11200079D02*
X10753515Y-11238174D01*
X10753515Y-11238174D02*
X10753515Y-11285793D01*
X10753515Y-11285793D02*
X10743991Y-11323888D01*
X10743991Y-11323888D02*
X10734468Y-11342936D01*
X10734468Y-11342936D02*
X10724944Y-11352460D01*
X10724944Y-11352460D02*
X10705896Y-11361984D01*
X10705896Y-11361984D02*
X10686848Y-11361984D01*
X10686848Y-11361984D02*
X10667801Y-11352460D01*
X10667801Y-11352460D02*
X10658277Y-11342936D01*
X10658277Y-11342936D02*
X10648753Y-11323888D01*
X10648753Y-11323888D02*
X10639229Y-11285793D01*
X10639229Y-11285793D02*
X10639229Y-11238174D01*
X10639229Y-11238174D02*
X10648753Y-11200079D01*
X10648753Y-11200079D02*
X10658277Y-11181031D01*
X10658277Y-11181031D02*
X10667801Y-11171508D01*
X10667801Y-11171508D02*
X10686848Y-11161984D01*
X10820182Y-11161984D02*
X10943991Y-11161984D01*
X10943991Y-11161984D02*
X10877325Y-11238174D01*
X10877325Y-11238174D02*
X10905896Y-11238174D01*
X10905896Y-11238174D02*
X10924944Y-11247698D01*
X10924944Y-11247698D02*
X10934468Y-11257222D01*
X10934468Y-11257222D02*
X10943991Y-11276269D01*
X10943991Y-11276269D02*
X10943991Y-11323888D01*
X10943991Y-11323888D02*
X10934468Y-11342936D01*
X10934468Y-11342936D02*
X10924944Y-11352460D01*
X10924944Y-11352460D02*
X10905896Y-11361984D01*
X10905896Y-11361984D02*
X10848753Y-11361984D01*
X10848753Y-11361984D02*
X10829706Y-11352460D01*
X10829706Y-11352460D02*
X10820182Y-11342936D01*
X11039229Y-11361984D02*
X11077325Y-11361984D01*
X11077325Y-11361984D02*
X11096372Y-11352460D01*
X11096372Y-11352460D02*
X11105896Y-11342936D01*
X11105896Y-11342936D02*
X11124944Y-11314365D01*
X11124944Y-11314365D02*
X11134468Y-11276269D01*
X11134468Y-11276269D02*
X11134468Y-11200079D01*
X11134468Y-11200079D02*
X11124944Y-11181031D01*
X11124944Y-11181031D02*
X11115420Y-11171508D01*
X11115420Y-11171508D02*
X11096372Y-11161984D01*
X11096372Y-11161984D02*
X11058277Y-11161984D01*
X11058277Y-11161984D02*
X11039229Y-11171508D01*
X11039229Y-11171508D02*
X11029706Y-11181031D01*
X11029706Y-11181031D02*
X11020182Y-11200079D01*
X11020182Y-11200079D02*
X11020182Y-11247698D01*
X11020182Y-11247698D02*
X11029706Y-11266746D01*
X11029706Y-11266746D02*
X11039229Y-11276269D01*
X11039229Y-11276269D02*
X11058277Y-11285793D01*
X11058277Y-11285793D02*
X11096372Y-11285793D01*
X11096372Y-11285793D02*
X11115420Y-11276269D01*
X11115420Y-11276269D02*
X11124944Y-11266746D01*
X11124944Y-11266746D02*
X11134468Y-11247698D01*
X11305896Y-11228650D02*
X11305896Y-11361984D01*
X11258277Y-11152460D02*
X11210658Y-11295317D01*
X11210658Y-11295317D02*
X11334467Y-11295317D01*
X11401134Y-11161984D02*
X11401134Y-11200079D01*
X11477325Y-11161984D02*
X11477325Y-11200079D01*
X11772563Y-11438174D02*
X11763039Y-11428650D01*
X11763039Y-11428650D02*
X11743991Y-11400079D01*
X11743991Y-11400079D02*
X11734468Y-11381031D01*
X11734468Y-11381031D02*
X11724944Y-11352460D01*
X11724944Y-11352460D02*
X11715420Y-11304841D01*
X11715420Y-11304841D02*
X11715420Y-11266746D01*
X11715420Y-11266746D02*
X11724944Y-11219127D01*
X11724944Y-11219127D02*
X11734468Y-11190555D01*
X11734468Y-11190555D02*
X11743991Y-11171508D01*
X11743991Y-11171508D02*
X11763039Y-11142936D01*
X11763039Y-11142936D02*
X11772563Y-11133412D01*
X11953515Y-11361984D02*
X11839229Y-11361984D01*
X11896372Y-11361984D02*
X11896372Y-11161984D01*
X11896372Y-11161984D02*
X11877325Y-11190555D01*
X11877325Y-11190555D02*
X11858277Y-11209603D01*
X11858277Y-11209603D02*
X11839229Y-11219127D01*
X12077325Y-11161984D02*
X12096372Y-11161984D01*
X12096372Y-11161984D02*
X12115420Y-11171508D01*
X12115420Y-11171508D02*
X12124944Y-11181031D01*
X12124944Y-11181031D02*
X12134468Y-11200079D01*
X12134468Y-11200079D02*
X12143991Y-11238174D01*
X12143991Y-11238174D02*
X12143991Y-11285793D01*
X12143991Y-11285793D02*
X12134468Y-11323888D01*
X12134468Y-11323888D02*
X12124944Y-11342936D01*
X12124944Y-11342936D02*
X12115420Y-11352460D01*
X12115420Y-11352460D02*
X12096372Y-11361984D01*
X12096372Y-11361984D02*
X12077325Y-11361984D01*
X12077325Y-11361984D02*
X12058277Y-11352460D01*
X12058277Y-11352460D02*
X12048753Y-11342936D01*
X12048753Y-11342936D02*
X12039229Y-11323888D01*
X12039229Y-11323888D02*
X12029706Y-11285793D01*
X12029706Y-11285793D02*
X12029706Y-11238174D01*
X12029706Y-11238174D02*
X12039229Y-11200079D01*
X12039229Y-11200079D02*
X12048753Y-11181031D01*
X12048753Y-11181031D02*
X12058277Y-11171508D01*
X12058277Y-11171508D02*
X12077325Y-11161984D01*
X12382087Y-11361984D02*
X12382087Y-11161984D01*
X12467801Y-11361984D02*
X12467801Y-11257222D01*
X12467801Y-11257222D02*
X12458277Y-11238174D01*
X12458277Y-11238174D02*
X12439230Y-11228650D01*
X12439230Y-11228650D02*
X12410658Y-11228650D01*
X12410658Y-11228650D02*
X12391610Y-11238174D01*
X12391610Y-11238174D02*
X12382087Y-11247698D01*
X12591610Y-11361984D02*
X12572563Y-11352460D01*
X12572563Y-11352460D02*
X12563039Y-11342936D01*
X12563039Y-11342936D02*
X12553515Y-11323888D01*
X12553515Y-11323888D02*
X12553515Y-11266746D01*
X12553515Y-11266746D02*
X12563039Y-11247698D01*
X12563039Y-11247698D02*
X12572563Y-11238174D01*
X12572563Y-11238174D02*
X12591610Y-11228650D01*
X12591610Y-11228650D02*
X12620182Y-11228650D01*
X12620182Y-11228650D02*
X12639230Y-11238174D01*
X12639230Y-11238174D02*
X12648753Y-11247698D01*
X12648753Y-11247698D02*
X12658277Y-11266746D01*
X12658277Y-11266746D02*
X12658277Y-11323888D01*
X12658277Y-11323888D02*
X12648753Y-11342936D01*
X12648753Y-11342936D02*
X12639230Y-11352460D01*
X12639230Y-11352460D02*
X12620182Y-11361984D01*
X12620182Y-11361984D02*
X12591610Y-11361984D01*
X12772563Y-11361984D02*
X12753515Y-11352460D01*
X12753515Y-11352460D02*
X12743991Y-11333412D01*
X12743991Y-11333412D02*
X12743991Y-11161984D01*
X12924944Y-11352460D02*
X12905896Y-11361984D01*
X12905896Y-11361984D02*
X12867801Y-11361984D01*
X12867801Y-11361984D02*
X12848753Y-11352460D01*
X12848753Y-11352460D02*
X12839230Y-11333412D01*
X12839230Y-11333412D02*
X12839230Y-11257222D01*
X12839230Y-11257222D02*
X12848753Y-11238174D01*
X12848753Y-11238174D02*
X12867801Y-11228650D01*
X12867801Y-11228650D02*
X12905896Y-11228650D01*
X12905896Y-11228650D02*
X12924944Y-11238174D01*
X12924944Y-11238174D02*
X12934468Y-11257222D01*
X12934468Y-11257222D02*
X12934468Y-11276269D01*
X12934468Y-11276269D02*
X12839230Y-11295317D01*
X13010658Y-11352460D02*
X13029706Y-11361984D01*
X13029706Y-11361984D02*
X13067801Y-11361984D01*
X13067801Y-11361984D02*
X13086849Y-11352460D01*
X13086849Y-11352460D02*
X13096372Y-11333412D01*
X13096372Y-11333412D02*
X13096372Y-11323888D01*
X13096372Y-11323888D02*
X13086849Y-11304841D01*
X13086849Y-11304841D02*
X13067801Y-11295317D01*
X13067801Y-11295317D02*
X13039230Y-11295317D01*
X13039230Y-11295317D02*
X13020182Y-11285793D01*
X13020182Y-11285793D02*
X13010658Y-11266746D01*
X13010658Y-11266746D02*
X13010658Y-11257222D01*
X13010658Y-11257222D02*
X13020182Y-11238174D01*
X13020182Y-11238174D02*
X13039230Y-11228650D01*
X13039230Y-11228650D02*
X13067801Y-11228650D01*
X13067801Y-11228650D02*
X13086849Y-11238174D01*
X13163039Y-11438174D02*
X13172563Y-11428650D01*
X13172563Y-11428650D02*
X13191611Y-11400079D01*
X13191611Y-11400079D02*
X13201134Y-11381031D01*
X13201134Y-11381031D02*
X13210658Y-11352460D01*
X13210658Y-11352460D02*
X13220182Y-11304841D01*
X13220182Y-11304841D02*
X13220182Y-11266746D01*
X13220182Y-11266746D02*
X13210658Y-11219127D01*
X13210658Y-11219127D02*
X13201134Y-11190555D01*
X13201134Y-11190555D02*
X13191611Y-11171508D01*
X13191611Y-11171508D02*
X13172563Y-11142936D01*
X13172563Y-11142936D02*
X13163039Y-11133412D01*
X8168211Y-11605211D02*
X8168211Y-11463789D01*
X8026789Y-11463789D01*
X8026789Y-11605211D01*
X8168211Y-11605211D01*
X8448753Y-11445031D02*
X8458277Y-11435508D01*
X8458277Y-11435508D02*
X8477324Y-11425984D01*
X8477324Y-11425984D02*
X8524944Y-11425984D01*
X8524944Y-11425984D02*
X8543991Y-11435508D01*
X8543991Y-11435508D02*
X8553515Y-11445031D01*
X8553515Y-11445031D02*
X8563039Y-11464079D01*
X8563039Y-11464079D02*
X8563039Y-11483127D01*
X8563039Y-11483127D02*
X8553515Y-11511698D01*
X8553515Y-11511698D02*
X8439229Y-11625984D01*
X8439229Y-11625984D02*
X8563039Y-11625984D01*
X8648753Y-11606936D02*
X8658277Y-11616460D01*
X8658277Y-11616460D02*
X8648753Y-11625984D01*
X8648753Y-11625984D02*
X8639229Y-11616460D01*
X8639229Y-11616460D02*
X8648753Y-11606936D01*
X8648753Y-11606936D02*
X8648753Y-11625984D01*
X8734467Y-11445031D02*
X8743991Y-11435508D01*
X8743991Y-11435508D02*
X8763039Y-11425984D01*
X8763039Y-11425984D02*
X8810658Y-11425984D01*
X8810658Y-11425984D02*
X8829705Y-11435508D01*
X8829705Y-11435508D02*
X8839229Y-11445031D01*
X8839229Y-11445031D02*
X8848753Y-11464079D01*
X8848753Y-11464079D02*
X8848753Y-11483127D01*
X8848753Y-11483127D02*
X8839229Y-11511698D01*
X8839229Y-11511698D02*
X8724944Y-11625984D01*
X8724944Y-11625984D02*
X8848753Y-11625984D01*
X8972563Y-11425984D02*
X8991610Y-11425984D01*
X8991610Y-11425984D02*
X9010658Y-11435508D01*
X9010658Y-11435508D02*
X9020182Y-11445031D01*
X9020182Y-11445031D02*
X9029705Y-11464079D01*
X9029705Y-11464079D02*
X9039229Y-11502174D01*
X9039229Y-11502174D02*
X9039229Y-11549793D01*
X9039229Y-11549793D02*
X9029705Y-11587888D01*
X9029705Y-11587888D02*
X9020182Y-11606936D01*
X9020182Y-11606936D02*
X9010658Y-11616460D01*
X9010658Y-11616460D02*
X8991610Y-11625984D01*
X8991610Y-11625984D02*
X8972563Y-11625984D01*
X8972563Y-11625984D02*
X8953515Y-11616460D01*
X8953515Y-11616460D02*
X8943991Y-11606936D01*
X8943991Y-11606936D02*
X8934467Y-11587888D01*
X8934467Y-11587888D02*
X8924944Y-11549793D01*
X8924944Y-11549793D02*
X8924944Y-11502174D01*
X8924944Y-11502174D02*
X8934467Y-11464079D01*
X8934467Y-11464079D02*
X8943991Y-11445031D01*
X8943991Y-11445031D02*
X8953515Y-11435508D01*
X8953515Y-11435508D02*
X8972563Y-11425984D01*
X9163039Y-11425984D02*
X9182086Y-11425984D01*
X9182086Y-11425984D02*
X9201134Y-11435508D01*
X9201134Y-11435508D02*
X9210658Y-11445031D01*
X9210658Y-11445031D02*
X9220182Y-11464079D01*
X9220182Y-11464079D02*
X9229705Y-11502174D01*
X9229705Y-11502174D02*
X9229705Y-11549793D01*
X9229705Y-11549793D02*
X9220182Y-11587888D01*
X9220182Y-11587888D02*
X9210658Y-11606936D01*
X9210658Y-11606936D02*
X9201134Y-11616460D01*
X9201134Y-11616460D02*
X9182086Y-11625984D01*
X9182086Y-11625984D02*
X9163039Y-11625984D01*
X9163039Y-11625984D02*
X9143991Y-11616460D01*
X9143991Y-11616460D02*
X9134467Y-11606936D01*
X9134467Y-11606936D02*
X9124944Y-11587888D01*
X9124944Y-11587888D02*
X9115420Y-11549793D01*
X9115420Y-11549793D02*
X9115420Y-11502174D01*
X9115420Y-11502174D02*
X9124944Y-11464079D01*
X9124944Y-11464079D02*
X9134467Y-11445031D01*
X9134467Y-11445031D02*
X9143991Y-11435508D01*
X9143991Y-11435508D02*
X9163039Y-11425984D01*
X9315420Y-11625984D02*
X9315420Y-11492650D01*
X9315420Y-11511698D02*
X9324944Y-11502174D01*
X9324944Y-11502174D02*
X9343991Y-11492650D01*
X9343991Y-11492650D02*
X9372563Y-11492650D01*
X9372563Y-11492650D02*
X9391610Y-11502174D01*
X9391610Y-11502174D02*
X9401134Y-11521222D01*
X9401134Y-11521222D02*
X9401134Y-11625984D01*
X9401134Y-11521222D02*
X9410658Y-11502174D01*
X9410658Y-11502174D02*
X9429705Y-11492650D01*
X9429705Y-11492650D02*
X9458277Y-11492650D01*
X9458277Y-11492650D02*
X9477325Y-11502174D01*
X9477325Y-11502174D02*
X9486848Y-11521222D01*
X9486848Y-11521222D02*
X9486848Y-11625984D01*
X9582086Y-11625984D02*
X9582086Y-11492650D01*
X9582086Y-11511698D02*
X9591610Y-11502174D01*
X9591610Y-11502174D02*
X9610658Y-11492650D01*
X9610658Y-11492650D02*
X9639229Y-11492650D01*
X9639229Y-11492650D02*
X9658277Y-11502174D01*
X9658277Y-11502174D02*
X9667801Y-11521222D01*
X9667801Y-11521222D02*
X9667801Y-11625984D01*
X9667801Y-11521222D02*
X9677325Y-11502174D01*
X9677325Y-11502174D02*
X9696372Y-11492650D01*
X9696372Y-11492650D02*
X9724944Y-11492650D01*
X9724944Y-11492650D02*
X9743991Y-11502174D01*
X9743991Y-11502174D02*
X9753515Y-11521222D01*
X9753515Y-11521222D02*
X9753515Y-11625984D01*
X10143991Y-11416460D02*
X9972563Y-11673603D01*
X10401134Y-11425984D02*
X10420182Y-11425984D01*
X10420182Y-11425984D02*
X10439229Y-11435508D01*
X10439229Y-11435508D02*
X10448753Y-11445031D01*
X10448753Y-11445031D02*
X10458277Y-11464079D01*
X10458277Y-11464079D02*
X10467801Y-11502174D01*
X10467801Y-11502174D02*
X10467801Y-11549793D01*
X10467801Y-11549793D02*
X10458277Y-11587888D01*
X10458277Y-11587888D02*
X10448753Y-11606936D01*
X10448753Y-11606936D02*
X10439229Y-11616460D01*
X10439229Y-11616460D02*
X10420182Y-11625984D01*
X10420182Y-11625984D02*
X10401134Y-11625984D01*
X10401134Y-11625984D02*
X10382087Y-11616460D01*
X10382087Y-11616460D02*
X10372563Y-11606936D01*
X10372563Y-11606936D02*
X10363039Y-11587888D01*
X10363039Y-11587888D02*
X10353515Y-11549793D01*
X10353515Y-11549793D02*
X10353515Y-11502174D01*
X10353515Y-11502174D02*
X10363039Y-11464079D01*
X10363039Y-11464079D02*
X10372563Y-11445031D01*
X10372563Y-11445031D02*
X10382087Y-11435508D01*
X10382087Y-11435508D02*
X10401134Y-11425984D01*
X10553515Y-11606936D02*
X10563039Y-11616460D01*
X10563039Y-11616460D02*
X10553515Y-11625984D01*
X10553515Y-11625984D02*
X10543991Y-11616460D01*
X10543991Y-11616460D02*
X10553515Y-11606936D01*
X10553515Y-11606936D02*
X10553515Y-11625984D01*
X10686848Y-11425984D02*
X10705896Y-11425984D01*
X10705896Y-11425984D02*
X10724944Y-11435508D01*
X10724944Y-11435508D02*
X10734468Y-11445031D01*
X10734468Y-11445031D02*
X10743991Y-11464079D01*
X10743991Y-11464079D02*
X10753515Y-11502174D01*
X10753515Y-11502174D02*
X10753515Y-11549793D01*
X10753515Y-11549793D02*
X10743991Y-11587888D01*
X10743991Y-11587888D02*
X10734468Y-11606936D01*
X10734468Y-11606936D02*
X10724944Y-11616460D01*
X10724944Y-11616460D02*
X10705896Y-11625984D01*
X10705896Y-11625984D02*
X10686848Y-11625984D01*
X10686848Y-11625984D02*
X10667801Y-11616460D01*
X10667801Y-11616460D02*
X10658277Y-11606936D01*
X10658277Y-11606936D02*
X10648753Y-11587888D01*
X10648753Y-11587888D02*
X10639229Y-11549793D01*
X10639229Y-11549793D02*
X10639229Y-11502174D01*
X10639229Y-11502174D02*
X10648753Y-11464079D01*
X10648753Y-11464079D02*
X10658277Y-11445031D01*
X10658277Y-11445031D02*
X10667801Y-11435508D01*
X10667801Y-11435508D02*
X10686848Y-11425984D01*
X10867801Y-11511698D02*
X10848753Y-11502174D01*
X10848753Y-11502174D02*
X10839229Y-11492650D01*
X10839229Y-11492650D02*
X10829706Y-11473603D01*
X10829706Y-11473603D02*
X10829706Y-11464079D01*
X10829706Y-11464079D02*
X10839229Y-11445031D01*
X10839229Y-11445031D02*
X10848753Y-11435508D01*
X10848753Y-11435508D02*
X10867801Y-11425984D01*
X10867801Y-11425984D02*
X10905896Y-11425984D01*
X10905896Y-11425984D02*
X10924944Y-11435508D01*
X10924944Y-11435508D02*
X10934468Y-11445031D01*
X10934468Y-11445031D02*
X10943991Y-11464079D01*
X10943991Y-11464079D02*
X10943991Y-11473603D01*
X10943991Y-11473603D02*
X10934468Y-11492650D01*
X10934468Y-11492650D02*
X10924944Y-11502174D01*
X10924944Y-11502174D02*
X10905896Y-11511698D01*
X10905896Y-11511698D02*
X10867801Y-11511698D01*
X10867801Y-11511698D02*
X10848753Y-11521222D01*
X10848753Y-11521222D02*
X10839229Y-11530746D01*
X10839229Y-11530746D02*
X10829706Y-11549793D01*
X10829706Y-11549793D02*
X10829706Y-11587888D01*
X10829706Y-11587888D02*
X10839229Y-11606936D01*
X10839229Y-11606936D02*
X10848753Y-11616460D01*
X10848753Y-11616460D02*
X10867801Y-11625984D01*
X10867801Y-11625984D02*
X10905896Y-11625984D01*
X10905896Y-11625984D02*
X10924944Y-11616460D01*
X10924944Y-11616460D02*
X10934468Y-11606936D01*
X10934468Y-11606936D02*
X10943991Y-11587888D01*
X10943991Y-11587888D02*
X10943991Y-11549793D01*
X10943991Y-11549793D02*
X10934468Y-11530746D01*
X10934468Y-11530746D02*
X10924944Y-11521222D01*
X10924944Y-11521222D02*
X10905896Y-11511698D01*
X11115420Y-11425984D02*
X11077325Y-11425984D01*
X11077325Y-11425984D02*
X11058277Y-11435508D01*
X11058277Y-11435508D02*
X11048753Y-11445031D01*
X11048753Y-11445031D02*
X11029706Y-11473603D01*
X11029706Y-11473603D02*
X11020182Y-11511698D01*
X11020182Y-11511698D02*
X11020182Y-11587888D01*
X11020182Y-11587888D02*
X11029706Y-11606936D01*
X11029706Y-11606936D02*
X11039229Y-11616460D01*
X11039229Y-11616460D02*
X11058277Y-11625984D01*
X11058277Y-11625984D02*
X11096372Y-11625984D01*
X11096372Y-11625984D02*
X11115420Y-11616460D01*
X11115420Y-11616460D02*
X11124944Y-11606936D01*
X11124944Y-11606936D02*
X11134468Y-11587888D01*
X11134468Y-11587888D02*
X11134468Y-11540269D01*
X11134468Y-11540269D02*
X11124944Y-11521222D01*
X11124944Y-11521222D02*
X11115420Y-11511698D01*
X11115420Y-11511698D02*
X11096372Y-11502174D01*
X11096372Y-11502174D02*
X11058277Y-11502174D01*
X11058277Y-11502174D02*
X11039229Y-11511698D01*
X11039229Y-11511698D02*
X11029706Y-11521222D01*
X11029706Y-11521222D02*
X11020182Y-11540269D01*
X11305896Y-11425984D02*
X11267801Y-11425984D01*
X11267801Y-11425984D02*
X11248753Y-11435508D01*
X11248753Y-11435508D02*
X11239229Y-11445031D01*
X11239229Y-11445031D02*
X11220182Y-11473603D01*
X11220182Y-11473603D02*
X11210658Y-11511698D01*
X11210658Y-11511698D02*
X11210658Y-11587888D01*
X11210658Y-11587888D02*
X11220182Y-11606936D01*
X11220182Y-11606936D02*
X11229706Y-11616460D01*
X11229706Y-11616460D02*
X11248753Y-11625984D01*
X11248753Y-11625984D02*
X11286848Y-11625984D01*
X11286848Y-11625984D02*
X11305896Y-11616460D01*
X11305896Y-11616460D02*
X11315420Y-11606936D01*
X11315420Y-11606936D02*
X11324944Y-11587888D01*
X11324944Y-11587888D02*
X11324944Y-11540269D01*
X11324944Y-11540269D02*
X11315420Y-11521222D01*
X11315420Y-11521222D02*
X11305896Y-11511698D01*
X11305896Y-11511698D02*
X11286848Y-11502174D01*
X11286848Y-11502174D02*
X11248753Y-11502174D01*
X11248753Y-11502174D02*
X11229706Y-11511698D01*
X11229706Y-11511698D02*
X11220182Y-11521222D01*
X11220182Y-11521222D02*
X11210658Y-11540269D01*
X11401134Y-11425984D02*
X11401134Y-11464079D01*
X11477325Y-11425984D02*
X11477325Y-11464079D01*
X11772563Y-11702174D02*
X11763039Y-11692650D01*
X11763039Y-11692650D02*
X11743991Y-11664079D01*
X11743991Y-11664079D02*
X11734468Y-11645031D01*
X11734468Y-11645031D02*
X11724944Y-11616460D01*
X11724944Y-11616460D02*
X11715420Y-11568841D01*
X11715420Y-11568841D02*
X11715420Y-11530746D01*
X11715420Y-11530746D02*
X11724944Y-11483127D01*
X11724944Y-11483127D02*
X11734468Y-11454555D01*
X11734468Y-11454555D02*
X11743991Y-11435508D01*
X11743991Y-11435508D02*
X11763039Y-11406936D01*
X11763039Y-11406936D02*
X11772563Y-11397412D01*
X11934468Y-11492650D02*
X11934468Y-11625984D01*
X11886848Y-11416460D02*
X11839229Y-11559317D01*
X11839229Y-11559317D02*
X11963039Y-11559317D01*
X12191610Y-11625984D02*
X12191610Y-11425984D01*
X12277325Y-11625984D02*
X12277325Y-11521222D01*
X12277325Y-11521222D02*
X12267801Y-11502174D01*
X12267801Y-11502174D02*
X12248753Y-11492650D01*
X12248753Y-11492650D02*
X12220182Y-11492650D01*
X12220182Y-11492650D02*
X12201134Y-11502174D01*
X12201134Y-11502174D02*
X12191610Y-11511698D01*
X12401134Y-11625984D02*
X12382087Y-11616460D01*
X12382087Y-11616460D02*
X12372563Y-11606936D01*
X12372563Y-11606936D02*
X12363039Y-11587888D01*
X12363039Y-11587888D02*
X12363039Y-11530746D01*
X12363039Y-11530746D02*
X12372563Y-11511698D01*
X12372563Y-11511698D02*
X12382087Y-11502174D01*
X12382087Y-11502174D02*
X12401134Y-11492650D01*
X12401134Y-11492650D02*
X12429706Y-11492650D01*
X12429706Y-11492650D02*
X12448753Y-11502174D01*
X12448753Y-11502174D02*
X12458277Y-11511698D01*
X12458277Y-11511698D02*
X12467801Y-11530746D01*
X12467801Y-11530746D02*
X12467801Y-11587888D01*
X12467801Y-11587888D02*
X12458277Y-11606936D01*
X12458277Y-11606936D02*
X12448753Y-11616460D01*
X12448753Y-11616460D02*
X12429706Y-11625984D01*
X12429706Y-11625984D02*
X12401134Y-11625984D01*
X12582087Y-11625984D02*
X12563039Y-11616460D01*
X12563039Y-11616460D02*
X12553515Y-11597412D01*
X12553515Y-11597412D02*
X12553515Y-11425984D01*
X12734468Y-11616460D02*
X12715420Y-11625984D01*
X12715420Y-11625984D02*
X12677325Y-11625984D01*
X12677325Y-11625984D02*
X12658277Y-11616460D01*
X12658277Y-11616460D02*
X12648753Y-11597412D01*
X12648753Y-11597412D02*
X12648753Y-11521222D01*
X12648753Y-11521222D02*
X12658277Y-11502174D01*
X12658277Y-11502174D02*
X12677325Y-11492650D01*
X12677325Y-11492650D02*
X12715420Y-11492650D01*
X12715420Y-11492650D02*
X12734468Y-11502174D01*
X12734468Y-11502174D02*
X12743991Y-11521222D01*
X12743991Y-11521222D02*
X12743991Y-11540269D01*
X12743991Y-11540269D02*
X12648753Y-11559317D01*
X12820182Y-11616460D02*
X12839230Y-11625984D01*
X12839230Y-11625984D02*
X12877325Y-11625984D01*
X12877325Y-11625984D02*
X12896372Y-11616460D01*
X12896372Y-11616460D02*
X12905896Y-11597412D01*
X12905896Y-11597412D02*
X12905896Y-11587888D01*
X12905896Y-11587888D02*
X12896372Y-11568841D01*
X12896372Y-11568841D02*
X12877325Y-11559317D01*
X12877325Y-11559317D02*
X12848753Y-11559317D01*
X12848753Y-11559317D02*
X12829706Y-11549793D01*
X12829706Y-11549793D02*
X12820182Y-11530746D01*
X12820182Y-11530746D02*
X12820182Y-11521222D01*
X12820182Y-11521222D02*
X12829706Y-11502174D01*
X12829706Y-11502174D02*
X12848753Y-11492650D01*
X12848753Y-11492650D02*
X12877325Y-11492650D01*
X12877325Y-11492650D02*
X12896372Y-11502174D01*
X12972563Y-11702174D02*
X12982087Y-11692650D01*
X12982087Y-11692650D02*
X13001134Y-11664079D01*
X13001134Y-11664079D02*
X13010658Y-11645031D01*
X13010658Y-11645031D02*
X13020182Y-11616460D01*
X13020182Y-11616460D02*
X13029706Y-11568841D01*
X13029706Y-11568841D02*
X13029706Y-11530746D01*
X13029706Y-11530746D02*
X13020182Y-11483127D01*
X13020182Y-11483127D02*
X13010658Y-11454555D01*
X13010658Y-11454555D02*
X13001134Y-11435508D01*
X13001134Y-11435508D02*
X12982087Y-11406936D01*
X12982087Y-11406936D02*
X12972563Y-11397412D01*
M02*
