G04 #@! TF.GenerationSoftware,KiCad,Pcbnew,8.0.1*
G04 #@! TF.CreationDate,2026-03-29T21:55:53+02:00*
G04 #@! TF.ProjectId,transmiter,7472616e-736d-4697-9465-722e6b696361,rev?*
G04 #@! TF.SameCoordinates,Original*
G04 #@! TF.FileFunction,Soldermask,Top*
G04 #@! TF.FilePolarity,Negative*
%FSLAX46Y46*%
G04 Gerber Fmt 4.6, Leading zero omitted, Abs format (unit mm)*
G04 Created by KiCad (PCBNEW 8.0.1) date 2026-03-29 21:55:53*
%MOMM*%
%LPD*%
G01*
G04 APERTURE LIST*
G04 Aperture macros list*
%AMRoundRect*
0 Rectangle with rounded corners*
0 $1 Rounding radius*
0 $2 $3 $4 $5 $6 $7 $8 $9 X,Y pos of 4 corners*
0 Add a 4 corners polygon primitive as box body*
4,1,4,$2,$3,$4,$5,$6,$7,$8,$9,$2,$3,0*
0 Add four circle primitives for the rounded corners*
1,1,$1+$1,$2,$3*
1,1,$1+$1,$4,$5*
1,1,$1+$1,$6,$7*
1,1,$1+$1,$8,$9*
0 Add four rect primitives between the rounded corners*
20,1,$1+$1,$2,$3,$4,$5,0*
20,1,$1+$1,$4,$5,$6,$7,0*
20,1,$1+$1,$6,$7,$8,$9,0*
20,1,$1+$1,$8,$9,$2,$3,0*%
G04 Aperture macros list end*
%ADD10RoundRect,0.237500X-0.237500X0.250000X-0.237500X-0.250000X0.237500X-0.250000X0.237500X0.250000X0*%
%ADD11RoundRect,0.237500X0.300000X0.237500X-0.300000X0.237500X-0.300000X-0.237500X0.300000X-0.237500X0*%
%ADD12RoundRect,0.155000X0.212500X0.155000X-0.212500X0.155000X-0.212500X-0.155000X0.212500X-0.155000X0*%
%ADD13C,3.800000*%
%ADD14R,1.700000X1.700000*%
%ADD15O,1.700000X1.700000*%
%ADD16RoundRect,0.237500X-0.237500X0.300000X-0.237500X-0.300000X0.237500X-0.300000X0.237500X0.300000X0*%
%ADD17RoundRect,0.237500X-0.300000X-0.237500X0.300000X-0.237500X0.300000X0.237500X-0.300000X0.237500X0*%
%ADD18RoundRect,0.125000X-0.625000X-0.125000X0.625000X-0.125000X0.625000X0.125000X-0.625000X0.125000X0*%
%ADD19RoundRect,0.125000X-0.125000X-0.625000X0.125000X-0.625000X0.125000X0.625000X-0.125000X0.625000X0*%
%ADD20RoundRect,0.237500X-0.250000X-0.237500X0.250000X-0.237500X0.250000X0.237500X-0.250000X0.237500X0*%
%ADD21RoundRect,0.155000X-0.155000X0.212500X-0.155000X-0.212500X0.155000X-0.212500X0.155000X0.212500X0*%
%ADD22R,1.000000X1.000000*%
%ADD23R,2.200000X1.050000*%
%ADD24RoundRect,0.062500X-0.375000X-0.062500X0.375000X-0.062500X0.375000X0.062500X-0.375000X0.062500X0*%
%ADD25RoundRect,0.062500X-0.062500X-0.375000X0.062500X-0.375000X0.062500X0.375000X-0.062500X0.375000X0*%
%ADD26R,2.300000X2.300000*%
%ADD27RoundRect,0.250001X-0.849999X0.462499X-0.849999X-0.462499X0.849999X-0.462499X0.849999X0.462499X0*%
%ADD28RoundRect,0.162500X-0.617500X-0.162500X0.617500X-0.162500X0.617500X0.162500X-0.617500X0.162500X0*%
%ADD29RoundRect,0.237500X0.237500X-0.300000X0.237500X0.300000X-0.237500X0.300000X-0.237500X-0.300000X0*%
%ADD30RoundRect,0.237500X0.250000X0.237500X-0.250000X0.237500X-0.250000X-0.237500X0.250000X-0.237500X0*%
%ADD31RoundRect,0.250001X-1.074999X0.462499X-1.074999X-0.462499X1.074999X-0.462499X1.074999X0.462499X0*%
%ADD32RoundRect,0.155000X-0.212500X-0.155000X0.212500X-0.155000X0.212500X0.155000X-0.212500X0.155000X0*%
%ADD33C,2.000000*%
%ADD34R,2.000000X2.000000*%
%ADD35RoundRect,0.250000X-0.325000X-0.450000X0.325000X-0.450000X0.325000X0.450000X-0.325000X0.450000X0*%
%ADD36RoundRect,0.237500X-0.287500X-0.237500X0.287500X-0.237500X0.287500X0.237500X-0.287500X0.237500X0*%
%ADD37C,1.500000*%
%ADD38RoundRect,0.150000X0.150000X-0.512500X0.150000X0.512500X-0.150000X0.512500X-0.150000X-0.512500X0*%
%ADD39RoundRect,0.375000X-0.375000X0.625000X-0.375000X-0.625000X0.375000X-0.625000X0.375000X0.625000X0*%
%ADD40RoundRect,0.500000X-1.400000X0.500000X-1.400000X-0.500000X1.400000X-0.500000X1.400000X0.500000X0*%
%ADD41C,1.000000*%
%ADD42R,2.000000X0.500000*%
%ADD43R,1.700000X2.000000*%
%ADD44RoundRect,0.237500X0.237500X-0.250000X0.237500X0.250000X-0.237500X0.250000X-0.237500X-0.250000X0*%
%ADD45R,1.750000X0.450000*%
%ADD46RoundRect,0.250000X0.325000X0.450000X-0.325000X0.450000X-0.325000X-0.450000X0.325000X-0.450000X0*%
%ADD47RoundRect,0.250000X0.250000X0.550000X-0.250000X0.550000X-0.250000X-0.550000X0.250000X-0.550000X0*%
%ADD48RoundRect,0.087500X0.087500X-0.200000X0.087500X0.200000X-0.087500X0.200000X-0.087500X-0.200000X0*%
%ADD49R,1.740000X1.450000*%
%ADD50RoundRect,0.162500X-0.162500X0.617500X-0.162500X-0.617500X0.162500X-0.617500X0.162500X0.617500X0*%
G04 APERTURE END LIST*
D10*
X130500000Y-78487500D03*
X130500000Y-80312500D03*
D11*
X110262500Y-75120000D03*
X108537500Y-75120000D03*
D12*
X106407500Y-91615000D03*
X105272500Y-91615000D03*
D13*
X133500000Y-54500000D03*
D14*
X107670000Y-55830000D03*
D15*
X105130000Y-55830000D03*
X102590000Y-55830000D03*
X100050000Y-55830000D03*
D16*
X114537500Y-94737500D03*
X114537500Y-96462500D03*
D17*
X113017500Y-65950000D03*
X114742500Y-65950000D03*
X113937500Y-88000000D03*
X115662500Y-88000000D03*
D11*
X96575000Y-81250000D03*
X94850000Y-81250000D03*
D18*
X99700000Y-66180000D03*
X99700000Y-66980000D03*
X99700000Y-67780000D03*
X99700000Y-68580000D03*
X99700000Y-69380000D03*
X99700000Y-70180000D03*
X99700000Y-70980000D03*
X99700000Y-71780000D03*
D19*
X101075000Y-73155000D03*
X101875000Y-73155000D03*
X102675000Y-73155000D03*
X103475000Y-73155000D03*
X104275000Y-73155000D03*
X105075000Y-73155000D03*
X105875000Y-73155000D03*
X106675000Y-73155000D03*
D18*
X108050000Y-71780000D03*
X108050000Y-70980000D03*
X108050000Y-70180000D03*
X108050000Y-69380000D03*
X108050000Y-68580000D03*
X108050000Y-67780000D03*
X108050000Y-66980000D03*
X108050000Y-66180000D03*
D19*
X106675000Y-64805000D03*
X105875000Y-64805000D03*
X105075000Y-64805000D03*
X104275000Y-64805000D03*
X103475000Y-64805000D03*
X102675000Y-64805000D03*
X101875000Y-64805000D03*
X101075000Y-64805000D03*
D20*
X98270000Y-99105000D03*
X100095000Y-99105000D03*
D21*
X109270000Y-96815000D03*
X109270000Y-97950000D03*
D22*
X116800000Y-93100000D03*
D23*
X118300000Y-91625000D03*
D22*
X119800000Y-93100000D03*
D23*
X118300000Y-94575000D03*
D24*
X99630000Y-91425000D03*
X99630000Y-91925000D03*
X99630000Y-92425000D03*
X99630000Y-92925000D03*
X99630000Y-93425000D03*
X99630000Y-93925000D03*
D25*
X100317500Y-94612500D03*
X100817500Y-94612500D03*
X101317500Y-94612500D03*
X101817500Y-94612500D03*
X102317500Y-94612500D03*
X102817500Y-94612500D03*
D24*
X103505000Y-93925000D03*
X103505000Y-93425000D03*
X103505000Y-92925000D03*
X103505000Y-92425000D03*
X103505000Y-91925000D03*
X103505000Y-91425000D03*
D25*
X102817500Y-90737500D03*
X102317500Y-90737500D03*
X101817500Y-90737500D03*
X101317500Y-90737500D03*
X100817500Y-90737500D03*
X100317500Y-90737500D03*
D26*
X101567500Y-92675000D03*
D27*
X111537500Y-90337500D03*
X111537500Y-92662500D03*
D20*
X94737500Y-60560000D03*
X96562500Y-60560000D03*
D28*
X105240000Y-77495000D03*
X105240000Y-78445000D03*
X105240000Y-79395000D03*
X107940000Y-79395000D03*
X107940000Y-77495000D03*
D12*
X106407500Y-94015000D03*
X105272500Y-94015000D03*
X106407500Y-92815000D03*
X105272500Y-92815000D03*
D29*
X105100000Y-103962500D03*
X105100000Y-102237500D03*
D17*
X126337500Y-80700000D03*
X128062500Y-80700000D03*
D30*
X111990000Y-79445000D03*
X110165000Y-79445000D03*
D31*
X110100000Y-81612500D03*
X110100000Y-84587500D03*
D32*
X113732500Y-93100000D03*
X114867500Y-93100000D03*
D13*
X133500000Y-104500000D03*
D17*
X105680000Y-81345000D03*
X107405000Y-81345000D03*
D33*
X86200000Y-83500000D03*
D34*
X86200000Y-78500000D03*
D35*
X117535000Y-58930000D03*
X119585000Y-58930000D03*
D36*
X97725000Y-105200000D03*
X99475000Y-105200000D03*
D13*
X85500000Y-54500000D03*
D35*
X117507500Y-61220000D03*
X119557500Y-61220000D03*
D17*
X86237500Y-76500000D03*
X87962500Y-76500000D03*
D30*
X93125000Y-76850000D03*
X91300000Y-76850000D03*
D37*
X88500000Y-64920000D03*
X88500000Y-69800000D03*
D16*
X92300000Y-69837500D03*
X92300000Y-71562500D03*
D38*
X100102500Y-103352500D03*
X101052500Y-103352500D03*
X102002500Y-103352500D03*
X102002500Y-101077500D03*
X101052500Y-101077500D03*
X100102500Y-101077500D03*
D29*
X92300000Y-64962500D03*
X92300000Y-63237500D03*
D11*
X110242500Y-73470000D03*
X108517500Y-73470000D03*
D31*
X92112500Y-81482500D03*
X92112500Y-84457500D03*
D11*
X103262500Y-105200000D03*
X101537500Y-105200000D03*
D39*
X128600000Y-82850000D03*
X126300000Y-82850000D03*
D40*
X126300000Y-89150000D03*
D39*
X124000000Y-82850000D03*
D17*
X113025000Y-67550000D03*
X114750000Y-67550000D03*
D41*
X132460000Y-71430000D03*
X132460000Y-67030000D03*
D42*
X129760000Y-70830000D03*
X129760000Y-70030000D03*
X129760000Y-69230000D03*
X129760000Y-68430000D03*
X129760000Y-67630000D03*
D43*
X129860000Y-73680000D03*
X135310000Y-73680000D03*
X129860000Y-64780000D03*
X135310000Y-64780000D03*
D16*
X114820000Y-62097500D03*
X114820000Y-63822500D03*
D13*
X85500000Y-104500000D03*
D21*
X100100000Y-96187500D03*
X100100000Y-97322500D03*
D31*
X99315000Y-81482500D03*
X99315000Y-84457500D03*
D10*
X124390000Y-55747500D03*
X124390000Y-57572500D03*
D12*
X98110000Y-93450000D03*
X96975000Y-93450000D03*
D44*
X103177500Y-79357500D03*
X103177500Y-77532500D03*
D45*
X124430000Y-72705000D03*
X124430000Y-72055000D03*
X124430000Y-71405000D03*
X124430000Y-70755000D03*
X124430000Y-70105000D03*
X124430000Y-69455000D03*
X124430000Y-68805000D03*
X124430000Y-68155000D03*
X124430000Y-67505000D03*
X124430000Y-66855000D03*
X124430000Y-66205000D03*
X124430000Y-65555000D03*
X124430000Y-64905000D03*
X124430000Y-64255000D03*
X117230000Y-64255000D03*
X117230000Y-64905000D03*
X117230000Y-65555000D03*
X117230000Y-66205000D03*
X117230000Y-66855000D03*
X117230000Y-67505000D03*
X117230000Y-68155000D03*
X117230000Y-68805000D03*
X117230000Y-69455000D03*
X117230000Y-70105000D03*
X117230000Y-70755000D03*
X117230000Y-71405000D03*
X117230000Y-72055000D03*
X117230000Y-72705000D03*
D11*
X97800000Y-69915000D03*
X96075000Y-69915000D03*
D46*
X128425000Y-78700000D03*
X126375000Y-78700000D03*
D21*
X102000000Y-96207500D03*
X102000000Y-97342500D03*
D10*
X122410000Y-55757500D03*
X122410000Y-57582500D03*
D17*
X105680000Y-83300000D03*
X107405000Y-83300000D03*
X113937500Y-89600000D03*
X115662500Y-89600000D03*
D20*
X105645000Y-85220000D03*
X107470000Y-85220000D03*
D14*
X119630000Y-55760000D03*
D15*
X117090000Y-55760000D03*
X114550000Y-55760000D03*
X112010000Y-55760000D03*
D47*
X95650000Y-56050000D03*
X93900000Y-58350000D03*
X92150000Y-56050000D03*
D48*
X111052500Y-97052500D03*
X111552500Y-97052500D03*
X112052500Y-97052500D03*
X112552500Y-97052500D03*
X112552500Y-94477500D03*
X112052500Y-94477500D03*
X111552500Y-94477500D03*
X111052500Y-94477500D03*
D49*
X111802500Y-95765000D03*
D30*
X96612500Y-85100000D03*
X94787500Y-85100000D03*
D21*
X107940000Y-96835000D03*
X107940000Y-97970000D03*
D17*
X122147500Y-80450000D03*
X123872500Y-80450000D03*
D11*
X96575000Y-83150000D03*
X94850000Y-83150000D03*
X97770000Y-71715000D03*
X96045000Y-71715000D03*
D12*
X106407500Y-90415000D03*
X105272500Y-90415000D03*
D20*
X91200000Y-79350000D03*
X93025000Y-79350000D03*
D50*
X96712500Y-76550000D03*
X95762500Y-76550000D03*
X94812500Y-76550000D03*
X94812500Y-79250000D03*
X96712500Y-79250000D03*
D31*
X103000000Y-81512500D03*
X103000000Y-84487500D03*
D30*
X103825000Y-99115000D03*
X102000000Y-99115000D03*
D11*
X99192500Y-64420000D03*
X97467500Y-64420000D03*
D10*
X125340000Y-59797500D03*
X125340000Y-61622500D03*
M02*
