G04 #@! TF.GenerationSoftware,KiCad,Pcbnew,8.0.1*
G04 #@! TF.CreationDate,2026-03-24T13:37:06+01:00*
G04 #@! TF.ProjectId,transmiter,7472616e-736d-4697-9465-722e6b696361,rev?*
G04 #@! TF.SameCoordinates,Original*
G04 #@! TF.FileFunction,Copper,L2,Bot*
G04 #@! TF.FilePolarity,Positive*
%FSLAX46Y46*%
G04 Gerber Fmt 4.6, Leading zero omitted, Abs format (unit mm)*
G04 Created by KiCad (PCBNEW 8.0.1) date 2026-03-24 13:37:06*
%MOMM*%
%LPD*%
G01*
G04 APERTURE LIST*
G04 #@! TA.AperFunction,ComponentPad*
%ADD10C,3.800000*%
G04 #@! TD*
G04 #@! TA.AperFunction,ComponentPad*
%ADD11R,1.700000X1.700000*%
G04 #@! TD*
G04 #@! TA.AperFunction,ComponentPad*
%ADD12O,1.700000X1.700000*%
G04 #@! TD*
G04 #@! TA.AperFunction,ComponentPad*
%ADD13C,2.000000*%
G04 #@! TD*
G04 #@! TA.AperFunction,ComponentPad*
%ADD14R,2.000000X2.000000*%
G04 #@! TD*
G04 #@! TA.AperFunction,ComponentPad*
%ADD15C,1.500000*%
G04 #@! TD*
G04 #@! TA.AperFunction,ViaPad*
%ADD16C,0.600000*%
G04 #@! TD*
G04 #@! TA.AperFunction,Conductor*
%ADD17C,0.450000*%
G04 #@! TD*
G04 #@! TA.AperFunction,Conductor*
%ADD18C,0.300000*%
G04 #@! TD*
G04 APERTURE END LIST*
D10*
X133500000Y-54500000D03*
D11*
X107670000Y-55830000D03*
D12*
X105130000Y-55830000D03*
X102590000Y-55830000D03*
X100050000Y-55830000D03*
D10*
X133500000Y-97500000D03*
D13*
X88500000Y-82700000D03*
D14*
X88500000Y-77700000D03*
D10*
X85500000Y-54500000D03*
D15*
X88500000Y-64920000D03*
X88500000Y-69800000D03*
D10*
X85500000Y-97500000D03*
D11*
X119630000Y-55760000D03*
D12*
X117090000Y-55760000D03*
X114550000Y-55760000D03*
X112010000Y-55760000D03*
D16*
X111050000Y-98890000D03*
X116590000Y-85750000D03*
X123820000Y-94660000D03*
X104200000Y-88750000D03*
X101080000Y-63290000D03*
X102550000Y-89480000D03*
X98170000Y-90210000D03*
X102530000Y-86360000D03*
X103260000Y-96460000D03*
X114105000Y-97255000D03*
X96000000Y-94400000D03*
X111270000Y-95320000D03*
X109560000Y-59940000D03*
X100370000Y-95350000D03*
X115770000Y-71405000D03*
X121740000Y-99130000D03*
X113700000Y-85750000D03*
X109410000Y-95560000D03*
X122910000Y-68820000D03*
X123000000Y-77100000D03*
X113830000Y-76270000D03*
X99390000Y-98090000D03*
X115400000Y-70750000D03*
X108880000Y-98860000D03*
X109710000Y-63480000D03*
X94090000Y-78340000D03*
X113410000Y-82000000D03*
X103210000Y-76060000D03*
X118820000Y-68230000D03*
X126300000Y-92600000D03*
X99490000Y-91700000D03*
X102527500Y-93260000D03*
X99290000Y-87300000D03*
X107390000Y-74650000D03*
X132130000Y-60320000D03*
X111420000Y-87700000D03*
X98590000Y-75280000D03*
X104150000Y-96290000D03*
X124510000Y-98800000D03*
X128450000Y-61030000D03*
X94200000Y-75820000D03*
X96040000Y-72850000D03*
X118600000Y-77000000D03*
X100480000Y-88570000D03*
X96310000Y-87860000D03*
X129070000Y-92670000D03*
X118825000Y-66205000D03*
X98860000Y-92080000D03*
X117700000Y-81500000D03*
X121800000Y-93450000D03*
X129380000Y-58250000D03*
X105780000Y-87180000D03*
X124767500Y-78700000D03*
X123057500Y-78700000D03*
X109900000Y-69380000D03*
X110380000Y-70180000D03*
X99406238Y-93286238D03*
X107000000Y-88730000D03*
X116200000Y-61360000D03*
X115380000Y-68760000D03*
X114405000Y-69105000D03*
X115500000Y-59840000D03*
D17*
X124767500Y-78700000D02*
X123057500Y-78700000D01*
D18*
X109900000Y-69380000D02*
X111000000Y-68280000D01*
X111000000Y-60760000D02*
X114550000Y-57210000D01*
X111000000Y-68280000D02*
X111000000Y-60760000D01*
X114550000Y-57210000D02*
X114550000Y-55760000D01*
X117090000Y-56800000D02*
X117090000Y-55760000D01*
X112130000Y-61760000D02*
X117090000Y-56800000D01*
X110380000Y-70180000D02*
X112130000Y-68430000D01*
X112130000Y-68430000D02*
X112130000Y-61760000D01*
D17*
X99413762Y-93286238D02*
X100520000Y-92180000D01*
X103550000Y-92180000D02*
X107000000Y-88730000D01*
X99406238Y-93286238D02*
X99413762Y-93286238D01*
X100520000Y-92180000D02*
X103550000Y-92180000D01*
D18*
X115920000Y-61360000D02*
X116200000Y-61360000D01*
X115380000Y-68760000D02*
X114990000Y-68370000D01*
X114990000Y-68370000D02*
X114990000Y-62290000D01*
X114990000Y-62290000D02*
X115920000Y-61360000D01*
X113920000Y-68620000D02*
X113920000Y-61420000D01*
X113920000Y-61420000D02*
X115500000Y-59840000D01*
X114405000Y-69105000D02*
X113920000Y-68620000D01*
G04 #@! TA.AperFunction,Conductor*
G36*
X134003736Y-51500726D02*
G01*
X134293796Y-51518271D01*
X134308659Y-51520076D01*
X134590798Y-51571780D01*
X134605335Y-51575363D01*
X134879172Y-51660695D01*
X134893163Y-51666000D01*
X135154743Y-51783727D01*
X135167989Y-51790680D01*
X135413465Y-51939075D01*
X135425776Y-51947573D01*
X135651573Y-52124473D01*
X135662781Y-52134403D01*
X135865596Y-52337218D01*
X135875526Y-52348426D01*
X135995481Y-52501538D01*
X136052422Y-52574217D01*
X136060928Y-52586540D01*
X136209316Y-52832004D01*
X136216275Y-52845263D01*
X136333997Y-53106831D01*
X136339306Y-53120832D01*
X136424635Y-53394663D01*
X136428219Y-53409201D01*
X136479923Y-53691340D01*
X136481728Y-53706205D01*
X136499274Y-53996263D01*
X136499500Y-54003750D01*
X136499500Y-97996249D01*
X136499274Y-98003736D01*
X136481728Y-98293794D01*
X136479923Y-98308659D01*
X136428219Y-98590798D01*
X136424635Y-98605336D01*
X136339306Y-98879167D01*
X136333997Y-98893168D01*
X136216275Y-99154736D01*
X136209316Y-99167995D01*
X136060928Y-99413459D01*
X136052422Y-99425782D01*
X135875526Y-99651573D01*
X135865596Y-99662781D01*
X135662781Y-99865596D01*
X135651573Y-99875526D01*
X135425782Y-100052422D01*
X135413459Y-100060928D01*
X135167995Y-100209316D01*
X135154736Y-100216275D01*
X134893168Y-100333997D01*
X134879167Y-100339306D01*
X134605336Y-100424635D01*
X134590798Y-100428219D01*
X134308659Y-100479923D01*
X134293794Y-100481728D01*
X134003736Y-100499274D01*
X133996249Y-100499500D01*
X85003751Y-100499500D01*
X84996264Y-100499274D01*
X84706205Y-100481728D01*
X84691340Y-100479923D01*
X84409201Y-100428219D01*
X84394663Y-100424635D01*
X84120832Y-100339306D01*
X84106831Y-100333997D01*
X83845263Y-100216275D01*
X83832004Y-100209316D01*
X83586540Y-100060928D01*
X83574217Y-100052422D01*
X83348426Y-99875526D01*
X83337218Y-99865596D01*
X83134403Y-99662781D01*
X83124473Y-99651573D01*
X83029532Y-99530390D01*
X82947573Y-99425776D01*
X82939075Y-99413465D01*
X82790680Y-99167989D01*
X82783727Y-99154743D01*
X82666000Y-98893163D01*
X82660693Y-98879167D01*
X82575364Y-98605336D01*
X82571780Y-98590798D01*
X82520076Y-98308659D01*
X82518271Y-98293794D01*
X82500726Y-98003736D01*
X82500500Y-97996249D01*
X82500500Y-97500005D01*
X83095255Y-97500005D01*
X83114215Y-97801383D01*
X83114216Y-97801390D01*
X83170805Y-98098040D01*
X83264125Y-98385247D01*
X83264127Y-98385252D01*
X83392704Y-98658491D01*
X83392707Y-98658497D01*
X83554516Y-98913469D01*
X83635311Y-99011133D01*
X84563708Y-98082736D01*
X84660967Y-98216602D01*
X84783398Y-98339033D01*
X84917262Y-98436290D01*
X83986564Y-99366987D01*
X83986565Y-99366989D01*
X84211461Y-99530385D01*
X84211479Y-99530397D01*
X84476109Y-99675878D01*
X84476117Y-99675882D01*
X84756889Y-99787047D01*
X84756892Y-99787048D01*
X85049399Y-99862150D01*
X85348995Y-99899999D01*
X85349007Y-99900000D01*
X85650993Y-99900000D01*
X85651004Y-99899999D01*
X85950600Y-99862150D01*
X86243107Y-99787048D01*
X86243110Y-99787047D01*
X86523882Y-99675882D01*
X86523890Y-99675878D01*
X86788520Y-99530397D01*
X86788530Y-99530390D01*
X87013433Y-99366987D01*
X87013434Y-99366987D01*
X86082737Y-98436290D01*
X86216602Y-98339033D01*
X86339033Y-98216602D01*
X86436290Y-98082737D01*
X87364687Y-99011134D01*
X87445486Y-98913464D01*
X87607292Y-98658497D01*
X87607295Y-98658491D01*
X87735872Y-98385252D01*
X87735874Y-98385247D01*
X87829194Y-98098040D01*
X87885783Y-97801390D01*
X87885784Y-97801383D01*
X87904745Y-97500005D01*
X87904745Y-97499994D01*
X87885784Y-97198616D01*
X87885783Y-97198609D01*
X87829194Y-96901959D01*
X87735874Y-96614752D01*
X87735872Y-96614747D01*
X87607295Y-96341508D01*
X87607292Y-96341502D01*
X87445483Y-96086530D01*
X87373899Y-96000000D01*
X126465000Y-96000000D01*
X126465000Y-97900000D01*
X128555000Y-97900000D01*
X128555000Y-97500005D01*
X131095255Y-97500005D01*
X131114215Y-97801383D01*
X131114216Y-97801390D01*
X131170805Y-98098040D01*
X131264125Y-98385247D01*
X131264127Y-98385252D01*
X131392704Y-98658491D01*
X131392707Y-98658497D01*
X131554516Y-98913469D01*
X131635311Y-99011133D01*
X132563708Y-98082736D01*
X132660967Y-98216602D01*
X132783398Y-98339033D01*
X132917262Y-98436290D01*
X131986564Y-99366987D01*
X131986565Y-99366989D01*
X132211461Y-99530385D01*
X132211479Y-99530397D01*
X132476109Y-99675878D01*
X132476117Y-99675882D01*
X132756889Y-99787047D01*
X132756892Y-99787048D01*
X133049399Y-99862150D01*
X133348995Y-99899999D01*
X133349007Y-99900000D01*
X133650993Y-99900000D01*
X133651004Y-99899999D01*
X133950600Y-99862150D01*
X134243107Y-99787048D01*
X134243110Y-99787047D01*
X134523882Y-99675882D01*
X134523890Y-99675878D01*
X134788520Y-99530397D01*
X134788530Y-99530390D01*
X135013433Y-99366987D01*
X135013434Y-99366987D01*
X134082737Y-98436290D01*
X134216602Y-98339033D01*
X134339033Y-98216602D01*
X134436290Y-98082737D01*
X135364687Y-99011134D01*
X135445486Y-98913464D01*
X135607292Y-98658497D01*
X135607295Y-98658491D01*
X135735872Y-98385252D01*
X135735874Y-98385247D01*
X135829194Y-98098040D01*
X135885783Y-97801390D01*
X135885784Y-97801383D01*
X135904745Y-97500005D01*
X135904745Y-97499994D01*
X135885784Y-97198616D01*
X135885783Y-97198609D01*
X135829194Y-96901959D01*
X135735874Y-96614752D01*
X135735872Y-96614747D01*
X135607295Y-96341508D01*
X135607292Y-96341502D01*
X135445483Y-96086530D01*
X135364686Y-95988864D01*
X134436289Y-96917261D01*
X134339033Y-96783398D01*
X134216602Y-96660967D01*
X134082736Y-96563709D01*
X135013434Y-95633011D01*
X135013433Y-95633009D01*
X134788538Y-95469614D01*
X134788520Y-95469602D01*
X134523890Y-95324121D01*
X134523882Y-95324117D01*
X134243110Y-95212952D01*
X134243107Y-95212951D01*
X133950600Y-95137849D01*
X133651004Y-95100000D01*
X133348995Y-95100000D01*
X133049399Y-95137849D01*
X132756892Y-95212951D01*
X132756889Y-95212952D01*
X132476117Y-95324117D01*
X132476109Y-95324121D01*
X132211476Y-95469604D01*
X132211471Y-95469607D01*
X131986565Y-95633010D01*
X131986564Y-95633011D01*
X132917262Y-96563709D01*
X132783398Y-96660967D01*
X132660967Y-96783398D01*
X132563709Y-96917262D01*
X131635311Y-95988864D01*
X131554520Y-96086525D01*
X131554518Y-96086528D01*
X131392707Y-96341502D01*
X131392704Y-96341508D01*
X131264127Y-96614747D01*
X131264125Y-96614752D01*
X131170805Y-96901959D01*
X131114216Y-97198609D01*
X131114215Y-97198616D01*
X131095255Y-97499994D01*
X131095255Y-97500005D01*
X128555000Y-97500005D01*
X128555000Y-96000000D01*
X126465000Y-96000000D01*
X87373899Y-96000000D01*
X87364686Y-95988864D01*
X86436289Y-96917261D01*
X86339033Y-96783398D01*
X86216602Y-96660967D01*
X86082736Y-96563709D01*
X87013434Y-95633011D01*
X87013433Y-95633009D01*
X86788538Y-95469614D01*
X86788520Y-95469602D01*
X86523890Y-95324121D01*
X86523882Y-95324117D01*
X86243110Y-95212952D01*
X86243107Y-95212951D01*
X85950600Y-95137849D01*
X85651004Y-95100000D01*
X85348995Y-95100000D01*
X85049399Y-95137849D01*
X84756892Y-95212951D01*
X84756889Y-95212952D01*
X84476117Y-95324117D01*
X84476109Y-95324121D01*
X84211476Y-95469604D01*
X84211471Y-95469607D01*
X83986565Y-95633010D01*
X83986564Y-95633011D01*
X84917262Y-96563709D01*
X84783398Y-96660967D01*
X84660967Y-96783398D01*
X84563709Y-96917262D01*
X83635311Y-95988864D01*
X83554520Y-96086525D01*
X83554518Y-96086528D01*
X83392707Y-96341502D01*
X83392704Y-96341508D01*
X83264127Y-96614747D01*
X83264125Y-96614752D01*
X83170805Y-96901959D01*
X83114216Y-97198609D01*
X83114215Y-97198616D01*
X83095255Y-97499994D01*
X83095255Y-97500005D01*
X82500500Y-97500005D01*
X82500500Y-93286241D01*
X98600673Y-93286241D01*
X98620868Y-93465487D01*
X98620869Y-93465492D01*
X98680449Y-93635761D01*
X98776422Y-93788500D01*
X98903976Y-93916054D01*
X99056716Y-94012027D01*
X99226983Y-94071606D01*
X99226988Y-94071607D01*
X99406234Y-94091803D01*
X99406238Y-94091803D01*
X99406242Y-94091803D01*
X99585487Y-94071607D01*
X99585490Y-94071606D01*
X99585493Y-94071606D01*
X99755760Y-94012027D01*
X99908500Y-93916054D01*
X100036054Y-93788500D01*
X100132027Y-93635760D01*
X100145166Y-93598209D01*
X100174523Y-93551487D01*
X100784193Y-92941819D01*
X100845516Y-92908334D01*
X100871874Y-92905500D01*
X103621457Y-92905500D01*
X103715751Y-92886742D01*
X103761620Y-92877619D01*
X103893653Y-92822929D01*
X104012480Y-92743532D01*
X107253675Y-89502335D01*
X107300397Y-89472977D01*
X107349522Y-89455789D01*
X107502262Y-89359816D01*
X107629816Y-89232262D01*
X107725789Y-89079522D01*
X107785368Y-88909255D01*
X107805565Y-88730000D01*
X107785368Y-88550745D01*
X107725789Y-88380478D01*
X107725786Y-88380474D01*
X107629815Y-88227737D01*
X107502262Y-88100184D01*
X107349523Y-88004211D01*
X107179254Y-87944631D01*
X107179249Y-87944630D01*
X107000004Y-87924435D01*
X106999996Y-87924435D01*
X106820750Y-87944630D01*
X106820745Y-87944631D01*
X106650476Y-88004211D01*
X106497737Y-88100184D01*
X106370184Y-88227737D01*
X106274212Y-88380474D01*
X106257022Y-88429600D01*
X106227662Y-88476324D01*
X103285807Y-91418181D01*
X103224484Y-91451666D01*
X103198126Y-91454500D01*
X100448543Y-91454500D01*
X100308385Y-91482379D01*
X100308379Y-91482381D01*
X100176347Y-91537070D01*
X100057517Y-91616469D01*
X99164136Y-92509850D01*
X99117412Y-92539210D01*
X99056712Y-92560450D01*
X98903975Y-92656422D01*
X98776422Y-92783975D01*
X98680449Y-92936714D01*
X98620869Y-93106983D01*
X98620868Y-93106988D01*
X98600673Y-93286234D01*
X98600673Y-93286241D01*
X82500500Y-93286241D01*
X82500500Y-82700005D01*
X86994859Y-82700005D01*
X87015385Y-82947729D01*
X87015387Y-82947738D01*
X87076412Y-83188717D01*
X87176266Y-83416364D01*
X87276564Y-83569882D01*
X88017037Y-82829409D01*
X88034075Y-82892993D01*
X88099901Y-83007007D01*
X88192993Y-83100099D01*
X88307007Y-83165925D01*
X88370590Y-83182962D01*
X87629942Y-83923609D01*
X87676768Y-83960055D01*
X87676770Y-83960056D01*
X87895385Y-84078364D01*
X87895396Y-84078369D01*
X88130506Y-84159083D01*
X88375707Y-84200000D01*
X88624293Y-84200000D01*
X88869493Y-84159083D01*
X89104603Y-84078369D01*
X89104614Y-84078364D01*
X89323228Y-83960057D01*
X89323231Y-83960055D01*
X89370056Y-83923609D01*
X88629409Y-83182962D01*
X88692993Y-83165925D01*
X88807007Y-83100099D01*
X88900099Y-83007007D01*
X88965925Y-82892993D01*
X88982962Y-82829410D01*
X89723434Y-83569882D01*
X89823731Y-83416369D01*
X89923587Y-83188717D01*
X89984612Y-82947738D01*
X89984614Y-82947729D01*
X90005141Y-82700005D01*
X90005141Y-82699994D01*
X89984614Y-82452270D01*
X89984612Y-82452261D01*
X89923587Y-82211282D01*
X89823731Y-81983630D01*
X89723434Y-81830116D01*
X88982962Y-82570589D01*
X88965925Y-82507007D01*
X88900099Y-82392993D01*
X88807007Y-82299901D01*
X88692993Y-82234075D01*
X88629410Y-82217037D01*
X89370057Y-81476390D01*
X89370056Y-81476389D01*
X89323229Y-81439943D01*
X89104614Y-81321635D01*
X89104603Y-81321630D01*
X88869493Y-81240916D01*
X88624293Y-81200000D01*
X88375707Y-81200000D01*
X88130506Y-81240916D01*
X87895396Y-81321630D01*
X87895390Y-81321632D01*
X87676761Y-81439949D01*
X87629942Y-81476388D01*
X87629942Y-81476390D01*
X88370590Y-82217037D01*
X88307007Y-82234075D01*
X88192993Y-82299901D01*
X88099901Y-82392993D01*
X88034075Y-82507007D01*
X88017037Y-82570589D01*
X87276564Y-81830116D01*
X87176267Y-81983632D01*
X87076412Y-82211282D01*
X87015387Y-82452261D01*
X87015385Y-82452270D01*
X86994859Y-82699994D01*
X86994859Y-82700005D01*
X82500500Y-82700005D01*
X82500500Y-78747870D01*
X86999500Y-78747870D01*
X86999501Y-78747876D01*
X87005908Y-78807483D01*
X87056202Y-78942328D01*
X87056206Y-78942335D01*
X87142452Y-79057544D01*
X87142455Y-79057547D01*
X87257664Y-79143793D01*
X87257671Y-79143797D01*
X87392517Y-79194091D01*
X87392516Y-79194091D01*
X87399444Y-79194835D01*
X87452127Y-79200500D01*
X89547872Y-79200499D01*
X89607483Y-79194091D01*
X89742331Y-79143796D01*
X89857546Y-79057546D01*
X89943796Y-78942331D01*
X89994091Y-78807483D01*
X90000500Y-78747873D01*
X90000500Y-78700003D01*
X122251935Y-78700003D01*
X122272130Y-78879249D01*
X122272131Y-78879254D01*
X122331711Y-79049523D01*
X122336753Y-79057547D01*
X122427684Y-79202262D01*
X122555238Y-79329816D01*
X122707978Y-79425789D01*
X122878239Y-79485366D01*
X122878245Y-79485368D01*
X122878250Y-79485369D01*
X123057496Y-79505565D01*
X123057500Y-79505565D01*
X123057504Y-79505565D01*
X123236749Y-79485369D01*
X123236751Y-79485368D01*
X123236755Y-79485368D01*
X123236758Y-79485366D01*
X123236762Y-79485366D01*
X123387961Y-79432459D01*
X123428916Y-79425500D01*
X124396084Y-79425500D01*
X124437039Y-79432459D01*
X124588237Y-79485366D01*
X124588243Y-79485367D01*
X124588245Y-79485368D01*
X124588246Y-79485368D01*
X124588250Y-79485369D01*
X124767496Y-79505565D01*
X124767500Y-79505565D01*
X124767504Y-79505565D01*
X124946749Y-79485369D01*
X124946752Y-79485368D01*
X124946755Y-79485368D01*
X125117022Y-79425789D01*
X125269762Y-79329816D01*
X125397316Y-79202262D01*
X125493289Y-79049522D01*
X125552868Y-78879255D01*
X125567671Y-78747873D01*
X125573065Y-78700003D01*
X125573065Y-78699996D01*
X125552869Y-78520750D01*
X125552868Y-78520745D01*
X125493288Y-78350476D01*
X125397315Y-78197737D01*
X125269762Y-78070184D01*
X125117023Y-77974211D01*
X124946754Y-77914631D01*
X124946749Y-77914630D01*
X124767504Y-77894435D01*
X124767496Y-77894435D01*
X124588250Y-77914630D01*
X124588237Y-77914633D01*
X124437039Y-77967541D01*
X124396084Y-77974500D01*
X123428916Y-77974500D01*
X123387961Y-77967541D01*
X123236762Y-77914633D01*
X123236749Y-77914630D01*
X123057504Y-77894435D01*
X123057496Y-77894435D01*
X122878250Y-77914630D01*
X122878245Y-77914631D01*
X122707976Y-77974211D01*
X122555237Y-78070184D01*
X122427684Y-78197737D01*
X122331711Y-78350476D01*
X122272131Y-78520745D01*
X122272130Y-78520750D01*
X122251935Y-78699996D01*
X122251935Y-78700003D01*
X90000500Y-78700003D01*
X90000499Y-76652128D01*
X89994091Y-76592517D01*
X89943796Y-76457669D01*
X89943795Y-76457668D01*
X89943793Y-76457664D01*
X89857547Y-76342455D01*
X89857544Y-76342452D01*
X89742335Y-76256206D01*
X89742328Y-76256202D01*
X89607482Y-76205908D01*
X89607483Y-76205908D01*
X89547883Y-76199501D01*
X89547881Y-76199500D01*
X89547873Y-76199500D01*
X89547864Y-76199500D01*
X87452129Y-76199500D01*
X87452123Y-76199501D01*
X87392516Y-76205908D01*
X87257671Y-76256202D01*
X87257664Y-76256206D01*
X87142455Y-76342452D01*
X87142452Y-76342455D01*
X87056206Y-76457664D01*
X87056202Y-76457671D01*
X87005908Y-76592517D01*
X86999501Y-76652116D01*
X86999501Y-76652123D01*
X86999500Y-76652135D01*
X86999500Y-78747870D01*
X82500500Y-78747870D01*
X82500500Y-71503920D01*
X131709499Y-71503920D01*
X131738340Y-71648907D01*
X131738343Y-71648917D01*
X131794912Y-71785488D01*
X131794919Y-71785501D01*
X131877048Y-71908415D01*
X131877051Y-71908419D01*
X131981580Y-72012948D01*
X131981584Y-72012951D01*
X132104498Y-72095080D01*
X132104511Y-72095087D01*
X132241082Y-72151656D01*
X132241087Y-72151658D01*
X132241091Y-72151658D01*
X132241092Y-72151659D01*
X132386079Y-72180500D01*
X132386082Y-72180500D01*
X132533920Y-72180500D01*
X132631462Y-72161096D01*
X132678913Y-72151658D01*
X132815495Y-72095084D01*
X132938416Y-72012951D01*
X133042951Y-71908416D01*
X133125084Y-71785495D01*
X133181658Y-71648913D01*
X133210500Y-71503918D01*
X133210500Y-71356082D01*
X133210500Y-71356079D01*
X133181659Y-71211092D01*
X133181658Y-71211091D01*
X133181658Y-71211087D01*
X133181656Y-71211082D01*
X133125087Y-71074511D01*
X133125080Y-71074498D01*
X133042951Y-70951584D01*
X133042948Y-70951580D01*
X132938419Y-70847051D01*
X132938415Y-70847048D01*
X132815501Y-70764919D01*
X132815488Y-70764912D01*
X132678917Y-70708343D01*
X132678907Y-70708340D01*
X132533920Y-70679500D01*
X132533918Y-70679500D01*
X132386082Y-70679500D01*
X132386080Y-70679500D01*
X132241092Y-70708340D01*
X132241082Y-70708343D01*
X132104511Y-70764912D01*
X132104498Y-70764919D01*
X131981584Y-70847048D01*
X131981580Y-70847051D01*
X131877051Y-70951580D01*
X131877048Y-70951584D01*
X131794919Y-71074498D01*
X131794912Y-71074511D01*
X131738343Y-71211082D01*
X131738340Y-71211092D01*
X131709500Y-71356079D01*
X131709500Y-71356082D01*
X131709500Y-71503918D01*
X131709500Y-71503920D01*
X131709499Y-71503920D01*
X82500500Y-71503920D01*
X82500500Y-69800002D01*
X87244723Y-69800002D01*
X87263793Y-70017975D01*
X87263793Y-70017979D01*
X87320422Y-70229322D01*
X87320424Y-70229326D01*
X87320425Y-70229330D01*
X87343224Y-70278222D01*
X87412897Y-70427638D01*
X87412898Y-70427639D01*
X87538402Y-70606877D01*
X87693123Y-70761598D01*
X87872361Y-70887102D01*
X88070670Y-70979575D01*
X88282023Y-71036207D01*
X88464926Y-71052208D01*
X88499998Y-71055277D01*
X88500000Y-71055277D01*
X88500002Y-71055277D01*
X88528254Y-71052805D01*
X88717977Y-71036207D01*
X88929330Y-70979575D01*
X89127639Y-70887102D01*
X89306877Y-70761598D01*
X89461598Y-70606877D01*
X89587102Y-70427639D01*
X89679575Y-70229330D01*
X89736207Y-70017977D01*
X89755277Y-69800000D01*
X89736207Y-69582023D01*
X89682076Y-69380003D01*
X109094435Y-69380003D01*
X109114630Y-69559249D01*
X109114631Y-69559254D01*
X109174211Y-69729523D01*
X109237841Y-69830789D01*
X109270184Y-69882262D01*
X109397738Y-70009816D01*
X109516699Y-70084564D01*
X109562990Y-70136899D01*
X109573947Y-70175675D01*
X109594630Y-70359249D01*
X109594631Y-70359254D01*
X109654211Y-70529523D01*
X109702816Y-70606877D01*
X109750184Y-70682262D01*
X109877738Y-70809816D01*
X110030478Y-70905789D01*
X110161341Y-70951580D01*
X110200745Y-70965368D01*
X110200750Y-70965369D01*
X110379996Y-70985565D01*
X110380000Y-70985565D01*
X110380004Y-70985565D01*
X110559249Y-70965369D01*
X110559252Y-70965368D01*
X110559255Y-70965368D01*
X110729522Y-70905789D01*
X110882262Y-70809816D01*
X111009816Y-70682262D01*
X111105789Y-70529522D01*
X111165368Y-70359255D01*
X111166182Y-70352025D01*
X111193245Y-70287611D01*
X111201712Y-70278232D01*
X112635277Y-68844669D01*
X112706465Y-68738127D01*
X112716915Y-68712900D01*
X112726263Y-68690331D01*
X112741225Y-68654210D01*
X112755501Y-68619744D01*
X112780500Y-68494069D01*
X112780500Y-62080808D01*
X112800185Y-62013769D01*
X112816819Y-61993127D01*
X113057819Y-61752127D01*
X113119142Y-61718642D01*
X113188834Y-61723626D01*
X113244767Y-61765498D01*
X113269184Y-61830962D01*
X113269500Y-61839808D01*
X113269500Y-68684070D01*
X113283705Y-68755478D01*
X113283705Y-68755480D01*
X113294497Y-68809736D01*
X113294499Y-68809744D01*
X113308967Y-68844674D01*
X113343535Y-68928127D01*
X113411923Y-69030478D01*
X113414726Y-69034673D01*
X113414727Y-69034674D01*
X113583277Y-69203223D01*
X113616762Y-69264546D01*
X113618815Y-69277012D01*
X113619630Y-69284246D01*
X113619632Y-69284255D01*
X113679210Y-69454521D01*
X113745019Y-69559255D01*
X113775184Y-69607262D01*
X113902738Y-69734816D01*
X114055478Y-69830789D01*
X114202579Y-69882262D01*
X114225745Y-69890368D01*
X114225750Y-69890369D01*
X114404996Y-69910565D01*
X114405000Y-69910565D01*
X114405004Y-69910565D01*
X114584249Y-69890369D01*
X114584252Y-69890368D01*
X114584255Y-69890368D01*
X114754522Y-69830789D01*
X114907262Y-69734816D01*
X115034816Y-69607262D01*
X115043991Y-69592658D01*
X115096322Y-69546367D01*
X115165375Y-69535716D01*
X115189939Y-69541586D01*
X115200745Y-69545368D01*
X115200752Y-69545368D01*
X115200753Y-69545369D01*
X115379996Y-69565565D01*
X115380000Y-69565565D01*
X115380004Y-69565565D01*
X115559249Y-69545369D01*
X115559252Y-69545368D01*
X115559255Y-69545368D01*
X115729522Y-69485789D01*
X115882262Y-69389816D01*
X116009816Y-69262262D01*
X116105789Y-69109522D01*
X116165368Y-68939255D01*
X116166622Y-68928125D01*
X116185565Y-68760003D01*
X116185565Y-68759996D01*
X116165369Y-68580750D01*
X116165368Y-68580745D01*
X116105788Y-68410476D01*
X116009815Y-68257737D01*
X115882262Y-68130184D01*
X115729524Y-68034212D01*
X115729522Y-68034211D01*
X115723541Y-68032118D01*
X115666766Y-67991394D01*
X115641022Y-67926440D01*
X115640500Y-67915078D01*
X115640500Y-67103920D01*
X131709499Y-67103920D01*
X131738340Y-67248907D01*
X131738343Y-67248917D01*
X131794912Y-67385488D01*
X131794919Y-67385501D01*
X131877048Y-67508415D01*
X131877051Y-67508419D01*
X131981580Y-67612948D01*
X131981584Y-67612951D01*
X132104498Y-67695080D01*
X132104511Y-67695087D01*
X132241082Y-67751656D01*
X132241087Y-67751658D01*
X132241091Y-67751658D01*
X132241092Y-67751659D01*
X132386079Y-67780500D01*
X132386082Y-67780500D01*
X132533920Y-67780500D01*
X132631462Y-67761096D01*
X132678913Y-67751658D01*
X132815495Y-67695084D01*
X132938416Y-67612951D01*
X133042951Y-67508416D01*
X133125084Y-67385495D01*
X133181658Y-67248913D01*
X133210500Y-67103918D01*
X133210500Y-66956082D01*
X133210500Y-66956079D01*
X133181659Y-66811092D01*
X133181658Y-66811091D01*
X133181658Y-66811087D01*
X133181656Y-66811082D01*
X133125087Y-66674511D01*
X133125080Y-66674498D01*
X133042951Y-66551584D01*
X133042948Y-66551580D01*
X132938419Y-66447051D01*
X132938415Y-66447048D01*
X132815501Y-66364919D01*
X132815488Y-66364912D01*
X132678917Y-66308343D01*
X132678907Y-66308340D01*
X132533920Y-66279500D01*
X132533918Y-66279500D01*
X132386082Y-66279500D01*
X132386080Y-66279500D01*
X132241092Y-66308340D01*
X132241082Y-66308343D01*
X132104511Y-66364912D01*
X132104498Y-66364919D01*
X131981584Y-66447048D01*
X131981580Y-66447051D01*
X131877051Y-66551580D01*
X131877048Y-66551584D01*
X131794919Y-66674498D01*
X131794912Y-66674511D01*
X131738343Y-66811082D01*
X131738340Y-66811092D01*
X131709500Y-66956079D01*
X131709500Y-66956082D01*
X131709500Y-67103918D01*
X131709500Y-67103920D01*
X131709499Y-67103920D01*
X115640500Y-67103920D01*
X115640500Y-62610807D01*
X115660185Y-62543768D01*
X115676815Y-62523130D01*
X116008928Y-62191016D01*
X116070249Y-62157533D01*
X116110485Y-62155479D01*
X116191122Y-62164564D01*
X116199999Y-62165565D01*
X116200000Y-62165565D01*
X116200004Y-62165565D01*
X116379249Y-62145369D01*
X116379252Y-62145368D01*
X116379255Y-62145368D01*
X116549522Y-62085789D01*
X116702262Y-61989816D01*
X116829816Y-61862262D01*
X116925789Y-61709522D01*
X116985368Y-61539255D01*
X117005565Y-61360000D01*
X116985368Y-61180745D01*
X116925789Y-61010478D01*
X116829816Y-60857738D01*
X116702262Y-60730184D01*
X116647744Y-60695928D01*
X116549523Y-60634211D01*
X116379254Y-60574631D01*
X116379250Y-60574630D01*
X116202104Y-60554671D01*
X116137690Y-60527604D01*
X116098135Y-60470009D01*
X116095998Y-60400172D01*
X116125873Y-60348022D01*
X116125475Y-60347705D01*
X116127536Y-60345119D01*
X116128312Y-60343765D01*
X116129816Y-60342262D01*
X116225789Y-60189522D01*
X116285368Y-60019255D01*
X116305565Y-59840000D01*
X116285368Y-59660745D01*
X116225789Y-59490478D01*
X116129816Y-59337738D01*
X116002262Y-59210184D01*
X116002260Y-59210182D01*
X115886734Y-59137592D01*
X115840444Y-59085258D01*
X115829796Y-59016204D01*
X115858171Y-58952356D01*
X115865013Y-58944931D01*
X117595276Y-57214670D01*
X117666465Y-57108127D01*
X117668216Y-57103901D01*
X117695701Y-57037546D01*
X117713273Y-56995121D01*
X117757113Y-56940718D01*
X117765834Y-56935187D01*
X117767815Y-56934041D01*
X117767830Y-56934035D01*
X117961401Y-56798495D01*
X118083329Y-56676566D01*
X118144648Y-56643084D01*
X118214340Y-56648068D01*
X118270274Y-56689939D01*
X118287189Y-56720917D01*
X118336202Y-56852328D01*
X118336206Y-56852335D01*
X118422452Y-56967544D01*
X118422455Y-56967547D01*
X118537664Y-57053793D01*
X118537671Y-57053797D01*
X118672517Y-57104091D01*
X118672516Y-57104091D01*
X118679444Y-57104835D01*
X118732127Y-57110500D01*
X120527872Y-57110499D01*
X120587483Y-57104091D01*
X120722331Y-57053796D01*
X120837546Y-56967546D01*
X120923796Y-56852331D01*
X120974091Y-56717483D01*
X120980500Y-56657873D01*
X120980499Y-54862128D01*
X120974091Y-54802517D01*
X120972810Y-54799083D01*
X120923797Y-54667671D01*
X120923793Y-54667664D01*
X120837547Y-54552455D01*
X120837544Y-54552452D01*
X120767484Y-54500005D01*
X131095255Y-54500005D01*
X131114215Y-54801383D01*
X131114216Y-54801390D01*
X131170805Y-55098040D01*
X131264125Y-55385247D01*
X131264127Y-55385252D01*
X131392704Y-55658491D01*
X131392707Y-55658497D01*
X131554516Y-55913469D01*
X131635311Y-56011133D01*
X132563708Y-55082736D01*
X132660967Y-55216602D01*
X132783398Y-55339033D01*
X132917262Y-55436290D01*
X131986564Y-56366987D01*
X131986565Y-56366989D01*
X132211461Y-56530385D01*
X132211479Y-56530397D01*
X132476109Y-56675878D01*
X132476117Y-56675882D01*
X132756889Y-56787047D01*
X132756892Y-56787048D01*
X133049399Y-56862150D01*
X133348995Y-56899999D01*
X133349007Y-56900000D01*
X133650993Y-56900000D01*
X133651004Y-56899999D01*
X133950600Y-56862150D01*
X134243107Y-56787048D01*
X134243110Y-56787047D01*
X134523882Y-56675882D01*
X134523890Y-56675878D01*
X134788520Y-56530397D01*
X134788530Y-56530390D01*
X135013433Y-56366987D01*
X135013434Y-56366987D01*
X134082737Y-55436290D01*
X134216602Y-55339033D01*
X134339033Y-55216602D01*
X134436290Y-55082737D01*
X135364687Y-56011134D01*
X135445486Y-55913464D01*
X135607292Y-55658497D01*
X135607295Y-55658491D01*
X135735872Y-55385252D01*
X135735874Y-55385247D01*
X135829194Y-55098040D01*
X135885783Y-54801390D01*
X135885784Y-54801383D01*
X135904745Y-54500005D01*
X135904745Y-54499994D01*
X135885784Y-54198616D01*
X135885783Y-54198609D01*
X135829194Y-53901959D01*
X135735874Y-53614752D01*
X135735872Y-53614747D01*
X135607295Y-53341508D01*
X135607292Y-53341502D01*
X135445483Y-53086530D01*
X135364686Y-52988864D01*
X134436289Y-53917261D01*
X134339033Y-53783398D01*
X134216602Y-53660967D01*
X134082736Y-53563709D01*
X135013434Y-52633011D01*
X135013433Y-52633009D01*
X134788538Y-52469614D01*
X134788520Y-52469602D01*
X134523890Y-52324121D01*
X134523882Y-52324117D01*
X134243110Y-52212952D01*
X134243107Y-52212951D01*
X133950600Y-52137849D01*
X133651004Y-52100000D01*
X133348995Y-52100000D01*
X133049399Y-52137849D01*
X132756892Y-52212951D01*
X132756889Y-52212952D01*
X132476117Y-52324117D01*
X132476109Y-52324121D01*
X132211476Y-52469604D01*
X132211471Y-52469607D01*
X131986565Y-52633010D01*
X131986564Y-52633011D01*
X132917262Y-53563709D01*
X132783398Y-53660967D01*
X132660967Y-53783398D01*
X132563709Y-53917262D01*
X131635311Y-52988864D01*
X131554520Y-53086525D01*
X131554518Y-53086528D01*
X131392707Y-53341502D01*
X131392704Y-53341508D01*
X131264127Y-53614747D01*
X131264125Y-53614752D01*
X131170805Y-53901959D01*
X131114216Y-54198609D01*
X131114215Y-54198616D01*
X131095255Y-54499994D01*
X131095255Y-54500005D01*
X120767484Y-54500005D01*
X120722335Y-54466206D01*
X120722328Y-54466202D01*
X120587482Y-54415908D01*
X120587483Y-54415908D01*
X120527883Y-54409501D01*
X120527881Y-54409500D01*
X120527873Y-54409500D01*
X120527864Y-54409500D01*
X118732129Y-54409500D01*
X118732123Y-54409501D01*
X118672516Y-54415908D01*
X118537671Y-54466202D01*
X118537664Y-54466206D01*
X118422455Y-54552452D01*
X118422452Y-54552455D01*
X118336206Y-54667664D01*
X118336203Y-54667669D01*
X118287189Y-54799083D01*
X118245317Y-54855016D01*
X118179853Y-54879433D01*
X118111580Y-54864581D01*
X118083326Y-54843430D01*
X117961402Y-54721506D01*
X117961395Y-54721501D01*
X117767834Y-54585967D01*
X117767830Y-54585965D01*
X117703778Y-54556097D01*
X117553663Y-54486097D01*
X117553659Y-54486096D01*
X117553655Y-54486094D01*
X117325413Y-54424938D01*
X117325403Y-54424936D01*
X117090001Y-54404341D01*
X117089999Y-54404341D01*
X116854596Y-54424936D01*
X116854586Y-54424938D01*
X116626344Y-54486094D01*
X116626335Y-54486098D01*
X116412171Y-54585964D01*
X116412169Y-54585965D01*
X116218597Y-54721505D01*
X116051505Y-54888597D01*
X115921575Y-55074158D01*
X115866998Y-55117783D01*
X115797500Y-55124977D01*
X115735145Y-55093454D01*
X115718425Y-55074158D01*
X115588494Y-54888597D01*
X115421402Y-54721506D01*
X115421395Y-54721501D01*
X115227834Y-54585967D01*
X115227830Y-54585965D01*
X115163778Y-54556097D01*
X115013663Y-54486097D01*
X115013659Y-54486096D01*
X115013655Y-54486094D01*
X114785413Y-54424938D01*
X114785403Y-54424936D01*
X114550001Y-54404341D01*
X114549999Y-54404341D01*
X114314596Y-54424936D01*
X114314586Y-54424938D01*
X114086344Y-54486094D01*
X114086335Y-54486098D01*
X113872171Y-54585964D01*
X113872169Y-54585965D01*
X113678597Y-54721505D01*
X113511508Y-54888594D01*
X113381269Y-55074595D01*
X113326692Y-55118219D01*
X113257193Y-55125412D01*
X113194839Y-55093890D01*
X113178119Y-55074594D01*
X113048113Y-54888926D01*
X113048108Y-54888920D01*
X112881082Y-54721894D01*
X112687578Y-54586399D01*
X112473492Y-54486570D01*
X112473486Y-54486567D01*
X112260000Y-54429364D01*
X112260000Y-55326988D01*
X112202993Y-55294075D01*
X112075826Y-55260000D01*
X111944174Y-55260000D01*
X111817007Y-55294075D01*
X111760000Y-55326988D01*
X111760000Y-54429364D01*
X111759999Y-54429364D01*
X111546513Y-54486567D01*
X111546507Y-54486570D01*
X111332422Y-54586399D01*
X111332420Y-54586400D01*
X111138926Y-54721886D01*
X111138920Y-54721891D01*
X110971891Y-54888920D01*
X110971886Y-54888926D01*
X110836400Y-55082420D01*
X110836399Y-55082422D01*
X110736570Y-55296507D01*
X110736567Y-55296513D01*
X110679364Y-55509999D01*
X110679364Y-55510000D01*
X111576988Y-55510000D01*
X111544075Y-55567007D01*
X111510000Y-55694174D01*
X111510000Y-55825826D01*
X111544075Y-55952993D01*
X111576988Y-56010000D01*
X110679364Y-56010000D01*
X110736567Y-56223486D01*
X110736570Y-56223492D01*
X110836399Y-56437578D01*
X110971894Y-56631082D01*
X111138917Y-56798105D01*
X111332421Y-56933600D01*
X111546507Y-57033429D01*
X111546516Y-57033433D01*
X111760000Y-57090634D01*
X111760000Y-56193012D01*
X111817007Y-56225925D01*
X111944174Y-56260000D01*
X112075826Y-56260000D01*
X112202993Y-56225925D01*
X112260000Y-56193012D01*
X112260000Y-57090633D01*
X112473483Y-57033433D01*
X112473492Y-57033429D01*
X112687578Y-56933600D01*
X112881082Y-56798105D01*
X113048105Y-56631082D01*
X113178119Y-56445405D01*
X113232696Y-56401781D01*
X113302195Y-56394588D01*
X113364549Y-56426110D01*
X113381269Y-56445405D01*
X113511505Y-56631401D01*
X113678599Y-56798495D01*
X113770230Y-56862656D01*
X113771026Y-56863213D01*
X113814651Y-56917790D01*
X113821845Y-56987288D01*
X113790322Y-57049643D01*
X113787584Y-57052469D01*
X110494727Y-60345325D01*
X110494726Y-60345326D01*
X110423534Y-60451874D01*
X110374499Y-60570255D01*
X110374497Y-60570261D01*
X110349500Y-60695928D01*
X110349500Y-67959191D01*
X110329815Y-68026230D01*
X110313181Y-68046872D01*
X109801775Y-68558277D01*
X109740452Y-68591762D01*
X109727988Y-68593815D01*
X109720752Y-68594630D01*
X109720744Y-68594632D01*
X109550478Y-68654210D01*
X109397737Y-68750184D01*
X109270184Y-68877737D01*
X109174211Y-69030476D01*
X109114631Y-69200745D01*
X109114630Y-69200750D01*
X109094435Y-69379996D01*
X109094435Y-69380003D01*
X89682076Y-69380003D01*
X89679575Y-69370670D01*
X89587102Y-69172362D01*
X89587100Y-69172359D01*
X89587099Y-69172357D01*
X89461599Y-68993124D01*
X89396600Y-68928125D01*
X89306877Y-68838402D01*
X89127639Y-68712898D01*
X89127640Y-68712898D01*
X89127638Y-68712897D01*
X89001782Y-68654210D01*
X88929330Y-68620425D01*
X88929326Y-68620424D01*
X88929322Y-68620422D01*
X88717977Y-68563793D01*
X88500002Y-68544723D01*
X88499998Y-68544723D01*
X88354682Y-68557436D01*
X88282023Y-68563793D01*
X88282020Y-68563793D01*
X88070677Y-68620422D01*
X88070668Y-68620426D01*
X87872361Y-68712898D01*
X87872357Y-68712900D01*
X87693121Y-68838402D01*
X87538402Y-68993121D01*
X87412900Y-69172357D01*
X87412898Y-69172361D01*
X87320426Y-69370668D01*
X87320422Y-69370677D01*
X87263793Y-69582020D01*
X87263793Y-69582024D01*
X87244723Y-69799997D01*
X87244723Y-69800002D01*
X82500500Y-69800002D01*
X82500500Y-64920002D01*
X87244723Y-64920002D01*
X87263793Y-65137975D01*
X87263793Y-65137979D01*
X87320422Y-65349322D01*
X87320424Y-65349326D01*
X87320425Y-65349330D01*
X87366661Y-65448484D01*
X87412897Y-65547638D01*
X87412898Y-65547639D01*
X87538402Y-65726877D01*
X87693123Y-65881598D01*
X87872361Y-66007102D01*
X88070670Y-66099575D01*
X88282023Y-66156207D01*
X88464926Y-66172208D01*
X88499998Y-66175277D01*
X88500000Y-66175277D01*
X88500002Y-66175277D01*
X88528254Y-66172805D01*
X88717977Y-66156207D01*
X88929330Y-66099575D01*
X89127639Y-66007102D01*
X89306877Y-65881598D01*
X89461598Y-65726877D01*
X89587102Y-65547639D01*
X89679575Y-65349330D01*
X89736207Y-65137977D01*
X89755277Y-64920000D01*
X89736207Y-64702023D01*
X89679575Y-64490670D01*
X89587102Y-64292362D01*
X89587100Y-64292359D01*
X89587099Y-64292357D01*
X89461599Y-64113124D01*
X89461596Y-64113121D01*
X89306877Y-63958402D01*
X89127639Y-63832898D01*
X89127640Y-63832898D01*
X89127638Y-63832897D01*
X89028484Y-63786661D01*
X88929330Y-63740425D01*
X88929326Y-63740424D01*
X88929322Y-63740422D01*
X88717977Y-63683793D01*
X88500002Y-63664723D01*
X88499998Y-63664723D01*
X88354682Y-63677436D01*
X88282023Y-63683793D01*
X88282020Y-63683793D01*
X88070677Y-63740422D01*
X88070668Y-63740426D01*
X87872361Y-63832898D01*
X87872357Y-63832900D01*
X87693121Y-63958402D01*
X87538402Y-64113121D01*
X87412900Y-64292357D01*
X87412898Y-64292361D01*
X87320426Y-64490668D01*
X87320422Y-64490677D01*
X87263793Y-64702020D01*
X87263793Y-64702024D01*
X87244723Y-64919997D01*
X87244723Y-64920002D01*
X82500500Y-64920002D01*
X82500500Y-54500005D01*
X83095255Y-54500005D01*
X83114215Y-54801383D01*
X83114216Y-54801390D01*
X83170805Y-55098040D01*
X83264125Y-55385247D01*
X83264127Y-55385252D01*
X83392704Y-55658491D01*
X83392707Y-55658497D01*
X83554516Y-55913469D01*
X83635311Y-56011133D01*
X84563708Y-55082736D01*
X84660967Y-55216602D01*
X84783398Y-55339033D01*
X84917262Y-55436290D01*
X83986564Y-56366987D01*
X83986565Y-56366989D01*
X84211461Y-56530385D01*
X84211479Y-56530397D01*
X84476109Y-56675878D01*
X84476117Y-56675882D01*
X84756889Y-56787047D01*
X84756892Y-56787048D01*
X85049399Y-56862150D01*
X85348995Y-56899999D01*
X85349007Y-56900000D01*
X85650993Y-56900000D01*
X85651004Y-56899999D01*
X85950600Y-56862150D01*
X86243107Y-56787048D01*
X86243110Y-56787047D01*
X86523882Y-56675882D01*
X86523890Y-56675878D01*
X86788520Y-56530397D01*
X86788530Y-56530390D01*
X87013433Y-56366987D01*
X87013434Y-56366987D01*
X86726447Y-56080000D01*
X98719364Y-56080000D01*
X98776567Y-56293486D01*
X98776570Y-56293492D01*
X98876399Y-56507578D01*
X99011894Y-56701082D01*
X99178917Y-56868105D01*
X99372421Y-57003600D01*
X99586507Y-57103429D01*
X99586516Y-57103433D01*
X99800000Y-57160634D01*
X99800000Y-56263012D01*
X99857007Y-56295925D01*
X99984174Y-56330000D01*
X100115826Y-56330000D01*
X100242993Y-56295925D01*
X100300000Y-56263012D01*
X100300000Y-57160633D01*
X100513483Y-57103433D01*
X100513492Y-57103429D01*
X100727578Y-57003600D01*
X100921082Y-56868105D01*
X101088105Y-56701082D01*
X101218119Y-56515405D01*
X101272696Y-56471781D01*
X101342195Y-56464588D01*
X101404549Y-56496110D01*
X101421269Y-56515405D01*
X101551505Y-56701401D01*
X101718599Y-56868495D01*
X101812198Y-56934034D01*
X101912165Y-57004032D01*
X101912167Y-57004033D01*
X101912170Y-57004035D01*
X102126337Y-57103903D01*
X102126343Y-57103904D01*
X102126344Y-57103905D01*
X102181285Y-57118626D01*
X102354592Y-57165063D01*
X102531034Y-57180500D01*
X102589999Y-57185659D01*
X102590000Y-57185659D01*
X102590001Y-57185659D01*
X102648966Y-57180500D01*
X102825408Y-57165063D01*
X103053663Y-57103903D01*
X103267830Y-57004035D01*
X103461401Y-56868495D01*
X103628495Y-56701401D01*
X103758425Y-56515842D01*
X103813002Y-56472217D01*
X103882500Y-56465023D01*
X103944855Y-56496546D01*
X103961575Y-56515842D01*
X104091281Y-56701082D01*
X104091505Y-56701401D01*
X104258599Y-56868495D01*
X104352198Y-56934034D01*
X104452165Y-57004032D01*
X104452167Y-57004033D01*
X104452170Y-57004035D01*
X104666337Y-57103903D01*
X104666343Y-57103904D01*
X104666344Y-57103905D01*
X104721285Y-57118626D01*
X104894592Y-57165063D01*
X105071034Y-57180500D01*
X105129999Y-57185659D01*
X105130000Y-57185659D01*
X105130001Y-57185659D01*
X105188966Y-57180500D01*
X105365408Y-57165063D01*
X105593663Y-57103903D01*
X105807830Y-57004035D01*
X106001401Y-56868495D01*
X106123329Y-56746566D01*
X106184648Y-56713084D01*
X106254340Y-56718068D01*
X106310274Y-56759939D01*
X106327189Y-56790917D01*
X106376202Y-56922328D01*
X106376206Y-56922335D01*
X106462452Y-57037544D01*
X106462455Y-57037547D01*
X106577664Y-57123793D01*
X106577671Y-57123797D01*
X106712517Y-57174091D01*
X106712516Y-57174091D01*
X106719444Y-57174835D01*
X106772127Y-57180500D01*
X108567872Y-57180499D01*
X108627483Y-57174091D01*
X108762331Y-57123796D01*
X108877546Y-57037546D01*
X108963796Y-56922331D01*
X109014091Y-56787483D01*
X109020500Y-56727873D01*
X109020499Y-54932128D01*
X109014091Y-54872517D01*
X109012810Y-54869083D01*
X108963797Y-54737671D01*
X108963793Y-54737664D01*
X108877547Y-54622455D01*
X108877544Y-54622452D01*
X108762335Y-54536206D01*
X108762328Y-54536202D01*
X108627482Y-54485908D01*
X108627483Y-54485908D01*
X108567883Y-54479501D01*
X108567881Y-54479500D01*
X108567873Y-54479500D01*
X108567864Y-54479500D01*
X106772129Y-54479500D01*
X106772123Y-54479501D01*
X106712516Y-54485908D01*
X106577671Y-54536202D01*
X106577664Y-54536206D01*
X106462455Y-54622452D01*
X106462452Y-54622455D01*
X106376206Y-54737664D01*
X106376203Y-54737669D01*
X106327189Y-54869083D01*
X106285317Y-54925016D01*
X106219853Y-54949433D01*
X106151580Y-54934581D01*
X106123326Y-54913430D01*
X106001402Y-54791506D01*
X106001395Y-54791501D01*
X105807834Y-54655967D01*
X105807830Y-54655965D01*
X105807828Y-54655964D01*
X105593663Y-54556097D01*
X105593659Y-54556096D01*
X105593655Y-54556094D01*
X105365413Y-54494938D01*
X105365403Y-54494936D01*
X105130001Y-54474341D01*
X105129999Y-54474341D01*
X104894596Y-54494936D01*
X104894586Y-54494938D01*
X104666344Y-54556094D01*
X104666335Y-54556098D01*
X104452171Y-54655964D01*
X104452169Y-54655965D01*
X104258597Y-54791505D01*
X104091505Y-54958597D01*
X103961575Y-55144158D01*
X103906998Y-55187783D01*
X103837500Y-55194977D01*
X103775145Y-55163454D01*
X103758425Y-55144158D01*
X103628494Y-54958597D01*
X103461402Y-54791506D01*
X103461395Y-54791501D01*
X103267834Y-54655967D01*
X103267830Y-54655965D01*
X103267828Y-54655964D01*
X103053663Y-54556097D01*
X103053659Y-54556096D01*
X103053655Y-54556094D01*
X102825413Y-54494938D01*
X102825403Y-54494936D01*
X102590001Y-54474341D01*
X102589999Y-54474341D01*
X102354596Y-54494936D01*
X102354586Y-54494938D01*
X102126344Y-54556094D01*
X102126335Y-54556098D01*
X101912171Y-54655964D01*
X101912169Y-54655965D01*
X101718597Y-54791505D01*
X101551508Y-54958594D01*
X101421269Y-55144595D01*
X101366692Y-55188219D01*
X101297193Y-55195412D01*
X101234839Y-55163890D01*
X101218119Y-55144594D01*
X101088113Y-54958926D01*
X101088108Y-54958920D01*
X100921082Y-54791894D01*
X100727578Y-54656399D01*
X100513492Y-54556570D01*
X100513486Y-54556567D01*
X100300000Y-54499364D01*
X100300000Y-55396988D01*
X100242993Y-55364075D01*
X100115826Y-55330000D01*
X99984174Y-55330000D01*
X99857007Y-55364075D01*
X99800000Y-55396988D01*
X99800000Y-54499364D01*
X99799999Y-54499364D01*
X99586513Y-54556567D01*
X99586507Y-54556570D01*
X99372422Y-54656399D01*
X99372420Y-54656400D01*
X99178926Y-54791886D01*
X99178920Y-54791891D01*
X99011891Y-54958920D01*
X99011886Y-54958926D01*
X98876400Y-55152420D01*
X98876399Y-55152422D01*
X98776570Y-55366507D01*
X98776567Y-55366513D01*
X98719364Y-55579999D01*
X98719364Y-55580000D01*
X99616988Y-55580000D01*
X99584075Y-55637007D01*
X99550000Y-55764174D01*
X99550000Y-55895826D01*
X99584075Y-56022993D01*
X99616988Y-56080000D01*
X98719364Y-56080000D01*
X86726447Y-56080000D01*
X86082737Y-55436290D01*
X86216602Y-55339033D01*
X86339033Y-55216602D01*
X86436290Y-55082737D01*
X87364687Y-56011134D01*
X87445486Y-55913464D01*
X87607292Y-55658497D01*
X87607295Y-55658491D01*
X87735872Y-55385252D01*
X87735874Y-55385247D01*
X87829194Y-55098040D01*
X87885783Y-54801390D01*
X87885784Y-54801383D01*
X87904745Y-54500005D01*
X87904745Y-54499994D01*
X87885784Y-54198616D01*
X87885783Y-54198609D01*
X87829194Y-53901959D01*
X87735874Y-53614752D01*
X87735872Y-53614747D01*
X87607295Y-53341508D01*
X87607292Y-53341502D01*
X87445483Y-53086530D01*
X87364686Y-52988864D01*
X86436289Y-53917261D01*
X86339033Y-53783398D01*
X86216602Y-53660967D01*
X86082736Y-53563709D01*
X87013434Y-52633011D01*
X87013433Y-52633009D01*
X86788538Y-52469614D01*
X86788520Y-52469602D01*
X86523890Y-52324121D01*
X86523882Y-52324117D01*
X86243110Y-52212952D01*
X86243107Y-52212951D01*
X85950600Y-52137849D01*
X85651004Y-52100000D01*
X85348995Y-52100000D01*
X85049399Y-52137849D01*
X84756892Y-52212951D01*
X84756889Y-52212952D01*
X84476117Y-52324117D01*
X84476109Y-52324121D01*
X84211476Y-52469604D01*
X84211471Y-52469607D01*
X83986565Y-52633010D01*
X83986564Y-52633011D01*
X84917262Y-53563709D01*
X84783398Y-53660967D01*
X84660967Y-53783398D01*
X84563709Y-53917262D01*
X83635311Y-52988864D01*
X83554520Y-53086525D01*
X83554518Y-53086528D01*
X83392707Y-53341502D01*
X83392704Y-53341508D01*
X83264127Y-53614747D01*
X83264125Y-53614752D01*
X83170805Y-53901959D01*
X83114216Y-54198609D01*
X83114215Y-54198616D01*
X83095255Y-54499994D01*
X83095255Y-54500005D01*
X82500500Y-54500005D01*
X82500500Y-54003750D01*
X82500726Y-53996263D01*
X82518271Y-53706205D01*
X82520076Y-53691340D01*
X82534112Y-53614752D01*
X82571780Y-53409197D01*
X82575364Y-53394663D01*
X82652096Y-53148422D01*
X82660696Y-53120822D01*
X82665998Y-53106841D01*
X82783731Y-52845249D01*
X82790676Y-52832016D01*
X82939080Y-52586526D01*
X82947567Y-52574230D01*
X83124480Y-52348417D01*
X83134395Y-52337226D01*
X83337226Y-52134395D01*
X83348417Y-52124480D01*
X83574230Y-51947567D01*
X83586526Y-51939080D01*
X83832016Y-51790676D01*
X83845249Y-51783731D01*
X84106841Y-51665998D01*
X84120822Y-51660696D01*
X84394668Y-51575362D01*
X84409197Y-51571780D01*
X84691344Y-51520075D01*
X84706201Y-51518271D01*
X84996264Y-51500726D01*
X85003751Y-51500500D01*
X85065892Y-51500500D01*
X133934108Y-51500500D01*
X133996249Y-51500500D01*
X134003736Y-51500726D01*
G37*
G04 #@! TD.AperFunction*
M02*
