G04 #@! TF.GenerationSoftware,KiCad,Pcbnew,8.0.1*
G04 #@! TF.CreationDate,2026-03-24T13:37:07+01:00*
G04 #@! TF.ProjectId,transmiter,7472616e-736d-4697-9465-722e6b696361,rev?*
G04 #@! TF.SameCoordinates,Original*
G04 #@! TF.FileFunction,Soldermask,Top*
G04 #@! TF.FilePolarity,Negative*
%FSLAX46Y46*%
G04 Gerber Fmt 4.6, Leading zero omitted, Abs format (unit mm)*
G04 Created by KiCad (PCBNEW 8.0.1) date 2026-03-24 13:37:07*
%MOMM*%
%LPD*%
G01*
G04 APERTURE LIST*
G04 Aperture macros list*
%AMRoundRect*
0 Rectangle with rounded corners*
0 $1 Rounding radius*
0 $2 $3 $4 $5 $6 $7 $8 $9 X,Y pos of 4 corners*
0 Add a 4 corners polygon primitive as box body*
4,1,4,$2,$3,$4,$5,$6,$7,$8,$9,$2,$3,0*
0 Add four circle primitives for the rounded corners*
1,1,$1+$1,$2,$3*
1,1,$1+$1,$4,$5*
1,1,$1+$1,$6,$7*
1,1,$1+$1,$8,$9*
0 Add four rect primitives between the rounded corners*
20,1,$1+$1,$2,$3,$4,$5,0*
20,1,$1+$1,$4,$5,$6,$7,0*
20,1,$1+$1,$6,$7,$8,$9,0*
20,1,$1+$1,$8,$9,$2,$3,0*%
G04 Aperture macros list end*
%ADD10RoundRect,0.237500X-0.237500X0.250000X-0.237500X-0.250000X0.237500X-0.250000X0.237500X0.250000X0*%
%ADD11RoundRect,0.237500X0.300000X0.237500X-0.300000X0.237500X-0.300000X-0.237500X0.300000X-0.237500X0*%
%ADD12RoundRect,0.155000X0.212500X0.155000X-0.212500X0.155000X-0.212500X-0.155000X0.212500X-0.155000X0*%
%ADD13C,3.800000*%
%ADD14R,1.700000X1.700000*%
%ADD15O,1.700000X1.700000*%
%ADD16RoundRect,0.237500X-0.300000X-0.237500X0.300000X-0.237500X0.300000X0.237500X-0.300000X0.237500X0*%
%ADD17RoundRect,0.125000X-0.625000X-0.125000X0.625000X-0.125000X0.625000X0.125000X-0.625000X0.125000X0*%
%ADD18RoundRect,0.125000X-0.125000X-0.625000X0.125000X-0.625000X0.125000X0.625000X-0.125000X0.625000X0*%
%ADD19RoundRect,0.155000X-0.212500X-0.155000X0.212500X-0.155000X0.212500X0.155000X-0.212500X0.155000X0*%
%ADD20RoundRect,0.250000X-0.275000X-0.250000X0.275000X-0.250000X0.275000X0.250000X-0.275000X0.250000X0*%
%ADD21RoundRect,0.250000X-0.850000X-0.275000X0.850000X-0.275000X0.850000X0.275000X-0.850000X0.275000X0*%
%ADD22RoundRect,0.062500X-0.375000X-0.062500X0.375000X-0.062500X0.375000X0.062500X-0.375000X0.062500X0*%
%ADD23RoundRect,0.062500X-0.062500X-0.375000X0.062500X-0.375000X0.062500X0.375000X-0.062500X0.375000X0*%
%ADD24R,2.300000X2.300000*%
%ADD25RoundRect,0.250001X-0.849999X0.462499X-0.849999X-0.462499X0.849999X-0.462499X0.849999X0.462499X0*%
%ADD26RoundRect,0.237500X-0.250000X-0.237500X0.250000X-0.237500X0.250000X0.237500X-0.250000X0.237500X0*%
%ADD27RoundRect,0.162500X-0.617500X-0.162500X0.617500X-0.162500X0.617500X0.162500X-0.617500X0.162500X0*%
%ADD28RoundRect,0.237500X0.250000X0.237500X-0.250000X0.237500X-0.250000X-0.237500X0.250000X-0.237500X0*%
%ADD29RoundRect,0.237500X-0.237500X0.287500X-0.237500X-0.287500X0.237500X-0.287500X0.237500X0.287500X0*%
%ADD30C,2.000000*%
%ADD31R,2.000000X2.000000*%
%ADD32RoundRect,0.250000X-0.325000X-0.450000X0.325000X-0.450000X0.325000X0.450000X-0.325000X0.450000X0*%
%ADD33C,1.500000*%
%ADD34RoundRect,0.237500X-0.237500X0.300000X-0.237500X-0.300000X0.237500X-0.300000X0.237500X0.300000X0*%
%ADD35RoundRect,0.162500X0.162500X-0.262500X0.162500X0.262500X-0.162500X0.262500X-0.162500X-0.262500X0*%
%ADD36RoundRect,0.062500X0.062500X-0.362500X0.062500X0.362500X-0.062500X0.362500X-0.062500X-0.362500X0*%
%ADD37RoundRect,0.237500X0.237500X-0.300000X0.237500X0.300000X-0.237500X0.300000X-0.237500X-0.300000X0*%
%ADD38RoundRect,0.155000X0.155000X-0.212500X0.155000X0.212500X-0.155000X0.212500X-0.155000X-0.212500X0*%
%ADD39RoundRect,0.375000X-0.375000X0.625000X-0.375000X-0.625000X0.375000X-0.625000X0.375000X0.625000X0*%
%ADD40RoundRect,0.500000X-1.400000X0.500000X-1.400000X-0.500000X1.400000X-0.500000X1.400000X0.500000X0*%
%ADD41C,1.000000*%
%ADD42R,2.000000X0.500000*%
%ADD43R,1.700000X2.000000*%
%ADD44RoundRect,0.237500X0.237500X-0.250000X0.237500X0.250000X-0.237500X0.250000X-0.237500X-0.250000X0*%
%ADD45R,1.750000X0.450000*%
%ADD46RoundRect,0.250000X0.325000X0.450000X-0.325000X0.450000X-0.325000X-0.450000X0.325000X-0.450000X0*%
%ADD47RoundRect,0.155000X-0.155000X0.212500X-0.155000X-0.212500X0.155000X-0.212500X0.155000X0.212500X0*%
%ADD48RoundRect,0.250000X0.250000X0.550000X-0.250000X0.550000X-0.250000X-0.550000X0.250000X-0.550000X0*%
%ADD49RoundRect,0.087500X-0.200000X-0.087500X0.200000X-0.087500X0.200000X0.087500X-0.200000X0.087500X0*%
%ADD50R,1.450000X1.740000*%
%ADD51RoundRect,0.162500X-0.162500X0.617500X-0.162500X-0.617500X0.162500X-0.617500X0.162500X0.617500X0*%
G04 APERTURE END LIST*
G36*
X126465000Y-96010000D02*
G01*
X128555000Y-96010000D01*
X128555000Y-97890000D01*
X126465000Y-97890000D01*
X126465000Y-96010000D01*
G37*
D10*
X130500000Y-78487500D03*
X130500000Y-80312500D03*
D11*
X110262500Y-75120000D03*
X108537500Y-75120000D03*
D12*
X107535000Y-91100000D03*
X106400000Y-91100000D03*
D13*
X133500000Y-54500000D03*
D14*
X107670000Y-55830000D03*
D15*
X105130000Y-55830000D03*
X102590000Y-55830000D03*
X100050000Y-55830000D03*
D16*
X117675000Y-98920000D03*
X119400000Y-98920000D03*
X113017500Y-65950000D03*
X114742500Y-65950000D03*
D11*
X118500000Y-90820000D03*
X116775000Y-90820000D03*
X99462500Y-81400000D03*
X97737500Y-81400000D03*
D17*
X99700000Y-66180000D03*
X99700000Y-66980000D03*
X99700000Y-67780000D03*
X99700000Y-68580000D03*
X99700000Y-69380000D03*
X99700000Y-70180000D03*
X99700000Y-70980000D03*
X99700000Y-71780000D03*
D18*
X101075000Y-73155000D03*
X101875000Y-73155000D03*
X102675000Y-73155000D03*
X103475000Y-73155000D03*
X104275000Y-73155000D03*
X105075000Y-73155000D03*
X105875000Y-73155000D03*
X106675000Y-73155000D03*
D17*
X108050000Y-71780000D03*
X108050000Y-70980000D03*
X108050000Y-70180000D03*
X108050000Y-69380000D03*
X108050000Y-68580000D03*
X108050000Y-67780000D03*
X108050000Y-66980000D03*
X108050000Y-66180000D03*
D18*
X106675000Y-64805000D03*
X105875000Y-64805000D03*
X105075000Y-64805000D03*
X104275000Y-64805000D03*
X103475000Y-64805000D03*
X102675000Y-64805000D03*
X101875000Y-64805000D03*
X101075000Y-64805000D03*
D19*
X110172500Y-97027500D03*
X111307500Y-97027500D03*
D20*
X125930000Y-96950000D03*
D21*
X127455000Y-95475000D03*
X127455000Y-98425000D03*
D22*
X100590000Y-92010000D03*
X100590000Y-92510000D03*
X100590000Y-93010000D03*
X100590000Y-93510000D03*
X100590000Y-94010000D03*
X100590000Y-94510000D03*
D23*
X101277500Y-95197500D03*
X101777500Y-95197500D03*
X102277500Y-95197500D03*
X102777500Y-95197500D03*
X103277500Y-95197500D03*
X103777500Y-95197500D03*
D22*
X104465000Y-94510000D03*
X104465000Y-94010000D03*
X104465000Y-93510000D03*
X104465000Y-93010000D03*
X104465000Y-92510000D03*
X104465000Y-92010000D03*
D23*
X103777500Y-91322500D03*
X103277500Y-91322500D03*
X102777500Y-91322500D03*
X102277500Y-91322500D03*
X101777500Y-91322500D03*
X101277500Y-91322500D03*
D24*
X102527500Y-93260000D03*
D25*
X118530000Y-94657500D03*
X118530000Y-96982500D03*
D26*
X94737500Y-60560000D03*
X96562500Y-60560000D03*
D27*
X105240000Y-77495000D03*
X105240000Y-78445000D03*
X105240000Y-79395000D03*
X107940000Y-79395000D03*
X107940000Y-77495000D03*
D12*
X107577500Y-93800000D03*
X106442500Y-93800000D03*
X107577500Y-92450000D03*
X106442500Y-92450000D03*
D16*
X126337500Y-80700000D03*
X128062500Y-80700000D03*
D28*
X111990000Y-79445000D03*
X110165000Y-79445000D03*
D29*
X109550000Y-81445000D03*
X109550000Y-83195000D03*
D16*
X121377500Y-96990000D03*
X123102500Y-96990000D03*
D13*
X133500000Y-97500000D03*
D16*
X105680000Y-81345000D03*
X107405000Y-81345000D03*
D30*
X88500000Y-82700000D03*
D31*
X88500000Y-77700000D03*
D32*
X117535000Y-58930000D03*
X119585000Y-58930000D03*
D13*
X85500000Y-54500000D03*
D32*
X117507500Y-61220000D03*
X119557500Y-61220000D03*
D11*
X88462500Y-75400000D03*
X86737500Y-75400000D03*
D28*
X96012500Y-77000000D03*
X94187500Y-77000000D03*
D33*
X88500000Y-64920000D03*
X88500000Y-69800000D03*
D34*
X92415000Y-69807500D03*
X92415000Y-71532500D03*
D35*
X96600000Y-98090000D03*
D36*
X97425000Y-98090000D03*
D35*
X98250000Y-98090000D03*
X98250000Y-96640000D03*
D36*
X97425000Y-96640000D03*
D35*
X96600000Y-96640000D03*
D37*
X92380000Y-64930000D03*
X92380000Y-63205000D03*
D11*
X110242500Y-73470000D03*
X108517500Y-73470000D03*
D29*
X95700000Y-81425000D03*
X95700000Y-83175000D03*
D38*
X94900000Y-97757500D03*
X94900000Y-96622500D03*
D39*
X128600000Y-82850000D03*
X126300000Y-82850000D03*
D40*
X126300000Y-89150000D03*
D39*
X124000000Y-82850000D03*
D16*
X113025000Y-67550000D03*
X114750000Y-67550000D03*
D41*
X132460000Y-71430000D03*
X132460000Y-67030000D03*
D42*
X129760000Y-70830000D03*
X129760000Y-70030000D03*
X129760000Y-69230000D03*
X129760000Y-68430000D03*
X129760000Y-67630000D03*
D43*
X129860000Y-73680000D03*
X135310000Y-73680000D03*
X129860000Y-64780000D03*
X135310000Y-64780000D03*
D34*
X114820000Y-62097500D03*
X114820000Y-63822500D03*
D13*
X85500000Y-97500000D03*
D12*
X101137500Y-96660000D03*
X100002500Y-96660000D03*
D29*
X101600000Y-81525000D03*
X101600000Y-83275000D03*
D10*
X124390000Y-55747500D03*
X124390000Y-57572500D03*
D12*
X99070000Y-94035000D03*
X97935000Y-94035000D03*
D44*
X103177500Y-79357500D03*
X103177500Y-77532500D03*
D45*
X124430000Y-72705000D03*
X124430000Y-72055000D03*
X124430000Y-71405000D03*
X124430000Y-70755000D03*
X124430000Y-70105000D03*
X124430000Y-69455000D03*
X124430000Y-68805000D03*
X124430000Y-68155000D03*
X124430000Y-67505000D03*
X124430000Y-66855000D03*
X124430000Y-66205000D03*
X124430000Y-65555000D03*
X124430000Y-64905000D03*
X124430000Y-64255000D03*
X117230000Y-64255000D03*
X117230000Y-64905000D03*
X117230000Y-65555000D03*
X117230000Y-66205000D03*
X117230000Y-66855000D03*
X117230000Y-67505000D03*
X117230000Y-68155000D03*
X117230000Y-68805000D03*
X117230000Y-69455000D03*
X117230000Y-70105000D03*
X117230000Y-70755000D03*
X117230000Y-71405000D03*
X117230000Y-72055000D03*
X117230000Y-72705000D03*
D12*
X107577500Y-95100000D03*
X106442500Y-95100000D03*
D11*
X97800000Y-69915000D03*
X96075000Y-69915000D03*
D46*
X128425000Y-78700000D03*
X126375000Y-78700000D03*
D47*
X102302500Y-96667500D03*
X102302500Y-97802500D03*
D10*
X122410000Y-55757500D03*
X122410000Y-57582500D03*
D16*
X105680000Y-83360000D03*
X107405000Y-83360000D03*
D11*
X118500000Y-92620000D03*
X116775000Y-92620000D03*
D26*
X105645000Y-85220000D03*
X107470000Y-85220000D03*
D14*
X119630000Y-55760000D03*
D15*
X117090000Y-55760000D03*
X114550000Y-55760000D03*
X112010000Y-55760000D03*
D48*
X95650000Y-56050000D03*
X93900000Y-58350000D03*
X92150000Y-56050000D03*
D49*
X112817500Y-96505000D03*
X112817500Y-97005000D03*
X112817500Y-97505000D03*
X112817500Y-98005000D03*
X115392500Y-98005000D03*
X115392500Y-97505000D03*
X115392500Y-97005000D03*
X115392500Y-96505000D03*
D50*
X114105000Y-97255000D03*
D28*
X99612500Y-85300000D03*
X97787500Y-85300000D03*
D47*
X107130000Y-96985000D03*
X107130000Y-98120000D03*
D16*
X122147500Y-80450000D03*
X123872500Y-80450000D03*
D11*
X99462500Y-83300000D03*
X97737500Y-83300000D03*
X97770000Y-71715000D03*
X96045000Y-71715000D03*
D12*
X107517500Y-89700000D03*
X106382500Y-89700000D03*
D26*
X94087500Y-79500000D03*
X95912500Y-79500000D03*
D51*
X99600000Y-76700000D03*
X98650000Y-76700000D03*
X97700000Y-76700000D03*
X97700000Y-79400000D03*
X99600000Y-79400000D03*
D29*
X103677500Y-81470000D03*
X103677500Y-83220000D03*
D11*
X99162500Y-64800000D03*
X97437500Y-64800000D03*
D10*
X125340000Y-59797500D03*
X125340000Y-61622500D03*
M02*
