%TF.GenerationSoftware,KiCad,Pcbnew,8.0.1*%
%TF.CreationDate,2026-03-24T13:35:58+01:00*%
%TF.ProjectId,transmiter,7472616e-736d-4697-9465-722e6b696361,rev?*%
%TF.SameCoordinates,Original*%
%TF.FileFunction,Drillmap*%
%TF.FilePolarity,Positive*%
%FSLAX45Y45*%
G04 Gerber Fmt 4.5, Leading zero omitted, Abs format (unit mm)*
G04 Created by KiCad (PCBNEW 8.0.1) date 2026-03-24 13:35:58*
%MOMM*%
%LPD*%
G01*
G04 APERTURE LIST*
%ADD10C,0.050000*%
%ADD11C,0.200000*%
%ADD12C,0.100000*%
G04 APERTURE END LIST*
D10*
X8200000Y-9800000D02*
X8200000Y-5400000D01*
X13700000Y-9800000D02*
G75*
G02*
X13400000Y-10100000I-300000J0D01*
G01*
X13700000Y-5400000D02*
X13700000Y-9800000D01*
X8500000Y-5100000D02*
X13400000Y-5100000D01*
X13400000Y-5100000D02*
G75*
G02*
X13700000Y-5400000I0J-300000D01*
G01*
X8500000Y-10100000D02*
G75*
G02*
X8200000Y-9800000I0J300000D01*
G01*
X8200000Y-5400000D02*
G75*
G02*
X8500000Y-5100000I300000J0D01*
G01*
X13400000Y-10100000D02*
X8500000Y-10100000D01*
D11*
D12*
X13196000Y-6653000D02*
X13296000Y-6753000D01*
X13296000Y-6653000D02*
X13196000Y-6753000D01*
X13196000Y-7093000D02*
X13296000Y-7193000D01*
X13296000Y-7093000D02*
X13196000Y-7193000D01*
D11*
X8458277Y-10413984D02*
X8458277Y-10213984D01*
X8458277Y-10213984D02*
X8505896Y-10213984D01*
X8505896Y-10213984D02*
X8534467Y-10223508D01*
X8534467Y-10223508D02*
X8553515Y-10242555D01*
X8553515Y-10242555D02*
X8563039Y-10261603D01*
X8563039Y-10261603D02*
X8572563Y-10299698D01*
X8572563Y-10299698D02*
X8572563Y-10328270D01*
X8572563Y-10328270D02*
X8563039Y-10366365D01*
X8563039Y-10366365D02*
X8553515Y-10385412D01*
X8553515Y-10385412D02*
X8534467Y-10404460D01*
X8534467Y-10404460D02*
X8505896Y-10413984D01*
X8505896Y-10413984D02*
X8458277Y-10413984D01*
X8658277Y-10413984D02*
X8658277Y-10280650D01*
X8658277Y-10318746D02*
X8667801Y-10299698D01*
X8667801Y-10299698D02*
X8677324Y-10290174D01*
X8677324Y-10290174D02*
X8696372Y-10280650D01*
X8696372Y-10280650D02*
X8715420Y-10280650D01*
X8782086Y-10413984D02*
X8782086Y-10280650D01*
X8782086Y-10213984D02*
X8772563Y-10223508D01*
X8772563Y-10223508D02*
X8782086Y-10233031D01*
X8782086Y-10233031D02*
X8791610Y-10223508D01*
X8791610Y-10223508D02*
X8782086Y-10213984D01*
X8782086Y-10213984D02*
X8782086Y-10233031D01*
X8905896Y-10413984D02*
X8886848Y-10404460D01*
X8886848Y-10404460D02*
X8877324Y-10385412D01*
X8877324Y-10385412D02*
X8877324Y-10213984D01*
X9010658Y-10413984D02*
X8991610Y-10404460D01*
X8991610Y-10404460D02*
X8982086Y-10385412D01*
X8982086Y-10385412D02*
X8982086Y-10213984D01*
X9239229Y-10413984D02*
X9239229Y-10213984D01*
X9239229Y-10213984D02*
X9305896Y-10356841D01*
X9305896Y-10356841D02*
X9372563Y-10213984D01*
X9372563Y-10213984D02*
X9372563Y-10413984D01*
X9553515Y-10413984D02*
X9553515Y-10309222D01*
X9553515Y-10309222D02*
X9543991Y-10290174D01*
X9543991Y-10290174D02*
X9524944Y-10280650D01*
X9524944Y-10280650D02*
X9486848Y-10280650D01*
X9486848Y-10280650D02*
X9467801Y-10290174D01*
X9553515Y-10404460D02*
X9534467Y-10413984D01*
X9534467Y-10413984D02*
X9486848Y-10413984D01*
X9486848Y-10413984D02*
X9467801Y-10404460D01*
X9467801Y-10404460D02*
X9458277Y-10385412D01*
X9458277Y-10385412D02*
X9458277Y-10366365D01*
X9458277Y-10366365D02*
X9467801Y-10347317D01*
X9467801Y-10347317D02*
X9486848Y-10337793D01*
X9486848Y-10337793D02*
X9534467Y-10337793D01*
X9534467Y-10337793D02*
X9553515Y-10328270D01*
X9648753Y-10280650D02*
X9648753Y-10480650D01*
X9648753Y-10290174D02*
X9667801Y-10280650D01*
X9667801Y-10280650D02*
X9705896Y-10280650D01*
X9705896Y-10280650D02*
X9724944Y-10290174D01*
X9724944Y-10290174D02*
X9734467Y-10299698D01*
X9734467Y-10299698D02*
X9743991Y-10318746D01*
X9743991Y-10318746D02*
X9743991Y-10375889D01*
X9743991Y-10375889D02*
X9734467Y-10394936D01*
X9734467Y-10394936D02*
X9724944Y-10404460D01*
X9724944Y-10404460D02*
X9705896Y-10413984D01*
X9705896Y-10413984D02*
X9667801Y-10413984D01*
X9667801Y-10413984D02*
X9648753Y-10404460D01*
X9829705Y-10394936D02*
X9839229Y-10404460D01*
X9839229Y-10404460D02*
X9829705Y-10413984D01*
X9829705Y-10413984D02*
X9820182Y-10404460D01*
X9820182Y-10404460D02*
X9829705Y-10394936D01*
X9829705Y-10394936D02*
X9829705Y-10413984D01*
X9829705Y-10290174D02*
X9839229Y-10299698D01*
X9839229Y-10299698D02*
X9829705Y-10309222D01*
X9829705Y-10309222D02*
X9820182Y-10299698D01*
X9820182Y-10299698D02*
X9829705Y-10290174D01*
X9829705Y-10290174D02*
X9829705Y-10309222D01*
D12*
X8097500Y-10692500D02*
X8197500Y-10792500D01*
X8197500Y-10692500D02*
X8097500Y-10792500D01*
D11*
X8563039Y-10833984D02*
X8448753Y-10833984D01*
X8505896Y-10833984D02*
X8505896Y-10633984D01*
X8505896Y-10633984D02*
X8486848Y-10662555D01*
X8486848Y-10662555D02*
X8467801Y-10681603D01*
X8467801Y-10681603D02*
X8448753Y-10691127D01*
X8648753Y-10814936D02*
X8658277Y-10824460D01*
X8658277Y-10824460D02*
X8648753Y-10833984D01*
X8648753Y-10833984D02*
X8639229Y-10824460D01*
X8639229Y-10824460D02*
X8648753Y-10814936D01*
X8648753Y-10814936D02*
X8648753Y-10833984D01*
X8782086Y-10633984D02*
X8801134Y-10633984D01*
X8801134Y-10633984D02*
X8820182Y-10643508D01*
X8820182Y-10643508D02*
X8829705Y-10653031D01*
X8829705Y-10653031D02*
X8839229Y-10672079D01*
X8839229Y-10672079D02*
X8848753Y-10710174D01*
X8848753Y-10710174D02*
X8848753Y-10757793D01*
X8848753Y-10757793D02*
X8839229Y-10795889D01*
X8839229Y-10795889D02*
X8829705Y-10814936D01*
X8829705Y-10814936D02*
X8820182Y-10824460D01*
X8820182Y-10824460D02*
X8801134Y-10833984D01*
X8801134Y-10833984D02*
X8782086Y-10833984D01*
X8782086Y-10833984D02*
X8763039Y-10824460D01*
X8763039Y-10824460D02*
X8753515Y-10814936D01*
X8753515Y-10814936D02*
X8743991Y-10795889D01*
X8743991Y-10795889D02*
X8734467Y-10757793D01*
X8734467Y-10757793D02*
X8734467Y-10710174D01*
X8734467Y-10710174D02*
X8743991Y-10672079D01*
X8743991Y-10672079D02*
X8753515Y-10653031D01*
X8753515Y-10653031D02*
X8763039Y-10643508D01*
X8763039Y-10643508D02*
X8782086Y-10633984D01*
X8972563Y-10633984D02*
X8991610Y-10633984D01*
X8991610Y-10633984D02*
X9010658Y-10643508D01*
X9010658Y-10643508D02*
X9020182Y-10653031D01*
X9020182Y-10653031D02*
X9029705Y-10672079D01*
X9029705Y-10672079D02*
X9039229Y-10710174D01*
X9039229Y-10710174D02*
X9039229Y-10757793D01*
X9039229Y-10757793D02*
X9029705Y-10795889D01*
X9029705Y-10795889D02*
X9020182Y-10814936D01*
X9020182Y-10814936D02*
X9010658Y-10824460D01*
X9010658Y-10824460D02*
X8991610Y-10833984D01*
X8991610Y-10833984D02*
X8972563Y-10833984D01*
X8972563Y-10833984D02*
X8953515Y-10824460D01*
X8953515Y-10824460D02*
X8943991Y-10814936D01*
X8943991Y-10814936D02*
X8934467Y-10795889D01*
X8934467Y-10795889D02*
X8924944Y-10757793D01*
X8924944Y-10757793D02*
X8924944Y-10710174D01*
X8924944Y-10710174D02*
X8934467Y-10672079D01*
X8934467Y-10672079D02*
X8943991Y-10653031D01*
X8943991Y-10653031D02*
X8953515Y-10643508D01*
X8953515Y-10643508D02*
X8972563Y-10633984D01*
X9163039Y-10633984D02*
X9182086Y-10633984D01*
X9182086Y-10633984D02*
X9201134Y-10643508D01*
X9201134Y-10643508D02*
X9210658Y-10653031D01*
X9210658Y-10653031D02*
X9220182Y-10672079D01*
X9220182Y-10672079D02*
X9229705Y-10710174D01*
X9229705Y-10710174D02*
X9229705Y-10757793D01*
X9229705Y-10757793D02*
X9220182Y-10795889D01*
X9220182Y-10795889D02*
X9210658Y-10814936D01*
X9210658Y-10814936D02*
X9201134Y-10824460D01*
X9201134Y-10824460D02*
X9182086Y-10833984D01*
X9182086Y-10833984D02*
X9163039Y-10833984D01*
X9163039Y-10833984D02*
X9143991Y-10824460D01*
X9143991Y-10824460D02*
X9134467Y-10814936D01*
X9134467Y-10814936D02*
X9124944Y-10795889D01*
X9124944Y-10795889D02*
X9115420Y-10757793D01*
X9115420Y-10757793D02*
X9115420Y-10710174D01*
X9115420Y-10710174D02*
X9124944Y-10672079D01*
X9124944Y-10672079D02*
X9134467Y-10653031D01*
X9134467Y-10653031D02*
X9143991Y-10643508D01*
X9143991Y-10643508D02*
X9163039Y-10633984D01*
X9315420Y-10833984D02*
X9315420Y-10700650D01*
X9315420Y-10719698D02*
X9324944Y-10710174D01*
X9324944Y-10710174D02*
X9343991Y-10700650D01*
X9343991Y-10700650D02*
X9372563Y-10700650D01*
X9372563Y-10700650D02*
X9391610Y-10710174D01*
X9391610Y-10710174D02*
X9401134Y-10729222D01*
X9401134Y-10729222D02*
X9401134Y-10833984D01*
X9401134Y-10729222D02*
X9410658Y-10710174D01*
X9410658Y-10710174D02*
X9429705Y-10700650D01*
X9429705Y-10700650D02*
X9458277Y-10700650D01*
X9458277Y-10700650D02*
X9477325Y-10710174D01*
X9477325Y-10710174D02*
X9486848Y-10729222D01*
X9486848Y-10729222D02*
X9486848Y-10833984D01*
X9582086Y-10833984D02*
X9582086Y-10700650D01*
X9582086Y-10719698D02*
X9591610Y-10710174D01*
X9591610Y-10710174D02*
X9610658Y-10700650D01*
X9610658Y-10700650D02*
X9639229Y-10700650D01*
X9639229Y-10700650D02*
X9658277Y-10710174D01*
X9658277Y-10710174D02*
X9667801Y-10729222D01*
X9667801Y-10729222D02*
X9667801Y-10833984D01*
X9667801Y-10729222D02*
X9677325Y-10710174D01*
X9677325Y-10710174D02*
X9696372Y-10700650D01*
X9696372Y-10700650D02*
X9724944Y-10700650D01*
X9724944Y-10700650D02*
X9743991Y-10710174D01*
X9743991Y-10710174D02*
X9753515Y-10729222D01*
X9753515Y-10729222D02*
X9753515Y-10833984D01*
X10143991Y-10624460D02*
X9972563Y-10881603D01*
X10401134Y-10633984D02*
X10420182Y-10633984D01*
X10420182Y-10633984D02*
X10439229Y-10643508D01*
X10439229Y-10643508D02*
X10448753Y-10653031D01*
X10448753Y-10653031D02*
X10458277Y-10672079D01*
X10458277Y-10672079D02*
X10467801Y-10710174D01*
X10467801Y-10710174D02*
X10467801Y-10757793D01*
X10467801Y-10757793D02*
X10458277Y-10795889D01*
X10458277Y-10795889D02*
X10448753Y-10814936D01*
X10448753Y-10814936D02*
X10439229Y-10824460D01*
X10439229Y-10824460D02*
X10420182Y-10833984D01*
X10420182Y-10833984D02*
X10401134Y-10833984D01*
X10401134Y-10833984D02*
X10382087Y-10824460D01*
X10382087Y-10824460D02*
X10372563Y-10814936D01*
X10372563Y-10814936D02*
X10363039Y-10795889D01*
X10363039Y-10795889D02*
X10353515Y-10757793D01*
X10353515Y-10757793D02*
X10353515Y-10710174D01*
X10353515Y-10710174D02*
X10363039Y-10672079D01*
X10363039Y-10672079D02*
X10372563Y-10653031D01*
X10372563Y-10653031D02*
X10382087Y-10643508D01*
X10382087Y-10643508D02*
X10401134Y-10633984D01*
X10553515Y-10814936D02*
X10563039Y-10824460D01*
X10563039Y-10824460D02*
X10553515Y-10833984D01*
X10553515Y-10833984D02*
X10543991Y-10824460D01*
X10543991Y-10824460D02*
X10553515Y-10814936D01*
X10553515Y-10814936D02*
X10553515Y-10833984D01*
X10686848Y-10633984D02*
X10705896Y-10633984D01*
X10705896Y-10633984D02*
X10724944Y-10643508D01*
X10724944Y-10643508D02*
X10734468Y-10653031D01*
X10734468Y-10653031D02*
X10743991Y-10672079D01*
X10743991Y-10672079D02*
X10753515Y-10710174D01*
X10753515Y-10710174D02*
X10753515Y-10757793D01*
X10753515Y-10757793D02*
X10743991Y-10795889D01*
X10743991Y-10795889D02*
X10734468Y-10814936D01*
X10734468Y-10814936D02*
X10724944Y-10824460D01*
X10724944Y-10824460D02*
X10705896Y-10833984D01*
X10705896Y-10833984D02*
X10686848Y-10833984D01*
X10686848Y-10833984D02*
X10667801Y-10824460D01*
X10667801Y-10824460D02*
X10658277Y-10814936D01*
X10658277Y-10814936D02*
X10648753Y-10795889D01*
X10648753Y-10795889D02*
X10639229Y-10757793D01*
X10639229Y-10757793D02*
X10639229Y-10710174D01*
X10639229Y-10710174D02*
X10648753Y-10672079D01*
X10648753Y-10672079D02*
X10658277Y-10653031D01*
X10658277Y-10653031D02*
X10667801Y-10643508D01*
X10667801Y-10643508D02*
X10686848Y-10633984D01*
X10820182Y-10633984D02*
X10943991Y-10633984D01*
X10943991Y-10633984D02*
X10877325Y-10710174D01*
X10877325Y-10710174D02*
X10905896Y-10710174D01*
X10905896Y-10710174D02*
X10924944Y-10719698D01*
X10924944Y-10719698D02*
X10934468Y-10729222D01*
X10934468Y-10729222D02*
X10943991Y-10748270D01*
X10943991Y-10748270D02*
X10943991Y-10795889D01*
X10943991Y-10795889D02*
X10934468Y-10814936D01*
X10934468Y-10814936D02*
X10924944Y-10824460D01*
X10924944Y-10824460D02*
X10905896Y-10833984D01*
X10905896Y-10833984D02*
X10848753Y-10833984D01*
X10848753Y-10833984D02*
X10829706Y-10824460D01*
X10829706Y-10824460D02*
X10820182Y-10814936D01*
X11039229Y-10833984D02*
X11077325Y-10833984D01*
X11077325Y-10833984D02*
X11096372Y-10824460D01*
X11096372Y-10824460D02*
X11105896Y-10814936D01*
X11105896Y-10814936D02*
X11124944Y-10786365D01*
X11124944Y-10786365D02*
X11134468Y-10748270D01*
X11134468Y-10748270D02*
X11134468Y-10672079D01*
X11134468Y-10672079D02*
X11124944Y-10653031D01*
X11124944Y-10653031D02*
X11115420Y-10643508D01*
X11115420Y-10643508D02*
X11096372Y-10633984D01*
X11096372Y-10633984D02*
X11058277Y-10633984D01*
X11058277Y-10633984D02*
X11039229Y-10643508D01*
X11039229Y-10643508D02*
X11029706Y-10653031D01*
X11029706Y-10653031D02*
X11020182Y-10672079D01*
X11020182Y-10672079D02*
X11020182Y-10719698D01*
X11020182Y-10719698D02*
X11029706Y-10738746D01*
X11029706Y-10738746D02*
X11039229Y-10748270D01*
X11039229Y-10748270D02*
X11058277Y-10757793D01*
X11058277Y-10757793D02*
X11096372Y-10757793D01*
X11096372Y-10757793D02*
X11115420Y-10748270D01*
X11115420Y-10748270D02*
X11124944Y-10738746D01*
X11124944Y-10738746D02*
X11134468Y-10719698D01*
X11305896Y-10700650D02*
X11305896Y-10833984D01*
X11258277Y-10624460D02*
X11210658Y-10767317D01*
X11210658Y-10767317D02*
X11334467Y-10767317D01*
X11401134Y-10633984D02*
X11401134Y-10672079D01*
X11477325Y-10633984D02*
X11477325Y-10672079D01*
X11772563Y-10910174D02*
X11763039Y-10900650D01*
X11763039Y-10900650D02*
X11743991Y-10872079D01*
X11743991Y-10872079D02*
X11734468Y-10853031D01*
X11734468Y-10853031D02*
X11724944Y-10824460D01*
X11724944Y-10824460D02*
X11715420Y-10776841D01*
X11715420Y-10776841D02*
X11715420Y-10738746D01*
X11715420Y-10738746D02*
X11724944Y-10691127D01*
X11724944Y-10691127D02*
X11734468Y-10662555D01*
X11734468Y-10662555D02*
X11743991Y-10643508D01*
X11743991Y-10643508D02*
X11763039Y-10614936D01*
X11763039Y-10614936D02*
X11772563Y-10605412D01*
X11839229Y-10653031D02*
X11848753Y-10643508D01*
X11848753Y-10643508D02*
X11867801Y-10633984D01*
X11867801Y-10633984D02*
X11915420Y-10633984D01*
X11915420Y-10633984D02*
X11934468Y-10643508D01*
X11934468Y-10643508D02*
X11943991Y-10653031D01*
X11943991Y-10653031D02*
X11953515Y-10672079D01*
X11953515Y-10672079D02*
X11953515Y-10691127D01*
X11953515Y-10691127D02*
X11943991Y-10719698D01*
X11943991Y-10719698D02*
X11829706Y-10833984D01*
X11829706Y-10833984D02*
X11953515Y-10833984D01*
X12191610Y-10833984D02*
X12191610Y-10633984D01*
X12277325Y-10833984D02*
X12277325Y-10729222D01*
X12277325Y-10729222D02*
X12267801Y-10710174D01*
X12267801Y-10710174D02*
X12248753Y-10700650D01*
X12248753Y-10700650D02*
X12220182Y-10700650D01*
X12220182Y-10700650D02*
X12201134Y-10710174D01*
X12201134Y-10710174D02*
X12191610Y-10719698D01*
X12401134Y-10833984D02*
X12382087Y-10824460D01*
X12382087Y-10824460D02*
X12372563Y-10814936D01*
X12372563Y-10814936D02*
X12363039Y-10795889D01*
X12363039Y-10795889D02*
X12363039Y-10738746D01*
X12363039Y-10738746D02*
X12372563Y-10719698D01*
X12372563Y-10719698D02*
X12382087Y-10710174D01*
X12382087Y-10710174D02*
X12401134Y-10700650D01*
X12401134Y-10700650D02*
X12429706Y-10700650D01*
X12429706Y-10700650D02*
X12448753Y-10710174D01*
X12448753Y-10710174D02*
X12458277Y-10719698D01*
X12458277Y-10719698D02*
X12467801Y-10738746D01*
X12467801Y-10738746D02*
X12467801Y-10795889D01*
X12467801Y-10795889D02*
X12458277Y-10814936D01*
X12458277Y-10814936D02*
X12448753Y-10824460D01*
X12448753Y-10824460D02*
X12429706Y-10833984D01*
X12429706Y-10833984D02*
X12401134Y-10833984D01*
X12582087Y-10833984D02*
X12563039Y-10824460D01*
X12563039Y-10824460D02*
X12553515Y-10805412D01*
X12553515Y-10805412D02*
X12553515Y-10633984D01*
X12734468Y-10824460D02*
X12715420Y-10833984D01*
X12715420Y-10833984D02*
X12677325Y-10833984D01*
X12677325Y-10833984D02*
X12658277Y-10824460D01*
X12658277Y-10824460D02*
X12648753Y-10805412D01*
X12648753Y-10805412D02*
X12648753Y-10729222D01*
X12648753Y-10729222D02*
X12658277Y-10710174D01*
X12658277Y-10710174D02*
X12677325Y-10700650D01*
X12677325Y-10700650D02*
X12715420Y-10700650D01*
X12715420Y-10700650D02*
X12734468Y-10710174D01*
X12734468Y-10710174D02*
X12743991Y-10729222D01*
X12743991Y-10729222D02*
X12743991Y-10748270D01*
X12743991Y-10748270D02*
X12648753Y-10767317D01*
X12820182Y-10824460D02*
X12839230Y-10833984D01*
X12839230Y-10833984D02*
X12877325Y-10833984D01*
X12877325Y-10833984D02*
X12896372Y-10824460D01*
X12896372Y-10824460D02*
X12905896Y-10805412D01*
X12905896Y-10805412D02*
X12905896Y-10795889D01*
X12905896Y-10795889D02*
X12896372Y-10776841D01*
X12896372Y-10776841D02*
X12877325Y-10767317D01*
X12877325Y-10767317D02*
X12848753Y-10767317D01*
X12848753Y-10767317D02*
X12829706Y-10757793D01*
X12829706Y-10757793D02*
X12820182Y-10738746D01*
X12820182Y-10738746D02*
X12820182Y-10729222D01*
X12820182Y-10729222D02*
X12829706Y-10710174D01*
X12829706Y-10710174D02*
X12848753Y-10700650D01*
X12848753Y-10700650D02*
X12877325Y-10700650D01*
X12877325Y-10700650D02*
X12896372Y-10710174D01*
X12972563Y-10910174D02*
X12982087Y-10900650D01*
X12982087Y-10900650D02*
X13001134Y-10872079D01*
X13001134Y-10872079D02*
X13010658Y-10853031D01*
X13010658Y-10853031D02*
X13020182Y-10824460D01*
X13020182Y-10824460D02*
X13029706Y-10776841D01*
X13029706Y-10776841D02*
X13029706Y-10738746D01*
X13029706Y-10738746D02*
X13020182Y-10691127D01*
X13020182Y-10691127D02*
X13010658Y-10662555D01*
X13010658Y-10662555D02*
X13001134Y-10643508D01*
X13001134Y-10643508D02*
X12982087Y-10614936D01*
X12982087Y-10614936D02*
X12972563Y-10605412D01*
X13334468Y-10910174D02*
X13324944Y-10900650D01*
X13324944Y-10900650D02*
X13305896Y-10872079D01*
X13305896Y-10872079D02*
X13296372Y-10853031D01*
X13296372Y-10853031D02*
X13286849Y-10824460D01*
X13286849Y-10824460D02*
X13277325Y-10776841D01*
X13277325Y-10776841D02*
X13277325Y-10738746D01*
X13277325Y-10738746D02*
X13286849Y-10691127D01*
X13286849Y-10691127D02*
X13296372Y-10662555D01*
X13296372Y-10662555D02*
X13305896Y-10643508D01*
X13305896Y-10643508D02*
X13324944Y-10614936D01*
X13324944Y-10614936D02*
X13334468Y-10605412D01*
X13410658Y-10700650D02*
X13410658Y-10833984D01*
X13410658Y-10719698D02*
X13420182Y-10710174D01*
X13420182Y-10710174D02*
X13439230Y-10700650D01*
X13439230Y-10700650D02*
X13467801Y-10700650D01*
X13467801Y-10700650D02*
X13486849Y-10710174D01*
X13486849Y-10710174D02*
X13496372Y-10729222D01*
X13496372Y-10729222D02*
X13496372Y-10833984D01*
X13620182Y-10833984D02*
X13601134Y-10824460D01*
X13601134Y-10824460D02*
X13591611Y-10814936D01*
X13591611Y-10814936D02*
X13582087Y-10795889D01*
X13582087Y-10795889D02*
X13582087Y-10738746D01*
X13582087Y-10738746D02*
X13591611Y-10719698D01*
X13591611Y-10719698D02*
X13601134Y-10710174D01*
X13601134Y-10710174D02*
X13620182Y-10700650D01*
X13620182Y-10700650D02*
X13648753Y-10700650D01*
X13648753Y-10700650D02*
X13667801Y-10710174D01*
X13667801Y-10710174D02*
X13677325Y-10719698D01*
X13677325Y-10719698D02*
X13686849Y-10738746D01*
X13686849Y-10738746D02*
X13686849Y-10795889D01*
X13686849Y-10795889D02*
X13677325Y-10814936D01*
X13677325Y-10814936D02*
X13667801Y-10824460D01*
X13667801Y-10824460D02*
X13648753Y-10833984D01*
X13648753Y-10833984D02*
X13620182Y-10833984D01*
X13743992Y-10700650D02*
X13820182Y-10700650D01*
X13772563Y-10633984D02*
X13772563Y-10805412D01*
X13772563Y-10805412D02*
X13782087Y-10824460D01*
X13782087Y-10824460D02*
X13801134Y-10833984D01*
X13801134Y-10833984D02*
X13820182Y-10833984D01*
X14039230Y-10700650D02*
X14039230Y-10900650D01*
X14039230Y-10710174D02*
X14058277Y-10700650D01*
X14058277Y-10700650D02*
X14096373Y-10700650D01*
X14096373Y-10700650D02*
X14115420Y-10710174D01*
X14115420Y-10710174D02*
X14124944Y-10719698D01*
X14124944Y-10719698D02*
X14134468Y-10738746D01*
X14134468Y-10738746D02*
X14134468Y-10795889D01*
X14134468Y-10795889D02*
X14124944Y-10814936D01*
X14124944Y-10814936D02*
X14115420Y-10824460D01*
X14115420Y-10824460D02*
X14096373Y-10833984D01*
X14096373Y-10833984D02*
X14058277Y-10833984D01*
X14058277Y-10833984D02*
X14039230Y-10824460D01*
X14248753Y-10833984D02*
X14229706Y-10824460D01*
X14229706Y-10824460D02*
X14220182Y-10805412D01*
X14220182Y-10805412D02*
X14220182Y-10633984D01*
X14410658Y-10833984D02*
X14410658Y-10729222D01*
X14410658Y-10729222D02*
X14401134Y-10710174D01*
X14401134Y-10710174D02*
X14382087Y-10700650D01*
X14382087Y-10700650D02*
X14343992Y-10700650D01*
X14343992Y-10700650D02*
X14324944Y-10710174D01*
X14410658Y-10824460D02*
X14391611Y-10833984D01*
X14391611Y-10833984D02*
X14343992Y-10833984D01*
X14343992Y-10833984D02*
X14324944Y-10824460D01*
X14324944Y-10824460D02*
X14315420Y-10805412D01*
X14315420Y-10805412D02*
X14315420Y-10786365D01*
X14315420Y-10786365D02*
X14324944Y-10767317D01*
X14324944Y-10767317D02*
X14343992Y-10757793D01*
X14343992Y-10757793D02*
X14391611Y-10757793D01*
X14391611Y-10757793D02*
X14410658Y-10748270D01*
X14477325Y-10700650D02*
X14553515Y-10700650D01*
X14505896Y-10633984D02*
X14505896Y-10805412D01*
X14505896Y-10805412D02*
X14515420Y-10824460D01*
X14515420Y-10824460D02*
X14534468Y-10833984D01*
X14534468Y-10833984D02*
X14553515Y-10833984D01*
X14696373Y-10824460D02*
X14677325Y-10833984D01*
X14677325Y-10833984D02*
X14639230Y-10833984D01*
X14639230Y-10833984D02*
X14620182Y-10824460D01*
X14620182Y-10824460D02*
X14610658Y-10805412D01*
X14610658Y-10805412D02*
X14610658Y-10729222D01*
X14610658Y-10729222D02*
X14620182Y-10710174D01*
X14620182Y-10710174D02*
X14639230Y-10700650D01*
X14639230Y-10700650D02*
X14677325Y-10700650D01*
X14677325Y-10700650D02*
X14696373Y-10710174D01*
X14696373Y-10710174D02*
X14705896Y-10729222D01*
X14705896Y-10729222D02*
X14705896Y-10748270D01*
X14705896Y-10748270D02*
X14610658Y-10767317D01*
X14877325Y-10833984D02*
X14877325Y-10633984D01*
X14877325Y-10824460D02*
X14858277Y-10833984D01*
X14858277Y-10833984D02*
X14820182Y-10833984D01*
X14820182Y-10833984D02*
X14801134Y-10824460D01*
X14801134Y-10824460D02*
X14791611Y-10814936D01*
X14791611Y-10814936D02*
X14782087Y-10795889D01*
X14782087Y-10795889D02*
X14782087Y-10738746D01*
X14782087Y-10738746D02*
X14791611Y-10719698D01*
X14791611Y-10719698D02*
X14801134Y-10710174D01*
X14801134Y-10710174D02*
X14820182Y-10700650D01*
X14820182Y-10700650D02*
X14858277Y-10700650D01*
X14858277Y-10700650D02*
X14877325Y-10710174D01*
X14953515Y-10910174D02*
X14963039Y-10900650D01*
X14963039Y-10900650D02*
X14982087Y-10872079D01*
X14982087Y-10872079D02*
X14991611Y-10853031D01*
X14991611Y-10853031D02*
X15001134Y-10824460D01*
X15001134Y-10824460D02*
X15010658Y-10776841D01*
X15010658Y-10776841D02*
X15010658Y-10738746D01*
X15010658Y-10738746D02*
X15001134Y-10691127D01*
X15001134Y-10691127D02*
X14991611Y-10662555D01*
X14991611Y-10662555D02*
X14982087Y-10643508D01*
X14982087Y-10643508D02*
X14963039Y-10614936D01*
X14963039Y-10614936D02*
X14953515Y-10605412D01*
M02*
