M48
; DRILL file {KiCad 8.0.1} date 2026-03-29T21:54:42+0200
; FORMAT={-:-/ absolute / metric / decimal}
; #@! TF.CreationDate,2026-03-29T21:54:42+02:00
; #@! TF.GenerationSoftware,Kicad,Pcbnew,8.0.1
; #@! TF.FileFunction,Plated,1,2,PTH
FMAT,2
METRIC
; #@! TA.AperFunction,Plated,PTH,ViaDrill
T1C0.300
; #@! TA.AperFunction,Plated,PTH,ComponentDrill
T2C0.800
; #@! TA.AperFunction,Plated,PTH,ComponentDrill
T3C1.000
; #@! TA.AperFunction,Plated,PTH,ComponentDrill
T4C2.200
%
G90
G05
T1
X91.203Y-78.19
X91.312Y-75.67
X93.6Y-88.3
X94.9Y-99.5
X95.0Y-103.0
X95.4Y-90.2
X95.703Y-75.13
X96.04Y-72.85
X97.7Y-74.3
X97.9Y-91.495
X98.446Y-92.701
X98.53Y-91.115
X99.3Y-75.1
X99.4Y-94.8
X100.8Y-78.7
X101.01Y-66.51
X101.08Y-63.29
X101.5Y-87.4
X101.567Y-92.675
X103.19Y-95.705
X103.21Y-76.06
X103.4Y-103.6
X105.272Y-89.582
X107.39Y-74.65
X108.4Y-91.1
X108.5Y-93.7
X108.9Y-100.3
X109.56Y-59.94
X109.71Y-63.48
X109.8Y-88.6
X109.9Y-69.38
X110.38Y-70.18
X113.7Y-82.7
X113.775Y-100.3
X114.405Y-69.105
X115.38Y-68.76
X115.4Y-70.75
X115.5Y-59.84
X115.77Y-71.405
X116.2Y-61.36
X117.2Y-81.0
X117.3Y-98.4
X118.6Y-77.0
X118.82Y-68.23
X118.825Y-66.205
X120.2Y-86.1
X120.9Y-98.4
X122.91Y-68.82
X123.0Y-77.1
X123.057Y-78.7
X123.9Y-97.0
X124.0Y-92.6
X124.767Y-78.7
X128.45Y-61.03
X128.8Y-92.7
X128.9Y-97.0
X129.38Y-58.25
X132.13Y-60.32
T2
X88.5Y-64.92
X88.5Y-69.8
T3
X86.2Y-78.5
X86.2Y-83.5
X100.05Y-55.83
X102.59Y-55.83
X105.13Y-55.83
X107.67Y-55.83
X112.01Y-55.76
X114.55Y-55.76
X117.09Y-55.76
X119.63Y-55.76
T4
X85.5Y-54.5
X85.5Y-104.5
X133.5Y-54.5
X133.5Y-104.5
M30
