M48
; DRILL file {KiCad 8.0.1} date 2026-03-24T13:35:59+0100
; FORMAT={-:-/ absolute / metric / decimal}
; #@! TF.CreationDate,2026-03-24T13:35:59+01:00
; #@! TF.GenerationSoftware,Kicad,Pcbnew,8.0.1
; #@! TF.FileFunction,Plated,1,2,PTH
FMAT,2
METRIC
; #@! TA.AperFunction,Plated,PTH,ViaDrill
T1C0.300
; #@! TA.AperFunction,Plated,PTH,ComponentDrill
T2C0.800
; #@! TA.AperFunction,Plated,PTH,ComponentDrill
T3C1.000
; #@! TA.AperFunction,Plated,PTH,ComponentDrill
T4C2.200
%
G90
G05
T1
X94.09Y-78.34
X94.2Y-75.82
X96.0Y-94.4
X96.04Y-72.85
X96.31Y-87.86
X98.17Y-90.21
X98.59Y-75.28
X98.86Y-92.08
X99.29Y-87.3
X99.39Y-98.09
X99.406Y-93.286
X99.49Y-91.7
X100.37Y-95.35
X100.48Y-88.57
X101.08Y-63.29
X102.527Y-93.26
X102.53Y-86.36
X102.55Y-89.48
X103.21Y-76.06
X103.26Y-96.46
X104.15Y-96.29
X104.2Y-88.75
X105.78Y-87.18
X107.0Y-88.73
X107.39Y-74.65
X108.88Y-98.86
X109.41Y-95.56
X109.56Y-59.94
X109.71Y-63.48
X109.9Y-69.38
X110.38Y-70.18
X111.05Y-98.89
X111.27Y-95.32
X111.42Y-87.7
X113.41Y-82.0
X113.7Y-85.75
X113.83Y-76.27
X114.105Y-97.255
X114.405Y-69.105
X115.38Y-68.76
X115.4Y-70.75
X115.5Y-59.84
X115.77Y-71.405
X116.2Y-61.36
X116.59Y-85.75
X117.7Y-81.5
X118.6Y-77.0
X118.82Y-68.23
X118.825Y-66.205
X121.74Y-99.13
X121.8Y-93.45
X122.91Y-68.82
X123.0Y-77.1
X123.057Y-78.7
X123.82Y-94.66
X124.51Y-98.8
X124.767Y-78.7
X126.3Y-92.6
X128.45Y-61.03
X129.07Y-92.67
X129.38Y-58.25
X132.13Y-60.32
T2
X88.5Y-64.92
X88.5Y-69.8
T3
X88.5Y-77.7
X88.5Y-82.7
X100.05Y-55.83
X102.59Y-55.83
X105.13Y-55.83
X107.67Y-55.83
X112.01Y-55.76
X114.55Y-55.76
X117.09Y-55.76
X119.63Y-55.76
T4
X85.5Y-54.5
X85.5Y-97.5
X133.5Y-54.5
X133.5Y-97.5
M30
