%TF.GenerationSoftware,KiCad,Pcbnew,8.0.1*%
%TF.CreationDate,2026-03-29T21:59:56+02:00*%
%TF.ProjectId,receiver,72656365-6976-4657-922e-6b696361645f,rev?*%
%TF.SameCoordinates,Original*%
%TF.FileFunction,Drillmap*%
%TF.FilePolarity,Positive*%
%FSLAX45Y45*%
G04 Gerber Fmt 4.5, Leading zero omitted, Abs format (unit mm)*
G04 Created by KiCad (PCBNEW 8.0.1) date 2026-03-29 21:59:56*
%MOMM*%
%LPD*%
G01*
G04 APERTURE LIST*
%ADD10C,0.050000*%
%ADD11C,0.200000*%
%ADD12C,0.100000*%
%ADD13C,0.220000*%
G04 APERTURE END LIST*
D10*
X13400000Y-7000132D02*
G75*
G02*
X13699998Y-7300132I0J-299998D01*
G01*
X13699825Y-12299868D02*
G75*
G02*
X13399825Y-12599865I-299996J-2D01*
G01*
X13400000Y-7000132D02*
X8500000Y-7000000D01*
X8500175Y-12599868D02*
X13399825Y-12599868D01*
X8500175Y-12599868D02*
G75*
G02*
X8200172Y-12299868I-5J299998D01*
G01*
X13699825Y-12299868D02*
X13700000Y-7300132D01*
X8200000Y-7300000D02*
G75*
G02*
X8500000Y-7000000I300000J0D01*
G01*
X8200000Y-7300000D02*
X8200174Y-12299868D01*
D11*
D12*
X8446000Y-10776000D02*
X8476000Y-10806000D01*
X8476000Y-10776000D02*
X8446000Y-10806000D01*
X8561000Y-11612000D02*
X8591000Y-11642000D01*
X8591000Y-11612000D02*
X8561000Y-11642000D01*
X8981000Y-10231000D02*
X9011000Y-10261000D01*
X9011000Y-10231000D02*
X8981000Y-10261000D01*
X8987000Y-9972000D02*
X9017000Y-10002000D01*
X9017000Y-9972000D02*
X8987000Y-10002000D01*
X9117000Y-11956000D02*
X9147000Y-11986000D01*
X9147000Y-11956000D02*
X9117000Y-11986000D01*
X9166000Y-9340000D02*
X9196000Y-9370000D01*
X9196000Y-9340000D02*
X9166000Y-9370000D01*
X9343000Y-11239000D02*
X9373000Y-11269000D01*
X9373000Y-11239000D02*
X9343000Y-11269000D01*
X9451000Y-9070500D02*
X9481000Y-9100500D01*
X9481000Y-9070500D02*
X9451000Y-9100500D01*
X9458000Y-12182000D02*
X9488000Y-12212000D01*
X9488000Y-12182000D02*
X9458000Y-12212000D01*
X9480000Y-10125000D02*
X9510000Y-10155000D01*
X9510000Y-10125000D02*
X9480000Y-10155000D01*
X9491000Y-9892000D02*
X9521000Y-9922000D01*
X9521000Y-9892000D02*
X9491000Y-9922000D01*
X9617000Y-10512750D02*
X9647000Y-10542750D01*
X9647000Y-10512750D02*
X9617000Y-10542750D01*
X9626000Y-10819750D02*
X9656000Y-10849750D01*
X9656000Y-10819750D02*
X9626000Y-10849750D01*
X9673000Y-11418000D02*
X9703000Y-11448000D01*
X9703000Y-11418000D02*
X9673000Y-11448000D01*
X9692000Y-11163750D02*
X9722000Y-11193750D01*
X9722000Y-11163750D02*
X9692000Y-11193750D01*
X9874000Y-9618500D02*
X9904000Y-9648500D01*
X9904000Y-9618500D02*
X9874000Y-9648500D01*
X9882000Y-10101000D02*
X9912000Y-10131000D01*
X9912000Y-10101000D02*
X9882000Y-10131000D01*
X9916500Y-10652250D02*
X9946500Y-10682250D01*
X9946500Y-10652250D02*
X9916500Y-10682250D01*
X9956000Y-11779750D02*
X9986000Y-11809750D01*
X9986000Y-11779750D02*
X9956000Y-11809750D01*
X10132000Y-12015250D02*
X10162000Y-12045250D01*
X10162000Y-12015250D02*
X10132000Y-12045250D01*
X10195000Y-10619750D02*
X10225000Y-10649750D01*
X10225000Y-10619750D02*
X10195000Y-10649750D01*
X10198000Y-10791750D02*
X10228000Y-10821750D01*
X10228000Y-10791750D02*
X10198000Y-10821750D01*
X10232000Y-11845250D02*
X10262000Y-11875250D01*
X10262000Y-11845250D02*
X10232000Y-11875250D01*
X10242000Y-11665250D02*
X10272000Y-11695250D01*
X10272000Y-11665250D02*
X10242000Y-11695250D01*
X10258000Y-9890000D02*
X10288000Y-9920000D01*
X10288000Y-9890000D02*
X10258000Y-9920000D01*
X10258000Y-10134000D02*
X10288000Y-10164000D01*
X10288000Y-10134000D02*
X10258000Y-10164000D01*
X10280000Y-10753750D02*
X10310000Y-10783750D01*
X10310000Y-10753750D02*
X10280000Y-10783750D01*
X10283750Y-10619750D02*
X10313750Y-10649750D01*
X10313750Y-10619750D02*
X10283750Y-10649750D01*
X10425000Y-7765000D02*
X10455000Y-7795000D01*
X10455000Y-7765000D02*
X10425000Y-7795000D01*
X10507750Y-9332250D02*
X10537750Y-9362250D01*
X10537750Y-9332250D02*
X10507750Y-9362250D01*
X10599000Y-10987000D02*
X10629000Y-11017000D01*
X10629000Y-10987000D02*
X10599000Y-11017000D01*
X10614038Y-7935962D02*
X10644038Y-7965962D01*
X10644038Y-7935962D02*
X10614038Y-7965962D01*
X10898000Y-9634000D02*
X10928000Y-9664000D01*
X10928000Y-9634000D02*
X10898000Y-9664000D01*
X10909000Y-8765500D02*
X10939000Y-8795500D01*
X10939000Y-8765500D02*
X10909000Y-8795500D01*
X10954000Y-8929500D02*
X10984000Y-8959500D01*
X10984000Y-8929500D02*
X10954000Y-8959500D01*
X11095000Y-9207500D02*
X11125000Y-9237500D01*
X11125000Y-9207500D02*
X11095000Y-9237500D01*
X11216000Y-10241000D02*
X11246000Y-10271000D01*
X11246000Y-10241000D02*
X11216000Y-10271000D01*
X11252000Y-11425250D02*
X11282000Y-11455250D01*
X11282000Y-11425250D02*
X11252000Y-11455250D01*
X11269000Y-11027000D02*
X11299000Y-11057000D01*
X11299000Y-11027000D02*
X11269000Y-11057000D01*
X11278000Y-8768500D02*
X11308000Y-8798500D01*
X11308000Y-8768500D02*
X11278000Y-8798500D01*
X11282000Y-11875250D02*
X11312000Y-11905250D01*
X11312000Y-11875250D02*
X11282000Y-11905250D01*
X11323000Y-9437500D02*
X11353000Y-9467500D01*
X11353000Y-9437500D02*
X11323000Y-9467500D01*
X11354000Y-10644000D02*
X11384000Y-10674000D01*
X11384000Y-10644000D02*
X11354000Y-10674000D01*
X11380000Y-8914500D02*
X11410000Y-8944500D01*
X11410000Y-8914500D02*
X11380000Y-8944500D01*
X11384500Y-8727000D02*
X11414500Y-8757000D01*
X11414500Y-8727000D02*
X11384500Y-8757000D01*
X11443000Y-9905000D02*
X11473000Y-9935000D01*
X11473000Y-9905000D02*
X11443000Y-9935000D01*
X11445000Y-7785000D02*
X11475000Y-7815000D01*
X11475000Y-7785000D02*
X11445000Y-7815000D01*
X11509000Y-7972500D02*
X11539000Y-8002500D01*
X11539000Y-7972500D02*
X11509000Y-8002500D01*
X11703000Y-8684500D02*
X11733000Y-8714500D01*
X11733000Y-8684500D02*
X11703000Y-8714500D01*
X11717000Y-8446500D02*
X11747000Y-8476500D01*
X11747000Y-8446500D02*
X11717000Y-8476500D01*
X11761000Y-11815000D02*
X11791000Y-11845000D01*
X11791000Y-11815000D02*
X11761000Y-11845000D01*
X11873000Y-11428000D02*
X11903000Y-11458000D01*
X11903000Y-11428000D02*
X11873000Y-11458000D01*
X11886000Y-10994000D02*
X11916000Y-11024000D01*
X11916000Y-10994000D02*
X11886000Y-11024000D01*
X12075000Y-9870000D02*
X12105000Y-9900000D01*
X12105000Y-9870000D02*
X12075000Y-9900000D01*
X12261000Y-7222500D02*
X12291000Y-7252500D01*
X12291000Y-7222500D02*
X12261000Y-7252500D01*
X12438750Y-8731250D02*
X12468750Y-8761250D01*
X12468750Y-8731250D02*
X12438750Y-8761250D01*
X12525000Y-9568500D02*
X12555000Y-9598500D01*
X12555000Y-9568500D02*
X12525000Y-9598500D01*
X12575000Y-11375000D02*
X12605000Y-11405000D01*
X12605000Y-11375000D02*
X12575000Y-11405000D01*
X12706000Y-7685500D02*
X12736000Y-7715500D01*
X12736000Y-7685500D02*
X12706000Y-7715500D01*
X12715000Y-9568500D02*
X12745000Y-9598500D01*
X12745000Y-9568500D02*
X12715000Y-9598500D01*
X12773000Y-7217500D02*
X12803000Y-7247500D01*
X12803000Y-7217500D02*
X12773000Y-7247500D01*
X12909000Y-7841500D02*
X12939000Y-7871500D01*
X12939000Y-7841500D02*
X12909000Y-7871500D01*
X13025000Y-11385000D02*
X13055000Y-11415000D01*
X13055000Y-11385000D02*
X13025000Y-11415000D01*
X8677000Y-8284500D02*
G75*
G02*
X8597000Y-8284500I-40000J0D01*
G01*
X8597000Y-8284500D02*
G75*
G02*
X8677000Y-8284500I40000J0D01*
G01*
X8677000Y-8772500D02*
G75*
G02*
X8597000Y-8772500I-40000J0D01*
G01*
X8597000Y-8772500D02*
G75*
G02*
X8677000Y-8772500I40000J0D01*
G01*
X8588000Y-9538500D02*
X8588000Y-9638500D01*
X8538000Y-9588500D02*
X8638000Y-9588500D01*
X8588000Y-10038500D02*
X8588000Y-10138500D01*
X8538000Y-10088500D02*
X8638000Y-10088500D01*
X9789000Y-7337500D02*
X9789000Y-7437500D01*
X9739000Y-7387500D02*
X9839000Y-7387500D01*
X10043000Y-7337500D02*
X10043000Y-7437500D01*
X9993000Y-7387500D02*
X10093000Y-7387500D01*
X10297000Y-7337500D02*
X10297000Y-7437500D01*
X10247000Y-7387500D02*
X10347000Y-7387500D01*
X10551000Y-7337500D02*
X10551000Y-7437500D01*
X10501000Y-7387500D02*
X10601000Y-7387500D01*
X10989000Y-7328500D02*
X10989000Y-7428500D01*
X10939000Y-7378500D02*
X11039000Y-7378500D01*
X11243000Y-7328500D02*
X11243000Y-7428500D01*
X11193000Y-7378500D02*
X11293000Y-7378500D01*
X11497000Y-7328500D02*
X11497000Y-7428500D01*
X11447000Y-7378500D02*
X11547000Y-7378500D01*
X11751000Y-7328500D02*
X11751000Y-7428500D01*
X11701000Y-7378500D02*
X11801000Y-7378500D01*
D13*
X8627783Y-7427782D02*
X8627783Y-7272217D01*
X8472218Y-7272217D01*
X8472218Y-7427782D01*
X8627783Y-7427782D01*
X8627783Y-12327782D02*
X8627783Y-12172217D01*
X8472218Y-12172217D01*
X8472218Y-12327782D01*
X8627783Y-12327782D01*
X13427782Y-7427782D02*
X13427782Y-7272217D01*
X13272217Y-7272217D01*
X13272217Y-7427782D01*
X13427782Y-7427782D01*
X13427782Y-12327782D02*
X13427782Y-12172217D01*
X13272217Y-12172217D01*
X13272217Y-12327782D01*
X13427782Y-12327782D01*
D11*
X8458277Y-12913852D02*
X8458277Y-12713852D01*
X8458277Y-12713852D02*
X8505896Y-12713852D01*
X8505896Y-12713852D02*
X8534467Y-12723376D01*
X8534467Y-12723376D02*
X8553515Y-12742423D01*
X8553515Y-12742423D02*
X8563039Y-12761471D01*
X8563039Y-12761471D02*
X8572563Y-12799566D01*
X8572563Y-12799566D02*
X8572563Y-12828137D01*
X8572563Y-12828137D02*
X8563039Y-12866233D01*
X8563039Y-12866233D02*
X8553515Y-12885280D01*
X8553515Y-12885280D02*
X8534467Y-12904328D01*
X8534467Y-12904328D02*
X8505896Y-12913852D01*
X8505896Y-12913852D02*
X8458277Y-12913852D01*
X8658277Y-12913852D02*
X8658277Y-12780518D01*
X8658277Y-12818614D02*
X8667801Y-12799566D01*
X8667801Y-12799566D02*
X8677324Y-12790042D01*
X8677324Y-12790042D02*
X8696372Y-12780518D01*
X8696372Y-12780518D02*
X8715420Y-12780518D01*
X8782086Y-12913852D02*
X8782086Y-12780518D01*
X8782086Y-12713852D02*
X8772563Y-12723376D01*
X8772563Y-12723376D02*
X8782086Y-12732899D01*
X8782086Y-12732899D02*
X8791610Y-12723376D01*
X8791610Y-12723376D02*
X8782086Y-12713852D01*
X8782086Y-12713852D02*
X8782086Y-12732899D01*
X8905896Y-12913852D02*
X8886848Y-12904328D01*
X8886848Y-12904328D02*
X8877324Y-12885280D01*
X8877324Y-12885280D02*
X8877324Y-12713852D01*
X9010658Y-12913852D02*
X8991610Y-12904328D01*
X8991610Y-12904328D02*
X8982086Y-12885280D01*
X8982086Y-12885280D02*
X8982086Y-12713852D01*
X9239229Y-12913852D02*
X9239229Y-12713852D01*
X9239229Y-12713852D02*
X9305896Y-12856709D01*
X9305896Y-12856709D02*
X9372563Y-12713852D01*
X9372563Y-12713852D02*
X9372563Y-12913852D01*
X9553515Y-12913852D02*
X9553515Y-12809090D01*
X9553515Y-12809090D02*
X9543991Y-12790042D01*
X9543991Y-12790042D02*
X9524944Y-12780518D01*
X9524944Y-12780518D02*
X9486848Y-12780518D01*
X9486848Y-12780518D02*
X9467801Y-12790042D01*
X9553515Y-12904328D02*
X9534467Y-12913852D01*
X9534467Y-12913852D02*
X9486848Y-12913852D01*
X9486848Y-12913852D02*
X9467801Y-12904328D01*
X9467801Y-12904328D02*
X9458277Y-12885280D01*
X9458277Y-12885280D02*
X9458277Y-12866233D01*
X9458277Y-12866233D02*
X9467801Y-12847185D01*
X9467801Y-12847185D02*
X9486848Y-12837661D01*
X9486848Y-12837661D02*
X9534467Y-12837661D01*
X9534467Y-12837661D02*
X9553515Y-12828137D01*
X9648753Y-12780518D02*
X9648753Y-12980518D01*
X9648753Y-12790042D02*
X9667801Y-12780518D01*
X9667801Y-12780518D02*
X9705896Y-12780518D01*
X9705896Y-12780518D02*
X9724944Y-12790042D01*
X9724944Y-12790042D02*
X9734467Y-12799566D01*
X9734467Y-12799566D02*
X9743991Y-12818614D01*
X9743991Y-12818614D02*
X9743991Y-12875756D01*
X9743991Y-12875756D02*
X9734467Y-12894804D01*
X9734467Y-12894804D02*
X9724944Y-12904328D01*
X9724944Y-12904328D02*
X9705896Y-12913852D01*
X9705896Y-12913852D02*
X9667801Y-12913852D01*
X9667801Y-12913852D02*
X9648753Y-12904328D01*
X9829705Y-12894804D02*
X9839229Y-12904328D01*
X9839229Y-12904328D02*
X9829705Y-12913852D01*
X9829705Y-12913852D02*
X9820182Y-12904328D01*
X9820182Y-12904328D02*
X9829705Y-12894804D01*
X9829705Y-12894804D02*
X9829705Y-12913852D01*
X9829705Y-12790042D02*
X9839229Y-12799566D01*
X9839229Y-12799566D02*
X9829705Y-12809090D01*
X9829705Y-12809090D02*
X9820182Y-12799566D01*
X9820182Y-12799566D02*
X9829705Y-12790042D01*
X9829705Y-12790042D02*
X9829705Y-12809090D01*
D12*
X8167500Y-13227368D02*
X8197500Y-13257368D01*
X8197500Y-13227368D02*
X8167500Y-13257368D01*
D11*
X8496372Y-13133852D02*
X8515420Y-13133852D01*
X8515420Y-13133852D02*
X8534467Y-13143376D01*
X8534467Y-13143376D02*
X8543991Y-13152899D01*
X8543991Y-13152899D02*
X8553515Y-13171947D01*
X8553515Y-13171947D02*
X8563039Y-13210042D01*
X8563039Y-13210042D02*
X8563039Y-13257661D01*
X8563039Y-13257661D02*
X8553515Y-13295756D01*
X8553515Y-13295756D02*
X8543991Y-13314804D01*
X8543991Y-13314804D02*
X8534467Y-13324328D01*
X8534467Y-13324328D02*
X8515420Y-13333852D01*
X8515420Y-13333852D02*
X8496372Y-13333852D01*
X8496372Y-13333852D02*
X8477324Y-13324328D01*
X8477324Y-13324328D02*
X8467801Y-13314804D01*
X8467801Y-13314804D02*
X8458277Y-13295756D01*
X8458277Y-13295756D02*
X8448753Y-13257661D01*
X8448753Y-13257661D02*
X8448753Y-13210042D01*
X8448753Y-13210042D02*
X8458277Y-13171947D01*
X8458277Y-13171947D02*
X8467801Y-13152899D01*
X8467801Y-13152899D02*
X8477324Y-13143376D01*
X8477324Y-13143376D02*
X8496372Y-13133852D01*
X8648753Y-13314804D02*
X8658277Y-13324328D01*
X8658277Y-13324328D02*
X8648753Y-13333852D01*
X8648753Y-13333852D02*
X8639229Y-13324328D01*
X8639229Y-13324328D02*
X8648753Y-13314804D01*
X8648753Y-13314804D02*
X8648753Y-13333852D01*
X8724944Y-13133852D02*
X8848753Y-13133852D01*
X8848753Y-13133852D02*
X8782086Y-13210042D01*
X8782086Y-13210042D02*
X8810658Y-13210042D01*
X8810658Y-13210042D02*
X8829705Y-13219566D01*
X8829705Y-13219566D02*
X8839229Y-13229090D01*
X8839229Y-13229090D02*
X8848753Y-13248137D01*
X8848753Y-13248137D02*
X8848753Y-13295756D01*
X8848753Y-13295756D02*
X8839229Y-13314804D01*
X8839229Y-13314804D02*
X8829705Y-13324328D01*
X8829705Y-13324328D02*
X8810658Y-13333852D01*
X8810658Y-13333852D02*
X8753515Y-13333852D01*
X8753515Y-13333852D02*
X8734467Y-13324328D01*
X8734467Y-13324328D02*
X8724944Y-13314804D01*
X8972563Y-13133852D02*
X8991610Y-13133852D01*
X8991610Y-13133852D02*
X9010658Y-13143376D01*
X9010658Y-13143376D02*
X9020182Y-13152899D01*
X9020182Y-13152899D02*
X9029705Y-13171947D01*
X9029705Y-13171947D02*
X9039229Y-13210042D01*
X9039229Y-13210042D02*
X9039229Y-13257661D01*
X9039229Y-13257661D02*
X9029705Y-13295756D01*
X9029705Y-13295756D02*
X9020182Y-13314804D01*
X9020182Y-13314804D02*
X9010658Y-13324328D01*
X9010658Y-13324328D02*
X8991610Y-13333852D01*
X8991610Y-13333852D02*
X8972563Y-13333852D01*
X8972563Y-13333852D02*
X8953515Y-13324328D01*
X8953515Y-13324328D02*
X8943991Y-13314804D01*
X8943991Y-13314804D02*
X8934467Y-13295756D01*
X8934467Y-13295756D02*
X8924944Y-13257661D01*
X8924944Y-13257661D02*
X8924944Y-13210042D01*
X8924944Y-13210042D02*
X8934467Y-13171947D01*
X8934467Y-13171947D02*
X8943991Y-13152899D01*
X8943991Y-13152899D02*
X8953515Y-13143376D01*
X8953515Y-13143376D02*
X8972563Y-13133852D01*
X9163039Y-13133852D02*
X9182086Y-13133852D01*
X9182086Y-13133852D02*
X9201134Y-13143376D01*
X9201134Y-13143376D02*
X9210658Y-13152899D01*
X9210658Y-13152899D02*
X9220182Y-13171947D01*
X9220182Y-13171947D02*
X9229705Y-13210042D01*
X9229705Y-13210042D02*
X9229705Y-13257661D01*
X9229705Y-13257661D02*
X9220182Y-13295756D01*
X9220182Y-13295756D02*
X9210658Y-13314804D01*
X9210658Y-13314804D02*
X9201134Y-13324328D01*
X9201134Y-13324328D02*
X9182086Y-13333852D01*
X9182086Y-13333852D02*
X9163039Y-13333852D01*
X9163039Y-13333852D02*
X9143991Y-13324328D01*
X9143991Y-13324328D02*
X9134467Y-13314804D01*
X9134467Y-13314804D02*
X9124944Y-13295756D01*
X9124944Y-13295756D02*
X9115420Y-13257661D01*
X9115420Y-13257661D02*
X9115420Y-13210042D01*
X9115420Y-13210042D02*
X9124944Y-13171947D01*
X9124944Y-13171947D02*
X9134467Y-13152899D01*
X9134467Y-13152899D02*
X9143991Y-13143376D01*
X9143991Y-13143376D02*
X9163039Y-13133852D01*
X9315420Y-13333852D02*
X9315420Y-13200518D01*
X9315420Y-13219566D02*
X9324944Y-13210042D01*
X9324944Y-13210042D02*
X9343991Y-13200518D01*
X9343991Y-13200518D02*
X9372563Y-13200518D01*
X9372563Y-13200518D02*
X9391610Y-13210042D01*
X9391610Y-13210042D02*
X9401134Y-13229090D01*
X9401134Y-13229090D02*
X9401134Y-13333852D01*
X9401134Y-13229090D02*
X9410658Y-13210042D01*
X9410658Y-13210042D02*
X9429705Y-13200518D01*
X9429705Y-13200518D02*
X9458277Y-13200518D01*
X9458277Y-13200518D02*
X9477325Y-13210042D01*
X9477325Y-13210042D02*
X9486848Y-13229090D01*
X9486848Y-13229090D02*
X9486848Y-13333852D01*
X9582086Y-13333852D02*
X9582086Y-13200518D01*
X9582086Y-13219566D02*
X9591610Y-13210042D01*
X9591610Y-13210042D02*
X9610658Y-13200518D01*
X9610658Y-13200518D02*
X9639229Y-13200518D01*
X9639229Y-13200518D02*
X9658277Y-13210042D01*
X9658277Y-13210042D02*
X9667801Y-13229090D01*
X9667801Y-13229090D02*
X9667801Y-13333852D01*
X9667801Y-13229090D02*
X9677325Y-13210042D01*
X9677325Y-13210042D02*
X9696372Y-13200518D01*
X9696372Y-13200518D02*
X9724944Y-13200518D01*
X9724944Y-13200518D02*
X9743991Y-13210042D01*
X9743991Y-13210042D02*
X9753515Y-13229090D01*
X9753515Y-13229090D02*
X9753515Y-13333852D01*
X10143991Y-13124328D02*
X9972563Y-13381471D01*
X10401134Y-13133852D02*
X10420182Y-13133852D01*
X10420182Y-13133852D02*
X10439229Y-13143376D01*
X10439229Y-13143376D02*
X10448753Y-13152899D01*
X10448753Y-13152899D02*
X10458277Y-13171947D01*
X10458277Y-13171947D02*
X10467801Y-13210042D01*
X10467801Y-13210042D02*
X10467801Y-13257661D01*
X10467801Y-13257661D02*
X10458277Y-13295756D01*
X10458277Y-13295756D02*
X10448753Y-13314804D01*
X10448753Y-13314804D02*
X10439229Y-13324328D01*
X10439229Y-13324328D02*
X10420182Y-13333852D01*
X10420182Y-13333852D02*
X10401134Y-13333852D01*
X10401134Y-13333852D02*
X10382087Y-13324328D01*
X10382087Y-13324328D02*
X10372563Y-13314804D01*
X10372563Y-13314804D02*
X10363039Y-13295756D01*
X10363039Y-13295756D02*
X10353515Y-13257661D01*
X10353515Y-13257661D02*
X10353515Y-13210042D01*
X10353515Y-13210042D02*
X10363039Y-13171947D01*
X10363039Y-13171947D02*
X10372563Y-13152899D01*
X10372563Y-13152899D02*
X10382087Y-13143376D01*
X10382087Y-13143376D02*
X10401134Y-13133852D01*
X10553515Y-13314804D02*
X10563039Y-13324328D01*
X10563039Y-13324328D02*
X10553515Y-13333852D01*
X10553515Y-13333852D02*
X10543991Y-13324328D01*
X10543991Y-13324328D02*
X10553515Y-13314804D01*
X10553515Y-13314804D02*
X10553515Y-13333852D01*
X10686848Y-13133852D02*
X10705896Y-13133852D01*
X10705896Y-13133852D02*
X10724944Y-13143376D01*
X10724944Y-13143376D02*
X10734468Y-13152899D01*
X10734468Y-13152899D02*
X10743991Y-13171947D01*
X10743991Y-13171947D02*
X10753515Y-13210042D01*
X10753515Y-13210042D02*
X10753515Y-13257661D01*
X10753515Y-13257661D02*
X10743991Y-13295756D01*
X10743991Y-13295756D02*
X10734468Y-13314804D01*
X10734468Y-13314804D02*
X10724944Y-13324328D01*
X10724944Y-13324328D02*
X10705896Y-13333852D01*
X10705896Y-13333852D02*
X10686848Y-13333852D01*
X10686848Y-13333852D02*
X10667801Y-13324328D01*
X10667801Y-13324328D02*
X10658277Y-13314804D01*
X10658277Y-13314804D02*
X10648753Y-13295756D01*
X10648753Y-13295756D02*
X10639229Y-13257661D01*
X10639229Y-13257661D02*
X10639229Y-13210042D01*
X10639229Y-13210042D02*
X10648753Y-13171947D01*
X10648753Y-13171947D02*
X10658277Y-13152899D01*
X10658277Y-13152899D02*
X10667801Y-13143376D01*
X10667801Y-13143376D02*
X10686848Y-13133852D01*
X10943991Y-13333852D02*
X10829706Y-13333852D01*
X10886848Y-13333852D02*
X10886848Y-13133852D01*
X10886848Y-13133852D02*
X10867801Y-13162423D01*
X10867801Y-13162423D02*
X10848753Y-13181471D01*
X10848753Y-13181471D02*
X10829706Y-13190995D01*
X11134468Y-13333852D02*
X11020182Y-13333852D01*
X11077325Y-13333852D02*
X11077325Y-13133852D01*
X11077325Y-13133852D02*
X11058277Y-13162423D01*
X11058277Y-13162423D02*
X11039229Y-13181471D01*
X11039229Y-13181471D02*
X11020182Y-13190995D01*
X11248753Y-13219566D02*
X11229706Y-13210042D01*
X11229706Y-13210042D02*
X11220182Y-13200518D01*
X11220182Y-13200518D02*
X11210658Y-13181471D01*
X11210658Y-13181471D02*
X11210658Y-13171947D01*
X11210658Y-13171947D02*
X11220182Y-13152899D01*
X11220182Y-13152899D02*
X11229706Y-13143376D01*
X11229706Y-13143376D02*
X11248753Y-13133852D01*
X11248753Y-13133852D02*
X11286848Y-13133852D01*
X11286848Y-13133852D02*
X11305896Y-13143376D01*
X11305896Y-13143376D02*
X11315420Y-13152899D01*
X11315420Y-13152899D02*
X11324944Y-13171947D01*
X11324944Y-13171947D02*
X11324944Y-13181471D01*
X11324944Y-13181471D02*
X11315420Y-13200518D01*
X11315420Y-13200518D02*
X11305896Y-13210042D01*
X11305896Y-13210042D02*
X11286848Y-13219566D01*
X11286848Y-13219566D02*
X11248753Y-13219566D01*
X11248753Y-13219566D02*
X11229706Y-13229090D01*
X11229706Y-13229090D02*
X11220182Y-13238614D01*
X11220182Y-13238614D02*
X11210658Y-13257661D01*
X11210658Y-13257661D02*
X11210658Y-13295756D01*
X11210658Y-13295756D02*
X11220182Y-13314804D01*
X11220182Y-13314804D02*
X11229706Y-13324328D01*
X11229706Y-13324328D02*
X11248753Y-13333852D01*
X11248753Y-13333852D02*
X11286848Y-13333852D01*
X11286848Y-13333852D02*
X11305896Y-13324328D01*
X11305896Y-13324328D02*
X11315420Y-13314804D01*
X11315420Y-13314804D02*
X11324944Y-13295756D01*
X11324944Y-13295756D02*
X11324944Y-13257661D01*
X11324944Y-13257661D02*
X11315420Y-13238614D01*
X11315420Y-13238614D02*
X11305896Y-13229090D01*
X11305896Y-13229090D02*
X11286848Y-13219566D01*
X11401134Y-13133852D02*
X11401134Y-13171947D01*
X11477325Y-13133852D02*
X11477325Y-13171947D01*
X11772563Y-13410042D02*
X11763039Y-13400518D01*
X11763039Y-13400518D02*
X11743991Y-13371947D01*
X11743991Y-13371947D02*
X11734468Y-13352899D01*
X11734468Y-13352899D02*
X11724944Y-13324328D01*
X11724944Y-13324328D02*
X11715420Y-13276709D01*
X11715420Y-13276709D02*
X11715420Y-13238614D01*
X11715420Y-13238614D02*
X11724944Y-13190995D01*
X11724944Y-13190995D02*
X11734468Y-13162423D01*
X11734468Y-13162423D02*
X11743991Y-13143376D01*
X11743991Y-13143376D02*
X11763039Y-13114804D01*
X11763039Y-13114804D02*
X11772563Y-13105280D01*
X11934468Y-13133852D02*
X11896372Y-13133852D01*
X11896372Y-13133852D02*
X11877325Y-13143376D01*
X11877325Y-13143376D02*
X11867801Y-13152899D01*
X11867801Y-13152899D02*
X11848753Y-13181471D01*
X11848753Y-13181471D02*
X11839229Y-13219566D01*
X11839229Y-13219566D02*
X11839229Y-13295756D01*
X11839229Y-13295756D02*
X11848753Y-13314804D01*
X11848753Y-13314804D02*
X11858277Y-13324328D01*
X11858277Y-13324328D02*
X11877325Y-13333852D01*
X11877325Y-13333852D02*
X11915420Y-13333852D01*
X11915420Y-13333852D02*
X11934468Y-13324328D01*
X11934468Y-13324328D02*
X11943991Y-13314804D01*
X11943991Y-13314804D02*
X11953515Y-13295756D01*
X11953515Y-13295756D02*
X11953515Y-13248137D01*
X11953515Y-13248137D02*
X11943991Y-13229090D01*
X11943991Y-13229090D02*
X11934468Y-13219566D01*
X11934468Y-13219566D02*
X11915420Y-13210042D01*
X11915420Y-13210042D02*
X11877325Y-13210042D01*
X11877325Y-13210042D02*
X11858277Y-13219566D01*
X11858277Y-13219566D02*
X11848753Y-13229090D01*
X11848753Y-13229090D02*
X11839229Y-13248137D01*
X12020182Y-13133852D02*
X12143991Y-13133852D01*
X12143991Y-13133852D02*
X12077325Y-13210042D01*
X12077325Y-13210042D02*
X12105896Y-13210042D01*
X12105896Y-13210042D02*
X12124944Y-13219566D01*
X12124944Y-13219566D02*
X12134468Y-13229090D01*
X12134468Y-13229090D02*
X12143991Y-13248137D01*
X12143991Y-13248137D02*
X12143991Y-13295756D01*
X12143991Y-13295756D02*
X12134468Y-13314804D01*
X12134468Y-13314804D02*
X12124944Y-13324328D01*
X12124944Y-13324328D02*
X12105896Y-13333852D01*
X12105896Y-13333852D02*
X12048753Y-13333852D01*
X12048753Y-13333852D02*
X12029706Y-13324328D01*
X12029706Y-13324328D02*
X12020182Y-13314804D01*
X12382087Y-13333852D02*
X12382087Y-13133852D01*
X12467801Y-13333852D02*
X12467801Y-13229090D01*
X12467801Y-13229090D02*
X12458277Y-13210042D01*
X12458277Y-13210042D02*
X12439230Y-13200518D01*
X12439230Y-13200518D02*
X12410658Y-13200518D01*
X12410658Y-13200518D02*
X12391610Y-13210042D01*
X12391610Y-13210042D02*
X12382087Y-13219566D01*
X12591610Y-13333852D02*
X12572563Y-13324328D01*
X12572563Y-13324328D02*
X12563039Y-13314804D01*
X12563039Y-13314804D02*
X12553515Y-13295756D01*
X12553515Y-13295756D02*
X12553515Y-13238614D01*
X12553515Y-13238614D02*
X12563039Y-13219566D01*
X12563039Y-13219566D02*
X12572563Y-13210042D01*
X12572563Y-13210042D02*
X12591610Y-13200518D01*
X12591610Y-13200518D02*
X12620182Y-13200518D01*
X12620182Y-13200518D02*
X12639230Y-13210042D01*
X12639230Y-13210042D02*
X12648753Y-13219566D01*
X12648753Y-13219566D02*
X12658277Y-13238614D01*
X12658277Y-13238614D02*
X12658277Y-13295756D01*
X12658277Y-13295756D02*
X12648753Y-13314804D01*
X12648753Y-13314804D02*
X12639230Y-13324328D01*
X12639230Y-13324328D02*
X12620182Y-13333852D01*
X12620182Y-13333852D02*
X12591610Y-13333852D01*
X12772563Y-13333852D02*
X12753515Y-13324328D01*
X12753515Y-13324328D02*
X12743991Y-13305280D01*
X12743991Y-13305280D02*
X12743991Y-13133852D01*
X12924944Y-13324328D02*
X12905896Y-13333852D01*
X12905896Y-13333852D02*
X12867801Y-13333852D01*
X12867801Y-13333852D02*
X12848753Y-13324328D01*
X12848753Y-13324328D02*
X12839230Y-13305280D01*
X12839230Y-13305280D02*
X12839230Y-13229090D01*
X12839230Y-13229090D02*
X12848753Y-13210042D01*
X12848753Y-13210042D02*
X12867801Y-13200518D01*
X12867801Y-13200518D02*
X12905896Y-13200518D01*
X12905896Y-13200518D02*
X12924944Y-13210042D01*
X12924944Y-13210042D02*
X12934468Y-13229090D01*
X12934468Y-13229090D02*
X12934468Y-13248137D01*
X12934468Y-13248137D02*
X12839230Y-13267185D01*
X13010658Y-13324328D02*
X13029706Y-13333852D01*
X13029706Y-13333852D02*
X13067801Y-13333852D01*
X13067801Y-13333852D02*
X13086849Y-13324328D01*
X13086849Y-13324328D02*
X13096372Y-13305280D01*
X13096372Y-13305280D02*
X13096372Y-13295756D01*
X13096372Y-13295756D02*
X13086849Y-13276709D01*
X13086849Y-13276709D02*
X13067801Y-13267185D01*
X13067801Y-13267185D02*
X13039230Y-13267185D01*
X13039230Y-13267185D02*
X13020182Y-13257661D01*
X13020182Y-13257661D02*
X13010658Y-13238614D01*
X13010658Y-13238614D02*
X13010658Y-13229090D01*
X13010658Y-13229090D02*
X13020182Y-13210042D01*
X13020182Y-13210042D02*
X13039230Y-13200518D01*
X13039230Y-13200518D02*
X13067801Y-13200518D01*
X13067801Y-13200518D02*
X13086849Y-13210042D01*
X13163039Y-13410042D02*
X13172563Y-13400518D01*
X13172563Y-13400518D02*
X13191611Y-13371947D01*
X13191611Y-13371947D02*
X13201134Y-13352899D01*
X13201134Y-13352899D02*
X13210658Y-13324328D01*
X13210658Y-13324328D02*
X13220182Y-13276709D01*
X13220182Y-13276709D02*
X13220182Y-13238614D01*
X13220182Y-13238614D02*
X13210658Y-13190995D01*
X13210658Y-13190995D02*
X13201134Y-13162423D01*
X13201134Y-13162423D02*
X13191611Y-13143376D01*
X13191611Y-13143376D02*
X13172563Y-13114804D01*
X13172563Y-13114804D02*
X13163039Y-13105280D01*
D12*
X8197500Y-13506368D02*
G75*
G02*
X8117500Y-13506368I-40000J0D01*
G01*
X8117500Y-13506368D02*
G75*
G02*
X8197500Y-13506368I40000J0D01*
G01*
D11*
X8496372Y-13397852D02*
X8515420Y-13397852D01*
X8515420Y-13397852D02*
X8534467Y-13407376D01*
X8534467Y-13407376D02*
X8543991Y-13416899D01*
X8543991Y-13416899D02*
X8553515Y-13435947D01*
X8553515Y-13435947D02*
X8563039Y-13474042D01*
X8563039Y-13474042D02*
X8563039Y-13521661D01*
X8563039Y-13521661D02*
X8553515Y-13559756D01*
X8553515Y-13559756D02*
X8543991Y-13578804D01*
X8543991Y-13578804D02*
X8534467Y-13588328D01*
X8534467Y-13588328D02*
X8515420Y-13597852D01*
X8515420Y-13597852D02*
X8496372Y-13597852D01*
X8496372Y-13597852D02*
X8477324Y-13588328D01*
X8477324Y-13588328D02*
X8467801Y-13578804D01*
X8467801Y-13578804D02*
X8458277Y-13559756D01*
X8458277Y-13559756D02*
X8448753Y-13521661D01*
X8448753Y-13521661D02*
X8448753Y-13474042D01*
X8448753Y-13474042D02*
X8458277Y-13435947D01*
X8458277Y-13435947D02*
X8467801Y-13416899D01*
X8467801Y-13416899D02*
X8477324Y-13407376D01*
X8477324Y-13407376D02*
X8496372Y-13397852D01*
X8648753Y-13578804D02*
X8658277Y-13588328D01*
X8658277Y-13588328D02*
X8648753Y-13597852D01*
X8648753Y-13597852D02*
X8639229Y-13588328D01*
X8639229Y-13588328D02*
X8648753Y-13578804D01*
X8648753Y-13578804D02*
X8648753Y-13597852D01*
X8772563Y-13483566D02*
X8753515Y-13474042D01*
X8753515Y-13474042D02*
X8743991Y-13464518D01*
X8743991Y-13464518D02*
X8734467Y-13445471D01*
X8734467Y-13445471D02*
X8734467Y-13435947D01*
X8734467Y-13435947D02*
X8743991Y-13416899D01*
X8743991Y-13416899D02*
X8753515Y-13407376D01*
X8753515Y-13407376D02*
X8772563Y-13397852D01*
X8772563Y-13397852D02*
X8810658Y-13397852D01*
X8810658Y-13397852D02*
X8829705Y-13407376D01*
X8829705Y-13407376D02*
X8839229Y-13416899D01*
X8839229Y-13416899D02*
X8848753Y-13435947D01*
X8848753Y-13435947D02*
X8848753Y-13445471D01*
X8848753Y-13445471D02*
X8839229Y-13464518D01*
X8839229Y-13464518D02*
X8829705Y-13474042D01*
X8829705Y-13474042D02*
X8810658Y-13483566D01*
X8810658Y-13483566D02*
X8772563Y-13483566D01*
X8772563Y-13483566D02*
X8753515Y-13493090D01*
X8753515Y-13493090D02*
X8743991Y-13502614D01*
X8743991Y-13502614D02*
X8734467Y-13521661D01*
X8734467Y-13521661D02*
X8734467Y-13559756D01*
X8734467Y-13559756D02*
X8743991Y-13578804D01*
X8743991Y-13578804D02*
X8753515Y-13588328D01*
X8753515Y-13588328D02*
X8772563Y-13597852D01*
X8772563Y-13597852D02*
X8810658Y-13597852D01*
X8810658Y-13597852D02*
X8829705Y-13588328D01*
X8829705Y-13588328D02*
X8839229Y-13578804D01*
X8839229Y-13578804D02*
X8848753Y-13559756D01*
X8848753Y-13559756D02*
X8848753Y-13521661D01*
X8848753Y-13521661D02*
X8839229Y-13502614D01*
X8839229Y-13502614D02*
X8829705Y-13493090D01*
X8829705Y-13493090D02*
X8810658Y-13483566D01*
X8972563Y-13397852D02*
X8991610Y-13397852D01*
X8991610Y-13397852D02*
X9010658Y-13407376D01*
X9010658Y-13407376D02*
X9020182Y-13416899D01*
X9020182Y-13416899D02*
X9029705Y-13435947D01*
X9029705Y-13435947D02*
X9039229Y-13474042D01*
X9039229Y-13474042D02*
X9039229Y-13521661D01*
X9039229Y-13521661D02*
X9029705Y-13559756D01*
X9029705Y-13559756D02*
X9020182Y-13578804D01*
X9020182Y-13578804D02*
X9010658Y-13588328D01*
X9010658Y-13588328D02*
X8991610Y-13597852D01*
X8991610Y-13597852D02*
X8972563Y-13597852D01*
X8972563Y-13597852D02*
X8953515Y-13588328D01*
X8953515Y-13588328D02*
X8943991Y-13578804D01*
X8943991Y-13578804D02*
X8934467Y-13559756D01*
X8934467Y-13559756D02*
X8924944Y-13521661D01*
X8924944Y-13521661D02*
X8924944Y-13474042D01*
X8924944Y-13474042D02*
X8934467Y-13435947D01*
X8934467Y-13435947D02*
X8943991Y-13416899D01*
X8943991Y-13416899D02*
X8953515Y-13407376D01*
X8953515Y-13407376D02*
X8972563Y-13397852D01*
X9163039Y-13397852D02*
X9182086Y-13397852D01*
X9182086Y-13397852D02*
X9201134Y-13407376D01*
X9201134Y-13407376D02*
X9210658Y-13416899D01*
X9210658Y-13416899D02*
X9220182Y-13435947D01*
X9220182Y-13435947D02*
X9229705Y-13474042D01*
X9229705Y-13474042D02*
X9229705Y-13521661D01*
X9229705Y-13521661D02*
X9220182Y-13559756D01*
X9220182Y-13559756D02*
X9210658Y-13578804D01*
X9210658Y-13578804D02*
X9201134Y-13588328D01*
X9201134Y-13588328D02*
X9182086Y-13597852D01*
X9182086Y-13597852D02*
X9163039Y-13597852D01*
X9163039Y-13597852D02*
X9143991Y-13588328D01*
X9143991Y-13588328D02*
X9134467Y-13578804D01*
X9134467Y-13578804D02*
X9124944Y-13559756D01*
X9124944Y-13559756D02*
X9115420Y-13521661D01*
X9115420Y-13521661D02*
X9115420Y-13474042D01*
X9115420Y-13474042D02*
X9124944Y-13435947D01*
X9124944Y-13435947D02*
X9134467Y-13416899D01*
X9134467Y-13416899D02*
X9143991Y-13407376D01*
X9143991Y-13407376D02*
X9163039Y-13397852D01*
X9315420Y-13597852D02*
X9315420Y-13464518D01*
X9315420Y-13483566D02*
X9324944Y-13474042D01*
X9324944Y-13474042D02*
X9343991Y-13464518D01*
X9343991Y-13464518D02*
X9372563Y-13464518D01*
X9372563Y-13464518D02*
X9391610Y-13474042D01*
X9391610Y-13474042D02*
X9401134Y-13493090D01*
X9401134Y-13493090D02*
X9401134Y-13597852D01*
X9401134Y-13493090D02*
X9410658Y-13474042D01*
X9410658Y-13474042D02*
X9429705Y-13464518D01*
X9429705Y-13464518D02*
X9458277Y-13464518D01*
X9458277Y-13464518D02*
X9477325Y-13474042D01*
X9477325Y-13474042D02*
X9486848Y-13493090D01*
X9486848Y-13493090D02*
X9486848Y-13597852D01*
X9582086Y-13597852D02*
X9582086Y-13464518D01*
X9582086Y-13483566D02*
X9591610Y-13474042D01*
X9591610Y-13474042D02*
X9610658Y-13464518D01*
X9610658Y-13464518D02*
X9639229Y-13464518D01*
X9639229Y-13464518D02*
X9658277Y-13474042D01*
X9658277Y-13474042D02*
X9667801Y-13493090D01*
X9667801Y-13493090D02*
X9667801Y-13597852D01*
X9667801Y-13493090D02*
X9677325Y-13474042D01*
X9677325Y-13474042D02*
X9696372Y-13464518D01*
X9696372Y-13464518D02*
X9724944Y-13464518D01*
X9724944Y-13464518D02*
X9743991Y-13474042D01*
X9743991Y-13474042D02*
X9753515Y-13493090D01*
X9753515Y-13493090D02*
X9753515Y-13597852D01*
X10143991Y-13388328D02*
X9972563Y-13645471D01*
X10401134Y-13397852D02*
X10420182Y-13397852D01*
X10420182Y-13397852D02*
X10439229Y-13407376D01*
X10439229Y-13407376D02*
X10448753Y-13416899D01*
X10448753Y-13416899D02*
X10458277Y-13435947D01*
X10458277Y-13435947D02*
X10467801Y-13474042D01*
X10467801Y-13474042D02*
X10467801Y-13521661D01*
X10467801Y-13521661D02*
X10458277Y-13559756D01*
X10458277Y-13559756D02*
X10448753Y-13578804D01*
X10448753Y-13578804D02*
X10439229Y-13588328D01*
X10439229Y-13588328D02*
X10420182Y-13597852D01*
X10420182Y-13597852D02*
X10401134Y-13597852D01*
X10401134Y-13597852D02*
X10382087Y-13588328D01*
X10382087Y-13588328D02*
X10372563Y-13578804D01*
X10372563Y-13578804D02*
X10363039Y-13559756D01*
X10363039Y-13559756D02*
X10353515Y-13521661D01*
X10353515Y-13521661D02*
X10353515Y-13474042D01*
X10353515Y-13474042D02*
X10363039Y-13435947D01*
X10363039Y-13435947D02*
X10372563Y-13416899D01*
X10372563Y-13416899D02*
X10382087Y-13407376D01*
X10382087Y-13407376D02*
X10401134Y-13397852D01*
X10553515Y-13578804D02*
X10563039Y-13588328D01*
X10563039Y-13588328D02*
X10553515Y-13597852D01*
X10553515Y-13597852D02*
X10543991Y-13588328D01*
X10543991Y-13588328D02*
X10553515Y-13578804D01*
X10553515Y-13578804D02*
X10553515Y-13597852D01*
X10686848Y-13397852D02*
X10705896Y-13397852D01*
X10705896Y-13397852D02*
X10724944Y-13407376D01*
X10724944Y-13407376D02*
X10734468Y-13416899D01*
X10734468Y-13416899D02*
X10743991Y-13435947D01*
X10743991Y-13435947D02*
X10753515Y-13474042D01*
X10753515Y-13474042D02*
X10753515Y-13521661D01*
X10753515Y-13521661D02*
X10743991Y-13559756D01*
X10743991Y-13559756D02*
X10734468Y-13578804D01*
X10734468Y-13578804D02*
X10724944Y-13588328D01*
X10724944Y-13588328D02*
X10705896Y-13597852D01*
X10705896Y-13597852D02*
X10686848Y-13597852D01*
X10686848Y-13597852D02*
X10667801Y-13588328D01*
X10667801Y-13588328D02*
X10658277Y-13578804D01*
X10658277Y-13578804D02*
X10648753Y-13559756D01*
X10648753Y-13559756D02*
X10639229Y-13521661D01*
X10639229Y-13521661D02*
X10639229Y-13474042D01*
X10639229Y-13474042D02*
X10648753Y-13435947D01*
X10648753Y-13435947D02*
X10658277Y-13416899D01*
X10658277Y-13416899D02*
X10667801Y-13407376D01*
X10667801Y-13407376D02*
X10686848Y-13397852D01*
X10820182Y-13397852D02*
X10943991Y-13397852D01*
X10943991Y-13397852D02*
X10877325Y-13474042D01*
X10877325Y-13474042D02*
X10905896Y-13474042D01*
X10905896Y-13474042D02*
X10924944Y-13483566D01*
X10924944Y-13483566D02*
X10934468Y-13493090D01*
X10934468Y-13493090D02*
X10943991Y-13512137D01*
X10943991Y-13512137D02*
X10943991Y-13559756D01*
X10943991Y-13559756D02*
X10934468Y-13578804D01*
X10934468Y-13578804D02*
X10924944Y-13588328D01*
X10924944Y-13588328D02*
X10905896Y-13597852D01*
X10905896Y-13597852D02*
X10848753Y-13597852D01*
X10848753Y-13597852D02*
X10829706Y-13588328D01*
X10829706Y-13588328D02*
X10820182Y-13578804D01*
X11134468Y-13597852D02*
X11020182Y-13597852D01*
X11077325Y-13597852D02*
X11077325Y-13397852D01*
X11077325Y-13397852D02*
X11058277Y-13426423D01*
X11058277Y-13426423D02*
X11039229Y-13445471D01*
X11039229Y-13445471D02*
X11020182Y-13454995D01*
X11315420Y-13397852D02*
X11220182Y-13397852D01*
X11220182Y-13397852D02*
X11210658Y-13493090D01*
X11210658Y-13493090D02*
X11220182Y-13483566D01*
X11220182Y-13483566D02*
X11239229Y-13474042D01*
X11239229Y-13474042D02*
X11286848Y-13474042D01*
X11286848Y-13474042D02*
X11305896Y-13483566D01*
X11305896Y-13483566D02*
X11315420Y-13493090D01*
X11315420Y-13493090D02*
X11324944Y-13512137D01*
X11324944Y-13512137D02*
X11324944Y-13559756D01*
X11324944Y-13559756D02*
X11315420Y-13578804D01*
X11315420Y-13578804D02*
X11305896Y-13588328D01*
X11305896Y-13588328D02*
X11286848Y-13597852D01*
X11286848Y-13597852D02*
X11239229Y-13597852D01*
X11239229Y-13597852D02*
X11220182Y-13588328D01*
X11220182Y-13588328D02*
X11210658Y-13578804D01*
X11401134Y-13397852D02*
X11401134Y-13435947D01*
X11477325Y-13397852D02*
X11477325Y-13435947D01*
X11772563Y-13674042D02*
X11763039Y-13664518D01*
X11763039Y-13664518D02*
X11743991Y-13635947D01*
X11743991Y-13635947D02*
X11734468Y-13616899D01*
X11734468Y-13616899D02*
X11724944Y-13588328D01*
X11724944Y-13588328D02*
X11715420Y-13540709D01*
X11715420Y-13540709D02*
X11715420Y-13502614D01*
X11715420Y-13502614D02*
X11724944Y-13454995D01*
X11724944Y-13454995D02*
X11734468Y-13426423D01*
X11734468Y-13426423D02*
X11743991Y-13407376D01*
X11743991Y-13407376D02*
X11763039Y-13378804D01*
X11763039Y-13378804D02*
X11772563Y-13369280D01*
X11839229Y-13416899D02*
X11848753Y-13407376D01*
X11848753Y-13407376D02*
X11867801Y-13397852D01*
X11867801Y-13397852D02*
X11915420Y-13397852D01*
X11915420Y-13397852D02*
X11934468Y-13407376D01*
X11934468Y-13407376D02*
X11943991Y-13416899D01*
X11943991Y-13416899D02*
X11953515Y-13435947D01*
X11953515Y-13435947D02*
X11953515Y-13454995D01*
X11953515Y-13454995D02*
X11943991Y-13483566D01*
X11943991Y-13483566D02*
X11829706Y-13597852D01*
X11829706Y-13597852D02*
X11953515Y-13597852D01*
X12191610Y-13597852D02*
X12191610Y-13397852D01*
X12277325Y-13597852D02*
X12277325Y-13493090D01*
X12277325Y-13493090D02*
X12267801Y-13474042D01*
X12267801Y-13474042D02*
X12248753Y-13464518D01*
X12248753Y-13464518D02*
X12220182Y-13464518D01*
X12220182Y-13464518D02*
X12201134Y-13474042D01*
X12201134Y-13474042D02*
X12191610Y-13483566D01*
X12401134Y-13597852D02*
X12382087Y-13588328D01*
X12382087Y-13588328D02*
X12372563Y-13578804D01*
X12372563Y-13578804D02*
X12363039Y-13559756D01*
X12363039Y-13559756D02*
X12363039Y-13502614D01*
X12363039Y-13502614D02*
X12372563Y-13483566D01*
X12372563Y-13483566D02*
X12382087Y-13474042D01*
X12382087Y-13474042D02*
X12401134Y-13464518D01*
X12401134Y-13464518D02*
X12429706Y-13464518D01*
X12429706Y-13464518D02*
X12448753Y-13474042D01*
X12448753Y-13474042D02*
X12458277Y-13483566D01*
X12458277Y-13483566D02*
X12467801Y-13502614D01*
X12467801Y-13502614D02*
X12467801Y-13559756D01*
X12467801Y-13559756D02*
X12458277Y-13578804D01*
X12458277Y-13578804D02*
X12448753Y-13588328D01*
X12448753Y-13588328D02*
X12429706Y-13597852D01*
X12429706Y-13597852D02*
X12401134Y-13597852D01*
X12582087Y-13597852D02*
X12563039Y-13588328D01*
X12563039Y-13588328D02*
X12553515Y-13569280D01*
X12553515Y-13569280D02*
X12553515Y-13397852D01*
X12734468Y-13588328D02*
X12715420Y-13597852D01*
X12715420Y-13597852D02*
X12677325Y-13597852D01*
X12677325Y-13597852D02*
X12658277Y-13588328D01*
X12658277Y-13588328D02*
X12648753Y-13569280D01*
X12648753Y-13569280D02*
X12648753Y-13493090D01*
X12648753Y-13493090D02*
X12658277Y-13474042D01*
X12658277Y-13474042D02*
X12677325Y-13464518D01*
X12677325Y-13464518D02*
X12715420Y-13464518D01*
X12715420Y-13464518D02*
X12734468Y-13474042D01*
X12734468Y-13474042D02*
X12743991Y-13493090D01*
X12743991Y-13493090D02*
X12743991Y-13512137D01*
X12743991Y-13512137D02*
X12648753Y-13531185D01*
X12820182Y-13588328D02*
X12839230Y-13597852D01*
X12839230Y-13597852D02*
X12877325Y-13597852D01*
X12877325Y-13597852D02*
X12896372Y-13588328D01*
X12896372Y-13588328D02*
X12905896Y-13569280D01*
X12905896Y-13569280D02*
X12905896Y-13559756D01*
X12905896Y-13559756D02*
X12896372Y-13540709D01*
X12896372Y-13540709D02*
X12877325Y-13531185D01*
X12877325Y-13531185D02*
X12848753Y-13531185D01*
X12848753Y-13531185D02*
X12829706Y-13521661D01*
X12829706Y-13521661D02*
X12820182Y-13502614D01*
X12820182Y-13502614D02*
X12820182Y-13493090D01*
X12820182Y-13493090D02*
X12829706Y-13474042D01*
X12829706Y-13474042D02*
X12848753Y-13464518D01*
X12848753Y-13464518D02*
X12877325Y-13464518D01*
X12877325Y-13464518D02*
X12896372Y-13474042D01*
X12972563Y-13674042D02*
X12982087Y-13664518D01*
X12982087Y-13664518D02*
X13001134Y-13635947D01*
X13001134Y-13635947D02*
X13010658Y-13616899D01*
X13010658Y-13616899D02*
X13020182Y-13588328D01*
X13020182Y-13588328D02*
X13029706Y-13540709D01*
X13029706Y-13540709D02*
X13029706Y-13502614D01*
X13029706Y-13502614D02*
X13020182Y-13454995D01*
X13020182Y-13454995D02*
X13010658Y-13426423D01*
X13010658Y-13426423D02*
X13001134Y-13407376D01*
X13001134Y-13407376D02*
X12982087Y-13378804D01*
X12982087Y-13378804D02*
X12972563Y-13369280D01*
D12*
X8147500Y-13720368D02*
X8147500Y-13820368D01*
X8097500Y-13770368D02*
X8197500Y-13770368D01*
D11*
X8563039Y-13861852D02*
X8448753Y-13861852D01*
X8505896Y-13861852D02*
X8505896Y-13661852D01*
X8505896Y-13661852D02*
X8486848Y-13690423D01*
X8486848Y-13690423D02*
X8467801Y-13709471D01*
X8467801Y-13709471D02*
X8448753Y-13718995D01*
X8648753Y-13842804D02*
X8658277Y-13852328D01*
X8658277Y-13852328D02*
X8648753Y-13861852D01*
X8648753Y-13861852D02*
X8639229Y-13852328D01*
X8639229Y-13852328D02*
X8648753Y-13842804D01*
X8648753Y-13842804D02*
X8648753Y-13861852D01*
X8782086Y-13661852D02*
X8801134Y-13661852D01*
X8801134Y-13661852D02*
X8820182Y-13671376D01*
X8820182Y-13671376D02*
X8829705Y-13680899D01*
X8829705Y-13680899D02*
X8839229Y-13699947D01*
X8839229Y-13699947D02*
X8848753Y-13738042D01*
X8848753Y-13738042D02*
X8848753Y-13785661D01*
X8848753Y-13785661D02*
X8839229Y-13823756D01*
X8839229Y-13823756D02*
X8829705Y-13842804D01*
X8829705Y-13842804D02*
X8820182Y-13852328D01*
X8820182Y-13852328D02*
X8801134Y-13861852D01*
X8801134Y-13861852D02*
X8782086Y-13861852D01*
X8782086Y-13861852D02*
X8763039Y-13852328D01*
X8763039Y-13852328D02*
X8753515Y-13842804D01*
X8753515Y-13842804D02*
X8743991Y-13823756D01*
X8743991Y-13823756D02*
X8734467Y-13785661D01*
X8734467Y-13785661D02*
X8734467Y-13738042D01*
X8734467Y-13738042D02*
X8743991Y-13699947D01*
X8743991Y-13699947D02*
X8753515Y-13680899D01*
X8753515Y-13680899D02*
X8763039Y-13671376D01*
X8763039Y-13671376D02*
X8782086Y-13661852D01*
X8972563Y-13661852D02*
X8991610Y-13661852D01*
X8991610Y-13661852D02*
X9010658Y-13671376D01*
X9010658Y-13671376D02*
X9020182Y-13680899D01*
X9020182Y-13680899D02*
X9029705Y-13699947D01*
X9029705Y-13699947D02*
X9039229Y-13738042D01*
X9039229Y-13738042D02*
X9039229Y-13785661D01*
X9039229Y-13785661D02*
X9029705Y-13823756D01*
X9029705Y-13823756D02*
X9020182Y-13842804D01*
X9020182Y-13842804D02*
X9010658Y-13852328D01*
X9010658Y-13852328D02*
X8991610Y-13861852D01*
X8991610Y-13861852D02*
X8972563Y-13861852D01*
X8972563Y-13861852D02*
X8953515Y-13852328D01*
X8953515Y-13852328D02*
X8943991Y-13842804D01*
X8943991Y-13842804D02*
X8934467Y-13823756D01*
X8934467Y-13823756D02*
X8924944Y-13785661D01*
X8924944Y-13785661D02*
X8924944Y-13738042D01*
X8924944Y-13738042D02*
X8934467Y-13699947D01*
X8934467Y-13699947D02*
X8943991Y-13680899D01*
X8943991Y-13680899D02*
X8953515Y-13671376D01*
X8953515Y-13671376D02*
X8972563Y-13661852D01*
X9163039Y-13661852D02*
X9182086Y-13661852D01*
X9182086Y-13661852D02*
X9201134Y-13671376D01*
X9201134Y-13671376D02*
X9210658Y-13680899D01*
X9210658Y-13680899D02*
X9220182Y-13699947D01*
X9220182Y-13699947D02*
X9229705Y-13738042D01*
X9229705Y-13738042D02*
X9229705Y-13785661D01*
X9229705Y-13785661D02*
X9220182Y-13823756D01*
X9220182Y-13823756D02*
X9210658Y-13842804D01*
X9210658Y-13842804D02*
X9201134Y-13852328D01*
X9201134Y-13852328D02*
X9182086Y-13861852D01*
X9182086Y-13861852D02*
X9163039Y-13861852D01*
X9163039Y-13861852D02*
X9143991Y-13852328D01*
X9143991Y-13852328D02*
X9134467Y-13842804D01*
X9134467Y-13842804D02*
X9124944Y-13823756D01*
X9124944Y-13823756D02*
X9115420Y-13785661D01*
X9115420Y-13785661D02*
X9115420Y-13738042D01*
X9115420Y-13738042D02*
X9124944Y-13699947D01*
X9124944Y-13699947D02*
X9134467Y-13680899D01*
X9134467Y-13680899D02*
X9143991Y-13671376D01*
X9143991Y-13671376D02*
X9163039Y-13661852D01*
X9315420Y-13861852D02*
X9315420Y-13728518D01*
X9315420Y-13747566D02*
X9324944Y-13738042D01*
X9324944Y-13738042D02*
X9343991Y-13728518D01*
X9343991Y-13728518D02*
X9372563Y-13728518D01*
X9372563Y-13728518D02*
X9391610Y-13738042D01*
X9391610Y-13738042D02*
X9401134Y-13757090D01*
X9401134Y-13757090D02*
X9401134Y-13861852D01*
X9401134Y-13757090D02*
X9410658Y-13738042D01*
X9410658Y-13738042D02*
X9429705Y-13728518D01*
X9429705Y-13728518D02*
X9458277Y-13728518D01*
X9458277Y-13728518D02*
X9477325Y-13738042D01*
X9477325Y-13738042D02*
X9486848Y-13757090D01*
X9486848Y-13757090D02*
X9486848Y-13861852D01*
X9582086Y-13861852D02*
X9582086Y-13728518D01*
X9582086Y-13747566D02*
X9591610Y-13738042D01*
X9591610Y-13738042D02*
X9610658Y-13728518D01*
X9610658Y-13728518D02*
X9639229Y-13728518D01*
X9639229Y-13728518D02*
X9658277Y-13738042D01*
X9658277Y-13738042D02*
X9667801Y-13757090D01*
X9667801Y-13757090D02*
X9667801Y-13861852D01*
X9667801Y-13757090D02*
X9677325Y-13738042D01*
X9677325Y-13738042D02*
X9696372Y-13728518D01*
X9696372Y-13728518D02*
X9724944Y-13728518D01*
X9724944Y-13728518D02*
X9743991Y-13738042D01*
X9743991Y-13738042D02*
X9753515Y-13757090D01*
X9753515Y-13757090D02*
X9753515Y-13861852D01*
X10143991Y-13652328D02*
X9972563Y-13909471D01*
X10401134Y-13661852D02*
X10420182Y-13661852D01*
X10420182Y-13661852D02*
X10439229Y-13671376D01*
X10439229Y-13671376D02*
X10448753Y-13680899D01*
X10448753Y-13680899D02*
X10458277Y-13699947D01*
X10458277Y-13699947D02*
X10467801Y-13738042D01*
X10467801Y-13738042D02*
X10467801Y-13785661D01*
X10467801Y-13785661D02*
X10458277Y-13823756D01*
X10458277Y-13823756D02*
X10448753Y-13842804D01*
X10448753Y-13842804D02*
X10439229Y-13852328D01*
X10439229Y-13852328D02*
X10420182Y-13861852D01*
X10420182Y-13861852D02*
X10401134Y-13861852D01*
X10401134Y-13861852D02*
X10382087Y-13852328D01*
X10382087Y-13852328D02*
X10372563Y-13842804D01*
X10372563Y-13842804D02*
X10363039Y-13823756D01*
X10363039Y-13823756D02*
X10353515Y-13785661D01*
X10353515Y-13785661D02*
X10353515Y-13738042D01*
X10353515Y-13738042D02*
X10363039Y-13699947D01*
X10363039Y-13699947D02*
X10372563Y-13680899D01*
X10372563Y-13680899D02*
X10382087Y-13671376D01*
X10382087Y-13671376D02*
X10401134Y-13661852D01*
X10553515Y-13842804D02*
X10563039Y-13852328D01*
X10563039Y-13852328D02*
X10553515Y-13861852D01*
X10553515Y-13861852D02*
X10543991Y-13852328D01*
X10543991Y-13852328D02*
X10553515Y-13842804D01*
X10553515Y-13842804D02*
X10553515Y-13861852D01*
X10686848Y-13661852D02*
X10705896Y-13661852D01*
X10705896Y-13661852D02*
X10724944Y-13671376D01*
X10724944Y-13671376D02*
X10734468Y-13680899D01*
X10734468Y-13680899D02*
X10743991Y-13699947D01*
X10743991Y-13699947D02*
X10753515Y-13738042D01*
X10753515Y-13738042D02*
X10753515Y-13785661D01*
X10753515Y-13785661D02*
X10743991Y-13823756D01*
X10743991Y-13823756D02*
X10734468Y-13842804D01*
X10734468Y-13842804D02*
X10724944Y-13852328D01*
X10724944Y-13852328D02*
X10705896Y-13861852D01*
X10705896Y-13861852D02*
X10686848Y-13861852D01*
X10686848Y-13861852D02*
X10667801Y-13852328D01*
X10667801Y-13852328D02*
X10658277Y-13842804D01*
X10658277Y-13842804D02*
X10648753Y-13823756D01*
X10648753Y-13823756D02*
X10639229Y-13785661D01*
X10639229Y-13785661D02*
X10639229Y-13738042D01*
X10639229Y-13738042D02*
X10648753Y-13699947D01*
X10648753Y-13699947D02*
X10658277Y-13680899D01*
X10658277Y-13680899D02*
X10667801Y-13671376D01*
X10667801Y-13671376D02*
X10686848Y-13661852D01*
X10820182Y-13661852D02*
X10943991Y-13661852D01*
X10943991Y-13661852D02*
X10877325Y-13738042D01*
X10877325Y-13738042D02*
X10905896Y-13738042D01*
X10905896Y-13738042D02*
X10924944Y-13747566D01*
X10924944Y-13747566D02*
X10934468Y-13757090D01*
X10934468Y-13757090D02*
X10943991Y-13776137D01*
X10943991Y-13776137D02*
X10943991Y-13823756D01*
X10943991Y-13823756D02*
X10934468Y-13842804D01*
X10934468Y-13842804D02*
X10924944Y-13852328D01*
X10924944Y-13852328D02*
X10905896Y-13861852D01*
X10905896Y-13861852D02*
X10848753Y-13861852D01*
X10848753Y-13861852D02*
X10829706Y-13852328D01*
X10829706Y-13852328D02*
X10820182Y-13842804D01*
X11039229Y-13861852D02*
X11077325Y-13861852D01*
X11077325Y-13861852D02*
X11096372Y-13852328D01*
X11096372Y-13852328D02*
X11105896Y-13842804D01*
X11105896Y-13842804D02*
X11124944Y-13814233D01*
X11124944Y-13814233D02*
X11134468Y-13776137D01*
X11134468Y-13776137D02*
X11134468Y-13699947D01*
X11134468Y-13699947D02*
X11124944Y-13680899D01*
X11124944Y-13680899D02*
X11115420Y-13671376D01*
X11115420Y-13671376D02*
X11096372Y-13661852D01*
X11096372Y-13661852D02*
X11058277Y-13661852D01*
X11058277Y-13661852D02*
X11039229Y-13671376D01*
X11039229Y-13671376D02*
X11029706Y-13680899D01*
X11029706Y-13680899D02*
X11020182Y-13699947D01*
X11020182Y-13699947D02*
X11020182Y-13747566D01*
X11020182Y-13747566D02*
X11029706Y-13766614D01*
X11029706Y-13766614D02*
X11039229Y-13776137D01*
X11039229Y-13776137D02*
X11058277Y-13785661D01*
X11058277Y-13785661D02*
X11096372Y-13785661D01*
X11096372Y-13785661D02*
X11115420Y-13776137D01*
X11115420Y-13776137D02*
X11124944Y-13766614D01*
X11124944Y-13766614D02*
X11134468Y-13747566D01*
X11305896Y-13728518D02*
X11305896Y-13861852D01*
X11258277Y-13652328D02*
X11210658Y-13795185D01*
X11210658Y-13795185D02*
X11334467Y-13795185D01*
X11401134Y-13661852D02*
X11401134Y-13699947D01*
X11477325Y-13661852D02*
X11477325Y-13699947D01*
X11772563Y-13938042D02*
X11763039Y-13928518D01*
X11763039Y-13928518D02*
X11743991Y-13899947D01*
X11743991Y-13899947D02*
X11734468Y-13880899D01*
X11734468Y-13880899D02*
X11724944Y-13852328D01*
X11724944Y-13852328D02*
X11715420Y-13804709D01*
X11715420Y-13804709D02*
X11715420Y-13766614D01*
X11715420Y-13766614D02*
X11724944Y-13718995D01*
X11724944Y-13718995D02*
X11734468Y-13690423D01*
X11734468Y-13690423D02*
X11743991Y-13671376D01*
X11743991Y-13671376D02*
X11763039Y-13642804D01*
X11763039Y-13642804D02*
X11772563Y-13633280D01*
X11953515Y-13861852D02*
X11839229Y-13861852D01*
X11896372Y-13861852D02*
X11896372Y-13661852D01*
X11896372Y-13661852D02*
X11877325Y-13690423D01*
X11877325Y-13690423D02*
X11858277Y-13709471D01*
X11858277Y-13709471D02*
X11839229Y-13718995D01*
X12077325Y-13661852D02*
X12096372Y-13661852D01*
X12096372Y-13661852D02*
X12115420Y-13671376D01*
X12115420Y-13671376D02*
X12124944Y-13680899D01*
X12124944Y-13680899D02*
X12134468Y-13699947D01*
X12134468Y-13699947D02*
X12143991Y-13738042D01*
X12143991Y-13738042D02*
X12143991Y-13785661D01*
X12143991Y-13785661D02*
X12134468Y-13823756D01*
X12134468Y-13823756D02*
X12124944Y-13842804D01*
X12124944Y-13842804D02*
X12115420Y-13852328D01*
X12115420Y-13852328D02*
X12096372Y-13861852D01*
X12096372Y-13861852D02*
X12077325Y-13861852D01*
X12077325Y-13861852D02*
X12058277Y-13852328D01*
X12058277Y-13852328D02*
X12048753Y-13842804D01*
X12048753Y-13842804D02*
X12039229Y-13823756D01*
X12039229Y-13823756D02*
X12029706Y-13785661D01*
X12029706Y-13785661D02*
X12029706Y-13738042D01*
X12029706Y-13738042D02*
X12039229Y-13699947D01*
X12039229Y-13699947D02*
X12048753Y-13680899D01*
X12048753Y-13680899D02*
X12058277Y-13671376D01*
X12058277Y-13671376D02*
X12077325Y-13661852D01*
X12382087Y-13861852D02*
X12382087Y-13661852D01*
X12467801Y-13861852D02*
X12467801Y-13757090D01*
X12467801Y-13757090D02*
X12458277Y-13738042D01*
X12458277Y-13738042D02*
X12439230Y-13728518D01*
X12439230Y-13728518D02*
X12410658Y-13728518D01*
X12410658Y-13728518D02*
X12391610Y-13738042D01*
X12391610Y-13738042D02*
X12382087Y-13747566D01*
X12591610Y-13861852D02*
X12572563Y-13852328D01*
X12572563Y-13852328D02*
X12563039Y-13842804D01*
X12563039Y-13842804D02*
X12553515Y-13823756D01*
X12553515Y-13823756D02*
X12553515Y-13766614D01*
X12553515Y-13766614D02*
X12563039Y-13747566D01*
X12563039Y-13747566D02*
X12572563Y-13738042D01*
X12572563Y-13738042D02*
X12591610Y-13728518D01*
X12591610Y-13728518D02*
X12620182Y-13728518D01*
X12620182Y-13728518D02*
X12639230Y-13738042D01*
X12639230Y-13738042D02*
X12648753Y-13747566D01*
X12648753Y-13747566D02*
X12658277Y-13766614D01*
X12658277Y-13766614D02*
X12658277Y-13823756D01*
X12658277Y-13823756D02*
X12648753Y-13842804D01*
X12648753Y-13842804D02*
X12639230Y-13852328D01*
X12639230Y-13852328D02*
X12620182Y-13861852D01*
X12620182Y-13861852D02*
X12591610Y-13861852D01*
X12772563Y-13861852D02*
X12753515Y-13852328D01*
X12753515Y-13852328D02*
X12743991Y-13833280D01*
X12743991Y-13833280D02*
X12743991Y-13661852D01*
X12924944Y-13852328D02*
X12905896Y-13861852D01*
X12905896Y-13861852D02*
X12867801Y-13861852D01*
X12867801Y-13861852D02*
X12848753Y-13852328D01*
X12848753Y-13852328D02*
X12839230Y-13833280D01*
X12839230Y-13833280D02*
X12839230Y-13757090D01*
X12839230Y-13757090D02*
X12848753Y-13738042D01*
X12848753Y-13738042D02*
X12867801Y-13728518D01*
X12867801Y-13728518D02*
X12905896Y-13728518D01*
X12905896Y-13728518D02*
X12924944Y-13738042D01*
X12924944Y-13738042D02*
X12934468Y-13757090D01*
X12934468Y-13757090D02*
X12934468Y-13776137D01*
X12934468Y-13776137D02*
X12839230Y-13795185D01*
X13010658Y-13852328D02*
X13029706Y-13861852D01*
X13029706Y-13861852D02*
X13067801Y-13861852D01*
X13067801Y-13861852D02*
X13086849Y-13852328D01*
X13086849Y-13852328D02*
X13096372Y-13833280D01*
X13096372Y-13833280D02*
X13096372Y-13823756D01*
X13096372Y-13823756D02*
X13086849Y-13804709D01*
X13086849Y-13804709D02*
X13067801Y-13795185D01*
X13067801Y-13795185D02*
X13039230Y-13795185D01*
X13039230Y-13795185D02*
X13020182Y-13785661D01*
X13020182Y-13785661D02*
X13010658Y-13766614D01*
X13010658Y-13766614D02*
X13010658Y-13757090D01*
X13010658Y-13757090D02*
X13020182Y-13738042D01*
X13020182Y-13738042D02*
X13039230Y-13728518D01*
X13039230Y-13728518D02*
X13067801Y-13728518D01*
X13067801Y-13728518D02*
X13086849Y-13738042D01*
X13163039Y-13938042D02*
X13172563Y-13928518D01*
X13172563Y-13928518D02*
X13191611Y-13899947D01*
X13191611Y-13899947D02*
X13201134Y-13880899D01*
X13201134Y-13880899D02*
X13210658Y-13852328D01*
X13210658Y-13852328D02*
X13220182Y-13804709D01*
X13220182Y-13804709D02*
X13220182Y-13766614D01*
X13220182Y-13766614D02*
X13210658Y-13718995D01*
X13210658Y-13718995D02*
X13201134Y-13690423D01*
X13201134Y-13690423D02*
X13191611Y-13671376D01*
X13191611Y-13671376D02*
X13172563Y-13642804D01*
X13172563Y-13642804D02*
X13163039Y-13633280D01*
X8168211Y-14105079D02*
X8168211Y-13963657D01*
X8026789Y-13963657D01*
X8026789Y-14105079D01*
X8168211Y-14105079D01*
X8448753Y-13944899D02*
X8458277Y-13935376D01*
X8458277Y-13935376D02*
X8477324Y-13925852D01*
X8477324Y-13925852D02*
X8524944Y-13925852D01*
X8524944Y-13925852D02*
X8543991Y-13935376D01*
X8543991Y-13935376D02*
X8553515Y-13944899D01*
X8553515Y-13944899D02*
X8563039Y-13963947D01*
X8563039Y-13963947D02*
X8563039Y-13982995D01*
X8563039Y-13982995D02*
X8553515Y-14011566D01*
X8553515Y-14011566D02*
X8439229Y-14125852D01*
X8439229Y-14125852D02*
X8563039Y-14125852D01*
X8648753Y-14106804D02*
X8658277Y-14116328D01*
X8658277Y-14116328D02*
X8648753Y-14125852D01*
X8648753Y-14125852D02*
X8639229Y-14116328D01*
X8639229Y-14116328D02*
X8648753Y-14106804D01*
X8648753Y-14106804D02*
X8648753Y-14125852D01*
X8734467Y-13944899D02*
X8743991Y-13935376D01*
X8743991Y-13935376D02*
X8763039Y-13925852D01*
X8763039Y-13925852D02*
X8810658Y-13925852D01*
X8810658Y-13925852D02*
X8829705Y-13935376D01*
X8829705Y-13935376D02*
X8839229Y-13944899D01*
X8839229Y-13944899D02*
X8848753Y-13963947D01*
X8848753Y-13963947D02*
X8848753Y-13982995D01*
X8848753Y-13982995D02*
X8839229Y-14011566D01*
X8839229Y-14011566D02*
X8724944Y-14125852D01*
X8724944Y-14125852D02*
X8848753Y-14125852D01*
X8972563Y-13925852D02*
X8991610Y-13925852D01*
X8991610Y-13925852D02*
X9010658Y-13935376D01*
X9010658Y-13935376D02*
X9020182Y-13944899D01*
X9020182Y-13944899D02*
X9029705Y-13963947D01*
X9029705Y-13963947D02*
X9039229Y-14002042D01*
X9039229Y-14002042D02*
X9039229Y-14049661D01*
X9039229Y-14049661D02*
X9029705Y-14087756D01*
X9029705Y-14087756D02*
X9020182Y-14106804D01*
X9020182Y-14106804D02*
X9010658Y-14116328D01*
X9010658Y-14116328D02*
X8991610Y-14125852D01*
X8991610Y-14125852D02*
X8972563Y-14125852D01*
X8972563Y-14125852D02*
X8953515Y-14116328D01*
X8953515Y-14116328D02*
X8943991Y-14106804D01*
X8943991Y-14106804D02*
X8934467Y-14087756D01*
X8934467Y-14087756D02*
X8924944Y-14049661D01*
X8924944Y-14049661D02*
X8924944Y-14002042D01*
X8924944Y-14002042D02*
X8934467Y-13963947D01*
X8934467Y-13963947D02*
X8943991Y-13944899D01*
X8943991Y-13944899D02*
X8953515Y-13935376D01*
X8953515Y-13935376D02*
X8972563Y-13925852D01*
X9163039Y-13925852D02*
X9182086Y-13925852D01*
X9182086Y-13925852D02*
X9201134Y-13935376D01*
X9201134Y-13935376D02*
X9210658Y-13944899D01*
X9210658Y-13944899D02*
X9220182Y-13963947D01*
X9220182Y-13963947D02*
X9229705Y-14002042D01*
X9229705Y-14002042D02*
X9229705Y-14049661D01*
X9229705Y-14049661D02*
X9220182Y-14087756D01*
X9220182Y-14087756D02*
X9210658Y-14106804D01*
X9210658Y-14106804D02*
X9201134Y-14116328D01*
X9201134Y-14116328D02*
X9182086Y-14125852D01*
X9182086Y-14125852D02*
X9163039Y-14125852D01*
X9163039Y-14125852D02*
X9143991Y-14116328D01*
X9143991Y-14116328D02*
X9134467Y-14106804D01*
X9134467Y-14106804D02*
X9124944Y-14087756D01*
X9124944Y-14087756D02*
X9115420Y-14049661D01*
X9115420Y-14049661D02*
X9115420Y-14002042D01*
X9115420Y-14002042D02*
X9124944Y-13963947D01*
X9124944Y-13963947D02*
X9134467Y-13944899D01*
X9134467Y-13944899D02*
X9143991Y-13935376D01*
X9143991Y-13935376D02*
X9163039Y-13925852D01*
X9315420Y-14125852D02*
X9315420Y-13992518D01*
X9315420Y-14011566D02*
X9324944Y-14002042D01*
X9324944Y-14002042D02*
X9343991Y-13992518D01*
X9343991Y-13992518D02*
X9372563Y-13992518D01*
X9372563Y-13992518D02*
X9391610Y-14002042D01*
X9391610Y-14002042D02*
X9401134Y-14021090D01*
X9401134Y-14021090D02*
X9401134Y-14125852D01*
X9401134Y-14021090D02*
X9410658Y-14002042D01*
X9410658Y-14002042D02*
X9429705Y-13992518D01*
X9429705Y-13992518D02*
X9458277Y-13992518D01*
X9458277Y-13992518D02*
X9477325Y-14002042D01*
X9477325Y-14002042D02*
X9486848Y-14021090D01*
X9486848Y-14021090D02*
X9486848Y-14125852D01*
X9582086Y-14125852D02*
X9582086Y-13992518D01*
X9582086Y-14011566D02*
X9591610Y-14002042D01*
X9591610Y-14002042D02*
X9610658Y-13992518D01*
X9610658Y-13992518D02*
X9639229Y-13992518D01*
X9639229Y-13992518D02*
X9658277Y-14002042D01*
X9658277Y-14002042D02*
X9667801Y-14021090D01*
X9667801Y-14021090D02*
X9667801Y-14125852D01*
X9667801Y-14021090D02*
X9677325Y-14002042D01*
X9677325Y-14002042D02*
X9696372Y-13992518D01*
X9696372Y-13992518D02*
X9724944Y-13992518D01*
X9724944Y-13992518D02*
X9743991Y-14002042D01*
X9743991Y-14002042D02*
X9753515Y-14021090D01*
X9753515Y-14021090D02*
X9753515Y-14125852D01*
X10143991Y-13916328D02*
X9972563Y-14173471D01*
X10401134Y-13925852D02*
X10420182Y-13925852D01*
X10420182Y-13925852D02*
X10439229Y-13935376D01*
X10439229Y-13935376D02*
X10448753Y-13944899D01*
X10448753Y-13944899D02*
X10458277Y-13963947D01*
X10458277Y-13963947D02*
X10467801Y-14002042D01*
X10467801Y-14002042D02*
X10467801Y-14049661D01*
X10467801Y-14049661D02*
X10458277Y-14087756D01*
X10458277Y-14087756D02*
X10448753Y-14106804D01*
X10448753Y-14106804D02*
X10439229Y-14116328D01*
X10439229Y-14116328D02*
X10420182Y-14125852D01*
X10420182Y-14125852D02*
X10401134Y-14125852D01*
X10401134Y-14125852D02*
X10382087Y-14116328D01*
X10382087Y-14116328D02*
X10372563Y-14106804D01*
X10372563Y-14106804D02*
X10363039Y-14087756D01*
X10363039Y-14087756D02*
X10353515Y-14049661D01*
X10353515Y-14049661D02*
X10353515Y-14002042D01*
X10353515Y-14002042D02*
X10363039Y-13963947D01*
X10363039Y-13963947D02*
X10372563Y-13944899D01*
X10372563Y-13944899D02*
X10382087Y-13935376D01*
X10382087Y-13935376D02*
X10401134Y-13925852D01*
X10553515Y-14106804D02*
X10563039Y-14116328D01*
X10563039Y-14116328D02*
X10553515Y-14125852D01*
X10553515Y-14125852D02*
X10543991Y-14116328D01*
X10543991Y-14116328D02*
X10553515Y-14106804D01*
X10553515Y-14106804D02*
X10553515Y-14125852D01*
X10686848Y-13925852D02*
X10705896Y-13925852D01*
X10705896Y-13925852D02*
X10724944Y-13935376D01*
X10724944Y-13935376D02*
X10734468Y-13944899D01*
X10734468Y-13944899D02*
X10743991Y-13963947D01*
X10743991Y-13963947D02*
X10753515Y-14002042D01*
X10753515Y-14002042D02*
X10753515Y-14049661D01*
X10753515Y-14049661D02*
X10743991Y-14087756D01*
X10743991Y-14087756D02*
X10734468Y-14106804D01*
X10734468Y-14106804D02*
X10724944Y-14116328D01*
X10724944Y-14116328D02*
X10705896Y-14125852D01*
X10705896Y-14125852D02*
X10686848Y-14125852D01*
X10686848Y-14125852D02*
X10667801Y-14116328D01*
X10667801Y-14116328D02*
X10658277Y-14106804D01*
X10658277Y-14106804D02*
X10648753Y-14087756D01*
X10648753Y-14087756D02*
X10639229Y-14049661D01*
X10639229Y-14049661D02*
X10639229Y-14002042D01*
X10639229Y-14002042D02*
X10648753Y-13963947D01*
X10648753Y-13963947D02*
X10658277Y-13944899D01*
X10658277Y-13944899D02*
X10667801Y-13935376D01*
X10667801Y-13935376D02*
X10686848Y-13925852D01*
X10867801Y-14011566D02*
X10848753Y-14002042D01*
X10848753Y-14002042D02*
X10839229Y-13992518D01*
X10839229Y-13992518D02*
X10829706Y-13973471D01*
X10829706Y-13973471D02*
X10829706Y-13963947D01*
X10829706Y-13963947D02*
X10839229Y-13944899D01*
X10839229Y-13944899D02*
X10848753Y-13935376D01*
X10848753Y-13935376D02*
X10867801Y-13925852D01*
X10867801Y-13925852D02*
X10905896Y-13925852D01*
X10905896Y-13925852D02*
X10924944Y-13935376D01*
X10924944Y-13935376D02*
X10934468Y-13944899D01*
X10934468Y-13944899D02*
X10943991Y-13963947D01*
X10943991Y-13963947D02*
X10943991Y-13973471D01*
X10943991Y-13973471D02*
X10934468Y-13992518D01*
X10934468Y-13992518D02*
X10924944Y-14002042D01*
X10924944Y-14002042D02*
X10905896Y-14011566D01*
X10905896Y-14011566D02*
X10867801Y-14011566D01*
X10867801Y-14011566D02*
X10848753Y-14021090D01*
X10848753Y-14021090D02*
X10839229Y-14030614D01*
X10839229Y-14030614D02*
X10829706Y-14049661D01*
X10829706Y-14049661D02*
X10829706Y-14087756D01*
X10829706Y-14087756D02*
X10839229Y-14106804D01*
X10839229Y-14106804D02*
X10848753Y-14116328D01*
X10848753Y-14116328D02*
X10867801Y-14125852D01*
X10867801Y-14125852D02*
X10905896Y-14125852D01*
X10905896Y-14125852D02*
X10924944Y-14116328D01*
X10924944Y-14116328D02*
X10934468Y-14106804D01*
X10934468Y-14106804D02*
X10943991Y-14087756D01*
X10943991Y-14087756D02*
X10943991Y-14049661D01*
X10943991Y-14049661D02*
X10934468Y-14030614D01*
X10934468Y-14030614D02*
X10924944Y-14021090D01*
X10924944Y-14021090D02*
X10905896Y-14011566D01*
X11115420Y-13925852D02*
X11077325Y-13925852D01*
X11077325Y-13925852D02*
X11058277Y-13935376D01*
X11058277Y-13935376D02*
X11048753Y-13944899D01*
X11048753Y-13944899D02*
X11029706Y-13973471D01*
X11029706Y-13973471D02*
X11020182Y-14011566D01*
X11020182Y-14011566D02*
X11020182Y-14087756D01*
X11020182Y-14087756D02*
X11029706Y-14106804D01*
X11029706Y-14106804D02*
X11039229Y-14116328D01*
X11039229Y-14116328D02*
X11058277Y-14125852D01*
X11058277Y-14125852D02*
X11096372Y-14125852D01*
X11096372Y-14125852D02*
X11115420Y-14116328D01*
X11115420Y-14116328D02*
X11124944Y-14106804D01*
X11124944Y-14106804D02*
X11134468Y-14087756D01*
X11134468Y-14087756D02*
X11134468Y-14040137D01*
X11134468Y-14040137D02*
X11124944Y-14021090D01*
X11124944Y-14021090D02*
X11115420Y-14011566D01*
X11115420Y-14011566D02*
X11096372Y-14002042D01*
X11096372Y-14002042D02*
X11058277Y-14002042D01*
X11058277Y-14002042D02*
X11039229Y-14011566D01*
X11039229Y-14011566D02*
X11029706Y-14021090D01*
X11029706Y-14021090D02*
X11020182Y-14040137D01*
X11305896Y-13925852D02*
X11267801Y-13925852D01*
X11267801Y-13925852D02*
X11248753Y-13935376D01*
X11248753Y-13935376D02*
X11239229Y-13944899D01*
X11239229Y-13944899D02*
X11220182Y-13973471D01*
X11220182Y-13973471D02*
X11210658Y-14011566D01*
X11210658Y-14011566D02*
X11210658Y-14087756D01*
X11210658Y-14087756D02*
X11220182Y-14106804D01*
X11220182Y-14106804D02*
X11229706Y-14116328D01*
X11229706Y-14116328D02*
X11248753Y-14125852D01*
X11248753Y-14125852D02*
X11286848Y-14125852D01*
X11286848Y-14125852D02*
X11305896Y-14116328D01*
X11305896Y-14116328D02*
X11315420Y-14106804D01*
X11315420Y-14106804D02*
X11324944Y-14087756D01*
X11324944Y-14087756D02*
X11324944Y-14040137D01*
X11324944Y-14040137D02*
X11315420Y-14021090D01*
X11315420Y-14021090D02*
X11305896Y-14011566D01*
X11305896Y-14011566D02*
X11286848Y-14002042D01*
X11286848Y-14002042D02*
X11248753Y-14002042D01*
X11248753Y-14002042D02*
X11229706Y-14011566D01*
X11229706Y-14011566D02*
X11220182Y-14021090D01*
X11220182Y-14021090D02*
X11210658Y-14040137D01*
X11401134Y-13925852D02*
X11401134Y-13963947D01*
X11477325Y-13925852D02*
X11477325Y-13963947D01*
X11772563Y-14202042D02*
X11763039Y-14192518D01*
X11763039Y-14192518D02*
X11743991Y-14163947D01*
X11743991Y-14163947D02*
X11734468Y-14144899D01*
X11734468Y-14144899D02*
X11724944Y-14116328D01*
X11724944Y-14116328D02*
X11715420Y-14068709D01*
X11715420Y-14068709D02*
X11715420Y-14030614D01*
X11715420Y-14030614D02*
X11724944Y-13982995D01*
X11724944Y-13982995D02*
X11734468Y-13954423D01*
X11734468Y-13954423D02*
X11743991Y-13935376D01*
X11743991Y-13935376D02*
X11763039Y-13906804D01*
X11763039Y-13906804D02*
X11772563Y-13897280D01*
X11934468Y-13992518D02*
X11934468Y-14125852D01*
X11886848Y-13916328D02*
X11839229Y-14059185D01*
X11839229Y-14059185D02*
X11963039Y-14059185D01*
X12191610Y-14125852D02*
X12191610Y-13925852D01*
X12277325Y-14125852D02*
X12277325Y-14021090D01*
X12277325Y-14021090D02*
X12267801Y-14002042D01*
X12267801Y-14002042D02*
X12248753Y-13992518D01*
X12248753Y-13992518D02*
X12220182Y-13992518D01*
X12220182Y-13992518D02*
X12201134Y-14002042D01*
X12201134Y-14002042D02*
X12191610Y-14011566D01*
X12401134Y-14125852D02*
X12382087Y-14116328D01*
X12382087Y-14116328D02*
X12372563Y-14106804D01*
X12372563Y-14106804D02*
X12363039Y-14087756D01*
X12363039Y-14087756D02*
X12363039Y-14030614D01*
X12363039Y-14030614D02*
X12372563Y-14011566D01*
X12372563Y-14011566D02*
X12382087Y-14002042D01*
X12382087Y-14002042D02*
X12401134Y-13992518D01*
X12401134Y-13992518D02*
X12429706Y-13992518D01*
X12429706Y-13992518D02*
X12448753Y-14002042D01*
X12448753Y-14002042D02*
X12458277Y-14011566D01*
X12458277Y-14011566D02*
X12467801Y-14030614D01*
X12467801Y-14030614D02*
X12467801Y-14087756D01*
X12467801Y-14087756D02*
X12458277Y-14106804D01*
X12458277Y-14106804D02*
X12448753Y-14116328D01*
X12448753Y-14116328D02*
X12429706Y-14125852D01*
X12429706Y-14125852D02*
X12401134Y-14125852D01*
X12582087Y-14125852D02*
X12563039Y-14116328D01*
X12563039Y-14116328D02*
X12553515Y-14097280D01*
X12553515Y-14097280D02*
X12553515Y-13925852D01*
X12734468Y-14116328D02*
X12715420Y-14125852D01*
X12715420Y-14125852D02*
X12677325Y-14125852D01*
X12677325Y-14125852D02*
X12658277Y-14116328D01*
X12658277Y-14116328D02*
X12648753Y-14097280D01*
X12648753Y-14097280D02*
X12648753Y-14021090D01*
X12648753Y-14021090D02*
X12658277Y-14002042D01*
X12658277Y-14002042D02*
X12677325Y-13992518D01*
X12677325Y-13992518D02*
X12715420Y-13992518D01*
X12715420Y-13992518D02*
X12734468Y-14002042D01*
X12734468Y-14002042D02*
X12743991Y-14021090D01*
X12743991Y-14021090D02*
X12743991Y-14040137D01*
X12743991Y-14040137D02*
X12648753Y-14059185D01*
X12820182Y-14116328D02*
X12839230Y-14125852D01*
X12839230Y-14125852D02*
X12877325Y-14125852D01*
X12877325Y-14125852D02*
X12896372Y-14116328D01*
X12896372Y-14116328D02*
X12905896Y-14097280D01*
X12905896Y-14097280D02*
X12905896Y-14087756D01*
X12905896Y-14087756D02*
X12896372Y-14068709D01*
X12896372Y-14068709D02*
X12877325Y-14059185D01*
X12877325Y-14059185D02*
X12848753Y-14059185D01*
X12848753Y-14059185D02*
X12829706Y-14049661D01*
X12829706Y-14049661D02*
X12820182Y-14030614D01*
X12820182Y-14030614D02*
X12820182Y-14021090D01*
X12820182Y-14021090D02*
X12829706Y-14002042D01*
X12829706Y-14002042D02*
X12848753Y-13992518D01*
X12848753Y-13992518D02*
X12877325Y-13992518D01*
X12877325Y-13992518D02*
X12896372Y-14002042D01*
X12972563Y-14202042D02*
X12982087Y-14192518D01*
X12982087Y-14192518D02*
X13001134Y-14163947D01*
X13001134Y-14163947D02*
X13010658Y-14144899D01*
X13010658Y-14144899D02*
X13020182Y-14116328D01*
X13020182Y-14116328D02*
X13029706Y-14068709D01*
X13029706Y-14068709D02*
X13029706Y-14030614D01*
X13029706Y-14030614D02*
X13020182Y-13982995D01*
X13020182Y-13982995D02*
X13010658Y-13954423D01*
X13010658Y-13954423D02*
X13001134Y-13935376D01*
X13001134Y-13935376D02*
X12982087Y-13906804D01*
X12982087Y-13906804D02*
X12972563Y-13897280D01*
M02*
