G04 #@! TF.GenerationSoftware,KiCad,Pcbnew,8.0.1*
G04 #@! TF.CreationDate,2026-03-29T22:00:47+02:00*
G04 #@! TF.ProjectId,receiver,72656365-6976-4657-922e-6b696361645f,rev?*
G04 #@! TF.SameCoordinates,Original*
G04 #@! TF.FileFunction,Paste,Top*
G04 #@! TF.FilePolarity,Positive*
%FSLAX46Y46*%
G04 Gerber Fmt 4.6, Leading zero omitted, Abs format (unit mm)*
G04 Created by KiCad (PCBNEW 8.0.1) date 2026-03-29 22:00:47*
%MOMM*%
%LPD*%
G01*
G04 APERTURE LIST*
G04 Aperture macros list*
%AMRoundRect*
0 Rectangle with rounded corners*
0 $1 Rounding radius*
0 $2 $3 $4 $5 $6 $7 $8 $9 X,Y pos of 4 corners*
0 Add a 4 corners polygon primitive as box body*
4,1,4,$2,$3,$4,$5,$6,$7,$8,$9,$2,$3,0*
0 Add four circle primitives for the rounded corners*
1,1,$1+$1,$2,$3*
1,1,$1+$1,$4,$5*
1,1,$1+$1,$6,$7*
1,1,$1+$1,$8,$9*
0 Add four rect primitives between the rounded corners*
20,1,$1+$1,$2,$3,$4,$5,0*
20,1,$1+$1,$4,$5,$6,$7,0*
20,1,$1+$1,$6,$7,$8,$9,0*
20,1,$1+$1,$8,$9,$2,$3,0*%
G04 Aperture macros list end*
%ADD10RoundRect,0.237500X0.237500X-0.250000X0.237500X0.250000X-0.237500X0.250000X-0.237500X-0.250000X0*%
%ADD11RoundRect,0.250000X-0.325000X-0.450000X0.325000X-0.450000X0.325000X0.450000X-0.325000X0.450000X0*%
%ADD12RoundRect,0.250000X0.337500X0.475000X-0.337500X0.475000X-0.337500X-0.475000X0.337500X-0.475000X0*%
%ADD13RoundRect,0.237500X0.300000X0.237500X-0.300000X0.237500X-0.300000X-0.237500X0.300000X-0.237500X0*%
%ADD14RoundRect,0.237500X-0.300000X-0.237500X0.300000X-0.237500X0.300000X0.237500X-0.300000X0.237500X0*%
%ADD15RoundRect,0.237500X-0.237500X0.300000X-0.237500X-0.300000X0.237500X-0.300000X0.237500X0.300000X0*%
%ADD16RoundRect,0.237500X-0.237500X0.250000X-0.237500X-0.250000X0.237500X-0.250000X0.237500X0.250000X0*%
%ADD17RoundRect,0.250000X-0.337500X-0.475000X0.337500X-0.475000X0.337500X0.475000X-0.337500X0.475000X0*%
%ADD18RoundRect,0.212500X-0.212500X-0.212500X0.212500X-0.212500X0.212500X0.212500X-0.212500X0.212500X0*%
%ADD19RoundRect,0.075000X-0.350000X-0.075000X0.350000X-0.075000X0.350000X0.075000X-0.350000X0.075000X0*%
%ADD20RoundRect,0.075000X-0.075000X-0.350000X0.075000X-0.350000X0.075000X0.350000X-0.075000X0.350000X0*%
%ADD21R,1.750000X0.450000*%
%ADD22RoundRect,0.237500X0.237500X-0.300000X0.237500X0.300000X-0.237500X0.300000X-0.237500X-0.300000X0*%
%ADD23RoundRect,0.237500X-0.250000X-0.237500X0.250000X-0.237500X0.250000X0.237500X-0.250000X0.237500X0*%
%ADD24R,0.760000X1.400000*%
%ADD25RoundRect,0.237500X0.250000X0.237500X-0.250000X0.237500X-0.250000X-0.237500X0.250000X-0.237500X0*%
%ADD26RoundRect,0.375000X-0.375000X0.625000X-0.375000X-0.625000X0.375000X-0.625000X0.375000X0.625000X0*%
%ADD27RoundRect,0.500000X-1.400000X0.500000X-1.400000X-0.500000X1.400000X-0.500000X1.400000X0.500000X0*%
%ADD28RoundRect,0.237500X-0.287500X-0.237500X0.287500X-0.237500X0.287500X0.237500X-0.287500X0.237500X0*%
%ADD29R,2.000000X0.500000*%
%ADD30R,1.700000X2.000000*%
%ADD31RoundRect,0.250000X0.325000X0.450000X-0.325000X0.450000X-0.325000X-0.450000X0.325000X-0.450000X0*%
%ADD32R,1.000000X1.000000*%
%ADD33R,2.200000X1.050000*%
%ADD34RoundRect,0.237500X0.237500X-0.287500X0.237500X0.287500X-0.237500X0.287500X-0.237500X-0.287500X0*%
%ADD35RoundRect,0.145000X0.145000X0.145000X-0.145000X0.145000X-0.145000X-0.145000X0.145000X-0.145000X0*%
%ADD36RoundRect,0.062500X0.375000X0.062500X-0.375000X0.062500X-0.375000X-0.062500X0.375000X-0.062500X0*%
%ADD37RoundRect,0.062500X0.062500X0.375000X-0.062500X0.375000X-0.062500X-0.375000X0.062500X-0.375000X0*%
%ADD38RoundRect,0.250000X0.250000X0.550000X-0.250000X0.550000X-0.250000X-0.550000X0.250000X-0.550000X0*%
%ADD39RoundRect,0.100000X0.637500X0.100000X-0.637500X0.100000X-0.637500X-0.100000X0.637500X-0.100000X0*%
%ADD40RoundRect,0.125000X-0.625000X-0.125000X0.625000X-0.125000X0.625000X0.125000X-0.625000X0.125000X0*%
%ADD41RoundRect,0.125000X-0.125000X-0.625000X0.125000X-0.625000X0.125000X0.625000X-0.125000X0.625000X0*%
%ADD42R,1.200000X1.200000*%
%ADD43R,1.600000X1.500000*%
G04 APERTURE END LIST*
D10*
X104600000Y-100952500D03*
X104600000Y-99127500D03*
D11*
X117017500Y-79085000D03*
X119067500Y-79085000D03*
D12*
X97467500Y-96960000D03*
X95392500Y-96960000D03*
D11*
X117010000Y-76695000D03*
X119060000Y-76695000D03*
D13*
X90532500Y-116602500D03*
X88807500Y-116602500D03*
D14*
X111387500Y-86125000D03*
X113112500Y-86125000D03*
D10*
X100580000Y-100897500D03*
X100580000Y-99072500D03*
D15*
X100550000Y-110525000D03*
X100550000Y-112250000D03*
D13*
X109073750Y-103965000D03*
X107348750Y-103965000D03*
D16*
X132872500Y-99207500D03*
X132872500Y-101032500D03*
D17*
X104562500Y-97040000D03*
X106637500Y-97040000D03*
D18*
X98790000Y-106147500D03*
X98790000Y-107197500D03*
X99840000Y-106147500D03*
X99840000Y-107197500D03*
D19*
X97365000Y-105697500D03*
X97365000Y-106347500D03*
X97365000Y-106997500D03*
X97365000Y-107647500D03*
D20*
X98340000Y-108622500D03*
X98990000Y-108622500D03*
X99640000Y-108622500D03*
X100290000Y-108622500D03*
D19*
X101265000Y-107647500D03*
X101265000Y-106997500D03*
X101265000Y-106347500D03*
X101265000Y-105697500D03*
D20*
X100290000Y-104722500D03*
X99640000Y-104722500D03*
X98990000Y-104722500D03*
X98340000Y-104722500D03*
D21*
X122870000Y-91320000D03*
X122870000Y-90670000D03*
X122870000Y-90020000D03*
X122870000Y-89370000D03*
X122870000Y-88720000D03*
X122870000Y-88070000D03*
X122870000Y-87420000D03*
X122870000Y-86770000D03*
X122870000Y-86120000D03*
X122870000Y-85470000D03*
X122870000Y-84820000D03*
X122870000Y-84170000D03*
X122870000Y-83520000D03*
X122870000Y-82870000D03*
X115670000Y-82870000D03*
X115670000Y-83520000D03*
X115670000Y-84170000D03*
X115670000Y-84820000D03*
X115670000Y-85470000D03*
X115670000Y-86120000D03*
X115670000Y-86770000D03*
X115670000Y-87420000D03*
X115670000Y-88070000D03*
X115670000Y-88720000D03*
X115670000Y-89370000D03*
X115670000Y-90020000D03*
X115670000Y-90670000D03*
X115670000Y-91320000D03*
D14*
X93027500Y-105832500D03*
X94752500Y-105832500D03*
D22*
X98925000Y-82687500D03*
X98925000Y-80962500D03*
D16*
X121880000Y-74172500D03*
X121880000Y-75997500D03*
D15*
X113310000Y-80492500D03*
X113310000Y-82217500D03*
D14*
X105177500Y-106990000D03*
X106902500Y-106990000D03*
D22*
X86750000Y-112920000D03*
X86750000Y-111195000D03*
D13*
X94762500Y-107482500D03*
X93037500Y-107482500D03*
D23*
X94825000Y-110287500D03*
X96650000Y-110287500D03*
D24*
X90420000Y-105772500D03*
X87880000Y-105772500D03*
X87880000Y-109202500D03*
X89150000Y-109202500D03*
X90420000Y-109202500D03*
D25*
X119373750Y-101755000D03*
X117548750Y-101755000D03*
D26*
X130992500Y-104220000D03*
X128692500Y-104220000D03*
D27*
X128692500Y-110520000D03*
D26*
X126392500Y-104220000D03*
D13*
X96307500Y-87795000D03*
X94582500Y-87795000D03*
X96412500Y-118187500D03*
X94687500Y-118187500D03*
D14*
X128717500Y-101640000D03*
X130442500Y-101640000D03*
D28*
X88795000Y-113002500D03*
X90545000Y-113002500D03*
D29*
X129380000Y-87485000D03*
X129380000Y-86685000D03*
X129380000Y-85885000D03*
X129380000Y-85085000D03*
X129380000Y-84285000D03*
D30*
X129480000Y-90335000D03*
X134930000Y-90335000D03*
X129480000Y-81435000D03*
X134930000Y-81435000D03*
D12*
X93447500Y-96977500D03*
X91372500Y-96977500D03*
D31*
X130795000Y-99180000D03*
X128745000Y-99180000D03*
D32*
X106670000Y-117702500D03*
D33*
X108170000Y-116227500D03*
D32*
X109670000Y-117702500D03*
D33*
X108170000Y-119177500D03*
D34*
X104210000Y-117760000D03*
X104210000Y-116010000D03*
D13*
X126435000Y-101620000D03*
X124710000Y-101620000D03*
D10*
X93450000Y-101000000D03*
X93450000Y-99175000D03*
D34*
X99960000Y-122760000D03*
X99960000Y-121010000D03*
D14*
X88782500Y-111160000D03*
X90507500Y-111160000D03*
X86017500Y-93385000D03*
X87742500Y-93385000D03*
D15*
X94670000Y-114840000D03*
X94670000Y-116565000D03*
D22*
X90220000Y-82857500D03*
X90220000Y-81132500D03*
D15*
X108275000Y-91412500D03*
X108275000Y-93137500D03*
D35*
X100070000Y-118307500D03*
X100070000Y-117587500D03*
X99350000Y-118307500D03*
X99350000Y-117587500D03*
D36*
X101147500Y-118697500D03*
X101147500Y-118197500D03*
X101147500Y-117697500D03*
X101147500Y-117197500D03*
D37*
X100460000Y-116510000D03*
X99960000Y-116510000D03*
X99460000Y-116510000D03*
X98960000Y-116510000D03*
D36*
X98272500Y-117197500D03*
X98272500Y-117697500D03*
X98272500Y-118197500D03*
X98272500Y-118697500D03*
D37*
X98960000Y-119385000D03*
X99460000Y-119385000D03*
X99960000Y-119385000D03*
X100460000Y-119385000D03*
D14*
X99557500Y-114775000D03*
X101282500Y-114775000D03*
D15*
X102450000Y-110425000D03*
X102450000Y-112150000D03*
D16*
X123970000Y-78442500D03*
X123970000Y-80267500D03*
D23*
X94087500Y-77500000D03*
X95912500Y-77500000D03*
D38*
X93090000Y-73225000D03*
X91340000Y-75525000D03*
X89590000Y-73225000D03*
D10*
X97570000Y-100982500D03*
X97570000Y-99157500D03*
D22*
X97860000Y-122747500D03*
X97860000Y-121022500D03*
D13*
X96382500Y-89595000D03*
X94657500Y-89595000D03*
X109093750Y-102255000D03*
X107368750Y-102255000D03*
D16*
X124500000Y-74092500D03*
X124500000Y-75917500D03*
D39*
X114873750Y-107640000D03*
X114873750Y-106990000D03*
X114873750Y-106340000D03*
X114873750Y-105690000D03*
X109148750Y-105690000D03*
X109148750Y-106340000D03*
X109148750Y-106990000D03*
X109148750Y-107640000D03*
D13*
X90522500Y-114942500D03*
X88797500Y-114942500D03*
D40*
X99445000Y-84295000D03*
X99445000Y-85095000D03*
X99445000Y-85895000D03*
X99445000Y-86695000D03*
X99445000Y-87495000D03*
X99445000Y-88295000D03*
X99445000Y-89095000D03*
X99445000Y-89895000D03*
D41*
X100820000Y-91270000D03*
X101620000Y-91270000D03*
X102420000Y-91270000D03*
X103220000Y-91270000D03*
X104020000Y-91270000D03*
X104820000Y-91270000D03*
X105620000Y-91270000D03*
X106420000Y-91270000D03*
D40*
X107795000Y-89895000D03*
X107795000Y-89095000D03*
X107795000Y-88295000D03*
X107795000Y-87495000D03*
X107795000Y-86695000D03*
X107795000Y-85895000D03*
X107795000Y-85095000D03*
X107795000Y-84295000D03*
D41*
X106420000Y-82920000D03*
X105620000Y-82920000D03*
X104820000Y-82920000D03*
X104020000Y-82920000D03*
X103220000Y-82920000D03*
X102420000Y-82920000D03*
X101620000Y-82920000D03*
X100820000Y-82920000D03*
D34*
X92570000Y-116577500D03*
X92570000Y-114827500D03*
D15*
X98550000Y-110525000D03*
X98550000Y-112250000D03*
D14*
X102987500Y-105387500D03*
X104712500Y-105387500D03*
X111387500Y-84495000D03*
X113112500Y-84495000D03*
D42*
X119421250Y-103755000D03*
D43*
X118421250Y-107005000D03*
D42*
X117421250Y-103755000D03*
D22*
X96875000Y-82657500D03*
X96875000Y-80932500D03*
D15*
X90420000Y-87692500D03*
X90420000Y-89417500D03*
D17*
X100642500Y-97085000D03*
X102717500Y-97085000D03*
M02*
