M48
; DRILL file {KiCad 8.0.1} date 2026-03-29T21:59:57+0200
; FORMAT={-:-/ absolute / metric / decimal}
; #@! TF.CreationDate,2026-03-29T21:59:57+02:00
; #@! TF.GenerationSoftware,Kicad,Pcbnew,8.0.1
; #@! TF.FileFunction,Plated,1,2,PTH
FMAT,2
METRIC
; #@! TA.AperFunction,Plated,PTH,ViaDrill
T1C0.300
; #@! TA.AperFunction,Plated,PTH,ComponentDrill
T2C0.800
; #@! TA.AperFunction,Plated,PTH,ComponentDrill
T3C1.000
; #@! TA.AperFunction,Plated,PTH,ComponentDrill
T4C2.200
%
G90
G05
T1
X84.61Y-107.91
X85.76Y-116.27
X89.96Y-102.46
X90.02Y-99.87
X91.32Y-119.71
X91.81Y-93.55
X93.58Y-112.54
X94.66Y-90.855
X94.73Y-121.97
X94.95Y-101.4
X95.06Y-99.07
X96.32Y-105.277
X96.41Y-108.347
X96.88Y-114.33
X97.07Y-111.787
X98.89Y-96.335
X98.97Y-101.16
X99.315Y-106.672
X99.71Y-117.947
X101.47Y-120.302
X102.1Y-106.347
X102.13Y-108.067
X102.47Y-118.602
X102.57Y-116.802
X102.73Y-99.05
X102.73Y-101.49
X102.95Y-107.688
X102.987Y-106.347
X104.4Y-77.8
X105.227Y-93.472
X106.14Y-110.02
X106.29Y-79.51
X109.13Y-96.49
X109.24Y-87.805
X109.69Y-89.445
X111.1Y-92.225
X112.31Y-102.56
X112.67Y-114.402
X112.84Y-110.42
X112.93Y-87.835
X112.97Y-118.902
X113.38Y-94.525
X113.69Y-106.59
X113.95Y-89.295
X113.995Y-87.42
X114.58Y-99.2
X114.6Y-78.0
X115.24Y-79.875
X117.18Y-86.995
X117.32Y-84.615
X117.76Y-118.3
X118.88Y-114.43
X119.01Y-110.09
X120.9Y-98.85
X122.76Y-72.375
X124.537Y-87.462
X125.4Y-95.835
X125.9Y-113.9
X127.21Y-77.005
X127.3Y-95.835
X127.88Y-72.325
X129.24Y-78.565
X130.4Y-114.0
T2
X86.37Y-82.845
X86.37Y-87.725
T3
X85.88Y-95.885
X85.88Y-100.885
X97.89Y-73.875
X100.43Y-73.875
X102.97Y-73.875
X105.51Y-73.875
X109.89Y-73.785
X112.43Y-73.785
X114.97Y-73.785
X117.51Y-73.785
T4
X85.5Y-73.5
X85.5Y-122.5
X133.5Y-73.5
X133.5Y-122.5
M30
